<svg height="21.019" viewBox="0 0 21.123 21.019" width="21.123" xmlns="http://www.w3.org/2000/svg">
  <path
      d="M19.717,15.949c-1.845-1.6-3.552-3.846-3.552-9.466a5.9,5.9,0,0,0-11.806,0c0,5.625-1.707,7.874-3.553,9.468A2.337,2.337,0,0,0,0,17.712a.671.671,0,0,0,.671.671H7.044a3.287,3.287,0,0,0,6.436,0h6.372a.671.671,0,0,0,.671-.671A2.324,2.324,0,0,0,19.717,15.949Zm-9.455,3.708a1.948,1.948,0,0,1-1.825-1.273h3.649A1.948,1.948,0,0,1,10.262,19.657ZM1.607,17.04a.989.989,0,0,1,.078-.076C4.5,14.534,5.7,11.4,5.7,6.482a4.56,4.56,0,0,1,9.12,0c0,4.913,1.2,8.047,4.018,10.483a1,1,0,0,1,.078.075Z"
      fill="#fff" id="bell" stroke="#fff" stroke-width="0.6" transform="translate(0.3 -0.28)" />
</svg>
