<svg height="28.423" viewBox="0 0 18.166 28.423" width="18.166" xmlns="http://www.w3.org/2000/svg">
  <path d="M95.926,11.73a.917.917,0,0,1-.917-.917V10.52a.917.917,0,0,1,1.834,0v.293A.917.917,0,0,1,95.926,11.73Zm5.343-.917V10.52a.917.917,0,0,0-1.834,0v.293a.917.917,0,0,0,1.834,0Zm5.176.69a1.633,1.633,0,0,1-.311.037A8.253,8.253,0,0,1,89.906,9.591V8.08a8.234,8.234,0,0,1,16.466.264,1.076,1.076,0,0,0,.558.664A1.319,1.319,0,0,1,106.445,11.5Zm-2.023-.711c-1.115-.912-1.9-2.337-2.869-3.041A5.023,5.023,0,0,0,97,7.545a3.76,3.76,0,0,0-.961.622A11.5,11.5,0,0,1,91.78,10.3a6.254,6.254,0,0,0,6.205,5.536h.306a6.256,6.256,0,0,0,6.13-5.045ZM98.264,21.341a1.784,1.784,0,0,0,1.647-1.656c.025-.389-.077-1.161-.649-1.161H97.014a.543.543,0,0,0-.5.316A1.778,1.778,0,0,0,98.264,21.341Zm4.239-2.294a.547.547,0,0,0-.754.514,3.61,3.61,0,1,1-7.22,0,.547.547,0,0,0-.754-.514A6.925,6.925,0,0,0,89.5,25.439v2.067a.917.917,0,0,0,.917.917h15.451a.917.917,0,0,0,.917-.917V25.439A6.925,6.925,0,0,0,102.5,19.047Z" fill="#8e44ad" id="child" transform="translate(-89.496)" />
</svg>
