<svg height="25.235" viewBox="0 0 36.05 25.235" width="36.05" xmlns="http://www.w3.org/2000/svg">
    <g id="Page-1" transform="translate(0 0)">
        <g data-name="022---Surgical-Mask" id="_022---Surgical-Mask" transform="translate(0 0)">
            <path d="M12.4,6.6h.012a9.506,9.506,0,0,0,7.273-3.692,3,3,0,0,1,4.655-.005,9.514,9.514,0,0,0,7.276,3.7h.011l2.4,0v-.6a1.2,1.2,0,0,0-1.2-1.2h-.907a8.01,8.01,0,0,1-6.183-3.034,4.8,4.8,0,0,0-7.45,0,8.01,8.01,0,0,1-6.183,3.034H11.2a1.2,1.2,0,0,0-1.2,1.2v.6Z" fill="#27ae60" id="Shape" transform="translate(-3.992 0)" />
            <path d="M31.63,9.8h-.013A10.709,10.709,0,0,1,23.41,5.66a1.8,1.8,0,0,0-2.791,0A10.645,10.645,0,0,1,12.4,9.8l-2.4,0v4.807A12.558,12.558,0,0,0,21.088,27.178a8.28,8.28,0,0,0,1.858,0A12.558,12.558,0,0,0,34.033,14.612V9.806ZM14.3,11.615a50.753,50.753,0,0,0,15.437,0A.6.6,0,1,1,29.92,12.8a51.454,51.454,0,0,1-7.9.6,51.454,51.454,0,0,1-7.9-.6.6.6,0,0,1,.185-1.187Zm-.666,4.018a.6.6,0,0,1,.752-.4,25.54,25.54,0,0,0,15.265,0,.6.6,0,0,1,.357,1.148,26.812,26.812,0,0,1-7.989,1.223,26.812,26.812,0,0,1-7.991-1.222.6.6,0,0,1-.394-.754Zm16.455,4.927a18.386,18.386,0,0,1-16.14,0,.6.6,0,1,1,.518-1.082,17.2,17.2,0,0,0,15.1,0,.6.6,0,1,1,.518,1.082Z" data-name="Shape" fill="#27ae60" id="Shape-2" transform="translate(-3.991 -1.995)" />
            <path d="M5.576,20.818C2.463,20.085,0,17.352,0,14.408v-3A2.4,2.4,0,0,1,2.4,9H4.885a2.2,2.2,0,0,0-.078.6v.6H2.4a1.205,1.205,0,0,0-1.2,1.2v3a5.645,5.645,0,0,0,3.978,5.035A13.364,13.364,0,0,0,5.576,20.818Z" data-name="Shape" fill="#27ae60" id="Shape-3" transform="translate(0 -3.592)" />
            <path d="M56.3,11.4v3c0,2.944-2.463,5.678-5.576,6.411a13.366,13.366,0,0,0,.4-1.376,5.645,5.645,0,0,0,3.978-5.035v-3a1.205,1.205,0,0,0-1.2-1.2h-2.4V9.6a2.2,2.2,0,0,0-.078-.6h2.481A2.4,2.4,0,0,1,56.3,11.4Z" data-name="Shape" fill="#27ae60" id="Shape-4" transform="translate(-20.245 -3.592)" />
        </g>
    </g>
</svg>
