<svg height="23.445" viewBox="0 0 29.306 23.445" width="29.306" xmlns="http://www.w3.org/2000/svg">
    <path d="M5.283,6.268l4.676,1.7C11.57,4.237,13.906,1.364,16.324.017A13.7,13.7,0,0,0,4.943,5.137a.733.733,0,0,0,.34,1.132Zm6.056,2.205,10.92,3.976C23.9,6.892,23.115,1.842,20.307.82A3.065,3.065,0,0,0,19.25.637c-2.657,0-5.873,3.167-7.911,7.837Zm12.539-5.7a10.386,10.386,0,0,1,.6,2.527,19.625,19.625,0,0,1-.868,7.646l4.7,1.711a.733.733,0,0,0,.988-.649A13.71,13.71,0,0,0,23.878,2.77Zm1.764,17.743H14.7l2.974-8.173-2.754-1-3.338,9.175H.733A.733.733,0,0,0,0,21.245v1.466a.733.733,0,0,0,.733.733h24.91a.733.733,0,0,0,.733-.733V21.245a.732.732,0,0,0-.733-.733Z" fill="#3498db" transform="translate(0 0)" />
</svg>