<svg width="17" height="16" viewBox="0 0 17 16" fill="none" xmlns="http://www.w3.org/2000/svg">
<g clip-path="url(#clip0_4018_15108)">
<path fill-rule="evenodd" clip-rule="evenodd" d="M5.36925 2.6665C5.11954 2.66658 4.87429 2.72877 4.65835 2.84679C4.4424 2.9648 4.26344 3.13443 4.13958 3.3385L1.60375 7.51517C1.48122 7.71674 1.41676 7.94494 1.41675 8.17717V11.1758C1.41676 11.3827 1.46793 11.5868 1.56621 11.7718L2.35812 13.2625C2.47575 13.484 2.65661 13.6704 2.88043 13.8006C3.10425 13.9308 3.36219 13.9998 3.62533 13.9998H4.25008C4.6258 13.9998 4.98614 13.8594 5.25182 13.6093C5.51749 13.3593 5.66675 13.0201 5.66675 12.6665H11.3334C11.3334 13.0201 11.4827 13.3593 11.7483 13.6093C12.014 13.8594 12.3744 13.9998 12.7501 13.9998H13.3748C13.638 13.9998 13.8959 13.9308 14.1197 13.8006C14.3436 13.6704 14.5244 13.484 14.642 13.2625L15.434 11.7718C15.5324 11.5872 15.5834 11.3825 15.5834 11.1758V8.17717C15.5834 7.94494 15.5189 7.71674 15.3964 7.51517L12.8606 3.3385C12.7367 3.13443 12.5578 2.9648 12.3418 2.84679C12.1259 2.72877 11.8806 2.66658 11.6309 2.6665H5.36925ZM8.50008 7.99984C7.36887 7.99984 6.32408 7.77117 5.27504 7.40317C5.1069 7.32414 4.9123 7.3112 4.73403 7.36721C4.55576 7.42322 4.40843 7.54359 4.32446 7.70184C4.24048 7.86008 4.22674 8.04324 4.28625 8.21103C4.34576 8.37881 4.47365 8.51747 4.64179 8.5965C4.99171 8.75984 6.77175 9.33317 8.50008 9.33317C9.81333 9.33317 11.1691 9.1505 12.357 8.59717C12.5242 8.51711 12.6514 8.37838 12.711 8.2109C12.7707 8.04342 12.758 7.8606 12.6757 7.70184C12.6342 7.62346 12.5766 7.55355 12.5063 7.49611C12.4361 7.43868 12.3545 7.39484 12.2662 7.3671C12.1779 7.33937 12.0847 7.32827 11.9918 7.33446C11.899 7.34065 11.8084 7.364 11.7251 7.40317C10.7582 7.85784 9.55975 7.99984 8.50008 7.99984Z" fill="#727D8F"/>
</g>
<defs>
<clipPath id="clip0_4018_15108">
<rect width="17" height="16" fill="white"/>
</clipPath>
</defs>
</svg>
