<svg width="19" height="18" viewBox="0 0 19 18" fill="none" xmlns="http://www.w3.org/2000/svg">
<path d="M10.3438 0.84375C10.3438 0.376172 9.96763 0 9.50005 0C9.03247 0 8.6563 0.376172 8.6563 0.84375V3.65625C8.6563 4.12383 9.03247 4.5 9.50005 4.5C9.96763 4.5 10.3438 4.12383 10.3438 3.65625V0.84375ZM7.03208 7.875H11.968C12.2071 7.875 12.418 8.02617 12.4989 8.24766L13.1668 10.125H5.83325L6.50474 8.24766C6.5856 8.02266 6.79653 7.875 7.0356 7.875H7.03208ZM4.38481 7.4918L3.38989 10.2797C2.68325 10.5785 2.18755 11.2781 2.18755 12.0938V16.875C2.18755 17.4973 2.69028 18 3.31255 18H3.87505C4.49731 18 5.00005 17.4973 5.00005 16.875V15.75H14V16.875C14 17.4973 14.5028 18 15.125 18H15.6875C16.3098 18 16.8125 17.4973 16.8125 16.875V12.0938C16.8125 11.2781 16.3168 10.5785 15.6102 10.2797L14.6153 7.4918C14.2145 6.37383 13.1563 5.625 11.968 5.625H7.03208C5.8438 5.625 4.78208 6.37383 4.38481 7.4918ZM5.00005 13.7812C4.53247 13.7812 4.1563 13.4051 4.1563 12.9375C4.1563 12.4699 4.53247 12.0938 5.00005 12.0938C5.46763 12.0938 5.8438 12.4699 5.8438 12.9375C5.8438 13.4051 5.46763 13.7812 5.00005 13.7812ZM14.8438 12.9375C14.8438 13.4051 14.4676 13.7812 14 13.7812C13.5325 13.7812 13.1563 13.4051 13.1563 12.9375C13.1563 12.4699 13.5325 12.0938 14 12.0938C14.4676 12.0938 14.8438 12.4699 14.8438 12.9375ZM1.87114 1.37109C1.54067 1.70156 1.54067 2.23594 1.87114 2.56289L3.55864 4.25039C3.88911 4.58086 4.42349 4.58086 4.75044 4.25039C5.07739 3.91992 5.08091 3.38555 4.75044 3.05859L3.06646 1.37109C2.73599 1.04062 2.20161 1.04062 1.87466 1.37109H1.87114ZM15.9336 1.37109L14.2461 3.05859C13.9157 3.38906 13.9157 3.92344 14.2461 4.25039C14.5766 4.57734 15.111 4.58086 15.4379 4.25039L17.1254 2.56289C17.4559 2.23242 17.4559 1.69805 17.1254 1.37109C16.795 1.04414 16.2606 1.04062 15.9336 1.37109Z" fill="#727D8F"/>
</svg>
