<svg height="27.737" viewBox="0 0 27.737 27.737" width="27.737" xmlns="http://www.w3.org/2000/svg">
    <path d="M143.075,1.856q.366,0,.724.028A2.558,2.558,0,0,0,141.334,0h-8.7a2.558,2.558,0,0,0-2.465,1.884q.359-.027.724-.028Z" fill="#3498db" transform="translate(-123.114)" />
    <path d="M19.961,64.267H17.292V70.3a.813.813,0,0,1-1.625,0V64.267h-3.6V70.3a.813.813,0,0,1-1.625,0V64.267H7.776A7.776,7.776,0,0,0,0,72.043v4.352a.813.813,0,0,0,.813.813H3.6V72.043a.813.813,0,0,1,1.625,0V87.71a.813.813,0,0,0,.813.813H21.7a.813.813,0,0,0,.813-.813V72.043a.813.813,0,0,1,1.625,0v5.165h2.785a.813.813,0,0,0,.813-.813V72.043a7.776,7.776,0,0,0-7.776-7.776Z" fill="#3498db" transform="translate(0 -60.785)" />
</svg>