<svg height="22.691" viewBox="0 0 25.527 22.691" width="25.527" xmlns="http://www.w3.org/2000/svg">
    <path d="M9.218,0A2.828,2.828,0,0,0,6.479,2.136c-.035,0-.062-.009-.1-.009A2.839,2.839,0,0,0,3.545,4.964a2.614,2.614,0,0,0,.075.62A3.515,3.515,0,0,0,1.786,10.41a3.532,3.532,0,0,0,.4,6.337,3.248,3.248,0,0,0-.062.625,3.189,3.189,0,0,0,3.191,3.191,3,3,0,0,0,.532-.053,3.183,3.183,0,0,0,6.2-1.01V2.836A2.839,2.839,0,0,0,9.218,0ZM25.527,13.473a3.527,3.527,0,0,0-1.786-3.062,3.488,3.488,0,0,0,.368-1.547,3.545,3.545,0,0,0-2.2-3.28,2.81,2.81,0,0,0-2.761-3.457c-.035,0-.066.009-.1.009a2.831,2.831,0,0,0-5.575.7V19.5a3.183,3.183,0,0,0,6.2,1.01,3,3,0,0,0,.532.053A3.189,3.189,0,0,0,23.4,17.373a3.248,3.248,0,0,0-.062-.625A3.545,3.545,0,0,0,25.527,13.473Z" data-name="Icon awesome-brain" fill="#5758bb" id="Icon_awesome-brain" />
</svg>
