<svg height="28.847" viewBox="0 0 21.774 28.847" width="21.774" xmlns="http://www.w3.org/2000/svg">
    <path d="M9.552,35.939h.6l10.67-15.788q.209-.419-.233-.419h-4.4l4.637-8.452c.14-.279.031-.419-.31-.419H14.608a.563.563,0,0,0-.45.279L9.847,22.617c-.031.279.062.419.295.419h4.265Zm13.183-9.817h.419l8.1-11.9a.353.353,0,0,0,.062-.31c-.031-.078-.124-.109-.264-.109H27.791l3.381-6.25q.279-.465-.279-.465H26.643a.5.5,0,0,0-.465.295l-3.226,8.5a.334.334,0,0,0,.016.326.345.345,0,0,0,.295.109h3.164Z" data-name="Icon weather-lightning" fill="#f1c40f" id="Icon_weather-lightning" transform="translate(-9.552 -7.092)" />
</svg>
