<svg height="19.507" viewBox="0 0 27.31 19.507" width="27.31" xmlns="http://www.w3.org/2000/svg">
    <g id="burger" transform="translate(0.919 -3.854)">
        <g id="Burger_4_" transform="translate(-0.083 13.882)">
            <g data-name="Group 9686" id="Group_9686">
                <path d="M.749,271a3.526,3.526,0,0,1,.944.12,4.871,4.871,0,0,0-.195,1.5,2.06,2.06,0,0,0-.749-.12.749.749,0,1,1,0-1.5Z" data-name="Path 6276" fill="#2ecc71" id="Path_6276" transform="translate(0 -271)" />
                <path d="M479.793,271.749a.742.742,0,0,1-.749.749,2.06,2.06,0,0,0-.749.12,5.184,5.184,0,0,0-.195-1.5,3.526,3.526,0,0,1,.944-.12A.742.742,0,0,1,479.793,271.749Z" data-name="Path 6277" fill="#2ecc71" id="Path_6277" transform="translate(-454.228 -271)" />
            </g>
        </g>
        <path d="M33.9,242.617a3.9,3.9,0,0,1,1.5.779,2.263,2.263,0,0,0,1.558.6,2.224,2.224,0,0,0,1.543-.6,3.813,3.813,0,0,1,2.492-.9,3.675,3.675,0,0,1,2.457.9,2.286,2.286,0,0,0,3.086,0,3.675,3.675,0,0,1,2.457-.9,3.813,3.813,0,0,1,2.492.9,2.225,2.225,0,0,0,1.543.6,2.263,2.263,0,0,0,1.558-.6,3.9,3.9,0,0,1,1.5-.779A5.185,5.185,0,0,0,55.32,241H34.66A5.185,5.185,0,0,0,33.9,242.617Z" data-name="Path 6278" fill="#2ecc71" id="Path_6278" transform="translate(-32.291 -228.615)" />
        <g data-name="Icon ionic-ios-card" id="Icon_ionic-ios-card" transform="translate(-0.919 3.854)">
            <path d="M29.56,8.8A2.006,2.006,0,0,0,27.61,6.75H4.2A2.006,2.006,0,0,0,2.25,8.8v3.069H29.56Z" data-name="Path 6287" fill="#2ecc71" id="Path_6287" transform="translate(-2.25 -6.75)" />
            <path d="M2.25,25.978A2.006,2.006,0,0,0,4.2,28.024H27.61a2.006,2.006,0,0,0,1.951-2.046V15.75H2.25Zm8.656-3.069h10a.878.878,0,0,1,.853.895h0a.878.878,0,0,1-.853.895h-10a.878.878,0,0,1-.853-.895h0A.878.878,0,0,1,10.906,22.91Zm-4.389,0h.732A.878.878,0,0,1,8.1,23.8h0a.878.878,0,0,1-.853.895H6.517a.878.878,0,0,1-.853-.895h0A.878.878,0,0,1,6.517,22.91Z" data-name="Path 6288" fill="#2ecc71" id="Path_6288" transform="translate(-2.25 -8.517)" />
        </g>
    </g>
</svg>
