<svg width="15" height="14" viewBox="0 0 15 14" fill="none" xmlns="http://www.w3.org/2000/svg">
<path d="M14.9875 5.62422C14.9786 5.5829 14.9655 5.54259 14.9484 5.50391L13.4727 2.06016C13.1324 1.26445 12.3047 0.75 11.3629 0.75H3.63711C2.6961 0.75 1.86758 1.26445 1.52774 2.06016L0.0503956 5.50391C0.0168203 5.58159 -0.000335482 5.66537 4.9695e-06 5.75V12.625C4.9695e-06 12.7908 0.0658531 12.9497 0.183063 13.0669C0.300274 13.1842 0.459245 13.25 0.625005 13.25H1.875C2.04077 13.25 2.19974 13.1842 2.31695 13.0669C2.43416 12.9497 2.50001 12.7908 2.50001 12.625V12H12.5V12.625C12.5 12.7908 12.5659 12.9497 12.6831 13.0669C12.8003 13.1842 12.9592 13.25 13.125 13.25H14.375C14.5408 13.25 14.6997 13.1842 14.8169 13.0669C14.9342 12.9497 15 12.7908 15 12.625V5.75C15.0001 5.70776 14.9959 5.66562 14.9875 5.62422ZM3.12501 9.5C2.87778 9.5 2.6361 9.42669 2.43054 9.28934C2.22498 9.15199 2.06476 8.95676 1.97016 8.72835C1.87555 8.49995 1.85079 8.24861 1.89902 8.00614C1.94725 7.76366 2.06631 7.54093 2.24112 7.36612C2.41594 7.1913 2.63867 7.07225 2.88114 7.02402C3.12362 6.97579 3.37495 7.00054 3.60336 7.09515C3.83177 7.18976 4.02699 7.34998 4.16434 7.55554C4.30169 7.7611 4.37501 8.00277 4.37501 8.25C4.37501 8.58152 4.24331 8.89946 4.00889 9.13388C3.77447 9.3683 3.45653 9.5 3.12501 9.5ZM11.875 9.5C11.6278 9.5 11.3861 9.42669 11.1805 9.28934C10.975 9.15199 10.8148 8.95676 10.7202 8.72835C10.6255 8.49995 10.6008 8.24861 10.649 8.00614C10.6973 7.76366 10.8163 7.54093 10.9911 7.36612C11.1659 7.1913 11.3887 7.07225 11.6311 7.02402C11.8736 6.97579 12.125 7.00054 12.3534 7.09515C12.5818 7.18976 12.777 7.34998 12.9143 7.55554C13.0517 7.7611 13.125 8.00277 13.125 8.25C13.125 8.58152 12.9933 8.89946 12.7589 9.13388C12.5245 9.3683 12.2065 9.5 11.875 9.5ZM1.57266 5.125L2.6754 2.55273C2.8168 2.22227 3.20313 2 3.63711 2H11.3629C11.7965 2 12.1832 2.22227 12.3246 2.55273L13.4273 5.125H1.57266Z" fill="#727D8F"/>
</svg>
