<svg width="19" height="18" viewBox="0 0 19 18" fill="none" xmlns="http://www.w3.org/2000/svg">
<path d="M4.25 9L5.75 6V5.25H3.5V6H5L3.5 9M7.25 9L8.75 6V5.25H6.5V6H8L6.5 9M10.25 9L11.75 6V5.25H9.5V6H11L9.5 9M16.25 1.5C15.425 1.5 14.75 2.175 14.75 3C14.75 3.525 15.05 4.05 15.5 4.275V12.75H13.25V11.25C13.7 11.25 14 10.95 14 10.5V3.75C14 3.3 13.7 3 13.25 3H10.4C9.8 2.1 8.75 1.5 7.625 1.5C6.5 1.5 5.45 2.1 4.85 3H2C1.55 3 1.25 3.3 1.25 3.75V10.5C1.25 10.95 1.55 11.25 2 11.25V16.5H13.25V14.25H15.5C16.325 14.25 17 13.575 17 12.75V4.275C17.45 4.05 17.75 3.525 17.75 3C17.75 2.175 17.075 1.5 16.25 1.5ZM10.25 14.25H5V12.75H10.25V14.25ZM12.5 9.75H2.75V4.5H12.5V9.75Z" fill="#727D8F"/>
</svg>
