<svg height="28.718" viewBox="0 0 18.097 28.718" width="18.097" xmlns="http://www.w3.org/2000/svg">
    <g id="phone" transform="translate(-71.6)">
        <g data-name="Group 9687" id="Group_9687" transform="translate(71.6)">
            <path d="M88.9.8v0A2.718,2.718,0,0,0,86.971,0H74.323A2.732,2.732,0,0,0,71.6,2.723V25.992a2.735,2.735,0,0,0,2.723,2.726h12.65A2.735,2.735,0,0,0,89.7,25.995V2.726A2.718,2.718,0,0,0,88.9.8ZM80.649,26.87h0a.736.736,0,1,1,.736-.736A.736.736,0,0,1,80.649,26.87Zm6.886-4.619a1.78,1.78,0,0,1-1.78,1.78H75.54a1.78,1.78,0,0,1-1.78-1.78V4.91a1.78,1.78,0,0,1,1.78-1.78H85.757a1.78,1.78,0,0,1,1.78,1.78Z" data-name="Path 6280" fill="#f39c12" id="Path_6280" transform="translate(-71.6)" />
        </g>
    </g>
</svg>
