<svg height="28.119" id="burger" viewBox="0 0 28.119 28.119" width="28.119" xmlns="http://www.w3.org/2000/svg">
    <g id="Burger_1_">
        <g data-name="Group 9684" id="Group_9684" transform="translate(0 21.528)">
            <path d="M22.352,398.59H5.767A5.774,5.774,0,0,1,0,392.824.823.823,0,0,1,.824,392H27.295a.823.823,0,0,1,.824.824A5.774,5.774,0,0,1,22.352,398.59Z" data-name="Path 6274" fill="#d35400" id="Path_6274" transform="translate(0 -392)" />
        </g>
        <g data-name="Group 9685" id="Group_9685">
            <path d="M14.059,0C6.337,0,0,4.8,0,10.709a.823.823,0,0,0,.824.824H27.295a.823.823,0,0,0,.824-.824C28.119,4.8,21.782,0,14.059,0ZM8,6.349,6.349,8A.824.824,0,1,1,5.184,6.832L6.832,5.184A.824.824,0,1,1,8,6.349Zm5,0L11.347,8a.824.824,0,0,1-1.165-1.165l1.648-1.648a.824.824,0,1,1,1.165,1.165Zm4.943,0L16.289,8a.824.824,0,0,1-1.165-1.165l1.648-1.648a.824.824,0,0,1,1.165,1.165Zm4.54,0L20.829,8a.824.824,0,1,1-1.165-1.165l1.648-1.648a.824.824,0,0,1,1.165,1.165Z" data-name="Path 6275" fill="#d35400" id="Path_6275" />
        </g>
    </g>
    <g id="Burger_4_" transform="translate(0 14.883)">
        <g data-name="Group 9686" id="Group_9686">
            <path d="M.824,271a3.878,3.878,0,0,1,1.038.132,5.357,5.357,0,0,0-.214,1.648,2.266,2.266,0,0,0-.824-.132.824.824,0,0,1,0-1.648Z" data-name="Path 6276" fill="#d35400" id="Path_6276" transform="translate(0 -271)" />
            <path d="M479.962,271.824a.816.816,0,0,1-.824.824,2.266,2.266,0,0,0-.824.132,5.7,5.7,0,0,0-.214-1.648,3.878,3.878,0,0,1,1.038-.132A.816.816,0,0,1,479.962,271.824Z" data-name="Path 6277" fill="#d35400" id="Path_6277" transform="translate(-451.843 -271)" />
        </g>
    </g>
    <path d="M33.9,242.778a4.289,4.289,0,0,1,1.648.857,2.489,2.489,0,0,0,1.713.659,2.447,2.447,0,0,0,1.7-.659,4.194,4.194,0,0,1,2.74-.988,4.043,4.043,0,0,1,2.7.988,2.514,2.514,0,0,0,3.394,0,4.042,4.042,0,0,1,2.7-.988,4.194,4.194,0,0,1,2.74.988,2.447,2.447,0,0,0,1.7.659,2.489,2.489,0,0,0,1.713-.659,4.289,4.289,0,0,1,1.648-.857A5.7,5.7,0,0,0,57.46,241H34.736A5.7,5.7,0,0,0,33.9,242.778Z" data-name="Path 6278" fill="#d35400" id="Path_6278" transform="translate(-32.038 -227.763)" />
    <path d="M53.784,304.3a5.709,5.709,0,0,0,1.038-3.163,3.43,3.43,0,0,0-.873.527,4.164,4.164,0,0,1-5.388,0A2.59,2.59,0,0,0,46.81,301a2.489,2.489,0,0,0-1.713.659,4.142,4.142,0,0,1-5.371,0A2.489,2.489,0,0,0,38.012,301a2.59,2.59,0,0,0-1.752.659,4.164,4.164,0,0,1-5.388,0,3.43,3.43,0,0,0-.873-.527,5.709,5.709,0,0,0,1.038,3.163Z" data-name="Path 6279" fill="#d35400" id="Path_6279" transform="translate(-28.351 -284.469)" />
</svg>
