<svg width="23" height="12" viewBox="0 0 23 12" fill="none" xmlns="http://www.w3.org/2000/svg">
<path d="M15.5 0H5.5L0.5 6V9H2.5C2.5 9.79565 2.81607 10.5587 3.37868 11.1213C3.94129 11.6839 4.70435 12 5.5 12C6.29565 12 7.05871 11.6839 7.62132 11.1213C8.18393 10.5587 8.5 9.79565 8.5 9H14.5C14.5 9.79565 14.8161 10.5587 15.3787 11.1213C15.9413 11.6839 16.7044 12 17.5 12C18.2956 12 19.0587 11.6839 19.6213 11.1213C20.1839 10.5587 20.5 9.79565 20.5 9H22.5V6C22.5 4.89 21.61 4 20.5 4H18.5L15.5 0ZM6 1.5H10V4H4L6 1.5ZM11.5 1.5H15L16.96 4H11.5V1.5ZM5.5 7.5C5.89782 7.5 6.27936 7.65804 6.56066 7.93934C6.84196 8.22064 7 8.60218 7 9C7 9.39782 6.84196 9.77936 6.56066 10.0607C6.27936 10.342 5.89782 10.5 5.5 10.5C5.10218 10.5 4.72064 10.342 4.43934 10.0607C4.15804 9.77936 4 9.39782 4 9C4 8.60218 4.15804 8.22064 4.43934 7.93934C4.72064 7.65804 5.10218 7.5 5.5 7.5ZM17.5 7.5C17.8978 7.5 18.2794 7.65804 18.5607 7.93934C18.842 8.22064 19 8.60218 19 9C19 9.39782 18.842 9.77936 18.5607 10.0607C18.2794 10.342 17.8978 10.5 17.5 10.5C17.1022 10.5 16.7206 10.342 16.4393 10.0607C16.158 9.77936 16 9.39782 16 9C16 8.60218 16.158 8.22064 16.4393 7.93934C16.7206 7.65804 17.1022 7.5 17.5 7.5Z" fill="#727D8F"/>
</svg>
