<svg height="26.67" viewBox="0 0 29.557 26.67" width="29.557" xmlns="http://www.w3.org/2000/svg">
    <g id="healthy-life" transform="translate(-0.307 -33.599)">
        <g id="heart" transform="translate(0.307 33.599)">
            <path d="M14.77,27.459A8.666,8.666,0,0,0,1.444,38.4H7.815l1.133-1.889a.866.866,0,0,1,1.473-.019l2.391,3.757L16.3,32.891a.867.867,0,0,1,1.545-.04L20.829,38.4H28.1c5.384-8.414-5.256-18-13.326-10.941Z" data-name="Path 6266" fill="#e74c3c" id="Path_6266" transform="translate(0 -25.006)" />
            <path d="M65.482,205.759l-2.421-4.5-3.423,7.227a.866.866,0,0,1-1.513.094l-2.48-3.9-.665,1.108a.866.866,0,0,1-.742.42H48.746c.172.18-.745-.735,11.346,11.293a.866.866,0,0,0,1.221,0c11.9-11.843,11.174-11.113,11.346-11.293H66.244A.866.866,0,0,1,65.482,205.759Z" data-name="Path 6267" fill="#e74c3c" id="Path_6267" transform="translate(-45.932 -191.089)" />
        </g>
    </g>
</svg>
