<svg width="43" height="43" viewBox="0 0 43 43" fill="none" xmlns="http://www.w3.org/2000/svg">
<path d="M21.481 42.962C33.3446 42.962 42.962 33.3446 42.962 21.481C42.962 9.61737 33.3446 0 21.481 0C9.61737 0 0 9.61737 0 21.481C0 33.3446 9.61737 42.962 21.481 42.962Z" fill="#D7FFFA"/>
<path d="M12 28.723V30C12 30.2652 12.1054 30.5196 12.2929 30.7071C12.4804 30.8946 12.7348 31 13 31H14C14.2652 31 14.5196 30.8946 14.7071 30.7071C14.8946 30.5196 15 30.2652 15 30V29H27V30C27 30.2652 27.1054 30.5196 27.2929 30.7071C27.4804 30.8946 27.7348 31 28 31H29C29.2652 31 29.5196 30.8946 29.7071 30.7071C29.8946 30.5196 30 30.2652 30 30V28.723C30.3034 28.549 30.5556 28.2981 30.7311 27.9956C30.9067 27.6932 30.9994 27.3497 31 27V24C31 23.169 30.493 22.458 29.772 22.155L28.404 18.051C28.2056 17.4535 27.8238 16.9337 27.3131 16.5655C26.8024 16.1973 26.1886 15.9994 25.559 16H16.441C15.8114 15.9994 15.1976 16.1973 14.6869 16.5655C14.1762 16.9337 13.7944 17.4535 13.596 18.051L12.228 22.155C11.8643 22.3073 11.5537 22.5637 11.3352 22.892C11.1168 23.2202 11.0001 23.6057 11 24V27C11 27.738 11.404 28.376 12 28.723ZM14.5 27C14.303 26.9999 14.1078 26.9611 13.9258 26.8856C13.7438 26.8101 13.5784 26.6995 13.4391 26.5602C13.1578 26.2787 12.9999 25.897 13 25.499C13.0001 25.101 13.1583 24.7194 13.4398 24.4381C13.7213 24.1568 14.103 23.9989 14.501 23.999C14.899 23.9991 15.2806 24.1573 15.5619 24.4388C15.8432 24.7203 16.0011 25.102 16.001 25.5C16.0009 25.898 15.8427 26.2796 15.5612 26.5609C15.2797 26.8422 14.898 27.0001 14.5 27ZM27.5 27C27.102 26.9999 26.7204 26.8417 26.4391 26.5602C26.1578 26.2787 25.9999 25.897 26 25.499C26.0001 25.101 26.1583 24.7194 26.4398 24.4381C26.7213 24.1568 27.103 23.9989 27.501 23.999C27.899 23.9991 28.2806 24.1573 28.5619 24.4388C28.8432 24.7203 29.0011 25.102 29.001 25.5C29.0009 25.898 28.8427 26.2796 28.5612 26.5609C28.2797 26.8422 27.898 27.0001 27.5 27ZM16.441 18H25.558C25.768 18 25.9726 18.066 26.143 18.1888C26.3133 18.3115 26.4407 18.4848 26.507 18.684L27.613 22H14.387L15.492 18.684C15.629 18.275 16.011 18 16.441 18Z" fill="#20B09F"/>
<path d="M31 16.388V14.279L21.316 11.051C21.102 10.9794 20.87 10.9826 20.658 11.06L11 14.572V16.7L21.015 13.058L31 16.388Z" fill="#20B09F"/>
</svg>
