<svg width="43" height="43" viewBox="0 0 43 43" fill="none" xmlns="http://www.w3.org/2000/svg">
<path d="M21.481 42.962C33.3446 42.962 42.962 33.3446 42.962 21.481C42.962 9.61737 33.3446 0 21.481 0C9.61737 0 0 9.61737 0 21.481C0 33.3446 9.61737 42.962 21.481 42.962Z" fill="#E9D7FF"/>
<path d="M32 23V20C32 18.89 31.11 18 30 18H28L25 14H15L12 18C10.89 18 10 18.89 10 20V23H12C12 23.77 12.3 24.47 12.78 25H10V27H11C11 27.5304 11.2107 28.0391 11.5858 28.4142C11.9609 28.7893 12.4696 29 13 29C13.5304 29 14.0391 28.7893 14.4142 28.4142C14.7893 28.0391 15 27.5304 15 27H27C27 27.5304 27.2107 28.0391 27.5858 28.4142C27.9609 28.7893 28.4696 29 29 29C29.5304 29 30.0391 28.7893 30.4142 28.4142C30.7893 28.0391 31 27.5304 31 27H32V25H29.22C29.7 24.47 30 23.77 30 23H32ZM28.5 23C28.5 23.83 27.83 24.5 27 24.5C26.17 24.5 25.5 23.83 25.5 23C25.5 22.17 26.17 21.5 27 21.5C27.83 21.5 28.5 22.17 28.5 23ZM21 15.5H24.25L26.14 18H21V15.5ZM24.78 25H17.22C17.7 24.47 18 23.77 18 23H24C24 23.77 24.3 24.47 24.78 25ZM15.75 15.5H19.5V18H13.86L15.75 15.5ZM15 21.5C15.83 21.5 16.5 22.17 16.5 23C16.5 23.83 15.83 24.5 15 24.5C14.17 24.5 13.5 23.83 13.5 23C13.5 22.17 14.17 21.5 15 21.5Z" fill="#9C20B0"/>
</svg>
