<svg height="17.129" viewBox="0 0 17.129 17.129" width="17.129" xmlns="http://www.w3.org/2000/svg">
  <g data-name="Icon feather-copy" id="Icon_feather-copy" transform="translate(-2.25 -2.25)">
    <path d="M15.063,12.75H22.1a2.316,2.316,0,0,1,2.313,2.313V22.1A2.316,2.316,0,0,1,22.1,24.409H15.063A2.316,2.316,0,0,1,12.75,22.1V15.063A2.316,2.316,0,0,1,15.063,12.75ZM22.1,22.909a.814.814,0,0,0,.813-.813V15.063a.814.814,0,0,0-.813-.813H15.063a.814.814,0,0,0-.813.813V22.1a.814.814,0,0,0,.813.813Z" data-name="Path 7228" fill="#747d8c" id="Path_7228" transform="translate(-5.03 -5.03)" />
    <path d="M5.344,13.909H4.563A2.316,2.316,0,0,1,2.25,11.6V4.563A2.313,2.313,0,0,1,4.563,2.25H11.6a2.316,2.316,0,0,1,2.313,2.313v.781a.75.75,0,0,1-1.5,0V4.563A.814.814,0,0,0,11.6,3.75H4.563a.813.813,0,0,0-.813.813V11.6a.814.814,0,0,0,.813.813h.781a.75.75,0,0,1,0,1.5Z" data-name="Path 7229" fill="#747d8c" id="Path_7229" />
  </g>
</svg>
