<svg width="194" height="166" viewBox="0 0 194 166" fill="none" xmlns="http://www.w3.org/2000/svg">
<g opacity="0.5">
<path d="M98.7524 166C144.592 166 181.752 128.84 181.752 83C181.752 37.1604 144.592 0 98.7524 0C52.9128 0 15.7524 37.1604 15.7524 83C15.7524 128.84 52.9128 166 98.7524 166Z" fill="#F8C10A"/>
<path d="M133.217 15.0566H59.8292C56.4773 15.0566 53.76 17.7739 53.76 21.1258V159.918C53.76 163.27 56.4773 165.987 59.8292 165.987H133.217C136.569 165.987 139.287 163.27 139.287 159.918V21.1258C139.287 17.7739 136.569 15.0566 133.217 15.0566Z" fill="#424242"/>
<path d="M131.812 24.7356H61.3491V145.468H131.812V24.7356Z" fill="white" stroke="#424242" stroke-width="4" stroke-miterlimit="10"/>
<path d="M96.0083 161.789C99.6242 161.789 102.555 158.857 102.555 155.241C102.555 151.626 99.6242 148.694 96.0083 148.694C92.3924 148.694 89.4612 151.626 89.4612 155.241C89.4612 158.857 92.3924 161.789 96.0083 161.789Z" fill="white" stroke="#424242" stroke-width="4" stroke-miterlimit="10"/>
<path d="M55.7845 61.1528C58.7307 57.2996 60.7324 52.8093 61.6288 48.0425C62.5253 43.2756 62.2916 38.365 60.9465 33.7048C56.4968 18.1589 40.6154 8.5641 24.7827 11.8611C20.6214 12.7222 16.6808 14.4274 13.2044 16.8716C9.72813 19.3157 6.78995 22.4468 4.57148 26.0713C2.35301 29.6958 0.901372 33.7367 0.30627 37.9443C-0.288832 42.152 -0.0147556 46.437 1.11156 50.5346C5.59876 66.8808 22.6291 76.6743 39.0222 72.3445C41.6995 71.6383 44.2707 70.578 46.6677 69.1918L65.4412 75.2929C65.5371 75.324 65.6404 75.3236 65.7362 75.292C65.8319 75.2604 65.9151 75.199 65.9736 75.1169C66.0321 75.0348 66.0629 74.9362 66.0615 74.8353C66.0602 74.7345 66.0267 74.6368 65.966 74.5562L55.7845 61.1528Z" fill="#F7F1E4"/>
<path d="M42.9024 44.3888L41.6672 45.3691C41.6194 45.4045 41.5644 45.4289 41.5061 45.4405C41.4479 45.4522 41.3877 45.4508 41.33 45.4365C41.2724 45.4221 41.2186 45.3952 41.1725 45.3576C41.1264 45.3201 41.0893 45.2728 41.0636 45.2192L40.3964 43.5735C40.3674 43.5129 40.3255 43.4594 40.2735 43.4168C40.2215 43.3742 40.1608 43.3436 40.0957 43.3271C40.0306 43.3107 39.9626 43.3087 39.8967 43.3215C39.8307 43.3343 39.7684 43.3615 39.7141 43.401L38.3364 44.4076C38.2844 44.432 38.2278 44.4453 38.1703 44.4465C38.1129 44.4477 38.0558 44.4369 38.0027 44.4146C37.9497 44.3923 37.902 44.3592 37.8626 44.3173C37.8232 44.2754 37.7931 44.2257 37.7741 44.1714L36.9344 41.8247C36.9033 41.7374 36.8537 41.6579 36.789 41.5916C36.7243 41.5253 36.646 41.4737 36.5596 41.4405L31.1933 39.4762C31.0388 39.4195 30.9049 39.3177 30.809 39.184C30.7131 39.0503 30.6596 38.8909 30.6554 38.7264C30.605 36.4776 29.7859 34.3138 28.3343 32.5955C26.8827 30.8771 24.8864 29.7078 22.6776 29.2822C20.4688 28.8567 18.1809 29.2006 16.1948 30.2567C14.2087 31.3127 12.6443 33.0172 11.762 35.0864C10.8798 37.1556 10.7329 39.4645 11.3459 41.6288C11.9589 43.7931 13.2947 45.6821 15.131 46.9813C16.9672 48.2805 19.1931 48.9115 21.438 48.7692C23.6829 48.627 25.8114 47.7201 27.469 46.1994C27.6036 46.0741 27.7705 45.9888 27.9509 45.953C28.1314 45.9172 28.3182 45.9325 28.4905 45.997L41.8771 51.0371C42.0211 51.092 42.1746 51.1178 42.3286 51.1133C42.4827 51.1088 42.6343 51.074 42.7749 51.0109L48.2424 50.0606C48.3133 50.0484 48.3799 50.0184 48.4359 49.9734C48.492 49.9284 48.5357 49.8699 48.5628 49.8033C48.59 49.7367 48.5998 49.6644 48.5913 49.593C48.5828 49.5216 48.5563 49.4535 48.5142 49.3952L45.6614 45.446C45.5672 45.2364 45.3971 45.0703 45.1853 44.9811L43.6259 44.3232C43.5096 44.2719 43.3822 44.2511 43.2556 44.2625C43.1291 44.274 43.0075 44.3175 42.9024 44.3888Z" fill="#424242"/>
<path d="M15.6397 38.9176C16.9285 38.9176 17.9733 37.8728 17.9733 36.5841C17.9733 35.2953 16.9285 34.2505 15.6397 34.2505C14.3509 34.2505 13.3062 35.2953 13.3062 36.5841C13.3062 37.8728 14.3509 38.9176 15.6397 38.9176Z" fill="white" stroke="#424242" stroke-width="4" stroke-miterlimit="10"/>
<path d="M137.309 115.614C134.107 111.806 131.844 107.3 130.699 102.458C129.555 97.6161 129.562 92.5734 130.721 87.7349C134.554 71.6004 150.358 61.0235 166.731 63.6513C170.993 64.3291 175.074 65.8659 178.725 68.1684C182.375 70.4709 185.52 73.491 187.969 77.0457C190.417 80.6003 192.117 84.6153 192.967 88.847C193.817 93.0787 193.798 97.439 192.912 101.663C189.307 118.857 172.431 129.9 155.237 126.324C152.38 125.734 149.617 124.753 147.027 123.409L127.838 130.642C127.758 130.673 127.67 130.677 127.587 130.653C127.504 130.63 127.431 130.581 127.378 130.514C127.326 130.446 127.296 130.364 127.293 130.278C127.29 130.192 127.315 130.108 127.364 130.037L137.309 115.614Z" fill="#F7F1E4"/>
<path d="M173.456 95.3143C173.863 93.3631 174.439 91.3576 174.313 89.3501C174.222 87.8 173.81 86.2857 173.105 84.9024C172.399 83.5192 171.415 82.297 170.214 81.3129C165.102 77.2137 157.483 78.3683 153.823 83.8114C152.451 85.8507 152.094 88.2349 151.605 90.5872C151.23 92.3528 153.948 93.1063 154.317 91.3369C154.625 89.8524 154.818 88.2499 155.384 86.8385C155.852 85.6928 156.566 84.6644 157.477 83.8266C158.388 82.9888 159.472 82.3622 160.653 81.9914C165.592 80.4676 170.962 83.8976 171.485 89.1008C171.672 90.9508 171.123 92.7802 170.75 94.5739C170.375 96.3396 173.091 97.0949 173.46 95.3237L173.456 95.3143Z" fill="#424242"/>
<path d="M148.413 107.609L169.643 112.025C171.754 112.464 173.821 111.109 174.26 108.998L176.718 97.18C177.157 95.0689 175.802 93.0015 173.691 92.5624L152.461 88.1466C150.35 87.7075 148.282 89.0629 147.843 91.174L145.385 102.992C144.946 105.103 146.302 107.17 148.413 107.609Z" fill="#424242"/>
<path d="M159.234 103.619L161.31 104.051L162.205 99.7459L160.13 99.3142L159.234 103.619Z" fill="white"/>
<path d="M161.329 101.196C162.696 101.196 163.805 100.087 163.805 98.7199C163.805 97.3525 162.696 96.2439 161.329 96.2439C159.961 96.2439 158.853 97.3525 158.853 98.7199C158.853 100.087 159.961 101.196 161.329 101.196Z" fill="white"/>
</g>
</svg>
