<svg width="28" height="28" viewBox="0 0 28 28" fill="none" xmlns="http://www.w3.org/2000/svg">
<path d="M21.4319 5.5698C19.339 3.47673 15.9523 3.47673 13.862 5.5698L11.4648 7.96719L12.7265 9.22897L15.1236 6.83158C16.4545 5.50053 18.7008 5.35951 20.1702 6.83158C21.6422 8.30366 21.5012 10.5477 20.1702 11.8787L17.7731 14.2761L19.0372 15.5403L21.4344 13.143C23.5223 11.0499 23.5223 7.66287 21.4319 5.5698ZM11.8804 20.1718C10.5495 21.5029 8.30324 21.6439 6.83378 20.1718C5.36185 18.6997 5.50286 16.4558 6.83378 15.1247L9.23093 12.7273L7.9668 11.4631L5.56965 13.8604C3.47678 15.9535 3.47678 19.3405 5.56965 21.4311C7.66252 23.5217 11.0492 23.5242 13.1396 21.4311L15.5367 19.0337L14.2751 17.772L11.8804 20.1718ZM7.27412 6.01514C7.23693 5.9783 7.1867 5.95764 7.13435 5.95764C7.08201 5.95764 7.03178 5.9783 6.99458 6.01514L6.01494 6.99487C5.97811 7.03207 5.95745 7.08231 5.95745 7.13466C5.95745 7.18701 5.97811 7.23724 6.01494 7.27444L19.7299 20.9907C19.8066 21.0674 19.9328 21.0674 20.0094 20.9907L20.9891 20.011C21.0658 19.9343 21.0658 19.8081 20.9891 19.7314L7.27412 6.01514Z" fill="#7E828B"/>
</svg>
