<svg width="24" height="23" viewBox="0 0 24 23" fill="none" xmlns="http://www.w3.org/2000/svg">
<path fill-rule="evenodd" clip-rule="evenodd" d="M20.167 22.0833H5.00033C3.91736 22.0833 2.87875 21.6531 2.11297 20.8873C1.3472 20.1215 0.916992 19.0829 0.916992 18V2.7668C0.916992 1.52197 2.14899 0.732133 3.23283 1.1078C3.38799 1.16147 3.53966 1.23963 3.68433 1.34347L3.88849 1.4893C4.38509 1.84166 4.97918 2.03046 5.58809 2.02941C6.197 2.02837 6.79044 1.83753 7.28583 1.48347C7.9812 0.988583 8.8135 0.722656 9.66699 0.722656C10.5205 0.722656 11.3528 0.988583 12.0482 1.48347C12.5435 1.83753 13.137 2.02837 13.7459 2.02941C14.3548 2.03046 14.9489 1.84166 15.4455 1.4893L15.6497 1.34347C16.8082 0.515133 18.417 1.34347 18.417 2.7668V11.5833H22.5003C22.7324 11.5833 22.955 11.6755 23.119 11.8396C23.2831 12.0037 23.3753 12.2262 23.3753 12.4583V18.875C23.3753 19.7259 23.0373 20.5419 22.4356 21.1436C21.8339 21.7453 21.0179 22.0833 20.167 22.0833ZM18.7087 13.3333V18.875C18.7087 19.2617 18.8623 19.6327 19.1358 19.9062C19.4093 20.1797 19.7802 20.3333 20.167 20.3333C20.5538 20.3333 20.9247 20.1797 21.1982 19.9062C21.4717 19.6327 21.6253 19.2617 21.6253 18.875V13.3333H18.7087ZM13.7503 8.37497C13.7503 8.1429 13.6581 7.92034 13.494 7.75625C13.33 7.59215 13.1074 7.49997 12.8753 7.49997H5.87533C5.64326 7.49997 5.4207 7.59215 5.25661 7.75625C5.09251 7.92034 5.00033 8.1429 5.00033 8.37497C5.00033 8.60703 5.09251 8.82959 5.25661 8.99368C5.4207 9.15778 5.64326 9.24997 5.87533 9.24997H12.8753C13.1074 9.24997 13.33 9.15778 13.494 8.99368C13.6581 8.82959 13.7503 8.60703 13.7503 8.37497ZM12.5837 11.875C12.5837 11.6429 12.4915 11.4203 12.3274 11.2562C12.1633 11.0922 11.9407 11 11.7087 11H5.87533C5.64326 11 5.4207 11.0922 5.25661 11.2562C5.09251 11.4203 5.00033 11.6429 5.00033 11.875C5.00033 12.107 5.09251 12.3296 5.25661 12.4937C5.4207 12.6578 5.64326 12.75 5.87533 12.75H11.7087C11.9407 12.75 12.1633 12.6578 12.3274 12.4937C12.4915 12.3296 12.5837 12.107 12.5837 11.875ZM12.8753 14.5C13.1074 14.5 13.33 14.5922 13.494 14.7562C13.6581 14.9203 13.7503 15.1429 13.7503 15.375C13.7503 15.607 13.6581 15.8296 13.494 15.9937C13.33 16.1578 13.1074 16.25 12.8753 16.25H5.87533C5.64326 16.25 5.4207 16.1578 5.25661 15.9937C5.09251 15.8296 5.00033 15.607 5.00033 15.375C5.00033 15.1429 5.09251 14.9203 5.25661 14.7562C5.4207 14.5922 5.64326 14.5 5.87533 14.5H12.8753Z" fill="#727D8F"/>
</svg>
