<svg height="41.475" viewBox="0 0 41.413 41.475" width="41.413" xmlns="http://www.w3.org/2000/svg">
  <g data-name="Group 9889" id="Group_9889" transform="translate(-313.587 -44)">
    <circle cx="20.5" cy="20.5" data-name="Ellipse 486" fill="#b7b7b7" id="Ellipse_486" r="20.5"
        transform="translate(314 44)" />
    <path
        d="M20.706.563A20.706,20.706,0,1,0,41.413,21.269,20.7,20.7,0,0,0,20.706.563Zm0,8.015a7.347,7.347,0,1,1-7.347,7.347A7.347,7.347,0,0,1,20.706,8.578Zm0,28.722A16,16,0,0,1,8.475,31.605,9.309,9.309,0,0,1,16.7,26.612a2.043,2.043,0,0,1,.593.092,11.055,11.055,0,0,0,3.415.576,11.013,11.013,0,0,0,3.415-.576,2.043,2.043,0,0,1,.593-.092,9.309,9.309,0,0,1,8.224,4.993A16,16,0,0,1,20.706,37.3Z"
        data-name="Icon awesome-user-circle" fill="#e5e5e5" id="Icon_awesome-user-circle"
        transform="translate(313.587 43.5)" />
  </g>
</svg>
