<svg width="28" height="28" viewBox="0 0 28 28" fill="none" xmlns="http://www.w3.org/2000/svg">
<path d="M15.2856 9.20114C15.2856 9.04202 15.3483 8.88942 15.4599 8.77691C15.5716 8.6644 15.723 8.60119 15.8808 8.60119H25.4048C25.5626 8.60119 25.714 8.6644 25.8257 8.77691C25.9373 8.88942 26 9.04202 26 9.20114C26 9.36025 25.9373 9.51285 25.8257 9.62536C25.714 9.73787 25.5626 9.80108 25.4048 9.80108H15.8808C15.723 9.80108 15.5716 9.73787 15.4599 9.62536C15.3483 9.51285 15.2856 9.36025 15.2856 9.20114ZM25.4048 13.4007H15.8808C15.723 13.4007 15.5716 13.4639 15.4599 13.5764C15.3483 13.689 15.2856 13.8416 15.2856 14.0007C15.2856 14.1598 15.3483 14.3124 15.4599 14.4249C15.5716 14.5374 15.723 14.6006 15.8808 14.6006H25.4048C25.5626 14.6006 25.714 14.5374 25.8257 14.4249C25.9373 14.3124 26 14.1598 26 14.0007C26 13.8416 25.9373 13.689 25.8257 13.5764C25.714 13.4639 25.5626 13.4007 25.4048 13.4007ZM25.4048 18.2003H18.2618C18.1039 18.2003 17.9525 18.2635 17.8409 18.376C17.7293 18.4885 17.6666 18.6411 17.6666 18.8002C17.6666 18.9593 17.7293 19.1119 17.8409 19.2244C17.9525 19.3369 18.1039 19.4002 18.2618 19.4002H25.4048C25.5626 19.4002 25.714 19.3369 25.8257 19.2244C25.9373 19.1119 26 18.9593 26 18.8002C26 18.6411 25.9373 18.4885 25.8257 18.376C25.714 18.2635 25.5626 18.2003 25.4048 18.2003ZM15.4642 20.2501C15.5034 20.4039 15.4805 20.5671 15.4005 20.7039C15.3206 20.8407 15.19 20.94 15.0376 20.98L14.8888 21C14.7569 20.9998 14.6289 20.9555 14.5248 20.8741C14.4207 20.7926 14.3463 20.6787 14.3133 20.55C13.9902 19.3079 13.2677 18.2086 12.259 17.4241C11.2502 16.6396 10.012 16.2141 8.73788 16.2141C7.46375 16.2141 6.22553 16.6396 5.21677 17.4241C4.20802 18.2086 3.48559 19.3079 3.16241 20.55C3.11623 20.6962 3.01626 20.8189 2.88306 20.8931C2.74986 20.9673 2.59353 20.9872 2.44621 20.9488C2.29888 20.9104 2.17174 20.8166 2.09091 20.6866C2.01009 20.5567 1.98171 20.4005 2.0116 20.2501C2.28788 19.1677 2.81764 18.168 3.55645 17.3346C4.29526 16.5012 5.22157 15.8586 6.25769 15.4605C5.43112 14.9212 4.79981 14.1268 4.45804 13.196C4.11626 12.2653 4.08235 11.248 4.36136 10.2963C4.64038 9.34448 5.21735 8.50918 6.00613 7.9151C6.79491 7.32101 7.75319 7 8.73788 7C9.72257 7 10.6808 7.32101 11.4696 7.9151C12.2584 8.50918 12.8354 9.34448 13.1144 10.2963C13.3934 11.248 13.3595 12.2653 13.0177 13.196C12.6759 14.1268 12.0446 14.9212 11.2181 15.4605C12.2542 15.8586 13.1805 16.5012 13.9193 17.3346C14.6581 18.168 15.1879 19.1677 15.4642 20.2501ZM8.73788 15.0006C9.40501 15.0006 10.0572 14.8012 10.6118 14.4276C11.1665 14.0541 11.5989 13.5231 11.8542 12.9019C12.1095 12.2807 12.1763 11.5971 12.0461 10.9377C11.916 10.2782 11.5947 9.67242 11.123 9.19697C10.6513 8.72152 10.0502 8.39773 9.39593 8.26655C8.74162 8.13538 8.06341 8.2027 7.44707 8.46002C6.83072 8.71733 6.30392 9.15307 5.93328 9.71215C5.56265 10.2712 5.36482 10.9285 5.36482 11.6009C5.36744 12.5017 5.72365 13.3649 6.35566 14.0019C6.98766 14.6389 7.84409 14.9979 8.73788 15.0006Z" fill="#797D86"/>
</svg>
