<svg width="40" height="40" viewBox="0 0 40 40" fill="none" xmlns="http://www.w3.org/2000/svg">
<path d="M29.74 7.44382V11.3506C29.4008 12.0909 28.9867 12.7945 28.5041 13.4503C28.3577 13.648 27.8759 14.5969 27.6167 14.4241C27.236 14.1693 26.8846 13.8589 26.4819 13.6524C26.211 13.5133 25.6692 13.1648 25.4115 13.484C25.1758 13.7769 25.2856 14.4549 25.2739 14.8107C25.2387 15.8137 25.1758 16.8241 24.8536 17.7832C24.6281 18.4553 24.1068 19.0308 23.6954 19.5931C23.5328 19.8156 23.3717 20.0411 23.2165 20.2666C22.603 21.1555 22.0568 22.0794 21.7273 23.0766C21.6309 23.3685 21.556 23.667 21.5033 23.9698C21.4526 24.2601 21.4242 24.5538 21.4184 24.8484C21.4198 25.1189 21.4399 25.389 21.4784 25.6567H16.6946C16.6221 25.6517 16.5493 25.6612 16.4805 25.6846C16.4117 25.7079 16.3482 25.7447 16.2938 25.7928C16.2393 25.8409 16.1949 25.8993 16.1631 25.9647C16.1314 26.03 16.1129 26.101 16.1089 26.1736V31.8053C16.109 31.8725 16.1234 31.9388 16.1513 32H10.1184C9.37164 32 8.76835 31.4611 8.76835 30.7964V16.4463L4.86016 19.268C4.45577 19.5533 3.96259 19.6843 3.46994 19.6372C2.9773 19.5902 2.51778 19.3683 2.17465 19.0117C1.51279 18.2796 1.64457 17.2033 2.4675 16.6103L18.0578 5.3777C18.4089 5.13186 18.8271 5 19.2556 5C19.6842 5 20.1024 5.13186 20.4534 5.3777L25.4188 8.95351V7.44382C25.4188 6.9035 25.8991 6.45981 26.4892 6.45981H28.6696C29.2553 6.45981 29.74 6.9035 29.74 7.44382Z" fill="#D85555"/>
<path d="M38.1679 24.4537C38.177 23.9703 38.1584 23.4868 38.1123 23.0055C37.9787 21.6516 37.764 20.3069 37.4694 18.9787C37.3142 18.2685 37.1766 17.5378 36.8837 16.8687C36.667 16.381 36.317 15.8012 35.8236 15.561C35.6171 15.952 35.6361 16.586 35.497 17.0356C35.2525 17.8158 34.8608 18.542 34.3432 19.1749C34.3197 19.2042 34.2963 19.2349 34.2714 19.2628C34.2714 19.2188 34.2612 19.1749 34.2524 19.131C34.0899 18.0386 34.0122 16.9345 33.8365 15.8378C33.7975 15.5869 33.7516 15.3375 33.6989 15.0895C33.6242 14.7352 33.5525 14.3808 33.4705 14.0279C33.2288 12.9634 32.9404 11.8915 32.4191 10.9266C32.1671 10.4514 31.8481 10.0149 31.4717 9.63066C31.2696 9.42859 31.1466 9.36416 31.0617 9.67898C31.009 9.87373 31.0192 10.0787 30.9782 10.2749C30.9079 10.6088 30.8216 10.9392 30.7191 11.2663C30.5177 11.9063 30.2599 12.5271 29.9488 13.1215C29.6875 13.6061 29.3965 14.0741 29.0776 14.5229C28.7958 14.9429 28.4747 15.3352 28.1185 15.6943C28.0645 15.762 27.9882 15.8082 27.9032 15.8246C27.8137 15.8179 27.73 15.7777 27.6689 15.7119C27.3321 15.419 27.0305 15.0925 26.6644 14.8333C26.5736 14.7703 26.2134 14.5038 26.1007 14.5595C25.9879 14.6151 26.089 14.9519 26.1007 15.0441C26.2969 16.1511 26.0904 17.2025 25.7185 18.2436C25.435 18.9693 25.0483 19.6504 24.5705 20.2658C24.4241 20.4752 24.2688 20.6846 24.1224 20.8969C23.5499 21.7272 23.0388 22.5911 22.7299 23.5239C22.6396 23.7964 22.5701 24.0755 22.5219 24.3585C22.4732 24.6317 22.4462 24.9084 22.4414 25.1858C22.4436 25.4386 22.4622 25.691 22.4971 25.9414C22.5102 26.0307 22.5234 26.1171 22.5395 26.205C22.6746 26.9436 22.9436 27.6512 23.3332 28.2931C24.4328 30.1249 26.4609 31.472 28.8755 31.8733C29.3729 31.9565 29.8765 31.9981 30.3808 31.9977C30.7878 31.9978 31.1944 31.9699 31.5976 31.9143C32.6785 31.7713 33.7222 31.4234 34.6726 30.8893C37.14 29.4806 38.1093 27.0689 38.1679 24.4537ZM33.6637 29.6915C33.0107 30.6989 31.7265 31.3534 30.3969 31.3578H30.3793C30.2607 31.3578 30.1436 31.3578 30.0264 31.3417C29.1989 31.2816 28.4135 30.9537 27.789 30.4075C27.4545 30.1212 27.1876 29.7643 27.0076 29.3625C26.8276 28.9606 26.7389 28.5239 26.7479 28.0837C26.7874 26.9752 27.3585 26.0424 28.0072 25.1814C28.8374 24.0759 29.8815 22.8942 29.8112 21.4021C29.8112 21.4577 30.003 21.572 30.2109 21.6847C30.4189 21.7975 30.6619 21.9146 30.7366 21.9629C31.9637 22.7624 32.8159 24.0569 33.3928 25.3806C33.9698 26.7043 34.5247 28.3663 33.6637 29.6915V29.6915Z" fill="#D85555"/>
</svg>
