<svg xmlns="http://www.w3.org/2000/svg" width="20.49" height="34.298" viewBox="0 0 20.49 34.298">
  <g id="Icon_Payuung_Pribadi_Mobile_Pembiayaan_Kuota_Haji" data-name="Icon Payuung Pribadi Mobile_Pembiayaan Kuota Haji" transform="translate(-322.614 -175.8)">
    <path id="Path_7495" data-name="Path 7495" d="M341.118,187.308c-.264-.028-.325-.118-.33-.339v-.047q.021-1.54,0-3.079c0-.085,0-.169-.009-.254a7.911,7.911,0,0,0-1.507-4.511c-.042-.061-.089-.122-.137-.179-.014-.024-.033-.042-.047-.066a7.483,7.483,0,0,0-.631-.711h0c-.061-.061-.127-.122-.188-.184-.033-.033-.071-.066-.1-.094s-.056-.047-.08-.071a7.892,7.892,0,0,0-3.536-1.789c-.024,0-.047-.014-.071-.019s-.033,0-.052-.009a7.894,7.894,0,0,0-1.577-.155h0a8.108,8.108,0,0,0-1.733.188c-.019,0-.042,0-.061.009a7.675,7.675,0,0,0-2.689,1.187c-.047.033-.1.066-.146.1a.412.412,0,0,1-.047.033,7.941,7.941,0,0,0-2.665,3.39s0,.009,0,.014c-.033.08-.061.155-.094.235-.019.047-.033.094-.052.141a1.062,1.062,0,0,0-.038.113,7.667,7.667,0,0,0-.278,1.088c-.014.075-.028.155-.038.231v0a7.736,7.736,0,0,0-.089,1.2v.009c-.033,1.045,0,2.1,0,3.141,0,.278-.047.4-.363.428a2.2,2.2,0,0,0,.292,4.384c.179,0,.259.024.315.165a7.954,7.954,0,0,0,1.064,2.406c.047.071.094.137.141.207.009.009.014.024.024.033a7.517,7.517,0,0,0,.829.984l.038.038c.042.042.08.08.122.118a8,8,0,0,0,2.213,1.493.312.312,0,0,1,.137.306c0,.452,0,.8,0,1.375a.714.714,0,0,1-.5.739,9.334,9.334,0,0,0-5.2,5.674,16.982,16.982,0,0,0-.283,4.228c0,.48.174.636.655.636h16.918c.48,0,.65-.155.655-.636a22.914,22.914,0,0,0-.071-3.009,7.244,7.244,0,0,0-1.413-3.734,10.086,10.086,0,0,0-4-3.159.718.718,0,0,1-.5-.772l-.009-.937c-.014-.48.052-.6.325-.8a8.04,8.04,0,0,0,1.86-1.248,7.448,7.448,0,0,0,1.615-2.015,7.929,7.929,0,0,0,.768-1.907c.047-.127.118-.188.315-.184a2.2,2.2,0,0,0,.25-4.393Zm-16.551,3.367a.556.556,0,0,1-.3-.127h0a1.087,1.087,0,0,1-.65-1.036,1.105,1.105,0,0,1,.65-1.074.542.542,0,0,1,.113-.066c.49-.184.518-.16.523.358,0,.546.009,1.092.028,1.634C324.939,190.736,324.93,190.745,324.567,190.675Zm13.57-11.079c.075-.146.151-.174.264-.024a6.84,6.84,0,0,1,.763,1.29c.132.3-.179.363-.3.513s-.184-.047-.25-.108c-.169-.16-.325-.334-.485-.5C337.441,180.184,337.441,180.184,338.138,179.6Zm-4.836.33,1.262-1.262a.358.358,0,0,1,.509,0l1.262,1.262a.358.358,0,0,1,0,.509l-1.262,1.262a.358.358,0,0,1-.509,0l-1.262-1.262A.358.358,0,0,1,333.3,179.925Zm-3.946,0,1.262-1.262a.358.358,0,0,1,.509,0l1.262,1.262a.358.358,0,0,1,0,.509l-1.262,1.262a.358.358,0,0,1-.509,0l-1.262-1.262A.358.358,0,0,1,329.356,179.925Zm-2.816.942a4.784,4.784,0,0,1,.612-1.05c.052-.085.108-.165.16-.25.071-.113.132-.1.235-.019.7.579.7.579.071,1.21a5.78,5.78,0,0,0-.447.452c-.179.221-.33.268-.5,0a1.356,1.356,0,0,0-.1-.127h0C326.441,181.027,326.5,180.947,326.54,180.867Zm-.659,3.984a.283.283,0,0,1,.283-.283h13.368a.283.283,0,0,1,.283.283v.584a.283.283,0,0,1-.283.283H326.164a.283.283,0,0,1-.283-.283Zm9.62,21.679c-.344-.056-.725-.113-1.111-.179a17.214,17.214,0,0,1-1.893-.433c-.49-.132-.97-.283-1.446-.457h-.009c-.024-.009-.052-.019-.08-.033-.207-.075-.41-.151-.612-.235-.024-.009-.047-.019-.066-.028L330,205.05a18.987,18.987,0,0,1-2.307-1.125.514.514,0,0,1-.254-.73.5.5,0,0,1,.725-.151,20.07,20.07,0,0,0,3.122,1.427c.009,0,.014.009.024.009.334.118.669.231,1.008.334.009,0,.014,0,.024,0,.118.038.235.071.353.1l.108.028c.113.033.226.061.344.089,0,0,0,0,.009,0,.278.071.556.137.833.193a.232.232,0,0,1,.061.019c.49.1.979.188,1.479.254a.481.481,0,0,1,.485.527C336,206.331,335.826,206.477,335.5,206.529Zm.546-6.069a9.331,9.331,0,0,1,3.574,2.788,6.343,6.343,0,0,1,1.276,3.287,21.488,21.488,0,0,1,.075,2.335c0,.165-.028.25-.217.235-.221-.019-.447-.009-.669-.014-.391,0-.782,0-1.172.019-.245.014-.32-.047-.315-.306.014-1.125.009-2.255,0-3.381a1.561,1.561,0,0,0-1.262-1.723h-.009c-.08-.019-.16-.038-.245-.052-.141-.024-.287-.028-.433-.052a.525.525,0,0,0-.08-.009c-1.295-.226-2.613-.584-2.74-.622a15.171,15.171,0,0,1-4.379-2.152c-.052-.038-.1-.08-.2-.151.193-.094.358-.17.523-.254a1.578,1.578,0,0,0,.937-1.464c.009-.391.009-.782,0-1.172,0-.132.014-.217.184-.169a8.352,8.352,0,0,0,3.15.179c.132-.028.259-.061.391-.085.532-.113.532-.113.537.447,0,.235,0,.466,0,.7A1.62,1.62,0,0,0,336.047,200.459Zm3.7-9.879a6.842,6.842,0,0,1-4.346,5.778.544.544,0,0,1-.132.028,6.942,6.942,0,0,1-9.361-6.446c-.024-.994,0-1.987-.009-2.981,0-.2.047-.268.259-.268q6.342.007,12.685,0a.711.711,0,0,1,.1.014c.848-.066.852-.066.848.758A27.41,27.41,0,0,1,339.748,190.581Zm1.229.122c-.155.014-.235-.014-.217-.188.024-.2.033-.4.052-.6h0c0-.476-.009-.946-.019-1.422,0-.17.038-.268.226-.174a1.178,1.178,0,0,1,1.064,1.2A1.224,1.224,0,0,1,340.977,190.7Z" transform="translate(0)" fill="#6fc35e"/>
    <path id="Path_7496" data-name="Path 7496" d="M454.854,444.2h0a.656.656,0,0,0-.654.654v1.158a.656.656,0,0,0,.654.655h0a.656.656,0,0,0,.654-.655v-1.158A.656.656,0,0,0,454.854,444.2Z" transform="translate(-125.39 -255.762)" fill="#99d98c"/>
    <path id="Path_7497" data-name="Path 7497" d="M598.654,444.2a.656.656,0,0,0-.654.654v1.158a.655.655,0,1,0,1.309,0v-1.158A.653.653,0,0,0,598.654,444.2Z" transform="translate(-262.419 -255.762)" fill="#99d98c"/>
  </g>
</svg>
