<svg width="40" height="40" viewBox="0 0 40 40" fill="none" xmlns="http://www.w3.org/2000/svg">
<path d="M19.6875 5H7.65625C6.28873 5 4.97721 5.54325 4.01023 6.51023C3.04325 7.47722 2.5 8.78873 2.5 10.1562V23.9062C2.5 25.2738 3.04325 26.5853 4.01023 27.5523C4.97721 28.5193 6.28873 29.0625 7.65625 29.0625L5.9375 30.7812V32.5H7.65625L11.0937 29.0109L14.5312 29.0625V20.4688H5.9375V8.4375H21.4062V11.875H24.8437V10.1562C24.8437 8.78873 24.3005 7.47722 23.3335 6.51023C22.3665 5.54325 21.055 5 19.6875 5ZM7.65625 22.1875C8.11209 22.1875 8.54926 22.3686 8.87159 22.6909C9.19392 23.0132 9.375 23.4504 9.375 23.9062C9.375 24.3621 9.19392 24.7993 8.87159 25.1216C8.54926 25.4439 8.11209 25.625 7.65625 25.625C7.20041 25.625 6.76324 25.4439 6.44091 25.1216C6.11858 24.7993 5.9375 24.3621 5.9375 23.9062C5.9375 23.4504 6.11858 23.0132 6.44091 22.6909C6.76324 22.3686 7.20041 22.1875 7.65625 22.1875ZM34.4172 14.7281C34.1766 14.0406 33.5234 13.5938 32.75 13.5938H20.3922C19.6016 13.5938 18.9656 14.0406 18.7078 14.7281L16.25 21.7922V31.2625C16.25 31.9156 16.8 32.5 17.4531 32.5H18.5187C19.1719 32.5 19.6875 31.8469 19.6875 31.1937V29.0625H33.4375V31.1937C33.4375 31.8469 33.9703 32.5 34.6234 32.5H35.6719C36.325 32.5 36.875 31.9156 36.875 31.2625V21.7922L34.4172 14.7281ZM20.3922 15.3125H32.75L34.5203 20.4688H18.6219L20.3922 15.3125ZM19.6875 25.625C19.2317 25.625 18.7945 25.4439 18.4722 25.1216C18.1498 24.7993 17.9687 24.3621 17.9687 23.9062C17.9687 23.4504 18.1498 23.0132 18.4722 22.6909C18.7945 22.3686 19.2317 22.1875 19.6875 22.1875C20.1433 22.1875 20.5805 22.3686 20.9028 22.6909C21.2252 23.0132 21.4062 23.4504 21.4062 23.9062C21.4062 24.3621 21.2252 24.7993 20.9028 25.1216C20.5805 25.4439 20.1433 25.625 19.6875 25.625ZM33.4375 25.625C32.9817 25.625 32.5445 25.4439 32.2222 25.1216C31.8998 24.7993 31.7187 24.3621 31.7187 23.9062C31.7187 23.4504 31.8998 23.0132 32.2222 22.6909C32.5445 22.3686 32.9817 22.1875 33.4375 22.1875C33.8933 22.1875 34.3305 22.3686 34.6528 22.6909C34.9752 23.0132 35.1562 23.4504 35.1562 23.9062C35.1562 24.3621 34.9752 24.7993 34.6528 25.1216C34.3305 25.4439 33.8933 25.625 33.4375 25.625Z" fill="#2BA5A5"/>
</svg>
