<svg width="40" height="40" viewBox="0 0 40 40" fill="none" xmlns="http://www.w3.org/2000/svg">
<path d="M31.5 14V12.5H28.5V8H10.5V29H18V35H22.875H22.5C21.7043 35 20.9413 34.6839 20.3787 34.1213C19.8161 33.5587 19.5 32.7956 19.5 32V17C19.5 16.2044 19.8161 15.4413 20.3787 14.8787C20.9413 14.3161 21.7043 14 22.5 14H31.5ZM22.875 35H10.5C9.70435 35 8.94129 34.6839 8.37868 34.1213C7.81607 33.5587 7.5 32.7956 7.5 32V8C7.5 6.35 8.85 5 10.5 5H28.5C29.2956 5 30.0587 5.31607 30.6213 5.87868C31.1839 6.44129 31.5 7.20435 31.5 8V14C32.2956 14 33.0587 14.3161 33.6213 14.8787C34.1839 15.4413 34.5 16.2044 34.5 17V32C34.5 32.7956 34.1839 33.5587 33.6213 34.1213C33.0587 34.6839 32.2956 35 31.5 35H22.875ZM22.5 17V29H31.5V17H22.5ZM27 33.5C27.3978 33.5 27.7794 33.342 28.0607 33.0607C28.342 32.7794 28.5 32.3978 28.5 32C28.5 31.6022 28.342 31.2206 28.0607 30.9393C27.7794 30.658 27.3978 30.5 27 30.5C26.6022 30.5 26.2206 30.658 25.9393 30.9393C25.658 31.2206 25.5 31.6022 25.5 32C25.5 32.3978 25.658 32.7794 25.9393 33.0607C26.2206 33.342 26.6022 33.5 27 33.5Z" fill="#3A7792"/>
</svg>
