<svg xmlns="http://www.w3.org/2000/svg" width="27.031" height="27.076" viewBox="0 0 27.031 27.076">
  <g id="Icon_Payuung_Pribadi_Mobile_Financial_Checkup" data-name="Icon Payuung Pribadi Mobile_Financial Checkup" transform="translate(-240.6 -246.847)">
    <path id="Path_7486" data-name="Path 7486" d="M255.3,273.668a8.111,8.111,0,0,1-2.3-2.651.711.711,0,0,0-.719-.4c-2.456.013-3.413,0-5.869,0-.113,0-.23,0-.342,0a.7.7,0,0,1-.013-1.408,3.014,3.014,0,0,1,.342-.009h5.154c.1,0,.212,0,.316,0,.264-.017.32-.082.264-.329a10.18,10.18,0,0,1-.2-1.143.271.271,0,0,0-.295-.269c-.1,0-.212,0-.316,0h-4.968a2.615,2.615,0,0,1-.368-.013.7.7,0,0,1,0-1.39,2.1,2.1,0,0,1,.368-.013h3.833c.45,0,.9,0,1.347,0,.316,0,.364-.048.42-.351.052-.269.082-.541.147-.806.134-.55.1-.589-.463-.589h-5.258a3.014,3.014,0,0,1-.342-.009.7.7,0,0,1,0-1.408,3.481,3.481,0,0,1,.368-.009c2.49,0,3.482,0,5.973,0a.662.662,0,0,0,.658-.372,7.615,7.615,0,0,1,1.031-1.434c.139-.16.29-.308.42-.476.1-.139.065-.225-.108-.251a2.619,2.619,0,0,0-.368-.013h-7.632c-.611,0-.888-.277-.888-.892,0-1.2,0-2.412,0-3.617a.778.778,0,0,1,.884-.875c.632,0,1.269,0,1.9,0,.312,0,.372-.069.381-.372.009-.368,0-.741,0-1.109a.783.783,0,0,1,.892-.892c.923,0,1.849,0,2.772,0,.641,0,.918.273.927.914,0,.6,0,1.2,0,1.8,0,.411.048.459.45.459.641,0,1.286,0,1.927,0a.722.722,0,0,1,.741.489,1.23,1.23,0,0,1,.048.416c0,.706-.009,1.408,0,2.114,0,.312.087.359.372.251.247-.1.481-.221.728-.307a9.025,9.025,0,0,1,3.266-.537c.45.009.494-.039.494-.472q0-4.938,0-9.879c0-.68-.29-.957-.97-.957H247.24c-.052,0-.108,0-.16,0-.152-.017-.2.065-.217.2-.009.1-.009.212-.009.316v3.881c0,.385.013.775,0,1.161a.713.713,0,0,1-.7.719c-.113.009-.23,0-.342,0h-4.782a.6.6,0,0,0-.429.082v20.131a.684.684,0,0,0,.58.58H255.5C255.495,273.789,255.382,273.733,255.3,273.668Z" fill="#ecc02e"/>
    <path id="Path_7487" data-name="Path 7487" d="M752.863,291.728v3.539c0,.1-.026.2.126.243a9.24,9.24,0,0,1,1.447.55.453.453,0,0,0,.013-.078q0-4.775,0-9.555a.786.786,0,0,0-.771-.806c-.186-.009-.373.013-.554,0-.208-.022-.264.048-.26.256C752.867,287.821,752.863,289.774,752.863,291.728Z" transform="translate(-490.074 -37.086)" fill="#ecc02e"/>
    <path id="Path_7488" data-name="Path 7488" d="M256.476,263.932c.178,0,.169-.087.169-.208,0-1.291,0-2.586,0-3.876,0-.052.035-.121-.013-.147l-4.227,4.227C253.769,263.927,255.12,263.923,256.476,263.932Z" transform="translate(-11.289 -12.296)" fill="#ecc02e"/>
    <path id="Path_7489" data-name="Path 7489" d="M462.6,413.394c-.394.009-.793.013-1.187,0-.178,0-.217.048-.217.217.009.723,0,1.442,0,2.166s0,1.46,0,2.192c0,.147.035.195.186.191.4-.009.81-.009,1.213,0,.152,0,.186-.043.186-.191q-.007-2.189,0-4.383C462.79,413.437,462.755,413.39,462.6,413.394Z" transform="translate(-211.046 -159.333)" fill="#ecc02e"/>
    <path id="Path_7490" data-name="Path 7490" d="M388.16,470.675c.42-.009.845-.009,1.269,0,.126,0,.165-.03.165-.16,0-.684,0-1.373,0-2.057,0-.126-.035-.169-.16-.165-.42.009-.845.009-1.269,0-.126,0-.165.035-.165.16.009.342,0,.684,0,1.031s0,.689,0,1.031C388,470.636,388.03,470.679,388.16,470.675Z" transform="translate(-141.016 -211.854)" fill="#ecc02e"/>
    <path id="Path_7491" data-name="Path 7491" d="M534.252,488.085c.42,0,.845,0,1.269,0,.126,0,.165-.022.165-.108q-.006-.689,0-1.377c0-.082-.035-.113-.16-.108-.42,0-.845,0-1.269,0-.126,0-.165.022-.165.108.009.23,0,.459,0,.689s0,.459,0,.689C534.088,488.059,534.123,488.089,534.252,488.085Z" transform="translate(-280.78 -229.264)" fill="#ecc02e"/>
    <path id="Path_7492" data-name="Path 7492" d="M543.02,542.9a7.12,7.12,0,1,0,7.12,7.12A7.12,7.12,0,0,0,543.02,542.9Zm-1.39,9.039-1-1.806h-.282v1.806h-1.165v-4.786h1.958a2.136,2.136,0,0,1,.966.2,1.376,1.376,0,0,1,.6.541,1.532,1.532,0,0,1,.2.767,1.4,1.4,0,0,1-1.061,1.386l1.1,1.9H541.63Zm5.8-.875a1.676,1.676,0,0,1-.6.689,1.568,1.568,0,0,1-.853.243,1.443,1.443,0,0,1-.7-.165,1.251,1.251,0,0,1-.472-.424v2.347h-1.165v-5.622h1.165v.537a1.227,1.227,0,0,1,.472-.429,1.448,1.448,0,0,1,.7-.165,1.575,1.575,0,0,1,.853.238,1.647,1.647,0,0,1,.6.68,2.286,2.286,0,0,1,.221,1.031A2.37,2.37,0,0,1,547.434,551.064Z" transform="translate(-282.51 -283.23)" fill="#ecc02e"/>
    <path id="Path_7493" data-name="Path 7493" d="M742.132,686a.776.776,0,0,0-.589.251,1.1,1.1,0,0,0,0,1.377.783.783,0,0,0,.589.251.8.8,0,0,0,.593-.256.955.955,0,0,0,.247-.693.943.943,0,0,0-.243-.684A.8.8,0,0,0,742.132,686Z" transform="translate(-479.014 -420.132)" fill="#ecc02e"/>
    <path id="Path_7494" data-name="Path 7494" d="M639.523,663.4H638.8v1.187h.723a.669.669,0,0,0,.481-.156.583.583,0,0,0,.16-.442.565.565,0,0,0-.16-.429A.651.651,0,0,0,639.523,663.4Z" transform="translate(-380.953 -398.511)" fill="#ecc02e"/>
  </g>
</svg>
