<svg width="41" height="40" viewBox="0 0 41 40" fill="none" xmlns="http://www.w3.org/2000/svg">
<path d="M38.7484 20.4179L36.4934 18.2819H36.425L36.0378 17.4914C35.3566 16.0995 34.6749 14.7085 33.9927 13.3187C33.394 12.0957 32.8528 10.0016 31.1935 10H15.4414C14.5683 10.0096 13.7168 10.2716 12.9902 10.7543C12.2636 11.2369 11.6932 11.9193 11.3482 12.7188L8.73556 18.499H8.47274C8.31122 18.5305 8.15442 18.5826 8.0062 18.654L6.81495 19.0291L5.336 19.4941C5.1074 19.5654 4.87723 19.6491 4.64552 19.7111C4.4138 19.7731 4.13076 19.7793 3.8866 19.8661L4.63774 21.5619C4.66559 21.6085 4.6745 21.6639 4.66262 21.7169C4.64289 21.76 4.60883 21.795 4.56621 21.8161C3.97058 22.1819 3.24744 22.3059 2.65959 22.6841C2.59903 22.7152 2.5504 22.7653 2.52118 22.8267C2.50338 22.8885 2.50338 22.954 2.52118 23.0158C2.68603 23.7474 2.85139 24.4796 3.01727 25.2122L1.78404 25.5223C1.73299 25.5292 1.68583 25.5533 1.6503 25.5905C1.62785 25.6306 1.61759 25.6764 1.62075 25.7222L1.6052 26.8661H0.724985C0.62079 26.8661 0.371965 26.8196 0.281767 26.8661C0.126252 26.9436 0.188459 26.9219 0.166687 27.1157C0.166687 27.1715 0.166687 28.0938 0.166687 28.0938H7.1011C7.04718 27.6042 7.09739 27.1088 7.24846 26.6399C7.39953 26.171 7.64805 25.7391 7.97784 25.3723C8.30762 25.0055 8.71126 24.7122 9.16243 24.5113C9.6136 24.3105 10.1022 24.2067 10.5963 24.2067C11.0904 24.2067 11.579 24.3105 12.0302 24.5113C12.4813 24.7122 12.885 25.0055 13.2148 25.3723C13.5445 25.7391 13.7931 26.171 13.9441 26.6399C14.0952 27.1088 14.1454 27.6042 14.0915 28.0938H27.8779C27.8628 27.9657 27.8555 27.8368 27.8561 27.7078C27.8559 27.2311 27.9532 26.7593 28.1422 26.3213C28.3311 25.8834 28.6078 25.4885 28.9551 25.1607C29.3025 24.833 29.7133 24.5793 30.1624 24.4153C30.6115 24.2512 31.0894 24.1802 31.567 24.2066C32.0446 24.233 32.5117 24.3563 32.9399 24.5688C33.368 24.7813 33.7482 25.0787 34.057 25.4427C34.3659 25.8067 34.597 26.2297 34.7363 26.6858C34.8755 27.1419 34.9199 27.6215 34.8667 28.0953H40.1667V23.6963C40.1661 23.0825 40.04 22.4752 39.7962 21.9116C39.5523 21.3479 39.1958 20.8397 38.7484 20.4179V20.4179ZM21.564 17.8355H10.5924L12.5659 13.4706C12.8186 12.8882 13.2349 12.3911 13.7648 12.0393C14.2946 11.6875 14.9152 11.4961 15.5518 11.488H21.564V17.8355ZM23.3617 17.8355V11.4803H30.7891C30.9396 11.4825 31.086 11.5294 31.2096 11.615C31.3331 11.7006 31.4283 11.821 31.4827 11.9608L33.8683 17.8278L23.3617 17.8355Z" fill="#5A7792"/>
<path d="M10.5831 30.6453C12.2382 30.6453 13.5799 29.308 13.5799 27.6583C13.5799 26.0087 12.2382 24.6714 10.5831 24.6714C8.92807 24.6714 7.58636 26.0087 7.58636 27.6583C7.58636 29.308 8.92807 30.6453 10.5831 30.6453Z" fill="#5A7792"/>
<path d="M31.4222 30.6453C33.0773 30.6453 34.419 29.308 34.419 27.6583C34.419 26.0087 33.0773 24.6714 31.4222 24.6714C29.7671 24.6714 28.4254 26.0087 28.4254 27.6583C28.4254 29.308 29.7671 30.6453 31.4222 30.6453Z" fill="#5A7792"/>
<path d="M0.333049 18.5954C0.0515668 17.949 0.151096 17.0872 0.45435 16.4826C0.639413 16.1122 0.905343 15.7867 1.09507 15.4178C1.354 14.8916 1.45323 14.3016 1.38057 13.7201C1.30792 13.1385 1.06655 12.5908 0.686066 12.144C1.31454 12.2042 1.92067 12.4078 2.45738 12.7393C2.72373 12.9071 2.95203 13.1285 3.12769 13.3892C3.30335 13.65 3.42251 13.9444 3.47756 14.2537C3.56154 14.8737 3.32204 15.4937 2.99391 16.0207C2.66577 16.5478 2.25521 17.0267 1.94107 17.5708C1.76251 17.8507 1.64146 18.1631 1.58494 18.49C1.55303 18.7508 1.57905 19.0153 1.66114 19.265C1.70624 19.3967 1.9333 19.9315 2.10747 19.9377C1.75041 19.9198 1.40718 19.7944 1.12306 19.5781C0.840173 19.363 0.603291 19.0937 0.426354 18.786C0.391598 18.7243 0.360447 18.6607 0.333049 18.5954V18.5954Z" fill="#5A7792"/>
</svg>
