<svg width="40" height="40" viewBox="0 0 40 40" fill="none" xmlns="http://www.w3.org/2000/svg">
<path d="M10.4741 17.2915L9.78278 19.8726C9.61524 20.4988 9.58073 21.1468 9.64864 21.7869L7.68929 23.4C7.32358 23.7011 6.78142 23.3761 6.87549 22.9118L7.73493 18.6436C7.79394 18.3508 7.58687 18.0714 7.28963 18.043L2.95568 17.6227C2.48422 17.5771 2.33059 16.9642 2.72524 16.702L6.3517 14.2918C6.59996 14.1265 6.65117 13.7825 6.46191 13.5521L3.69489 10.1894C3.39375 9.82374 3.71883 9.28213 4.18362 9.37565L8.45188 10.2351C8.74466 10.2941 9.02409 10.087 9.05304 9.78978L9.4733 5.45584C9.51894 4.98382 10.1318 4.83074 10.3945 5.22539L12.8047 8.8513C12.9701 9.09956 13.3141 9.15077 13.5445 8.96151L16.9066 6.19449C17.2723 5.89335 17.8139 6.21843 17.7204 6.68266L17.0897 9.80871C16.9389 9.97848 16.7875 10.1477 16.6494 10.3319L14.8598 12.7238L14.2637 13.5209C12.4418 14.0085 10.9695 15.4429 10.4741 17.2915ZM38.0035 24.6675L37.3122 27.248C37.1379 27.8982 36.79 28.4509 36.3353 28.8823C36.1839 29.0256 36.0208 29.1559 35.8477 29.2719L35.0689 32.1792C35.0055 32.4169 34.8964 32.6301 34.7544 32.8127C34.3275 33.3604 33.6 33.6298 32.8875 33.4389L31.1669 32.978C30.2168 32.7236 29.6529 31.7467 29.9073 30.7965L30.3682 29.076L16.6038 25.3877L16.1429 27.1083C15.8885 28.0585 14.9116 28.6223 13.9614 28.368L12.2409 27.9071C11.5284 27.7161 11.033 27.1189 10.9372 26.4314C10.9055 26.2021 10.9178 25.9627 10.9812 25.7256L11.7599 22.8183C11.6678 22.6312 11.5917 22.4366 11.5323 22.2366C11.3542 21.636 11.3291 20.9831 11.5033 20.333L12.1947 17.7519C12.4902 16.6497 13.2723 15.8131 14.2481 15.4023C14.5762 15.2641 14.9231 15.1755 15.2773 15.1396L16.2865 13.7909L18.0761 11.399C18.2681 11.1424 18.4763 10.9036 18.6995 10.6843C19.1448 10.2451 19.6474 9.88051 20.1879 9.5983C20.4584 9.45692 20.7384 9.33613 21.0257 9.23705C21.6007 9.03777 22.2052 8.92366 22.8202 8.90084C23.4353 8.87802 24.0621 8.94648 24.6811 9.11236L31.5098 10.942C32.1288 11.1079 32.7055 11.3617 33.227 11.6896C34.0054 12.1783 34.665 12.8343 35.158 13.61C35.649 14.3826 35.9729 15.2709 36.0865 16.2256L36.4405 19.1919L36.6403 20.8645C37.2183 21.2819 37.659 21.8618 37.9061 22.5305C38.1505 23.1918 38.2006 23.9327 38.0035 24.6675ZM16.7268 18.0446C15.6942 17.768 14.8225 18.2695 14.5464 19.2987C14.2704 20.328 14.7752 21.198 15.8072 21.4746C16.8398 21.7513 18.3421 22.338 18.6177 21.3087C18.8937 20.2795 17.7588 18.3213 16.7268 18.0446ZM32.9031 19.6127L32.5491 16.6464C32.5168 16.3753 32.4439 16.1159 32.3364 15.8749C32.0136 15.1518 31.379 14.5941 30.5875 14.382L23.7587 12.5523C23.2429 12.4142 22.6975 12.4337 22.1929 12.6084C21.6883 12.7831 21.2476 13.105 20.9277 13.5326L19.1381 15.9244L28.7122 18.4894L32.9031 19.6127ZM33.9323 22.6547C32.8997 22.378 30.9376 23.5069 30.6621 24.5355C30.3865 25.5648 31.9807 25.808 33.0133 26.0846C34.0458 26.3613 34.9175 25.8598 35.1936 24.8306C35.4692 23.8019 34.9648 22.9313 33.9323 22.6547Z" fill="#A65F5A"/>
</svg>
