<svg width="40" height="40" viewBox="0 0 40 40" fill="none" xmlns="http://www.w3.org/2000/svg">
<path fill-rule="evenodd" clip-rule="evenodd" d="M18.0592 5.66747C18.7801 5.23084 19.6068 5 20.4496 5C21.2924 5 22.1191 5.23084 22.84 5.66747L24.5375 6.7058C26.9192 8.16163 29.6317 8.4858 32.3567 8.81247C33.2375 8.9183 34.1192 9.0233 34.9917 9.16747C34.9917 9.16747 35.0108 10.6958 34.9908 11.3891L34.8167 17.3483C34.6667 22.4591 32.3942 27.305 28.4958 30.8266C26.6567 32.4875 24.7542 33.9883 22.5683 35.235C21.9242 35.5994 21.2019 35.8038 20.4623 35.8309C19.7227 35.858 18.9874 35.7071 18.3183 35.3908C15.7942 34.1908 13.5592 32.6691 11.5183 30.8266C7.62001 27.305 5.34751 22.4591 5.19834 17.3483L5.02501 11.4083C5.00417 10.7041 5.02501 9.16747 5.02501 9.16747C5.73334 9.08413 6.45501 9.01497 7.18251 8.9458C10.3933 8.6408 13.7108 8.3258 16.4325 6.66247L18.06 5.66747H18.0592ZM18.3333 18.3341V12.5008H21.6667V18.3341H27.5V21.6675H21.6667V27.5008H18.3333V21.6675H12.5V18.3341H18.3333Z" fill="#769C5A"/>
</svg>
