<svg width="40" height="40" viewBox="0 0 40 40" fill="none" xmlns="http://www.w3.org/2000/svg">
<path d="M28.0521 5C29.2076 5 30.2914 5.21472 31.3037 5.64417C32.3159 6.07362 33.1953 6.66667 33.9417 7.42331C34.6881 8.17996 35.2812 9.06442 35.7209 10.0767C36.1605 11.089 36.3804 12.1728 36.3804 13.3282C36.3804 13.9213 36.319 14.5092 36.1963 15.092C36.0736 15.6748 35.8896 16.2372 35.6442 16.7791H28.5429L25.5982 13.7117L20.6902 18.6196L13.819 11.7485L8.91104 16.7791H5.7362C5.4908 16.2372 5.30675 15.6748 5.18405 15.092C5.06135 14.5092 5 13.9213 5 13.3282C5 12.1728 5.21472 11.089 5.64417 10.0767C6.07362 9.06442 6.66667 8.18507 7.42331 7.43865C8.17996 6.69223 9.06442 6.09918 10.0767 5.65951C11.089 5.21984 12.1728 5 13.3282 5C14.4427 5 15.5061 5.20961 16.5184 5.62883C17.5307 6.04806 18.4356 6.65133 19.2331 7.43865L20.6902 8.91104L22.1472 7.43865C22.9346 6.65133 23.8344 6.04806 24.8466 5.62883C25.8589 5.20961 26.9274 5 28.0521 5ZM26.5798 18.7423H34.4018L34.1871 18.9877C34.1155 19.0695 34.0389 19.1564 33.9571 19.2485L20.6902 32.5L7.42331 19.2485C7.34151 19.1667 7.26483 19.0849 7.19325 19.0031C7.12168 18.9213 7.0501 18.8344 6.97853 18.7423H10.8742L13.819 15.9202L20.6902 22.7914L25.5982 17.8834L26.5798 18.7423Z" fill="#DC8E28"/>
</svg>
