<svg width="41" height="41" viewBox="0 0 41 41" fill="none" xmlns="http://www.w3.org/2000/svg">
<path d="M8 8.08984C8 6.76376 8.52678 5.49199 9.46447 4.55431C10.4021 3.61663 11.6739 3.08984 13 3.08984C14.3261 3.08984 15.5979 3.61663 16.5355 4.55431C17.4732 5.49199 18 6.76376 18 8.08984C18 9.41593 17.4732 10.6877 16.5355 11.6254C15.5979 12.5631 14.3261 13.0898 13 13.0898C11.6739 13.0898 10.4021 12.5631 9.46447 11.6254C8.52678 10.6877 8 9.41593 8 8.08984ZM24.9475 12.0498L25.0525 12.1298C26.1132 12.9161 27.4419 13.2509 28.7486 13.0611C30.0552 12.8714 31.2338 12.1725 32.027 11.1169C32.8203 10.0614 33.1638 8.73498 32.9827 7.42709C32.8015 6.11921 32.1104 4.93607 31.0602 4.13587C30.0099 3.33567 28.6858 2.98339 27.3767 3.15589C26.0677 3.32839 24.88 4.01167 24.0729 5.05663C23.2658 6.10159 22.9047 7.42337 23.0686 8.73353C23.2325 10.0437 23.9079 11.2359 24.9475 12.0498ZM16.17 15.5898C16.484 14.9953 16.9147 14.4701 17.4364 14.0458C17.958 13.6215 18.5599 13.3068 19.206 13.1205C19.8521 12.9342 20.5291 12.8801 21.1965 12.9615C21.864 13.0429 22.5082 13.2581 23.0906 13.5942C23.673 13.9303 24.1816 14.3804 24.586 14.9176C24.9904 15.4549 25.2823 16.0681 25.4442 16.7207C25.6061 17.3734 25.6347 18.0519 25.5283 18.7159C25.422 19.3798 25.1827 20.0155 24.825 20.5848C24.1368 21.6802 23.0509 22.4661 21.7953 22.7776C20.5398 23.0891 19.2125 22.9019 18.0921 22.2553C16.9717 21.6087 16.1455 20.5531 15.7871 19.3101C15.4287 18.0672 15.5659 16.7337 16.17 15.5898ZM6.75 15.5898H13.425C12.9807 16.8587 12.8841 18.2234 13.1452 19.5423C13.4063 20.8611 14.0157 22.086 14.91 23.0898H14.25C12.9611 23.0897 11.7036 23.4878 10.6497 24.2298C9.5958 24.9718 8.79695 26.0214 8.3625 27.2348C7.52333 26.8977 6.73762 26.4405 6.03 25.8773C4.15 24.3648 3 22.1298 3 19.3398C3 18.3453 3.39509 17.3915 4.09835 16.6882C4.80161 15.9849 5.75544 15.5898 6.75 15.5898ZM26.75 23.0898C28.0386 23.0898 29.2956 23.4881 30.3491 24.2301C31.4026 24.9721 32.201 26.0216 32.635 27.2348C33.485 26.8873 34.2725 26.4348 34.97 25.8773C36.85 24.3648 38 22.1298 38 19.3398C38 18.3453 37.6049 17.3915 36.9016 16.6882C36.1984 15.9849 35.2446 15.5898 34.25 15.5898H27.575C27.85 16.3723 28 17.2148 28 18.0898C28.0023 19.9351 27.322 21.7161 26.09 23.0898H26.75ZM30.2175 27.9098C30.4 28.3498 30.5 28.8348 30.5 29.3398C30.5 32.1298 29.3525 34.3648 27.47 35.8773C25.6175 37.3648 23.1325 38.0898 20.5 38.0898C17.8675 38.0898 15.3825 37.3648 13.53 35.8773C11.65 34.3648 10.5 32.1298 10.5 29.3398C10.4987 28.847 10.5948 28.3588 10.7828 27.9032C10.9708 27.4477 11.2469 27.0337 11.5954 26.6853C11.9439 26.3368 12.3578 26.0606 12.8134 25.8726C13.2689 25.6846 13.7572 25.5885 14.25 25.5898H26.75C27.4928 25.5897 28.2188 25.8101 28.8362 26.2231C29.4535 26.6362 29.9343 27.2232 30.2175 27.9098Z" fill="#A5912B"/>
</svg>
