<svg width="21" height="22" viewBox="0 0 21 22" fill="none" xmlns="http://www.w3.org/2000/svg">
<path d="M16.756 11.8146V3.32663C16.7592 2.58928 16.4813 1.87842 15.979 1.33863C15.7392 1.0807 15.4492 0.874607 15.1267 0.733063C14.8042 0.591519 14.4562 0.517519 14.104 0.515625H3.49401C3.14185 0.517519 2.7938 0.591519 2.47132 0.733063C2.14885 0.874607 1.8588 1.0807 1.61901 1.33863C1.1167 1.87842 0.838853 2.58928 0.842007 3.32663V15.6966C0.838853 16.434 1.1167 17.1448 1.61901 17.6846C1.8588 17.9426 2.14885 18.1486 2.47132 18.2902C2.7938 18.4317 3.14185 18.5057 3.49401 18.5076H11.742C12.1067 19.6297 12.8571 20.5863 13.86 21.2076C14.8367 21.8085 16.0048 22.0169 17.129 21.7906C18.2657 21.5534 19.2753 20.9059 19.965 19.9716C20.6764 19.0087 21.0393 17.8325 20.9942 16.6362C20.9492 15.4398 20.4988 14.2943 19.717 13.3876C18.9582 12.5138 17.9019 11.9529 16.753 11.8136L16.756 11.8146ZM11.505 17.3806H3.49401C3.2827 17.3795 3.07385 17.3351 2.88037 17.2501C2.68688 17.1651 2.51285 17.0414 2.36901 16.8866C2.06765 16.5627 1.90101 16.1361 1.90301 15.6936V3.32663C1.90101 2.88418 2.06765 2.45758 2.36901 2.13363C2.51285 1.97882 2.68688 1.85511 2.88037 1.77015C3.07385 1.68519 3.2827 1.64076 3.49401 1.63963H14.103C14.3143 1.64076 14.5232 1.68519 14.7167 1.77015C14.9101 1.85511 15.0842 1.97882 15.228 2.13363C15.5295 2.45753 15.6961 2.88416 15.694 3.32663V11.8146C14.5146 11.9586 13.4341 12.546 12.672 13.4576C11.8826 14.3992 11.4503 15.5889 11.451 16.8176C11.4587 17.0058 11.4768 17.1934 11.505 17.3796V17.3806ZM16.225 20.7546C15.7317 20.752 15.2442 20.6484 14.7926 20.4501C14.3409 20.2518 13.9347 19.963 13.599 19.6016C12.8997 18.8433 12.5115 17.8496 12.5115 16.8181C12.5115 15.7866 12.8997 14.7929 13.599 14.0346C13.9331 13.6714 14.3389 13.3814 14.7909 13.183C15.2428 12.9846 15.731 12.8822 16.2245 12.8822C16.7181 12.8822 17.2062 12.9846 17.6582 13.183C18.1101 13.3814 18.5159 13.6714 18.85 14.0346C19.5493 14.7929 19.9375 15.7866 19.9375 16.8181C19.9375 17.8496 19.5493 18.8433 18.85 19.6016C18.5147 19.9635 18.1088 20.2528 17.6573 20.4516C17.2058 20.6504 16.7183 20.7546 16.225 20.7576V20.7546ZM16.755 14.5696V16.8186C16.7565 16.9669 16.701 17.1101 16.6 17.2186C16.5521 17.2703 16.4941 17.3116 16.4296 17.34C16.3651 17.3684 16.2955 17.3832 16.225 17.3836H14.688C14.5429 17.3775 14.4058 17.3156 14.3053 17.2108C14.2048 17.1059 14.1487 16.9663 14.1487 16.8211C14.1487 16.6759 14.2048 16.5363 14.3053 16.4315C14.4058 16.3267 14.5429 16.2647 14.688 16.2586H15.695V14.5726C15.6919 14.501 15.7033 14.4295 15.7286 14.3625C15.7538 14.2954 15.7924 14.2341 15.842 14.1824C15.8915 14.1306 15.9511 14.0894 16.017 14.0612C16.0829 14.0331 16.1538 14.0186 16.2255 14.0186C16.2972 14.0186 16.3681 14.0331 16.434 14.0612C16.4999 14.0894 16.5595 14.1306 16.609 14.1824C16.6586 14.2341 16.6972 14.2954 16.7224 14.3625C16.7477 14.4295 16.7591 14.501 16.756 14.5726L16.755 14.5696ZM4.02401 4.45063C4.01998 4.30571 4.07363 4.16512 4.1732 4.05974C4.27276 3.95436 4.41009 3.89281 4.555 3.88863H13.042C13.1871 3.89474 13.3242 3.95669 13.4247 4.06151C13.5252 4.16633 13.5813 4.30592 13.5813 4.45113C13.5813 4.59634 13.5252 4.73593 13.4247 4.84075C13.3242 4.94557 13.1871 5.00751 13.042 5.01363H4.555C4.48316 5.01156 4.41243 4.99535 4.34686 4.96593C4.28128 4.93651 4.22215 4.89446 4.17283 4.84217C4.12352 4.78989 4.085 4.72839 4.05946 4.66121C4.03392 4.59403 4.02188 4.52247 4.02401 4.45063ZM12.713 9.24163H4.555C4.40992 9.23551 4.27282 9.17358 4.17233 9.06876C4.07184 8.96394 4.01573 8.82434 4.01573 8.67913C4.01573 8.53392 4.07184 8.39432 4.17233 8.28951C4.27282 8.18469 4.40992 8.12275 4.555 8.11663H12.713C12.8581 8.12275 12.9952 8.18469 13.0957 8.28951C13.1962 8.39432 13.2523 8.53392 13.2523 8.67913C13.2523 8.82434 13.1962 8.96394 13.0957 9.06876C12.9952 9.17358 12.8581 9.23551 12.713 9.24163ZM10.761 13.3146C10.7624 13.4629 10.7069 13.606 10.606 13.7146C10.5581 13.7663 10.5001 13.8076 10.4356 13.8359C10.3711 13.8643 10.3015 13.8792 10.231 13.8796H4.555C4.40992 13.8735 4.27282 13.8116 4.17233 13.7067C4.07184 13.6019 4.01573 13.4623 4.01573 13.3171C4.01573 13.1719 4.07184 13.0323 4.17233 12.9275C4.27282 12.8227 4.40992 12.7607 4.555 12.7546H10.231C10.3015 12.755 10.3711 12.7699 10.4356 12.7982C10.5001 12.8266 10.5581 12.8679 10.606 12.9196C10.707 13.0282 10.7625 13.1714 10.761 13.3196V13.3146Z" fill="black"/>
</svg>
