<svg xmlns="http://www.w3.org/2000/svg" width="20.161" height="20.531" viewBox="0 0 20.161 20.531">
  <g id="XMLID_2_" transform="translate(-23.274 2)">
    <g id="Group_392" data-name="Group 392" transform="translate(23.274 -2)">
      <g id="chat" transform="translate(0)">
        <g id="Group_395" data-name="Group 395" transform="translate(0 0)">
          <g id="chat_1_" data-name="chat (1)" transform="translate(0)">
            <g id="Group_402" data-name="Group 402">
              <g id="Group_401" data-name="Group 401" transform="translate(0)">
                <path id="Path_758" data-name="Path 758" d="M13.493,0c-.006.006-.017.006-.033.006a10.072,10.072,0,0,0-7.9,16.349L4.092,19.765a.547.547,0,0,0,.286.721.559.559,0,0,0,.314.039l5.385-.946a9.705,9.705,0,0,0,3.356.583A10.081,10.081,0,0,0,13.493,0Zm-.055,19.066A8.83,8.83,0,0,1,10.33,18.5a.527.527,0,0,0-.292-.028l-4.533.792,1.2-2.789a.553.553,0,0,0-.088-.578,8.794,8.794,0,0,1-1.529-2.541,8.981,8.981,0,1,1,17.344-3.323v.033A9.006,9.006,0,0,1,13.438,19.066Z" transform="translate(-3.366)" fill="#747d8c"/>
              </g>
            </g>
            <g id="Group_404" data-name="Group 404" transform="translate(6.123 8.07)">
              <g id="Group_403" data-name="Group 403">
                <path id="Path_759" data-name="Path 759" d="M118.187,146.7h-2.97a.55.55,0,0,0,0,1.1h2.97a.55.55,0,0,0,0-1.1Z" transform="translate(-114.666 -146.7)" fill="#747d8c"/>
              </g>
            </g>
            <g id="Group_406" data-name="Group 406" transform="translate(6.123 10.82)">
              <g id="Group_405" data-name="Group 405">
                <path id="Path_760" data-name="Path 760" d="M122.037,196.7h-6.821a.55.55,0,1,0,0,1.1h6.821a.55.55,0,1,0,0-1.1Z" transform="translate(-114.666 -196.7)" fill="#747d8c"/>
              </g>
            </g>
          </g>
        </g>
      </g>
    </g>
  </g>
</svg>
