<svg width="27" height="22" viewBox="0 0 27 22" fill="none" xmlns="http://www.w3.org/2000/svg">
<path d="M4.66301 16.7648H22.52C22.903 16.7648 23.214 16.5588 23.214 16.3038C23.214 16.0488 22.903 15.8428 22.52 15.8428H4.66301C4.27701 15.8428 3.96301 16.0488 3.96301 16.3038C3.96301 16.5588 4.27701 16.7648 4.66301 16.7648Z" fill="#747D8C"/>
<path d="M4.66301 13.8429H22.52C22.903 13.8429 23.214 13.6369 23.214 13.3819C23.214 13.1269 22.903 12.9209 22.52 12.9209H4.66301C4.27701 12.9209 3.96301 13.1269 3.96301 13.3819C3.96301 13.6369 4.27701 13.8429 4.66301 13.8429Z" fill="#747D8C"/>
<path d="M4.66301 10.9259H22.52C22.903 10.9259 23.214 10.7189 23.214 10.4649C23.214 10.2109 22.903 10.0039 22.52 10.0039H4.66301C4.27701 10.0039 3.96301 10.2039 3.96301 10.4649C3.96301 10.7259 4.27701 10.9259 4.66301 10.9259Z" fill="#747D8C"/>
<path d="M25.073 0.500077H2.11001C1.6029 0.499811 1.11642 0.700791 0.75737 1.0589C0.398324 1.41701 0.196067 1.90298 0.195008 2.41008V19.5841C0.194876 19.8354 0.244301 20.0843 0.340454 20.3165C0.436608 20.5488 0.577601 20.7597 0.755371 20.9374C0.933142 21.1151 1.1442 21.256 1.37647 21.352C1.60874 21.4481 1.85767 21.4973 2.10901 21.4971H25.072C25.3234 21.4972 25.5723 21.4478 25.8045 21.3518C26.0368 21.2557 26.2479 21.1148 26.4257 20.9372C26.6035 20.7595 26.7446 20.5486 26.8409 20.3165C26.9372 20.0843 26.9869 19.8354 26.987 19.5841V2.41008C26.9871 2.15874 26.9377 1.90983 26.8416 1.67761C26.7454 1.44539 26.6044 1.23441 26.4266 1.05673C26.2489 0.879056 26.0378 0.738168 25.8055 0.642137C25.5733 0.546105 25.3243 0.496808 25.073 0.497071V0.500077ZM25.073 7.30008V19.5861H2.10901V10.4861V7.39908H25.072V7.29907L25.073 7.30008Z" fill="#747D8C"/>
</svg>
