<svg width="28" height="22" viewBox="0 0 28 22" fill="none" xmlns="http://www.w3.org/2000/svg">
<path fill-rule="evenodd" clip-rule="evenodd" d="M25.079 0.5H3.40601C2.61873 0.508971 1.86716 0.829865 1.31618 1.39228C0.7652 1.9547 0.459812 2.7127 0.467013 3.5V18.5C0.459812 19.2873 0.7652 20.0453 1.31618 20.6077C1.86716 21.1701 2.61873 21.491 3.40601 21.5H25.049C25.8363 21.491 26.5879 21.1701 27.1388 20.6077C27.6898 20.0453 27.9952 19.2873 27.988 18.5V3.5C27.9976 3.11107 27.9296 2.72413 27.7879 2.36179C27.6462 1.99944 27.4338 1.66897 27.1629 1.38966C26.8921 1.11036 26.5683 0.887831 26.2105 0.735077C25.8527 0.582323 25.4681 0.502407 25.079 0.5ZM8.82402 4.51C9.42598 4.49769 10.018 4.66493 10.5245 4.9904C11.031 5.31588 11.4292 5.78484 11.6681 6.33749C11.907 6.89013 11.976 7.50142 11.8661 8.0934C11.7563 8.68538 11.4726 9.23123 11.0513 9.66135C10.63 10.0915 10.0901 10.3864 9.50051 10.5084C8.91092 10.6305 8.29834 10.5742 7.74088 10.3467C7.18341 10.1193 6.70632 9.7309 6.37045 9.2312C6.03457 8.7315 5.85514 8.14309 5.85501 7.541C5.84906 7.14653 5.92134 6.75479 6.06767 6.38842C6.214 6.02205 6.43148 5.6883 6.70754 5.40646C6.98361 5.12463 7.31279 4.9003 7.67607 4.74643C8.03934 4.59256 8.42951 4.5122 8.82402 4.51ZM13.569 18.99H4.07901C3.81222 18.9824 3.55498 18.889 3.34548 18.7236C3.13597 18.5582 2.98537 18.3297 2.91601 18.072C3.25301 14.521 5.76302 11.735 8.82402 11.735C11.885 11.735 14.395 14.49 14.732 18.072C14.6712 18.3343 14.5229 18.5681 14.3115 18.735C14.1001 18.9018 13.8383 18.9917 13.569 18.99ZM24.069 10.51H15.222C14.9619 10.4984 14.7163 10.387 14.5364 10.1988C14.3564 10.0107 14.256 9.76035 14.256 9.5C14.256 9.23965 14.3564 8.98934 14.5364 8.80119C14.7163 8.61305 14.9619 8.50158 15.222 8.49001H24.069C24.1998 8.4917 24.3289 8.5192 24.449 8.57092C24.5691 8.62265 24.6778 8.69758 24.7688 8.79143C24.8599 8.88527 24.9315 8.99617 24.9796 9.11777C25.0277 9.23936 25.0513 9.36926 25.049 9.5C25.0539 9.63141 25.0321 9.76245 24.9849 9.88521C24.9378 10.008 24.8663 10.1199 24.7747 10.2143C24.6831 10.3087 24.5734 10.3835 24.4521 10.4343C24.3308 10.4852 24.2005 10.5109 24.069 10.51ZM24.069 6.5H15.222C14.9619 6.48842 14.7163 6.37696 14.5364 6.18881C14.3564 6.00067 14.256 5.75036 14.256 5.49001C14.256 5.22965 14.3564 4.97934 14.5364 4.79119C14.7163 4.60305 14.9619 4.49158 15.222 4.48H24.069C24.1998 4.4817 24.3289 4.50919 24.449 4.56092C24.5691 4.61265 24.6778 4.68758 24.7688 4.78143C24.8599 4.87527 24.9315 4.98618 24.9796 5.10777C25.0277 5.22937 25.0513 5.35927 25.049 5.49001C25.0539 5.62142 25.0321 5.75245 24.9849 5.87521C24.9378 5.99797 24.8663 6.10991 24.7747 6.20428C24.6831 6.29866 24.5734 6.37352 24.4521 6.42434C24.3308 6.47516 24.2005 6.5009 24.069 6.5Z" fill="#747D8C"/>
</svg>
