<svg width="90" height="91" viewBox="0 0 90 91" fill="none" xmlns="http://www.w3.org/2000/svg">
<g clip-path="url(#clip0_2410_3429)">
<path d="M45.0007 89.4988C69.8539 89.4988 90.0014 69.898 90.0014 45.7191C90.0014 21.5403 69.8539 1.93945 45.0007 1.93945C20.1475 1.93945 0 21.5403 0 45.7191C0 69.898 20.1475 89.4988 45.0007 89.4988Z" fill="#E7D288"/>
<path d="M54.441 67.4831C54.4465 66.6283 54.2789 65.7808 53.9478 64.989C53.6166 64.1972 53.1283 63.4767 52.5109 62.8684C51.8935 62.2602 51.159 61.7763 50.3493 61.4442C49.5396 61.1122 48.6707 60.9385 47.792 60.9332L46.152 60.9224C44.7599 57.4538 44.2963 53.6181 44.1696 52.2786L45.3237 52.2854C45.8852 52.2752 46.4204 52.052 46.8151 51.6632C47.2098 51.2745 47.4326 50.7511 47.4361 50.2047C47.4395 49.6583 47.2233 49.1323 46.8336 48.7388C46.4439 48.3454 45.9115 48.1158 45.3501 48.0989L36.1618 48.042C35.5912 48.0388 35.0426 48.2561 34.6367 48.6462C34.2307 49.0363 34.0006 49.5673 33.9969 50.1224C33.9936 50.6775 34.217 51.2112 34.618 51.6061C35.019 52.001 35.5647 52.2249 36.1353 52.2285L37.2894 52.2353C37.1502 53.5748 36.6295 57.405 35.1942 60.8547H34.1153C32.3406 60.8439 30.6342 61.5193 29.3714 62.7323C28.1086 63.9454 27.3927 65.5968 27.3813 67.3233L54.441 67.4912V67.4831Z" fill="#FFFEFD" stroke="#9B9B9B" stroke-width="2" stroke-miterlimit="10"/>
<path d="M21.4395 13.0313C19.4 13.0178 17.3562 12.9582 15.3139 12.9934C13.5264 13.0245 11.8418 13.7058 10.6849 15.0589C9.43894 16.5162 9.22872 18.2038 9.393 20.0268C9.89975 25.6598 11.4896 31.7911 15.843 35.8218C18.8473 38.6038 22.8038 39.8376 26.894 39.8932C28.5493 39.9148 28.5647 37.4133 26.9108 37.3902C23.8271 37.3483 20.7615 36.5776 18.3433 34.6462C16.3107 33.0209 14.8629 30.7821 13.8883 28.416C12.9695 26.1487 12.4057 23.727 12.098 21.3054C11.9588 20.1758 11.6636 18.7957 12.0479 17.6986C12.5338 16.3198 13.8354 15.5221 15.2972 15.4936C17.3354 15.453 19.3805 15.518 21.4228 15.5315C23.0781 15.541 23.0934 13.0381 21.4395 13.0286" fill="#FFFEFD"/>
<path d="M21.4395 13.0313C19.4 13.0178 17.3562 12.9582 15.3139 12.9934C13.5264 13.0245 11.8418 13.7058 10.6849 15.0589C9.43894 16.5162 9.22872 18.2038 9.393 20.0268C9.89975 25.6598 11.4896 31.7911 15.843 35.8218C18.8473 38.6038 22.8038 39.8376 26.894 39.8932C28.5493 39.9148 28.5647 37.4133 26.9108 37.3902C23.8271 37.3483 20.7615 36.5776 18.3433 34.6462C16.3107 33.0209 14.8629 30.7821 13.8883 28.416C12.9695 26.1487 12.4057 23.727 12.098 21.3054C11.9588 20.1758 11.6636 18.7957 12.0479 17.6986C12.5338 16.3198 13.8354 15.5221 15.2972 15.4936C17.3354 15.453 19.3805 15.518 21.4228 15.5315C23.0781 15.541 23.0934 13.0381 21.4395 13.0286" stroke="#9B9B9B" stroke-width="2" stroke-miterlimit="10"/>
<path d="M60.3425 15.5626C62.2623 15.5748 64.1835 15.5775 66.1047 15.5965C67.249 15.6101 68.3113 15.8674 69.0784 16.7721C70.0431 17.9071 69.8441 19.2751 69.6895 20.6295C69.141 25.424 67.6458 30.652 63.9301 34.0624C61.3782 36.4042 58.0231 37.3468 54.5705 37.3509C52.9152 37.3509 52.8999 39.8552 54.5538 39.8525C58.2277 39.8525 61.7931 38.9166 64.7167 36.6967C67.2226 34.7924 68.9419 32.1473 70.1462 29.3166C71.2599 26.6945 71.8627 23.899 72.2177 21.0981C72.4224 19.4864 72.5894 17.9112 71.8558 16.3902C71.4449 15.5497 70.8308 14.8186 70.0662 14.2593C69.3015 13.7001 68.4089 13.3293 67.4648 13.1789C65.1691 12.82 62.6799 13.0705 60.3647 13.0556C58.7094 13.0462 58.6941 15.5477 60.348 15.5586" fill="#FFFEFD"/>
<path d="M60.3425 15.5626C62.2623 15.5748 64.1835 15.5775 66.1047 15.5965C67.249 15.6101 68.3113 15.8674 69.0784 16.7721C70.0431 17.9071 69.8441 19.2751 69.6895 20.6295C69.141 25.424 67.6458 30.652 63.9301 34.0624C61.3782 36.4042 58.0231 37.3468 54.5705 37.3509C52.9152 37.3509 52.8999 39.8552 54.5538 39.8525C58.2277 39.8525 61.7931 38.9166 64.7167 36.6967C67.2226 34.7924 68.9419 32.1473 70.1462 29.3166C71.2599 26.6945 71.8627 23.899 72.2177 21.0981C72.4224 19.4864 72.5894 17.9112 71.8558 16.3902C71.4449 15.5497 70.8308 14.8186 70.0662 14.2593C69.3015 13.7001 68.4089 13.3293 67.4648 13.1789C65.1691 12.82 62.6799 13.0705 60.3647 13.0556C58.7094 13.0462 58.6941 15.5477 60.348 15.5586" stroke="#9B9B9B" stroke-width="2" stroke-miterlimit="10"/>
<path d="M62.7732 7.55355L41.0817 7.41811H39.9304L19.4403 7.28809C19.2914 7.71337 16.8857 49.1865 40.8144 48.6244H40.8659C64.7849 49.4777 62.9166 7.98019 62.7732 7.55355Z" fill="#FFFEFD" stroke="#9B9B9B" stroke-width="2" stroke-miterlimit="10"/>
<g opacity="0.300003">
<path d="M62.7732 7.55273C62.7523 10.1126 62.8484 12.5396 62.7259 14.9275C61.9059 31.0448 57.1878 44.788 46.1158 48.1022L39.9554 48.7577C39.9554 48.7577 52.3681 43.3265 55.4573 32.4385C58.5466 21.5505 61.0511 8.02136 61.0511 8.02136L62.7732 7.55273Z" fill="#D8D6D6"/>
</g>
<path d="M22.5702 66.9239L22.4604 83.9268L58.7718 84.1487L58.8816 67.1459L22.5702 66.9239Z" fill="#FFFEFD" stroke="#9B9B9B" stroke-width="2" stroke-miterlimit="10"/>
<path d="M41.3783 17.9375L44.2921 23.7723L50.884 24.7474L46.0796 29.2454L47.1655 35.6449L41.2836 32.5908L35.3613 35.5732L36.5293 29.1858L31.7834 24.6282L38.3893 23.7357L41.3783 17.9375Z" fill="#FFFEFD" stroke="#9B9B9B" stroke-width="2" stroke-miterlimit="10"/>
<path d="M36.0476 48.8987C35.8997 48.9401 35.759 49.0027 35.63 49.0842C35.4869 49.1961 35.3694 49.3358 35.285 49.4944C35.2006 49.653 35.1512 49.827 35.1399 50.0052C35.1326 50.369 35.2038 50.7303 35.3487 51.0657C35.4143 51.2055 35.4674 51.3505 35.5074 51.4991C35.409 51.3761 35.3306 51.239 35.2749 51.0928C35.1038 50.752 35.0188 50.3763 35.0271 49.9971C35.0387 49.8041 35.0947 49.6161 35.1911 49.4471C35.2875 49.278 35.4218 49.1323 35.584 49.0206C35.6833 48.9551 35.7966 48.9125 35.9153 48.896C35.9582 48.8849 36.0033 48.8849 36.0462 48.896" fill="#D8D6D6"/>
<path d="M34.8406 61.5493C34.7295 61.5644 34.6173 61.5707 34.5051 61.5682C34.2027 61.5801 33.9014 61.6104 33.603 61.659C32.6153 61.8126 31.6759 62.1807 30.8545 62.7359C30.0331 63.2912 29.3509 64.0193 28.8584 64.8662C28.7076 65.122 28.5732 65.3866 28.4561 65.6585C28.4172 65.761 28.3707 65.8606 28.3169 65.9565C28.3186 65.9282 28.3247 65.9004 28.335 65.8739C28.3517 65.8211 28.3726 65.7384 28.4115 65.6423C28.5133 65.3623 28.6376 65.0906 28.7832 64.8296C29.2637 63.9578 29.9493 63.2088 30.784 62.6439C31.6187 62.079 32.5789 61.7141 33.5863 61.5791C33.8886 61.5362 34.194 61.5176 34.4995 61.5235C34.6081 61.5235 34.6916 61.5317 34.7487 61.5344C34.7779 61.5352 34.8068 61.5392 34.835 61.5466" fill="#D8D6D6"/>
<path d="M67.0166 59.0691L72.5867 71.2614L74.1431 74.6678L75.5952 69.9612L76.0922 69.7459L80.6571 71.8506L79.0993 68.4456L73.5292 56.252L67.0166 59.0691Z" fill="#FFFEFD" stroke="#9B9B9B" stroke-width="2" stroke-miterlimit="10"/>
<path d="M60.2673 59.0178L54.5037 71.1262L52.8929 74.5081L51.5161 69.7799L51.0233 69.5564L46.4249 71.5934L48.0356 68.2115L53.7993 56.1045L60.2673 59.0178Z" fill="#FFFEFD" stroke="#9B9B9B" stroke-width="2" stroke-miterlimit="10"/>
<path d="M78.5452 49.0035C78.5228 51.8106 77.6453 54.5483 76.0237 56.8703C74.402 59.1923 72.1091 60.9943 69.4347 62.0486C66.7604 63.1028 63.8248 63.3619 60.9991 62.793C58.1735 62.2242 55.5846 60.8529 53.56 58.8527C51.5353 56.8525 50.1658 54.3132 49.6246 51.5557C49.0833 48.7983 49.3947 45.9467 50.5193 43.3614C51.6439 40.7762 53.5312 38.5734 55.9425 37.0316C58.3539 35.4898 61.1811 34.6783 64.0665 34.6996C65.9827 34.7138 67.8771 35.095 69.6418 35.8216C71.4065 36.5481 73.0067 37.6057 74.3512 38.934C75.6957 40.2622 76.7581 41.8351 77.4777 43.5629C78.1973 45.2906 78.56 47.1393 78.5452 49.0035Z" fill="#FFFEFD" stroke="#9B9B9B" stroke-width="2" stroke-miterlimit="10"/>
<path d="M63.802 44.0273L65.2778 46.9975L68.6301 47.4973L66.1841 49.7808L66.7312 53.0368L63.7422 51.4793L60.7281 52.9921L61.3268 49.7443L58.9169 47.4242L62.2776 46.9745L63.802 44.0273Z" fill="#FFFEFD" stroke="#9B9B9B" stroke-width="2" stroke-miterlimit="10"/>
<path d="M71.3647 56.1022C75.457 52.121 75.4569 45.6661 71.3647 41.6849C67.2724 37.7037 60.6375 37.7037 56.5453 41.6849C52.453 45.6661 52.453 52.121 56.5453 56.1022C60.6375 60.0834 67.2724 60.0834 71.3647 56.1022Z" stroke="#9B9B9B" stroke-width="2" stroke-miterlimit="10"/>
</g>
<defs>
<clipPath id="clip0_2410_3429">
<rect width="90" height="90" fill="white" transform="translate(0 0.71875)"/>
</clipPath>
</defs>
</svg>
