<svg width="132" height="98" viewBox="0 0 132 98" fill="none" xmlns="http://www.w3.org/2000/svg">
<path d="M128.399 71.9613C87.0066 66.0705 44.9881 66.0705 3.59532 71.9613C5.39 68.0447 7.2445 64.1386 9.15883 60.2431C6.34364 56.9458 3.46864 53.6749 0.533813 50.4304C43.9592 44.2511 88.0408 44.2511 131.466 50.4304C128.531 53.6749 125.655 56.9458 122.836 60.2431C124.754 64.1386 126.608 68.0447 128.399 71.9613Z" fill="#F39C12"/>
<path d="M117.198 62.7927C83.1743 58.9024 48.8185 58.9024 14.7953 62.7927C18.6063 64.9322 22.3611 67.1175 26.0595 69.3486C52.6315 66.9416 79.3666 66.9416 105.939 69.3486C109.633 67.121 113.386 64.9357 117.198 62.7927Z" fill="#F39C12"/>
<path d="M65.9973 98C61.8379 98 58.4438 92.5632 54.6011 91.5339C50.6317 90.4782 44.9785 93.4447 41.5 91.4283C38.0214 89.4119 37.7417 82.9828 34.8808 80.1166C32.0198 77.2503 25.6118 77.0234 23.569 73.4974C21.5262 69.9714 24.5244 64.3656 23.4634 60.3962C22.4077 56.5535 16.9973 53.1595 16.9973 49C16.9973 44.8406 22.4341 41.4465 23.4634 37.6038C24.5191 33.6344 21.5526 27.9811 23.569 24.5026C25.5854 21.0241 32.0146 20.7444 34.8808 17.8782C37.747 15.012 37.9739 8.61446 41.5 6.5717C45.026 4.52893 50.6317 7.52709 54.6011 6.46084C58.4438 5.40515 61.8379 0 65.9973 0C70.1567 0 73.5508 5.43154 77.3935 6.46084C81.3629 7.51653 87.0162 4.55532 90.4947 6.5717C93.9732 8.58807 94.253 15.0172 97.1192 17.8782C99.9854 20.7391 106.383 20.9766 108.426 24.5026C110.468 28.0287 107.47 33.6344 108.531 37.6038C109.587 41.4465 114.997 44.8353 114.997 49C114.997 53.1647 109.587 56.5535 108.531 60.3962C107.476 64.3656 110.442 70.0189 108.426 73.4974C106.409 76.9759 99.9801 77.2556 97.1192 80.1166C94.2582 82.9775 94.0207 89.3855 90.4947 91.4283C86.9687 93.4711 81.3629 90.4676 77.3935 91.5339C73.5508 92.5632 70.162 98 65.9973 98Z" fill="#A0B424"/>
<path d="M19.1359 48.9999C19.1359 45.02 24.4143 41.7895 25.3961 38.1157C26.4096 34.3205 23.4853 28.889 25.3961 25.5635C27.3069 22.2381 33.5302 22.0164 36.2645 19.2821C38.9987 16.5479 39.1729 10.3615 42.5459 8.40851C45.9188 6.45548 51.3028 9.41142 55.1033 8.40851C58.7877 7.41616 62.0181 2.1377 65.9981 2.1377C69.9781 2.1377 73.2138 7.41615 76.8823 8.39266C80.6775 9.41141 86.1091 6.48714 89.4345 8.39266C92.7599 10.2982 92.9816 16.5268 95.7159 19.2663C98.4501 22.0058 104.636 22.1747 106.59 25.5477C108.543 28.9206 105.587 34.3047 106.59 38.0999C107.571 41.7948 112.844 45.0041 112.844 48.9841C112.844 52.964 107.566 56.1945 106.59 59.863C105.571 63.6635 108.495 69.095 106.59 72.4205C104.684 75.7459 98.4554 75.9623 95.7159 78.7018C92.9763 81.4414 92.8074 87.6225 89.4345 89.5702C86.0616 91.518 80.6775 88.5726 76.8823 89.5702C73.2138 90.552 69.9781 95.8305 65.9981 95.8305C62.0181 95.8305 58.7877 90.552 55.1192 89.5702C51.3187 88.5567 45.8871 91.481 42.5617 89.5702C39.2363 87.6594 39.0198 81.4361 36.2803 78.7018C33.5408 75.9676 27.3597 75.7881 25.4067 72.4205C23.4536 69.0528 26.4096 63.6635 25.4067 59.863C24.4143 56.2103 19.1359 52.9799 19.1359 48.9999Z" fill="#A0B424"/>
<path d="M117.198 62.793C83.1749 58.9028 48.8191 58.9028 14.7959 62.793L12.3256 41.1988C47.9905 37.1238 84.0035 37.1238 119.668 41.1988L117.198 62.793Z" fill="#F8C10A"/>
<path d="M27.8289 49.0005C27.8278 41.4499 30.0659 34.0687 34.2601 27.7902C38.4543 21.5117 44.4162 16.6181 51.3918 13.7281C58.3674 10.8382 66.0433 10.0818 73.4488 11.5545C80.8543 13.0273 87.6567 16.6631 92.9957 22.0022C98.3348 27.3412 101.971 34.1436 103.443 41.5491C104.916 48.9546 104.16 56.6305 101.27 63.6061C98.3798 70.5817 93.4862 76.5436 87.2077 80.7378C80.9292 84.932 73.548 87.1701 65.9974 87.1691C55.8745 87.1691 46.1662 83.1477 39.0082 75.9897C31.8502 68.8317 27.8289 59.1234 27.8289 49.0005Z" fill="#CAD3E1"/>
<path d="M29.6293 48.9999C29.6293 41.8056 31.7627 34.7729 35.7598 28.7911C39.7568 22.8093 45.4379 18.1472 52.0847 15.3943C58.7315 12.6414 66.0453 11.9214 73.1013 13.3253C80.1573 14.7292 86.6385 18.194 91.7253 23.2815C96.8121 28.3691 100.276 34.8508 101.679 41.9069C103.082 48.9631 102.361 56.2769 99.6068 62.9233C96.8529 69.5696 92.19 75.2501 86.2076 79.2463C80.2253 83.2425 73.1922 85.3749 65.9979 85.3738C56.3519 85.3724 47.1014 81.5396 40.2811 74.7183C33.4608 67.897 29.6293 58.646 29.6293 48.9999Z" fill="#A0B424"/>
</svg>
