<svg width="43" height="43" viewBox="0 0 43 43" fill="none" xmlns="http://www.w3.org/2000/svg">
<path opacity="0.17" d="M21.481 42.962C33.3446 42.962 42.962 33.3446 42.962 21.481C42.962 9.61737 33.3446 0 21.481 0C9.61737 0 0 9.61737 0 21.481C0 33.3446 9.61737 42.962 21.481 42.962Z" fill="#AA4A4A"/>
<path d="M19.25 12.25H13.4167C12.9525 12.25 12.5074 12.4344 12.1792 12.7626C11.851 13.0908 11.6667 13.5359 11.6667 14V26.25H30.3333V20.4167" stroke="#AA4A4A" stroke-width="1.7" stroke-linecap="round" stroke-linejoin="round"/>
<path d="M9.33333 26.25H32.6667V27.4167C32.6667 28.3449 32.2979 29.2352 31.6415 29.8915C30.9852 30.5479 30.0949 30.9167 29.1667 30.9167H12.8333C11.9051 30.9167 11.0148 30.5479 10.3585 29.8915C9.70208 29.2352 9.33333 28.3449 9.33333 27.4167V26.25Z" stroke="#AA4A4A" stroke-width="1.7" stroke-linejoin="round"/>
<path d="M25.8417 11.083C24.7788 11.083 23.9167 11.9201 23.9167 12.9526C23.9167 14.8216 26.1917 16.5209 27.4167 16.9164C28.6417 16.5209 30.9167 14.8222 30.9167 12.9526C30.9167 11.9201 30.0551 11.083 28.9917 11.083C28.685 11.0816 28.3824 11.1528 28.1086 11.2909C27.8349 11.429 27.5977 11.6301 27.4167 11.8775C27.2356 11.6301 26.9984 11.429 26.7247 11.2909C26.4509 11.1528 26.1483 11.0816 25.8417 11.083V11.083Z" stroke="#AA4A4A" stroke-width="1.7" stroke-linecap="round" stroke-linejoin="round"/>
</svg>
