<svg width="43" height="44" viewBox="0 0 43 44" fill="none" xmlns="http://www.w3.org/2000/svg">
<path opacity="0.16" d="M21.481 43.8858C33.3446 43.8858 42.962 34.2685 42.962 22.4048C42.962 10.5412 33.3446 0.923828 21.481 0.923828C9.61737 0.923828 0 10.5412 0 22.4048C0 34.2685 9.61737 43.8858 21.481 43.8858Z" fill="#3A926D"/>
<path d="M24.5 32.4999H17.5V22.6999C17.5 22.5142 17.5737 22.3362 17.705 22.2049C17.8363 22.0736 18.0143 21.9999 18.2 21.9999H23.8C23.9857 21.9999 24.1637 22.0736 24.295 22.2049C24.4263 22.3362 24.5 22.5142 24.5 22.6999V32.4999V32.4999ZM30.8 32.4999H24.5V29.1165C24.5 28.9309 24.5737 28.7528 24.705 28.6215C24.8363 28.4903 25.0143 28.4165 25.2 28.4165H30.8C30.9857 28.4165 31.1637 28.4903 31.295 28.6215C31.4263 28.7528 31.5 28.9309 31.5 29.1165V31.7999C31.5 31.9855 31.4263 32.1636 31.295 32.2948C31.1637 32.4261 30.9857 32.4999 30.8 32.4999V32.4999ZM17.5 32.4999V26.7832C17.5 26.5975 17.4263 26.4195 17.295 26.2882C17.1637 26.1569 16.9857 26.0832 16.8 26.0832H11.2C11.0143 26.0832 10.8363 26.1569 10.705 26.2882C10.5737 26.4195 10.5 26.5975 10.5 26.7832V31.7999C10.5 31.9855 10.5737 32.1636 10.705 32.2948C10.8363 32.4261 11.0143 32.4999 11.2 32.4999H17.5V32.4999ZM19.607 13.965L20.6675 11.7169C20.6961 11.6526 20.7428 11.598 20.8018 11.5597C20.8608 11.5214 20.9296 11.501 21 11.501C21.0704 11.501 21.1392 11.5214 21.1982 11.5597C21.2572 11.598 21.3039 11.6526 21.3325 11.7169L22.3942 13.965L24.7648 14.3279C25.0693 14.3745 25.1907 14.7665 24.9702 14.9905L23.2552 16.7405L23.66 19.2115C23.7113 19.5289 23.394 19.7715 23.121 19.621L21 18.4544L18.879 19.621C18.6072 19.7704 18.2887 19.5289 18.34 19.2115L18.7448 16.7405L17.0298 14.9905C16.8082 14.7665 16.9307 14.3745 17.234 14.3279L19.607 13.9662V13.965Z" stroke="#3A926D" stroke-width="1.7" stroke-linecap="round" stroke-linejoin="round"/>
</svg>
