<svg width="43" height="44" viewBox="0 0 43 44" fill="none" xmlns="http://www.w3.org/2000/svg">
<path opacity="0.19" d="M21.481 43.9239C33.3446 43.9239 42.962 34.3065 42.962 22.4429C42.962 10.5793 33.3446 0.961914 21.481 0.961914C9.61737 0.961914 0 10.5793 0 22.4429C0 34.3065 9.61737 43.9239 21.481 43.9239Z" fill="#EA702C"/>
<path d="M11.15 31.6254H17.45V33.2004H11.15V31.6254ZM22.9625 32.4129C22.8445 32.4128 22.7281 32.3862 22.6218 32.3351C22.5154 32.284 22.422 32.2097 22.3482 32.1176L19.4345 28.4754H11.15V26.9004H19.8125C19.9305 26.9005 20.0469 26.927 20.1532 26.9782C20.2595 27.0293 20.353 27.1036 20.4267 27.1957L22.905 30.2922L27.0323 24.1008C27.1022 23.9961 27.1962 23.9096 27.3064 23.8486C27.4166 23.7877 27.5398 23.7541 27.6657 23.7506C27.7916 23.7471 27.9165 23.7739 28.0299 23.8287C28.1433 23.8835 28.2419 23.9646 28.3175 24.0654L30.4437 26.9004H33.2V28.4754H30.05C29.9277 28.4754 29.8072 28.4469 29.6978 28.3923C29.5885 28.3376 29.4933 28.2582 29.42 28.1604L27.7253 25.9003L23.6177 32.0625C23.549 32.1655 23.4569 32.2509 23.3489 32.3117C23.2409 32.3725 23.1201 32.4069 22.9964 32.4121L22.9625 32.4129ZM18.2375 22.1754V18.2379H19.025C19.8601 18.2368 20.6607 17.9046 21.2512 17.3141C21.8417 16.7236 22.174 15.923 22.175 15.0879V12.7254H19.8125C19.0061 12.7267 18.2312 13.039 17.6492 13.5972C17.2414 12.8567 16.6426 12.2392 15.915 11.8088C15.1874 11.3785 14.3578 11.1511 13.5125 11.1504H11.15V13.5129C11.1515 14.7656 11.6497 15.9666 12.5355 16.8524C13.4213 17.7382 14.6223 18.2364 15.875 18.2379H16.6625V22.1754H11.15V23.7504H22.175V22.1754H18.2375ZM19.8125 14.3004H20.6V15.0879C20.5996 15.5055 20.4335 15.9058 20.1382 16.2011C19.8429 16.4964 19.4426 16.6625 19.025 16.6629H18.2375V15.8754C18.2379 15.4578 18.404 15.0574 18.6993 14.7622C18.9945 14.4669 19.3949 14.3008 19.8125 14.3004ZM15.875 16.6629C15.0399 16.6618 14.2393 16.3296 13.6488 15.7391C13.0582 15.1486 12.726 14.348 12.725 13.5129V12.7254H13.5125C14.3476 12.7264 15.1482 13.0586 15.7387 13.6492C16.3292 14.2397 16.6615 15.0403 16.6625 15.8754V16.6629H15.875Z" fill="#EA702C"/>
</svg>
