<svg width="131" height="99" viewBox="0 0 131 99" fill="none" xmlns="http://www.w3.org/2000/svg">
<path d="M127.866 72.4613C86.4728 66.5705 44.4543 66.5705 3.06151 72.4613C4.85619 68.5447 6.71069 64.6386 8.62501 60.7431C5.80983 57.4458 2.93483 54.1749 0 50.9304C43.4254 44.7511 87.507 44.7511 130.932 50.9304C127.998 54.1749 125.121 57.4458 122.302 60.7431C124.22 64.6386 126.074 68.5447 127.866 72.4613Z" fill="#F39C12"/>
<path d="M116.664 63.2927C82.6405 59.4024 48.2848 59.4024 14.2615 63.2927C18.0726 65.4322 21.8273 67.6175 25.5258 69.8486C52.0977 67.4416 78.8329 67.4416 105.405 69.8486C109.1 67.621 112.853 65.4357 116.664 63.2927Z" fill="#F39C12"/>
<path d="M65.4635 98.5C61.3041 98.5 57.91 93.0632 54.0673 92.0339C50.0979 90.9782 44.4447 93.9447 40.9661 91.9283C37.4876 89.9119 37.2079 83.4828 34.3469 80.6166C31.486 77.7503 25.078 77.5234 23.0352 73.9974C20.9924 70.4714 23.9906 64.8656 22.9296 60.8962C21.8739 57.0535 16.4635 53.6595 16.4635 49.5C16.4635 45.3406 21.9003 41.9465 22.9296 38.1038C23.9853 34.1344 21.0188 28.4811 23.0352 25.0026C25.0516 21.5241 31.4807 21.2444 34.3469 18.3782C37.2132 15.512 37.4401 9.11446 40.9661 7.0717C44.4922 5.02893 50.0979 8.02709 54.0673 6.96084C57.91 5.90515 61.3041 0.5 65.4635 0.5C69.6229 0.5 73.017 5.93154 76.8597 6.96084C80.8291 8.01653 86.4824 5.05532 89.9609 7.0717C93.4394 9.08807 93.7191 15.5172 96.5853 18.3782C99.4516 21.2391 105.849 21.4766 107.892 25.0026C109.935 28.5287 106.936 34.1344 107.997 38.1038C109.053 41.9465 114.464 45.3353 114.464 49.5C114.464 53.6647 109.053 57.0535 107.997 60.8962C106.942 64.8656 109.908 70.5189 107.892 73.9974C105.875 77.4759 99.4463 77.7556 96.5853 80.6166C93.7244 83.4775 93.4869 89.8855 89.9609 91.9283C86.4349 93.9711 80.8291 90.9676 76.8597 92.0339C73.017 93.0632 69.6282 98.5 65.4635 98.5Z" fill="#2485B4"/>
<path d="M18.602 49.4999C18.602 45.52 23.8805 42.2895 24.8623 38.6157C25.8757 34.8205 22.9514 29.389 24.8623 26.0635C26.7731 22.7381 32.9964 22.5164 35.7306 19.7821C38.4649 17.0479 38.6391 10.8615 42.012 8.90851C45.3849 6.95548 50.769 9.91142 54.5695 8.90851C58.2538 7.91616 61.4843 2.6377 65.4642 2.6377C69.4442 2.6377 72.6799 7.91615 76.3484 8.89266C80.1436 9.91141 85.5752 6.98714 88.9006 8.89266C92.2261 10.7982 92.4477 17.0268 95.182 19.7663C97.9162 22.5058 104.103 22.6747 106.056 26.0477C108.009 29.4206 105.053 34.8047 106.056 38.5999C107.037 42.2948 112.311 45.5041 112.311 49.4841C112.311 53.464 107.032 56.6945 106.056 60.363C105.037 64.1635 107.961 69.595 106.056 72.9205C104.15 76.2459 97.9215 76.4623 95.182 79.2018C92.4425 81.9414 92.2736 88.1225 88.9006 90.0702C85.5277 92.018 80.1436 89.0726 76.3484 90.0702C72.6799 91.052 69.4442 96.3305 65.4642 96.3305C61.4843 96.3305 58.2538 91.052 54.5853 90.0702C50.7848 89.0567 45.3533 91.981 42.0278 90.0702C38.7024 88.1594 38.486 81.9361 35.7464 79.2018C33.0069 76.4676 26.8258 76.2881 24.8728 72.9205C22.9198 69.5528 25.8757 64.1635 24.8728 60.363C23.8805 56.7103 18.602 53.4799 18.602 49.4999Z" fill="#2485B4"/>
<path d="M116.664 63.293C82.6411 59.4028 48.2853 59.4028 14.2621 63.293L11.7917 41.6988C47.4567 37.6238 83.4697 37.6238 119.135 41.6988L116.664 63.293Z" fill="#F8C10A"/>
<path d="M27.295 49.5005C27.294 41.9499 29.5321 34.5687 33.7263 28.2902C37.9205 22.0117 43.8824 17.1181 50.858 14.2281C57.8335 11.3382 65.5095 10.5818 72.915 12.0545C80.3205 13.5273 87.1229 17.1631 92.4619 22.5022C97.8009 27.8412 101.437 34.6436 102.91 42.0491C104.382 49.4546 103.626 57.1305 100.736 64.1061C97.846 71.0817 92.9524 77.0436 86.6739 81.2378C80.3954 85.432 73.0142 87.6701 65.4636 87.6691C55.3407 87.6691 45.6324 83.6477 38.4744 76.4897C31.3164 69.3317 27.295 59.6234 27.295 49.5005Z" fill="#CAD3E1"/>
<path d="M29.0954 49.4999C29.0954 42.3056 31.2288 35.2729 35.2259 29.2911C39.2229 23.3093 44.9041 18.6472 51.5508 15.8943C58.1976 13.1414 65.5115 12.4214 72.5675 13.8253C79.6234 15.2292 86.1046 18.694 91.1914 23.7815C96.2782 28.8691 99.7421 35.3508 101.145 42.4069C102.548 49.4631 101.827 56.7769 99.0729 63.4233C96.3191 70.0696 91.6561 75.7501 85.6737 79.7463C79.6914 83.7425 72.6583 85.8749 65.464 85.8738C55.818 85.8724 46.5675 82.0396 39.7472 75.2183C32.9269 68.397 29.0954 59.146 29.0954 49.4999Z" fill="#2485B4"/>
</svg>
