<svg width="32" height="32" viewBox="0 0 32 32" fill="none" xmlns="http://www.w3.org/2000/svg">
<g clip-path="url(#clip0_2293_3054)">
<path d="M22.1244 23.1115H29.1111C28.5244 15.3693 25.1911 10.5604 20.9156 7.71599L22.8622 3.4671C22.9211 3.33228 22.9455 3.18496 22.9334 3.03835C22.9213 2.89174 22.873 2.75043 22.7928 2.62709C22.7127 2.50375 22.6031 2.40224 22.4741 2.33165C22.345 2.26106 22.2004 2.22361 22.0533 2.22266H9.86667C9.71956 2.22361 9.575 2.26106 9.44593 2.33165C9.31687 2.40224 9.20734 2.50375 9.12717 2.62709C9.047 2.75043 8.99869 2.89174 8.98658 3.03835C8.97447 3.18496 8.99893 3.33228 9.05778 3.4671L10.1244 5.77821H19.12L18.32 7.55599H16.6756C17.1778 8.90643 17.5469 10.3027 17.7778 11.7249C17.9273 12.6071 18.0223 13.4977 18.0622 14.3915L16.6578 15.3782C16.6616 14.2285 16.5664 13.0805 16.3733 11.9471C16.1277 10.4386 15.704 8.96463 15.1111 7.55599H14.2222C13.4019 8.59249 12.6648 9.69221 12.0178 10.8449C11.4961 11.8336 11.0532 12.862 10.6933 13.9204L9.47555 13.1115C9.83102 12.0886 10.268 11.0958 10.7822 10.1427C11.3018 9.24891 11.8716 8.38531 12.4889 7.55599H10.9333L11.0044 7.7071C6.29333 10.8449 2.71111 16.356 2.71111 25.556C2.6991 25.7494 2.72553 25.9432 2.78887 26.1264C2.85221 26.3095 2.9512 26.4782 3.08014 26.6229C3.20907 26.7675 3.36539 26.8852 3.54006 26.969C3.71473 27.0529 3.90428 27.1013 4.09778 27.1115H11.2089C10.9035 26.7938 10.6927 26.3972 10.6 25.9664C10.5073 25.5355 10.5364 25.0874 10.6841 24.6721C10.8317 24.2569 11.0921 23.8909 11.436 23.6153C11.7798 23.3397 12.1937 23.1652 12.6311 23.1115C12.4182 22.7505 12.3048 22.3395 12.3022 21.9204C12.3022 21.2839 12.5551 20.6735 13.0052 20.2234C13.4553 19.7733 14.0657 19.5204 14.7022 19.5204H20.0356C20.6721 19.5204 21.2825 19.7733 21.7326 20.2234C22.1827 20.6735 22.4356 21.2839 22.4356 21.9204C22.4401 22.3381 22.3327 22.7494 22.1244 23.1115Z" fill="#F8C10A"/>
<path d="M19.2 25.3332C19.2 25.0975 19.1063 24.8714 18.9396 24.7047C18.773 24.538 18.5469 24.4443 18.3111 24.4443H12.9778C12.742 24.4443 12.5159 24.538 12.3492 24.7047C12.1825 24.8714 12.0889 25.0975 12.0889 25.3332C12.0889 25.569 12.1825 25.7951 12.3492 25.9618C12.5159 26.1285 12.742 26.2221 12.9778 26.2221H18.3111C18.5469 26.2221 18.773 26.1285 18.9396 25.9618C19.1063 25.7951 19.2 25.569 19.2 25.3332Z" fill="#F8C10A"/>
<path d="M20.0356 20.8887H14.7022C14.4665 20.8887 14.2404 20.9823 14.0737 21.149C13.907 21.3157 13.8133 21.5418 13.8133 21.7776C13.8133 22.0133 13.907 22.2394 14.0737 22.4061C14.2404 22.5728 14.4665 22.6664 14.7022 22.6664H20.0356C20.2713 22.6664 20.4974 22.5728 20.6641 22.4061C20.8308 22.2394 20.9244 22.0133 20.9244 21.7776C20.9244 21.5418 20.8308 21.3157 20.6641 21.149C20.4974 20.9823 20.2713 20.8887 20.0356 20.8887Z" fill="#F8C10A"/>
<path d="M19.5556 28H14.2222C13.9865 28 13.7604 28.0936 13.5937 28.2603C13.427 28.427 13.3333 28.6531 13.3333 28.8889C13.3333 29.1246 13.427 29.3507 13.5937 29.5174C13.7604 29.6841 13.9865 29.7778 14.2222 29.7778H19.5556C19.7913 29.7778 20.0174 29.6841 20.1841 29.5174C20.3508 29.3507 20.4444 29.1246 20.4444 28.8889C20.4444 28.6531 20.3508 28.427 20.1841 28.2603C20.0174 28.0936 19.7913 28 19.5556 28Z" fill="#F8C10A"/>
<path d="M29.0667 28H22.8444C22.6087 28 22.3826 28.0936 22.2159 28.2603C22.0492 28.427 21.9556 28.6531 21.9556 28.8889C21.9556 29.1246 22.0492 29.3507 22.2159 29.5174C22.3826 29.6841 22.6087 29.7778 22.8444 29.7778H29.0667C29.3024 29.7778 29.5285 29.6841 29.6952 29.5174C29.8619 29.3507 29.9556 29.1246 29.9556 28.8889C29.9556 28.6531 29.8619 28.427 29.6952 28.2603C29.5285 28.0936 29.3024 28 29.0667 28Z" fill="#F8C10A"/>
<path d="M29.9556 24.4443H23.7333C23.4976 24.4443 23.2715 24.538 23.1048 24.7047C22.9381 24.8714 22.8444 25.0975 22.8444 25.3332C22.8444 25.569 22.9381 25.7951 23.1048 25.9618C23.2715 26.1285 23.4976 26.2221 23.7333 26.2221H29.9556C30.1913 26.2221 30.4174 26.1285 30.5841 25.9618C30.7508 25.7951 30.8444 25.569 30.8444 25.3332C30.8444 25.0975 30.7508 24.8714 30.5841 24.7047C30.4174 24.538 30.1913 24.4443 29.9556 24.4443Z" fill="#F8C10A"/>
</g>
<defs>
<clipPath id="clip0_2293_3054">
<rect width="32" height="32" fill="white"/>
</clipPath>
</defs>
</svg>
