<svg width="41" height="41" viewBox="0 0 41 41" fill="none" xmlns="http://www.w3.org/2000/svg">
<path d="M19.0312 41.0009L15.5802 37.5045L11.1262 39.474L14.3065 22.1543L22.2108 23.6813L19.0312 41.0009Z" fill="#EB635A"/>
<path d="M22.8624 41.0009L26.3126 37.5045L30.7674 39.474L27.5871 22.1543L19.6828 23.6813L22.8624 41.0009Z" fill="#EB635A"/>
<path d="M33.6803 13.3346L32.0479 11.4311L31.649 8.90303C31.6149 8.68537 31.5282 8.48053 31.3973 8.3081C31.2664 8.13567 31.0955 8.00141 30.9012 7.91815L28.6445 6.94708L27.2418 4.81424C27.1214 4.63171 26.9583 4.48492 26.7681 4.38808C26.578 4.29124 26.3673 4.24762 26.1564 4.26145L23.7279 4.41531L21.5975 3.16417C21.4144 3.05652 21.208 3 20.9982 3C20.7884 3 20.5821 3.05652 20.399 3.16417L18.2695 4.41255L15.8418 4.25869C15.6309 4.24515 15.4201 4.28888 15.2299 4.3857C15.0396 4.48251 14.8763 4.62914 14.7556 4.81148L13.3485 6.94708L11.0953 7.91815C10.9009 8.00141 10.7301 8.13567 10.5992 8.3081C10.4682 8.48053 10.3816 8.68537 10.3475 8.90303L9.94945 11.4311L8.31701 13.3346C8.17699 13.4986 8.0793 13.6976 8.03325 13.9126C7.98721 14.1276 7.99435 14.3514 8.054 14.5627L8.73871 17.0226L8.04961 19.4825C7.99054 19.6941 7.98411 19.9182 8.03092 20.1332C8.07773 20.3482 8.17623 20.547 8.31701 20.7106L9.94945 22.614L10.3475 25.143C10.3825 25.36 10.4695 25.564 10.6003 25.7359C10.7312 25.9077 10.9015 26.0417 11.0953 26.1252L13.3485 27.099L14.7512 29.195C14.8717 29.3753 15.0342 29.5203 15.2231 29.6159C15.412 29.7115 15.6211 29.7547 15.8304 29.7413L18.2651 29.5875L20.3946 30.8358C20.5777 30.9435 20.784 31 20.9939 31C21.2037 31 21.41 30.9435 21.5931 30.8358L23.7226 29.5875L26.1573 29.7413C26.3667 29.7549 26.576 29.7118 26.7651 29.6161C26.9542 29.5205 27.1168 29.3755 27.2374 29.195L28.6401 27.099L30.9012 26.1252C31.0955 26.0419 31.2664 25.9076 31.3973 25.7352C31.5282 25.5628 31.6149 25.3579 31.649 25.1403L32.0479 22.6113L33.6803 20.7078C33.8204 20.5438 33.918 20.3448 33.9641 20.1298C34.0101 19.9148 34.003 19.691 33.9434 19.4797L33.2586 17.0198L33.9512 14.5627C34.0099 14.3507 34.0157 14.1265 33.9683 13.9115C33.9209 13.6964 33.8217 13.4978 33.6803 13.3346Z" fill="#F39C12"/>
<path d="M21 25C25.4183 25 29 21.4183 29 17C29 12.5817 25.4183 9 21 9C16.5817 9 13 12.5817 13 17C13 21.4183 16.5817 25 21 25Z" fill="white"/>
<path d="M21.2927 13L22.6191 15.7564L25.5846 16.1988L23.439 18.3449L23.9455 21.375L21.2927 19.9443L18.6398 21.375L19.1463 18.3449L17 16.1988L19.9662 15.7564L21.2927 13Z" fill="#EB635A"/>
</svg>
