<svg xmlns="http://www.w3.org/2000/svg" width="24" height="24" viewBox="0 0 24 24">
  <g id="Group_10389" data-name="Group 10389" transform="translate(6537 2453)">
    <g id="Group_10388" data-name="Group 10388">
      <rect id="Rectangle_1473" data-name="Rectangle 1473" width="24" height="24" transform="translate(-6537 -2453)" fill="none"/>
    </g>
    <path id="Icon_awesome-google" data-name="Icon awesome-google" d="M23.613,12.843c0,6.847-4.689,11.719-11.613,11.719a12,12,0,1,1,0-24A11.54,11.54,0,0,1,20.047,3.7l-3.266,3.14C12.508,2.721,4.563,5.817,4.563,12.563A7.517,7.517,0,0,0,12,20.14c4.752,0,6.532-3.406,6.813-5.173H12V10.84H23.424A10.52,10.52,0,0,1,23.613,12.843Z" transform="translate(-6536.613 -2453.563)" fill="#db4437"/>
  </g>
</svg>
