<svg height="23.612" id="menu" viewBox="0 0 23.612 23.612" width="23.612"
    xmlns="http://www.w3.org/2000/svg">
  <g data-name="Group 9689" id="Group_9689" transform="translate(12.728)">
    <g data-name="Group 9688" id="Group_9688">
      <path
          d="M283.194,0h-3.5A3.694,3.694,0,0,0,276,3.689v3.5a3.694,3.694,0,0,0,3.689,3.689h3.5a3.694,3.694,0,0,0,3.689-3.689v-3.5A3.694,3.694,0,0,0,283.194,0Zm1.845,7.194a1.847,1.847,0,0,1-1.845,1.845h-3.5a1.847,1.847,0,0,1-1.845-1.845v-3.5a1.847,1.847,0,0,1,1.845-1.845h3.5a1.847,1.847,0,0,1,1.845,1.845Z"
          data-name="Path 6283" fill="#34495e" id="Path_6283" transform="translate(-276)" />
    </g>
  </g>
  <g data-name="Group 9691" id="Group_9691">
    <g data-name="Group 9690" id="Group_9690">
      <path
          d="M7.194,0h-3.5A3.694,3.694,0,0,0,0,3.689v3.5a3.694,3.694,0,0,0,3.689,3.689h3.5a3.694,3.694,0,0,0,3.689-3.689v-3.5A3.694,3.694,0,0,0,7.194,0ZM9.039,7.194A1.847,1.847,0,0,1,7.194,9.039h-3.5A1.847,1.847,0,0,1,1.845,7.194v-3.5A1.847,1.847,0,0,1,3.689,1.845h3.5A1.847,1.847,0,0,1,9.039,3.689Z"
          data-name="Path 6284" fill="#34495e" id="Path_6284" />
    </g>
  </g>
  <g data-name="Group 9693" id="Group_9693" transform="translate(0 12.728)">
    <g data-name="Group 9692" id="Group_9692">
      <path
          d="M7.194,276h-3.5A3.694,3.694,0,0,0,0,279.689v3.5a3.694,3.694,0,0,0,3.689,3.689h3.5a3.694,3.694,0,0,0,3.689-3.689v-3.5A3.694,3.694,0,0,0,7.194,276Zm1.845,7.194a1.847,1.847,0,0,1-1.845,1.845h-3.5a1.847,1.847,0,0,1-1.845-1.845v-3.5a1.847,1.847,0,0,1,1.845-1.845h3.5a1.847,1.847,0,0,1,1.845,1.845Z"
          data-name="Path 6285" fill="#34495e" id="Path_6285" transform="translate(0 -276)" />
    </g>
  </g>
  <g data-name="Group 9695" id="Group_9695" transform="translate(12.728 12.728)">
    <g data-name="Group 9694" id="Group_9694">
      <path
          d="M285.961,282.272a.922.922,0,0,0-.922.922,1.847,1.847,0,0,1-1.845,1.845h-3.5a1.847,1.847,0,0,1-1.845-1.845v-3.5a1.847,1.847,0,0,1,1.845-1.845h3.5a1.846,1.846,0,0,1,1.691,1.107.922.922,0,1,0,1.69-.739A3.691,3.691,0,0,0,283.194,276h-3.5A3.694,3.694,0,0,0,276,279.689v3.5a3.694,3.694,0,0,0,3.689,3.689h3.5a3.694,3.694,0,0,0,3.689-3.689A.922.922,0,0,0,285.961,282.272Z"
          data-name="Path 6286" fill="#34495e" id="Path_6286" transform="translate(-276 -276)" />
    </g>
  </g>
</svg>
