<svg width="32" height="33" viewBox="0 0 32 33" fill="none" xmlns="http://www.w3.org/2000/svg">
<path d="M15.99 12.3897C14.04 12.3897 12.08 13.1497 10.6 14.6797C9.1603 16.1593 8.35945 18.1452 8.37001 20.2097C8.37001 22.2997 9.16001 24.2597 10.6 25.7397C11.2981 26.4645 12.1353 27.0409 13.0614 27.4344C13.9876 27.8279 14.9837 28.0304 15.99 28.0297C18.03 28.0297 19.94 27.2197 21.38 25.7397C24.35 22.6897 24.35 17.7297 21.38 14.6797C20.6825 13.9541 19.8454 13.3772 18.9191 12.9836C17.9928 12.5901 16.9964 12.388 15.99 12.3897ZM16.6 16.1597L17.43 17.8797C17.53 18.0797 17.72 18.2297 17.94 18.2597L19.79 18.5397C20.34 18.6197 20.57 19.3197 20.16 19.7197L18.88 20.9997C18.69 21.1897 18.63 21.4697 18.71 21.7297L19.3 23.4397C19.5 24.0097 18.94 24.5497 18.39 24.3097L16.25 23.3497C16.1655 23.3101 16.0733 23.2896 15.98 23.2896C15.8867 23.2896 15.7945 23.3101 15.71 23.3497L13.57 24.3097C13.03 24.5497 12.46 24.0097 12.66 23.4397L13.25 21.7297C13.34 21.4697 13.27 21.1897 13.08 20.9997L11.8 19.7197C11.4 19.3197 11.62 18.6197 12.17 18.5397L14.02 18.2597C14.24 18.2297 14.43 18.0897 14.53 17.8797L15.36 16.1597C15.63 15.6397 16.35 15.6397 16.6 16.1597Z" fill="#F8C10A"/>
<path d="M7.12001 2.5C6.50501 2.5 6.00001 3.01 6.00001 3.64V9.43C6.00001 9.83 6.21201 10.21 6.55501 10.41L9.64201 12.238C8.48062 13.2156 7.54802 14.4362 6.91007 15.8137C6.27212 17.1912 5.94439 18.692 5.95001 20.21C5.95001 25.893 10.445 30.5 15.99 30.5C21.535 30.5 26.03 25.893 26.03 20.21C26.0357 18.7004 25.7118 17.2078 25.0809 15.8364C24.4499 14.4649 23.5271 13.2478 22.377 12.27L25.457 10.41C25.792 10.21 26 9.83 26 9.43V3.64C26 3.01 25.506 2.5 24.903 2.5H7.12001ZM21.65 3.5V11.71C20.8493 11.1478 19.9698 10.7074 19.04 10.403V3.5H21.65ZM13.04 3.5V10.371C12.1162 10.6624 11.2401 11.0879 10.44 11.634V3.5H13.04ZM16 29.26C13.64 29.26 11.42 28.32 9.76001 26.61C8.0893 24.8998 7.1589 22.6008 7.17001 20.21C7.17001 17.79 8.09001 15.52 9.76001 13.81C10.5703 12.9726 11.5407 12.3067 12.6136 11.852C13.6864 11.3972 14.8398 11.1629 16.005 11.1629C17.1703 11.1629 18.3236 11.3972 19.3964 11.852C20.4693 12.3067 21.4397 12.9726 22.25 13.81C25.69 17.34 25.69 23.08 22.25 26.61C20.57 28.32 18.35 29.26 16 29.26Z" fill="#F8C10A"/>
</svg>
