<svg height="20.794" viewBox="0 0 30.993 20.794" width="30.993" xmlns="http://www.w3.org/2000/svg">
    <g transform="translate(-4.077 -104.209)">
        <g transform="translate(0 104.209)">
            <path
                d="M29.569,104.209H1.424A1.529,1.529,0,0,0,0,105.821v4.834a1.373,1.373,0,0,0,.544,1.122,3.424,3.424,0,0,1,1.4,2.829,3.424,3.424,0,0,1-1.4,2.829A1.373,1.373,0,0,0,0,118.558v4.834A1.529,1.529,0,0,0,1.424,125H29.569a1.529,1.529,0,0,0,1.424-1.612V105.821A1.529,1.529,0,0,0,29.569,104.209Zm.516,19.183a.554.554,0,0,1-.516.584H7.216v-.035a.457.457,0,1,0-.908,0v.035H1.424a.554.554,0,0,1-.516-.584v-4.834a.3.3,0,0,1,.113-.249,4.481,4.481,0,0,0,1.828-3.7,4.481,4.481,0,0,0-1.828-3.7.3.3,0,0,1-.113-.249v-4.834a.554.554,0,0,1,.516-.584H6.308v.035a.457.457,0,1,0,.908,0v-.035H29.569a.554.554,0,0,1,.516.584Z"
                fill="#2f3640" transform="translate(4.077 -104.209)" />
        </g>
        <g transform="translate(7.138 113.543)">
            <path
                d="M104.724,240.485a.514.514,0,0,0-.514.514v1.1a.514.514,0,1,0,1.027,0V241A.514.514,0,0,0,104.724,240.485Z"
                fill="#2f3640" transform="translate(-101.21 -240.485)" />
        </g>
        <g transform="translate(7.138 106.955)">
            <path
                d="M104.724,144.292a.514.514,0,0,0-.514.514v1.1a.514.514,0,1,0,1.027,0v-1.1A.514.514,0,0,0,104.724,144.292Z"
                fill="#2f3640" transform="translate(-101.21 -144.292)" />
        </g>
        <g transform="translate(7.138 110.249)">
            <path
                d="M104.724,192.387a.514.514,0,0,0-.514.514V194a.514.514,0,0,0,1.027,0v-1.1A.514.514,0,0,0,104.724,192.387Z"
                fill="#2f3640" transform="translate(-101.21 -192.387)" />
        </g>
        <g transform="translate(7.138 116.838)">
            <path
                d="M104.724,288.581a.514.514,0,0,0-.514.514v1.1a.514.514,0,1,0,1.027,0v-1.1A.514.514,0,0,0,104.724,288.581Z"
                fill="#2f3640" transform="translate(-101.21 -288.581)" />
        </g>
        <g transform="translate(7.138 120.132)">
            <path
                d="M104.724,336.677a.514.514,0,0,0-.514.514v1.1a.514.514,0,1,0,1.027,0v-1.1A.514.514,0,0,0,104.724,336.677Z"
                fill="#2f3640" transform="translate(-101.21 -336.677)" />
        </g>
        <g transform="translate(14.277 108.053)">
            <path
                d="M221.655,165.106a1.329,1.329,0,0,0-1.18-.92l-3.031-.205-1.132-2.819a1.335,1.335,0,0,0-2.478,0l-1.132,2.819-3.031.205a1.335,1.335,0,0,0-.766,2.357l2.331,1.948-.741,2.946a1.335,1.335,0,0,0,2,1.457l2.573-1.615,2.573,1.615a1.335,1.335,0,0,0,2-1.457l-.741-2.946,2.331-1.948A1.329,1.329,0,0,0,221.655,165.106Zm-1.073.649L218,167.909a.514.514,0,0,0-.169.52l.82,3.259a.308.308,0,0,1-.462.336l-2.846-1.787a.514.514,0,0,0-.546,0l-2.846,1.787a.308.308,0,0,1-.462-.336l.82-3.259a.513.513,0,0,0-.169-.52l-2.579-2.155a.308.308,0,0,1,.177-.543l3.353-.227a.514.514,0,0,0,.442-.321l1.252-3.118a.308.308,0,0,1,.571,0l1.252,3.118a.514.514,0,0,0,.442.321l3.353.227a.308.308,0,0,1,.177.543Z"
                fill="#2f3640" transform="translate(-208.425 -160.324)" />
        </g>
    </g>
</svg>