<svg height="21.659" viewBox="0 0 31.432 21.659" width="31.432" xmlns="http://www.w3.org/2000/svg">
  <g id="noun_friends_1288435" transform="translate(-7.63 -23.219)">
    <g data-name="Group 10219" id="Group_10219" transform="translate(6.63 23.219)">
      <g data-name="Group 10218" id="Group_10218" transform="translate(1)">
        <path d="M65.882,52.1a.555.555,0,1,1-1.111,0c0-4.115-3.045-6.109-8.33-6.109s-8.33,1.994-8.33,6.109A.555.555,0,1,1,47,52.1c0-4.852,3.617-7.22,9.441-7.22S65.882,47.251,65.882,52.1Zm-9.441-8.33c-2.887,0-5-3.259-5-6.664,0-3.287,2.071-6.109,5-6.109s5,2.822,5,6.109C61.439,40.514,59.328,43.773,56.441,43.773Zm0-1.111c2.147,0,3.887-2.687,3.887-5.554,0-2.735-1.661-5-3.887-5s-3.887,2.264-3.887,5C52.554,39.975,54.294,42.662,56.441,42.662Z" data-name="Path 7480" fill="#2f3640" id="Path_7480" transform="translate(-34.45 -31)" />
        <path d="M37.882,52.1a.555.555,0,1,1-1.111,0c0-4.115-3.045-6.109-8.33-6.109s-8.33,1.994-8.33,6.109A.555.555,0,0,1,19,52.1c0-4.852,3.617-7.22,9.441-7.22S37.882,47.251,37.882,52.1Zm-9.441-8.33c-2.887,0-5-3.259-5-6.664,0-3.287,2.071-6.109,5-6.109s5,2.822,5,6.109C33.439,40.514,31.328,43.773,28.441,43.773Zm0-1.111c2.147,0,3.887-2.687,3.887-5.554,0-2.735-1.661-5-3.887-5s-3.887,2.264-3.887,5C24.554,39.975,26.294,42.662,28.441,42.662Z" data-name="Path 7481" fill="#2f3640" id="Path_7481" transform="translate(-19 -31)" />
      </g>
    </g>
  </g>
</svg>
