<svg height="23.721" viewBox="0 0 23.721 23.721" width="23.721" xmlns="http://www.w3.org/2000/svg">
    <g transform="translate(0)">
        <path
            d="M17.424,23.849a6.424,6.424,0,1,1,6.424-6.424A6.432,6.432,0,0,1,17.424,23.849Zm0-11.86a5.436,5.436,0,1,0,5.436,5.436A5.442,5.442,0,0,0,17.424,11.988Z"
            fill="#2f3640" transform="translate(-0.128 -0.128)" />
        <path
            d="M16.471,19.942a.5.5,0,0,1-.35-.144l-1.977-1.977a.494.494,0,0,1,.7-.7l1.6,1.6,3.111-3.556a.495.495,0,0,1,.744.651l-3.459,3.953a.493.493,0,0,1-.356.168Z"
            fill="#2f3640" transform="translate(-0.163 -0.175)" />
        <path
            d="M9.389,19.837H1.311A1.312,1.312,0,0,1,0,18.527V6.494A.494.494,0,0,1,.494,6H19.273a.494.494,0,0,1,.494.494V9.459a.494.494,0,1,1-.988,0V6.988H.988V18.527a.322.322,0,0,0,.322.322H9.389a.494.494,0,1,1,0,.988Z"
            fill="#2f3640" transform="translate(0 -0.07)" />
        <path
            d="M19.273,6.919a.493.493,0,0,1-.433-.256L15.855,1.244a.491.491,0,0,0-.432-.256H4.344a.494.494,0,0,0-.433.256L.926,6.663a.494.494,0,1,1-.865-.476L3.046.768A1.48,1.48,0,0,1,4.344,0h11.08a1.481,1.481,0,0,1,1.3.767l2.985,5.418a.494.494,0,0,1-.195.671.482.482,0,0,1-.238.062Z"
            fill="#2f3640" />
        <path
            d="M9.994,6.919A.494.494,0,0,1,9.5,6.424V.494a.494.494,0,0,1,.988,0v5.93A.494.494,0,0,1,9.994,6.919Z"
            fill="#2f3640" transform="translate(-0.111 0)" />
    </g>
</svg>