<svg height="24.301" viewBox="0 0 18.226 24.301" width="18.226" xmlns="http://www.w3.org/2000/svg">
    <g transform="translate(-3)">
        <path
            d="M12.113,24.3a.509.509,0,0,1-.335-.127C11.419,23.858,3,16.347,3,9.113a9.113,9.113,0,0,1,18.226,0c0,7.234-8.419,14.745-8.778,15.062A.509.509,0,0,1,12.113,24.3Zm0-23.289a8.11,8.11,0,0,0-8.1,8.1c0,5.992,6.532,12.513,8.1,13.992,1.568-1.479,8.1-8,8.1-13.992A8.11,8.11,0,0,0,12.113,1.013Z"
            fill="#2f3640" />
        <path
            d="M11.507,13.017a4.508,4.508,0,1,1,4.507-4.508A4.513,4.513,0,0,1,11.507,13.017Zm0-8.115a3.607,3.607,0,1,0,3.606,3.607A3.61,3.61,0,0,0,11.507,4.9Z"
            fill="#2f3640" transform="translate(0.559 0.927)" />
    </g>
</svg>