<svg width="14" height="14" viewBox="0 0 14 14" fill="none" xmlns="http://www.w3.org/2000/svg">
<path d="M7.58337 8.16602H5.25004C5.09533 8.16602 4.94696 8.22747 4.83756 8.33687C4.72817 8.44627 4.66671 8.59464 4.66671 8.74935C4.66671 8.90406 4.72817 9.05243 4.83756 9.16183C4.94696 9.27122 5.09533 9.33268 5.25004 9.33268H7.58337C7.73808 9.33268 7.88646 9.27122 7.99585 9.16183C8.10525 9.05243 8.16671 8.90406 8.16671 8.74935C8.16671 8.59464 8.10525 8.44627 7.99585 8.33687C7.88646 8.22747 7.73808 8.16602 7.58337 8.16602ZM9.91671 2.33268H9.22837C9.10802 1.99228 8.88533 1.69743 8.59083 1.48856C8.29632 1.27969 7.94442 1.16703 7.58337 1.16602H6.41671C6.05566 1.16703 5.70376 1.27969 5.40925 1.48856C5.11475 1.69743 4.89206 1.99228 4.77171 2.33268H4.08337C3.61925 2.33268 3.17413 2.51706 2.84594 2.84525C2.51775 3.17343 2.33337 3.61855 2.33337 4.08268V11.0827C2.33337 11.5468 2.51775 11.9919 2.84594 12.3201C3.17413 12.6483 3.61925 12.8327 4.08337 12.8327H9.91671C10.3808 12.8327 10.826 12.6483 11.1541 12.3201C11.4823 11.9919 11.6667 11.5468 11.6667 11.0827V4.08268C11.6667 3.61855 11.4823 3.17343 11.1541 2.84525C10.826 2.51706 10.3808 2.33268 9.91671 2.33268ZM5.83337 2.91602C5.83337 2.76131 5.89483 2.61293 6.00423 2.50354C6.11362 2.39414 6.262 2.33268 6.41671 2.33268H7.58337C7.73808 2.33268 7.88646 2.39414 7.99585 2.50354C8.10525 2.61293 8.16671 2.76131 8.16671 2.91602V3.49935H5.83337V2.91602ZM10.5 11.0827C10.5 11.2374 10.4386 11.3858 10.3292 11.4952C10.2198 11.6046 10.0714 11.666 9.91671 11.666H4.08337C3.92866 11.666 3.78029 11.6046 3.6709 11.4952C3.5615 11.3858 3.50004 11.2374 3.50004 11.0827V4.08268C3.50004 3.92797 3.5615 3.7796 3.6709 3.6702C3.78029 3.56081 3.92866 3.49935 4.08337 3.49935H4.66671V4.08268C4.66671 4.23739 4.72817 4.38577 4.83756 4.49516C4.94696 4.60456 5.09533 4.66602 5.25004 4.66602H8.75004C8.90475 4.66602 9.05312 4.60456 9.16252 4.49516C9.27192 4.38577 9.33337 4.23739 9.33337 4.08268V3.49935H9.91671C10.0714 3.49935 10.2198 3.56081 10.3292 3.6702C10.4386 3.7796 10.5 3.92797 10.5 4.08268V11.0827ZM8.75004 5.83268H5.25004C5.09533 5.83268 4.94696 5.89414 4.83756 6.00354C4.72817 6.11293 4.66671 6.26131 4.66671 6.41602C4.66671 6.57073 4.72817 6.7191 4.83756 6.8285C4.94696 6.93789 5.09533 6.99935 5.25004 6.99935H8.75004C8.90475 6.99935 9.05312 6.93789 9.16252 6.8285C9.27192 6.7191 9.33337 6.57073 9.33337 6.41602C9.33337 6.26131 9.27192 6.11293 9.16252 6.00354C9.05312 5.89414 8.90475 5.83268 8.75004 5.83268Z" fill="#3A7792"/>
</svg>
