<svg xmlns="http://www.w3.org/2000/svg" width="18" height="18" viewBox="0 0 18 18">
  <g id="Group_9856" data-name="Group 9856" transform="translate(-199 -122)">
    <circle id="Ellipse_616" data-name="Ellipse 616" cx="9" cy="9" r="9" transform="translate(199 122)" fill="#e5e5e5"/>
    <path id="Icon_awesome-camera" data-name="Icon awesome-camera" d="M11.361,4.735v6.391A1.065,1.065,0,0,1,10.3,12.191H1.065A1.065,1.065,0,0,1,0,11.126V4.735A1.065,1.065,0,0,1,1.065,3.67H3.018l.273-.73a1.064,1.064,0,0,1,1-.69H7.072a1.064,1.064,0,0,1,1,.69l.275.73H10.3A1.065,1.065,0,0,1,11.361,4.735Zm-3.018,3.2a2.663,2.663,0,1,0-2.663,2.663A2.665,2.665,0,0,0,8.343,7.931Zm-.71,0A1.953,1.953,0,1,1,5.681,5.978,1.956,1.956,0,0,1,7.633,7.931Z" transform="translate(202.4 124)" fill="#b7b7b7"/>
  </g>
</svg>
