<svg width="43" height="43" viewBox="0 0 43 43" fill="none" xmlns="http://www.w3.org/2000/svg">
<path d="M21.481 42.962C33.3446 42.962 42.962 33.3446 42.962 21.481C42.962 9.61737 33.3446 0 21.481 0C9.61737 0 0 9.61737 0 21.481C0 33.3446 9.61737 42.962 21.481 42.962Z" fill="#E9D7FF"/>
<path d="M21 11L9 21.8H12.6V31.4H29.4V21.8H33L21 11ZM21 17.6C23.808 17.6 26.352 18.716 28.2 20.528L26.76 21.944C25.225 20.433 23.1539 19.5916 21 19.604C18.744 19.604 16.704 20.492 15.24 21.944L13.8 20.528C15.7225 18.6445 18.3087 17.5928 21 17.6ZM21 21.596C22.68 21.596 24.204 22.268 25.32 23.36L23.88 24.764C23.1103 24.0125 22.0757 23.5944 21 23.6C19.872 23.6 18.852 24.044 18.12 24.764L16.68 23.36C17.8327 22.2279 19.3843 21.5943 21 21.596ZM21 25.604C22.128 25.604 23.04 26.492 23.04 27.596C23.04 28.7 22.128 29.6 21 29.6C19.872 29.6 18.96 28.7 18.96 27.596C18.96 26.492 19.872 25.604 21 25.604Z" fill="#9C20B0"/>
</svg>
