<svg width="43" height="43" viewBox="0 0 43 43" fill="none" xmlns="http://www.w3.org/2000/svg">
<path d="M21.481 42.962C33.3446 42.962 42.962 33.3446 42.962 21.481C42.962 9.61737 33.3446 0 21.481 0C9.61737 0 0 9.61737 0 21.481C0 33.3446 9.61737 42.962 21.481 42.962Z" fill="#FFEAD7"/>
<path d="M29 28.9999C29 29.2651 28.8946 29.5195 28.7071 29.707C28.5196 29.8946 28.2652 29.9999 28 29.9999H14C13.7348 29.9999 13.4804 29.8946 13.2929 29.707C13.1054 29.5195 13 29.2651 13 28.9999V19.9999H10L20.327 10.6119C20.5111 10.4444 20.7511 10.3516 21 10.3516C21.2489 10.3516 21.4889 10.4444 21.673 10.6119L32 19.9999H29V28.9999ZM21 25.9999L24.359 22.6409C24.5679 22.432 24.7337 22.1839 24.8467 21.911C24.9598 21.638 25.018 21.3454 25.018 21.0499C25.018 20.7544 24.9598 20.4619 24.8467 20.1889C24.7337 19.9159 24.5679 19.6679 24.359 19.4589C24.1501 19.25 23.902 19.0843 23.629 18.9712C23.3561 18.8581 23.0635 18.7999 22.768 18.7999C22.4725 18.7999 22.1799 18.8581 21.907 18.9712C21.634 19.0843 21.3859 19.25 21.177 19.4589L21 19.6359L20.823 19.4589C20.6141 19.25 20.366 19.0843 20.093 18.9712C19.8201 18.8581 19.5275 18.7999 19.232 18.7999C18.9365 18.7999 18.6439 18.8581 18.371 18.9712C18.098 19.0843 17.8499 19.25 17.641 19.4589C17.4321 19.6679 17.2663 19.9159 17.1533 20.1889C17.0402 20.4619 16.982 20.7544 16.982 21.0499C16.982 21.3454 17.0402 21.638 17.1533 21.911C17.2663 22.1839 17.4321 22.432 17.641 22.6409L21 25.9999Z" fill="#B05D20"/>
</svg>
