<svg width="43" height="43" viewBox="0 0 43 43" fill="none" xmlns="http://www.w3.org/2000/svg">
<path d="M21.481 42.962C33.3446 42.962 42.962 33.3446 42.962 21.481C42.962 9.61737 33.3446 0 21.481 0C9.61737 0 0 9.61737 0 21.481C0 33.3446 9.61737 42.962 21.481 42.962Z" fill="#D7FFFA"/>
<path d="M32.0935 22.5731H30.0538V32H22.1218V28.0761L25.2833 24.7884L26.0878 24.9298C26.7189 24.9298 27.3242 24.6691 27.7705 24.2051C28.2167 23.741 28.4674 23.1116 28.4674 22.4553C28.4674 21.799 28.2167 21.1696 27.7705 20.7055C27.3242 20.2414 26.7189 19.9807 26.0878 19.9807C25.4567 19.9807 24.8514 20.2414 24.4052 20.7055C23.9589 21.1696 23.7082 21.799 23.7082 22.4553L23.8215 23.2919L22.1218 25.083V18.6256C22.8697 18.2014 23.3683 17.3883 23.3683 16.4456C23.3683 15.7893 23.1176 15.1599 22.6713 14.6959C22.225 14.2318 21.6198 13.9711 20.9887 13.9711C20.3576 13.9711 19.7523 14.2318 19.306 14.6959C18.8598 15.1599 18.6091 15.7893 18.6091 16.4456C18.6091 17.3883 19.1076 18.2014 19.8555 18.6256V25.083L18.1558 23.2919L18.2691 22.4553C18.2691 21.799 18.0184 21.1696 17.5722 20.7055C17.1259 20.2414 16.5206 19.9807 15.8895 19.9807C15.2584 19.9807 14.6531 20.2414 14.2069 20.7055C13.7606 21.1696 13.5099 21.799 13.5099 22.4553C13.5099 23.1116 13.7606 23.741 14.2069 24.2051C14.6531 24.6691 15.2584 24.9298 15.8895 24.9298L16.6941 24.7884L19.8555 28.0761V32H11.9235V22.5731H9.94051C9.46459 22.5731 9 22.5731 9 22.3257C9.01133 22.0664 9.48725 21.5715 9.9745 21.0648L19.8555 10.7895C20.2295 10.4006 20.6147 10 20.9887 10C21.3626 10 21.7479 10.4006 22.1218 10.7895L26.6544 15.5029V14.3246H28.9207V17.8597L32.0708 21.1355C32.5241 21.6069 32.9887 22.09 33 22.3374C33 22.5731 32.5467 22.5731 32.0935 22.5731ZM15.8895 21.3948C16.16 21.3948 16.4194 21.5065 16.6106 21.7054C16.8019 21.9043 16.9093 22.174 16.9093 22.4553C16.9093 22.7365 16.8019 23.0063 16.6106 23.2052C16.4194 23.4041 16.16 23.5158 15.8895 23.5158C15.619 23.5158 15.3596 23.4041 15.1684 23.2052C14.9771 23.0063 14.8697 22.7365 14.8697 22.4553C14.8697 22.174 14.9771 21.9043 15.1684 21.7054C15.3596 21.5065 15.619 21.3948 15.8895 21.3948ZM26.0878 21.3948C26.6544 21.3948 27.1076 21.8661 27.1076 22.4553C27.1076 23.0445 26.6544 23.5158 26.0878 23.5158C25.8173 23.5158 25.5579 23.4041 25.3667 23.2052C25.1754 23.0063 25.068 22.7365 25.068 22.4553C25.068 22.174 25.1754 21.9043 25.3667 21.7054C25.5579 21.5065 25.8173 21.3948 26.0878 21.3948ZM20.9887 15.3851C21.5552 15.3851 22.0085 15.8565 22.0085 16.4456C22.0085 17.0348 21.5552 17.5062 20.9887 17.5062C20.4221 17.5062 19.9688 17.0348 19.9688 16.4456C19.9688 15.8565 20.4221 15.3851 20.9887 15.3851Z" fill="#20B09F"/>
</svg>
