<svg height="22.436" viewBox="0 0 19.99 22.436" width="19.99" xmlns="http://www.w3.org/2000/svg">
  <g id="noun_Security_4397795" transform="translate(-8.75 -4.75)">
    <path d="M18.745,26.89,15.5,24.834A14.007,14.007,0,0,1,9,13.006V9.3l.494-.149a5.981,5.981,0,0,0,3.974-3.9L13.548,5H23.942l.08.251A5.981,5.981,0,0,0,28,9.153l.494.149v3.7a14.007,14.007,0,0,1-6.5,11.828ZM9.723,9.84v3.166a13.219,13.219,0,0,0,6.168,11.217l2.853,1.81,2.853-1.81a13.219,13.219,0,0,0,6.168-11.217V9.84A6.7,6.7,0,0,1,23.42,5.724H14.071A6.7,6.7,0,0,1,9.723,9.84Z" data-name="Path 9654" fill="#747d8c" id="Path_9654" stroke="#747d8c" stroke-width="0.5" />
    <path d="M31.3,37.4l-3.084-3.084.512-.512L31.3,36.381,36.677,31l.511.511Z" data-name="Path 9655" fill="#747d8c" id="Path_9655" stroke="#747d8c" stroke-width="0.5" transform="translate(-13.955 -18.886)" />
  </g>
</svg>
