<svg width="250" height="167" viewBox="0 0 250 167" fill="none" xmlns="http://www.w3.org/2000/svg">
<g opacity="0.5">
<path d="M125.003 167C171.049 167 208.377 129.616 208.377 83.5C208.377 37.3842 171.049 0 125.003 0C78.9561 0 41.6279 37.3842 41.6279 83.5C41.6279 129.616 78.9561 167 125.003 167Z" fill="#F8C10A"/>
<path d="M241.956 130.022C241.035 132.303 239.33 134.18 237.15 135.314C234.969 136.448 232.456 136.764 230.063 136.206C220.676 134.017 206.806 130.596 202.273 128.481C195.751 125.433 177.615 115.325 179.433 110.086C181.252 104.847 186.799 107.382 186.799 107.382C186.799 107.382 179.816 101.898 182.125 96.79C184.434 91.6825 192.935 95.9137 192.935 95.9137C192.935 95.9137 186.173 89.7545 188.842 84.8261C191.511 79.8976 199.344 85.5881 199.344 85.5881C199.344 85.5881 192.899 80.2539 196.805 77.1124C201.501 73.3422 212.27 84.5422 219.723 87.3522C220.404 87.6094 226.259 89.3678 233.004 91.3758C235.78 92.2029 238.353 93.6019 240.558 95.4831C242.763 97.3644 244.551 99.6863 245.808 102.3C247.064 104.914 247.762 107.762 247.855 110.661C247.948 113.56 247.436 116.447 246.35 119.137L241.956 130.022Z" fill="#FFFEFD"/>
<path d="M240.122 129.516C239.001 132.183 236.386 134.105 233.544 134.507C231.988 134.728 230.538 134.362 229.038 134.01C227.395 133.629 225.754 133.236 224.113 132.831C217.786 131.289 211.377 129.783 205.227 127.615C204.72 127.435 204.22 127.248 203.727 127.053L203.435 126.933C203.816 127.091 203.563 126.986 203.483 126.95C203.276 126.856 203.07 126.759 202.865 126.662C201.948 126.228 201.041 125.77 200.141 125.302C197.838 124.105 195.575 122.835 193.352 121.492C190.959 120.064 188.648 118.504 186.43 116.818C186.197 116.639 185.613 116.169 185.25 115.866C184.773 115.464 184.299 115.05 183.854 114.62C183.462 114.239 183.082 113.858 182.713 113.464C182.545 113.273 182.383 113.083 182.224 112.892C182.174 112.833 182.001 112.604 182.224 112.905C182.132 112.783 182.033 112.662 181.957 112.538C181.696 112.163 181.469 111.766 181.278 111.351C181.507 111.852 181.278 111.278 181.233 111.13C181.21 111.063 181.208 110.977 181.181 110.911C181.041 110.558 181.255 111.334 181.198 110.991C181.183 110.905 181.183 110.817 181.198 110.732C181.254 110.541 181.008 111.126 181.174 110.884C181.29 110.716 181.32 110.412 181.411 110.221C181.536 109.972 181.683 109.735 181.851 109.512C182.172 109.147 182.068 109.24 182.422 109.027C182.523 108.965 182.628 108.909 182.735 108.859C182.442 108.998 182.819 108.832 182.926 108.804L183.251 108.722C183.753 108.592 182.889 108.722 183.397 108.693C183.661 108.673 183.925 108.669 184.189 108.682C184.291 108.682 184.392 108.697 184.493 108.705C184.988 108.737 184.097 108.623 184.563 108.714C184.954 108.786 185.34 108.883 185.718 109.004C185.849 109.048 185.981 109.11 186.114 109.145C186.422 109.227 185.646 108.941 185.838 109.029C186.702 109.41 187.687 109.349 188.292 108.537C188.804 107.851 188.897 106.632 188.143 106.036C187.354 105.398 186.624 104.691 185.96 103.923C185.385 103.294 184.885 102.601 184.468 101.858C184.273 101.525 184.099 101.179 183.949 100.823C183.871 100.619 183.803 100.41 183.744 100.198C183.706 100.063 183.58 99.5278 183.597 99.6364C183.47 98.7887 183.548 98.1028 183.955 97.3808C184.087 97.0984 184.291 96.8559 184.546 96.6778C184.718 96.5368 184.546 96.6874 184.514 96.7064C184.611 96.6435 184.704 96.5788 184.815 96.5159C184.925 96.453 184.971 96.434 185.049 96.3959C185.317 96.272 184.799 96.4797 185.085 96.3959C185.275 96.3349 185.48 96.2854 185.684 96.2339C186.032 96.1482 185.532 96.2339 185.893 96.1977C186.324 96.1654 186.757 96.1654 187.189 96.1977C187.379 96.2111 187.569 96.2282 187.759 96.2511C187.43 96.2092 187.993 96.2949 188.083 96.3101C188.497 96.3883 188.908 96.4854 189.315 96.5959C190.046 96.7864 190.749 97.0588 191.459 97.3237C191.862 97.4742 191.202 97.2036 191.448 97.3237L191.737 97.4532L191.984 97.5694C193.82 98.4781 195.979 96.1196 194.29 94.5784C193.575 93.9131 192.919 93.1885 192.326 92.4123C192.49 92.6238 192.15 92.1685 192.102 92.1056C191.984 91.9399 191.87 91.7741 191.758 91.6046C191.483 91.1954 191.229 90.7725 190.997 90.3377C190.559 89.5768 190.268 88.7397 190.141 87.8706C190.065 87.1967 190.165 86.5145 190.432 85.8912C190.654 85.4416 190.651 85.4207 191.033 85.0816C190.801 85.2873 191.214 84.9711 191.299 84.9215C191.489 84.8129 191.273 84.9215 191.236 84.9215C191.343 84.8787 191.453 84.8418 191.564 84.811C191.674 84.7785 191.786 84.7518 191.898 84.731C191.87 84.731 191.596 84.7615 191.826 84.731C192.003 84.7129 192.181 84.7053 192.359 84.7082C192.57 84.7082 192.783 84.7215 192.992 84.7444C192.667 84.7082 193.213 84.792 193.314 84.8149C193.714 84.9021 194.11 85.0134 194.497 85.1482C194.706 85.2206 194.912 85.2968 195.115 85.3787C195.319 85.4607 195.127 85.3787 195.09 85.3654C195.201 85.4111 195.313 85.4626 195.423 85.514C196.462 85.9858 197.453 86.5555 198.383 87.2153C200.122 88.4688 202.349 85.6074 200.689 84.2224C200.101 83.7239 199.553 83.1799 199.051 82.5954C198.351 81.7934 197.615 80.7646 197.438 79.6635C197.506 80.0902 197.438 79.553 197.451 79.4844C197.502 78.93 197.345 79.8654 197.47 79.3168C197.485 79.2577 197.58 78.9719 197.453 79.2787C197.525 79.1088 197.618 78.9487 197.731 78.8024C197.527 79.0653 197.993 78.5719 197.978 78.5852C197.788 78.7586 197.946 78.6024 197.999 78.5681C198.117 78.4897 198.24 78.4179 198.366 78.3528C198.625 78.2118 198.069 78.4118 198.571 78.2956C199.074 78.1794 198.381 78.2347 198.925 78.2366C199.182 78.2366 199.437 78.2366 199.686 78.2613C199.216 78.2194 199.753 78.2728 199.829 78.2899C199.996 78.3299 200.166 78.3642 200.331 78.408C200.686 78.501 201.036 78.6123 201.379 78.7414C201.989 78.9823 202.585 79.2577 203.163 79.5663C203.94 79.974 204.699 80.4179 205.446 80.877C207.034 81.8543 208.577 82.9059 210.124 83.9499C213.011 85.8969 215.952 87.9887 219.254 89.1851C222.433 90.3377 225.752 91.1817 228.99 92.1494C231.082 92.7724 233.243 93.2772 235.21 94.2317C236.813 94.9963 238.3 95.9833 239.627 97.1636C245.033 102.035 247.236 109.642 245.207 116.622C244.545 118.891 243.517 121.082 242.635 123.269L240.118 129.501C239.738 130.453 240.537 131.596 241.45 131.844C242.538 132.143 243.403 131.463 243.789 130.51C245.353 126.641 247.056 122.804 248.473 118.88C251.341 110.934 249.312 101.806 243.559 95.6796C240.5 92.4219 236.667 90.4558 232.433 89.2023C228.467 88.0211 224.453 86.9295 220.531 85.6035C220.068 85.4502 219.619 85.2591 219.188 85.032C218.381 84.6396 217.596 84.2014 216.825 83.7442C215.113 82.7326 213.481 81.62 211.841 80.5055C208.754 78.4233 205.608 76.1238 202.043 74.9312C200.502 74.4131 198.718 74.1692 197.158 74.7407C195.18 75.499 193.658 77.3374 193.647 79.4997C193.626 82.4049 195.868 85.1559 197.999 86.9295L200.304 83.9385C197.712 82.0677 193.964 80.2826 190.719 81.0999C188.134 81.7515 186.614 84.1481 186.344 86.6895C186.097 89.1089 187.152 91.5531 188.463 93.5268C189.349 94.8913 190.396 96.1443 191.581 97.2589L193.886 94.266C191.056 92.8657 187.358 91.7417 184.232 92.6733C181.748 93.4144 180.143 95.531 179.819 98.0723C179.498 100.583 180.546 103.054 182.007 105.047C182.985 106.422 184.141 107.659 185.446 108.728L187.75 105.737C186.015 104.952 184.025 104.622 182.151 105.064C179.321 105.733 176.996 108.766 177.485 111.707C177.839 113.839 179.458 115.66 180.953 117.114C183.045 119.16 185.467 120.901 187.898 122.528C192.273 125.464 196.968 128.258 201.822 130.354C204.535 131.526 207.392 132.351 210.23 133.158C213.974 134.223 217.748 135.187 221.528 136.119C223.601 136.627 225.678 137.127 227.757 137.62C229.861 138.117 231.88 138.546 234.05 138.249C238.53 137.639 242.056 134.641 243.782 130.527C244.179 129.575 243.354 128.432 242.45 128.184C241.364 127.889 240.521 128.563 240.122 129.516Z" fill="#606060"/>
<path d="M4.96605 91.7908C5.50061 94.1925 6.87415 96.324 8.83911 97.8012C10.8041 99.2783 13.2313 100.004 15.6832 99.8475C25.3028 99.2321 39.5448 98.1329 44.3613 96.7993C51.2949 94.8733 70.8441 87.8816 69.9101 82.4102C68.9761 76.9388 63.0887 78.5333 63.0887 78.5333C63.0887 78.5333 70.8764 74.2697 69.4346 68.8536C67.9927 63.4374 58.9152 66.2093 58.9152 66.2093C58.9152 66.2093 66.5945 61.2561 64.7722 55.9485C62.9499 50.6409 54.2871 54.9674 54.2871 54.9674C54.2871 54.9674 61.5156 50.7591 58.1829 47.0251C54.1692 42.5329 41.7095 51.8011 33.8971 53.3538C33.1818 53.4967 27.1194 54.2682 20.1363 55.1389C17.2614 55.4973 14.4929 56.4536 12.0086 57.9465C9.52428 59.4393 7.37895 61.4357 5.71021 63.8076C4.04147 66.1795 2.88616 68.8745 2.3184 71.7198C1.75063 74.5651 1.78294 77.4978 2.41326 80.3298L4.96605 91.7908Z" fill="#FFFEFD"/>
<path d="M3.13241 92.2979C3.56548 94.1441 4.41914 95.8648 5.6266 97.3256C6.83407 98.7864 8.36261 99.9476 10.0927 100.718C13.6346 102.26 17.4106 101.65 21.1427 101.383C28.3712 100.863 35.7176 100.431 42.8491 99.0972C45.0328 98.6838 47.1557 97.9865 49.2596 97.2779C52.1764 96.2986 55.0481 95.207 57.8748 94.003C60.6273 92.8352 63.3551 91.5569 65.8946 89.9776C67.8444 88.7678 70.032 87.2838 71.1638 85.2148C72.657 82.4867 71.354 78.8957 68.7327 77.3544C66.9446 76.3047 64.5669 76.1676 62.5828 76.6934L64.0476 80.174C67.1596 78.4594 70.5437 75.4589 71.3217 71.8544C71.8923 69.2102 71.0687 66.4326 68.7879 64.878C67.0493 63.6931 64.7304 63.4835 62.6875 63.6302C61.2385 63.7197 59.8038 63.9688 58.4093 64.3732L59.8741 67.8557C62.9062 65.8858 66.1952 62.6929 66.8153 58.9875C67.2414 56.4347 66.4349 53.5389 64.0399 52.2206C62.0616 51.129 59.6762 51.2986 57.5514 51.7939C56.0897 52.1388 54.6722 52.6502 53.3266 53.3179L55.2459 56.608C57.3137 55.3964 59.4556 53.6018 60.4409 51.3767C62.0559 47.7284 59.3452 44.2288 55.6093 43.922C52.1472 43.6401 48.571 45.3585 45.4875 46.7111C42.0406 48.2256 38.6832 50.005 35.0709 51.0928C33.983 51.4023 32.8725 51.6252 31.7496 51.7596C32.1719 51.7024 31.5137 51.7901 31.4928 51.792L30.8441 51.8777L29.3661 52.0682C28.1727 52.2232 26.9813 52.3749 25.7918 52.5235C20.9126 53.1408 16.1113 53.4856 11.7153 55.9031C4.29657 59.9896 -0.37911 68.2748 0.0241633 76.7524C0.159222 79.6101 0.922016 82.4124 1.54595 85.1939L3.1286 92.2979C3.66123 94.6907 7.33063 93.6791 6.7961 91.2863C5.95151 87.4762 5.0841 83.6889 4.25853 79.8863C3.52822 76.4791 3.74093 72.9369 4.87369 69.642C6.00646 66.347 8.01626 63.4245 10.6862 61.1898C13.5814 58.7532 17.1538 57.4158 20.8764 56.9509C25.0499 56.4309 29.2272 55.926 33.3912 55.345C36.3301 54.9335 39.0808 53.739 41.7781 52.5483C45.0119 51.1195 48.162 49.483 51.529 48.4066C52.3002 48.1556 53.0869 47.9545 53.8839 47.8046C53.9201 47.8046 54.525 47.7208 54.1027 47.7665C54.3329 47.7417 54.563 47.7227 54.7951 47.717C55.1183 47.704 55.4421 47.7167 55.7633 47.7551C55.3049 47.696 56.121 47.8713 56.2693 47.9208C55.8356 47.7741 56.5299 48.0751 56.6878 48.1894C56.374 47.9627 56.878 48.4543 56.9789 48.5838C57.0226 48.6467 57.2185 49.022 57.0721 48.7305C57.1098 48.8429 57.1409 48.9574 57.1653 49.0734C57.1444 48.8543 57.1405 48.8562 57.1558 49.0734C57.1624 49.1872 57.1586 49.3013 57.1444 49.4144C57.1881 48.9762 57.0549 49.6526 57.0245 49.7421C57.152 49.3706 56.9541 49.8888 56.9275 49.9326C56.8381 50.0926 56.7373 50.2469 56.6479 50.4013C56.5104 50.6381 56.3386 50.8532 56.1381 51.0395C55.8478 51.3558 55.5405 51.656 55.2174 51.9387L54.953 52.1673C54.8921 52.2168 54.3348 52.6531 54.6981 52.3787C54.48 52.5451 54.2574 52.7051 54.0304 52.8588C53.7983 53.0169 53.5644 53.1712 53.3247 53.3141C51.1904 54.5639 53.066 57.6825 55.244 56.6042C55.4438 56.5052 56.1419 56.2232 55.5826 56.4404C56.1856 56.1984 56.7886 55.966 57.4088 55.7736C57.7607 55.665 58.1164 55.5659 58.4759 55.4802C58.6776 55.4307 58.8792 55.3869 59.0827 55.3469C59.1912 55.3259 59.8189 55.2306 59.4632 55.2745C59.8481 55.2262 60.2356 55.2027 60.6235 55.204C60.829 55.204 61.0325 55.2154 61.236 55.2345C60.8784 55.2021 61.3635 55.2592 61.489 55.2878C61.6783 55.3306 61.8645 55.3859 62.0464 55.4535C61.7173 55.3278 62.1434 55.524 62.2556 55.5831C62.3271 55.6235 62.3957 55.6687 62.4611 55.7184C62.4345 55.6974 62.2442 55.5278 62.3983 55.6803C62.4801 55.7584 62.56 55.8365 62.6361 55.9203C62.8263 56.1299 62.4972 55.7012 62.6608 55.9508C63.038 56.5674 63.2037 57.2906 63.1326 58.0102C62.9557 59.6066 61.782 61.1307 60.5513 62.3728C60.2215 62.7069 59.881 63.0244 59.5298 63.3254C59.3643 63.4702 59.1969 63.613 59.0257 63.7521C58.9001 63.8569 58.5006 64.1674 58.8526 63.8988C58.5577 64.1236 58.2591 64.3465 57.949 64.5484C56.2008 65.6915 57.2699 68.6806 59.4137 68.0309C60.2515 67.7852 61.1068 67.6044 61.9722 67.4899C61.5785 67.5451 62.0255 67.4899 62.1796 67.4708C62.3698 67.4499 62.5695 67.4327 62.7635 67.4213C63.1687 67.3946 63.5739 67.3813 63.9791 67.3908C64.213 67.3908 64.447 67.4099 64.6829 67.427C64.8027 67.427 65.2041 67.4956 64.8731 67.4423C65.2981 67.5142 65.7172 67.618 66.1267 67.7528C66.5471 67.8881 66.0924 67.7052 66.3645 67.8576C66.5338 67.9509 66.6993 68.0481 66.859 68.1548C67.0987 68.3167 66.6536 67.9643 66.859 68.1548C66.9199 68.21 66.9827 68.2634 67.0398 68.3243C67.0968 68.3853 67.1938 68.4844 67.2642 68.572C67.1425 68.4196 67.19 68.4672 67.2642 68.6006C67.6342 69.2239 67.7774 69.9563 67.6694 70.6733C67.583 71.038 67.4776 71.3979 67.3536 71.7516C67.1491 72.169 66.9152 72.5714 66.6536 72.9556C66.438 73.2736 66.1949 73.572 65.9269 73.8472C65.6131 74.1882 65.2821 74.512 64.9397 74.8226C64.7495 74.9902 64.5592 75.1541 64.369 75.3141L64.116 75.5656C63.8421 75.7866 64.1921 75.5122 64.0304 75.6322C63.7185 75.8628 63.4027 76.0876 63.0793 76.3028C62.7559 76.5181 62.4554 76.7086 62.1282 76.8877C60.226 77.9393 61.5233 80.9189 63.5948 80.3702C63.6994 80.3435 63.806 80.3207 63.9125 80.2997C64.019 80.2788 64.4451 80.214 64.0761 80.2673C63.7071 80.3207 64.3823 80.2425 64.4813 80.2368C64.8655 80.2194 65.2505 80.2257 65.634 80.2559C65.9308 80.2768 65.168 80.153 65.634 80.2559C65.7329 80.2768 65.8242 80.294 65.9327 80.3168C66.0658 80.3492 66.7525 80.5893 66.3702 80.4235C66.5936 80.5236 66.8086 80.6415 67.0131 80.776C67.2699 80.9398 66.7164 80.475 67.0949 80.8427C67.1786 80.9246 67.2642 81.0027 67.3441 81.0884C67.6485 81.4805 67.8605 81.9363 67.9642 82.422C68.0042 82.5839 68.0289 82.7496 68.0651 82.9135C68.0651 82.904 67.9738 82.401 68.0289 82.7096C68.0898 83.0526 67.9718 82.984 68.0498 82.763C67.9975 82.9147 67.9536 83.0693 67.9186 83.2259C68.0327 82.7173 67.9186 83.1954 67.8083 83.3974C67.7132 83.5612 67.6047 83.7155 67.4944 83.8717C67.3346 84.0965 67.8045 83.525 67.4944 83.8546L67.3042 84.068C66.9743 84.4276 66.621 84.7649 66.2465 85.0777C66.1647 85.1482 65.6359 85.5673 65.9003 85.3653C65.6854 85.5292 65.4647 85.6873 65.2421 85.8435C64.7419 86.194 64.2264 86.5255 63.7013 86.8437C61.3465 88.2389 58.8967 89.4669 56.3701 90.5186C52.1852 92.317 47.5419 94.1383 42.9937 95.1708C40.38 95.7671 37.8919 96.0376 35.2592 96.331C31.7229 96.7235 28.1772 97.0302 24.6314 97.3064C22.6645 97.4601 20.6989 97.6036 18.7345 97.737C17.0377 97.8532 15.2135 98.1599 13.5281 97.836C10.1288 97.1788 7.57982 94.6317 6.78659 91.2825C6.23685 88.9012 2.56745 89.9109 3.13241 92.2979Z" fill="#606060"/>
<path d="M193.455 134.461H58.7767C58.0449 134.461 57.3202 134.317 56.6441 134.036C55.968 133.756 55.3537 133.345 54.8363 132.826C54.3189 132.308 53.9085 131.693 53.6286 131.015C53.3488 130.338 53.2048 129.612 53.2051 128.879V42.798C53.2051 41.6908 53.6441 40.6289 54.4257 39.8459C55.2072 39.0628 56.2673 38.6226 57.3729 38.6221H194.36C195.447 38.6241 196.488 39.058 197.255 39.8286C198.022 40.5991 198.453 41.6432 198.452 42.7313V129.455C198.452 130.782 197.925 132.055 196.988 132.994C196.051 133.933 194.78 134.461 193.455 134.461Z" fill="#FFFEFD"/>
<path d="M193.454 132.556H69.4784C65.9194 132.556 62.3527 132.623 58.7955 132.556C57.817 132.554 56.8792 132.164 56.1868 131.471C55.4944 130.779 55.1035 129.84 55.0995 128.86C55.0995 128.422 55.0995 127.982 55.0995 127.544V58.9835C55.0995 53.6321 54.9093 48.2407 55.0995 42.8912C55.147 41.5348 56.0506 40.5879 57.4088 40.527C57.736 40.5136 58.067 40.527 58.3942 40.527H193.133C193.513 40.527 193.894 40.5136 194.263 40.527C195.568 40.5746 196.492 41.4395 196.546 42.7636C196.612 44.2991 196.546 45.8517 196.546 47.3872V127.565C196.546 128.136 196.546 128.708 196.546 129.279C196.532 131.072 195.29 132.518 193.451 132.558C191.006 132.621 190.997 136.431 193.451 136.368C195.28 136.339 197.025 135.596 198.315 134.297C199.605 132.997 200.336 131.245 200.354 129.413C200.354 128.948 200.354 128.481 200.354 128.016V58.4462C200.354 53.2225 200.483 47.9816 200.354 42.7597C200.335 41.1669 199.696 39.6444 198.573 38.5159C197.451 37.3874 195.933 36.742 194.343 36.7168C194.067 36.7168 193.791 36.7168 193.515 36.7168H58.2857C57.9871 36.7168 57.6865 36.7168 57.3879 36.7168C55.7804 36.739 54.2449 37.3884 53.1081 38.5269C51.9713 39.6654 51.3229 41.2031 51.3007 42.8131C51.2646 44.3086 51.3007 45.8098 51.3007 47.3053V127.544C51.3007 127.982 51.3007 128.422 51.3007 128.86C51.3204 130.751 52.0442 132.566 53.3303 133.949C54.6164 135.333 56.3721 136.186 58.2534 136.341C59.273 136.423 60.3135 136.366 61.3331 136.366H193.46C195.903 136.366 195.906 132.556 193.454 132.556Z" fill="#606060"/>
<path d="M54.7949 132.173L125.824 86.6567L197.082 132.173" fill="#FFFEFD"/>
<path d="M55.7558 133.819L62.8378 129.28L79.7676 118.434L100.312 105.266L118.014 93.9193L123.88 90.1682C124.793 89.5833 125.804 89.0518 126.663 88.385C126.702 88.3568 126.743 88.3307 126.785 88.3069H124.864L131.929 92.82L148.982 103.713L169.538 116.839L187.373 128.232C190.238 130.063 193.053 132.042 196 133.743C196.042 133.766 196.081 133.795 196.121 133.821C198.191 135.143 200.101 131.848 198.041 130.531L190.976 126.018L173.924 115.125L153.367 101.993L135.532 90.5987C132.667 88.7698 129.851 86.7885 126.905 85.0892C126.863 85.0644 126.825 85.0377 126.785 85.0111C126.494 84.8386 126.162 84.7476 125.824 84.7476C125.486 84.7476 125.155 84.8386 124.864 85.0111L117.782 89.549L100.852 100.395L80.3079 113.565L62.6038 124.909C59.7238 126.755 56.7906 128.529 53.9563 130.451L53.8345 130.529C51.7801 131.846 53.6843 135.145 55.7558 133.819Z" fill="#606060"/>
<path d="M56.6364 41.9441L115.141 97.5727C118.024 100.315 121.848 101.844 125.823 101.844C129.799 101.844 133.623 100.315 136.505 97.5727L194.645 41.624C194.896 41.3831 195.068 41.0727 195.141 40.7326C195.214 40.3926 195.184 40.0384 195.054 39.7158C194.925 39.3931 194.701 39.1167 194.414 38.922C194.126 38.7274 193.786 38.6234 193.439 38.6235L57.9413 38.6731C57.5646 38.6772 57.1976 38.7933 56.8869 39.0066C56.5761 39.2199 56.3356 39.5208 56.1958 39.8712C56.0561 40.2216 56.0233 40.6056 56.1017 40.9747C56.1802 41.3437 56.3663 41.6811 56.6364 41.9441Z" fill="#FFFEFD"/>
<path d="M55.2917 43.2911L60.909 48.6254L74.4681 61.519L90.9718 77.2131L105.585 91.1203L113.46 98.6092C115.868 100.895 118.746 102.621 122.02 103.33C124.818 103.935 127.72 103.849 130.477 103.081C133.235 102.313 135.764 100.886 137.848 98.9216C139.751 97.1327 141.607 95.3019 143.487 93.4959L157.019 80.4746L173.449 64.6624L188.008 50.6524L195.703 43.2473C196.149 42.8496 196.51 42.3655 196.764 41.8242C197.839 39.38 195.979 36.831 193.422 36.7205C192.926 36.6995 192.424 36.7205 191.927 36.7205H182.283H165.861H144.936L121.98 36.73H99.4995H79.7163H65.189C62.8626 36.73 60.5361 36.7129 58.2097 36.73C58.0404 36.73 57.8768 36.73 57.7075 36.7414C54.4148 37.031 53.0832 40.9498 55.2917 43.2911C56.9752 45.0781 59.6668 42.3805 57.9814 40.5973C57.8768 40.4849 57.8711 40.5783 57.9396 40.5821C58.0081 40.5859 57.8958 40.4792 57.9529 40.4983C58.01 40.5173 57.9091 40.6488 57.9072 40.6488L58.0062 40.4792L57.9586 40.5573L57.7988 40.6183C57.8483 40.6031 58.0956 40.5764 57.9415 40.5783H58.0423C58.2611 40.5688 58.4836 40.5783 58.7043 40.5783H61.7079H73.5493H91.2534H112.558H135.176H156.844H175.224H188.242C189.954 40.5783 191.712 40.4811 193.43 40.5783C193.443 40.5783 193.477 40.5783 193.416 40.5783C193.28 40.565 193.198 40.4126 193.416 40.6107C193.397 40.5935 193.262 40.5021 193.302 40.4659C193.466 40.3173 193.112 40.4526 193.302 40.5516C193.141 40.4621 193.447 40.2697 193.264 40.3916C193.025 40.5868 192.802 40.8015 192.599 41.0336L189.365 44.1541L177.154 55.9047L161.185 71.2712L146.089 85.7994L136.49 95.0352C135.857 95.6449 135.235 96.2793 134.565 96.8508C130.694 100.063 125.043 100.836 120.441 98.8435C117.329 97.4928 114.925 94.7418 112.505 92.4386L100.247 80.7852L84.2798 65.5921L69.0239 51.0944L59.3491 41.8966L57.9814 40.5973C56.2067 38.9075 53.5112 41.5975 55.2917 43.2911Z" fill="#606060"/>
<path d="M13.4578 57.3776C13.4578 57.3776 28.3941 52.3024 34.8217 52.1805C41.2494 52.0586 65.3944 60.4486 63.8821 65.7638C61.9304 72.6412 47.0455 70.5456 39.8874 68.57C39.8874 68.57 35.1546 83.2258 21.9075 77.964" fill="#FFFEFD"/>
<path d="M13.9637 59.2159C18.4929 57.6766 23.1077 56.3088 27.7662 55.2153C29.2633 54.8647 30.7718 54.5466 32.2936 54.3122C32.7672 54.2399 32.5161 54.2703 33.0373 54.2113C33.362 54.1732 33.6873 54.1427 34.0132 54.1198C34.489 54.0824 34.9667 54.0735 35.4437 54.0932C35.8526 54.1122 36.2597 54.156 36.6649 54.2075C36.0942 54.1351 36.9293 54.2513 37.0682 54.2741C37.3725 54.3237 37.675 54.3789 37.9774 54.438C39.2272 54.6799 40.4636 54.979 41.6925 55.3105C47.382 56.8441 52.8205 58.7778 57.8614 61.7021C58.4074 62.0183 58.9457 62.3479 59.4669 62.7003C59.6876 62.8489 59.9025 63.0013 60.1175 63.1557C60.1175 63.1557 60.5227 63.4624 60.2868 63.2795C60.0509 63.0966 60.5074 63.4605 60.5474 63.4929C60.8834 63.7718 61.2011 64.0721 61.4985 64.3921C61.5784 64.4797 61.6526 64.573 61.7325 64.6588C61.9988 64.9464 61.5423 64.3692 61.6754 64.5826C61.779 64.7804 61.8953 64.9713 62.0235 65.1541C62.1053 65.2513 62.0844 65.5351 61.9474 64.9636C61.9684 65.0493 62.0159 65.1293 62.0349 65.217C62.1358 65.7047 62.0349 65.0398 62.0483 65.217C62.0549 65.2847 62.0549 65.353 62.0483 65.4208C62.0273 65.6247 62.2385 64.9426 62.0749 65.196C62.0215 65.3184 61.9814 65.4461 61.955 65.577C61.7953 66.0514 62.132 65.276 61.8942 65.7066C61.7733 65.9367 61.6366 66.1583 61.4852 66.3695C61.7363 66.0304 61.2056 66.642 61.1047 66.7372C61.0039 66.8325 60.9145 66.9125 60.8023 66.9944C61.1447 66.7277 60.7072 67.0478 60.6577 67.0763C60.3648 67.2478 60.0756 67.4173 59.7675 67.5659C59.4593 67.7145 59.6629 67.6174 59.737 67.5869C59.5126 67.6802 59.2824 67.7603 59.0522 67.8365C58.6908 67.9546 58.3218 68.0555 57.9528 68.1432C57.253 68.3179 56.5396 68.4326 55.8204 68.4861C54.02 68.6328 52.2107 68.6328 50.4104 68.4861C47.0221 68.2333 43.6668 67.6469 40.3933 66.7353C39.9068 66.6113 39.3912 66.6809 38.9549 66.9296C38.5186 67.1783 38.1955 67.5866 38.0535 68.0689C38.0155 68.187 37.9717 68.3051 37.928 68.4213C37.8842 68.5375 37.8233 68.6823 37.7739 68.8138C37.654 69.1281 37.7606 68.8252 37.8329 68.6747C37.7834 68.7795 37.7415 68.8881 37.694 68.9948C37.2026 70.0712 36.6236 71.1053 35.963 72.0867C35.8678 72.2258 35.7727 72.3649 35.6719 72.502C35.6282 72.563 35.3257 72.9726 35.4665 72.7859C35.6072 72.5992 35.2991 72.9954 35.2382 73.0716C35.1051 73.2317 34.97 73.3879 34.833 73.5441C34.3121 74.1256 33.7488 74.6675 33.1477 75.1653C32.9232 75.3558 33.374 74.9996 33.1477 75.1749L32.9441 75.3254C32.7843 75.4378 32.6226 75.5502 32.4571 75.6587C32.0977 75.8933 31.7256 76.1076 31.3424 76.3008C31.274 76.3351 30.671 76.6075 30.9962 76.4722C30.8307 76.5408 30.6633 76.6037 30.494 76.6627C30.0303 76.8221 29.5562 76.9494 29.075 77.0437C28.978 77.0628 28.3274 77.1581 28.6318 77.1238C28.3693 77.1523 28.1029 77.1714 27.8385 77.1828C27.2781 77.2031 26.7169 77.1853 26.1589 77.1295C25.6009 77.0579 25.0481 76.9503 24.5039 76.8075C23.7936 76.6195 23.0949 76.3898 22.4115 76.1198C21.4604 75.7388 20.319 76.5294 20.0717 77.4533C19.775 78.5316 20.4389 79.4232 21.4033 79.7966C25.7385 81.4845 30.65 81.4864 34.5914 78.804C37.2926 76.9656 39.3699 74.2852 40.7756 71.3494C41.1411 70.6118 41.4588 69.8514 41.7267 69.0729L39.387 70.4064C42.616 71.2821 45.9137 71.8799 49.2443 72.1934C52.6284 72.5192 56.216 72.5858 59.5164 71.6638C62.2746 70.9017 65.0918 69.1014 65.7557 66.1105C66.2541 63.8682 64.6391 61.9364 63.0146 60.6219C60.7833 58.8159 58.2153 57.4766 55.613 56.2897C52.547 54.8984 49.4016 53.6898 46.1932 52.6701C43.5167 51.8147 40.7851 51.0431 38.0136 50.5916C35.3504 50.1592 32.9175 50.3401 30.2677 50.8126C24.3993 51.8623 18.6013 53.6264 12.9574 55.541C10.6519 56.324 11.641 60.0065 13.9694 59.2159H13.9637Z" fill="#606060"/>
<path d="M239.224 94.6793C239.224 94.6793 225.324 87.2152 218.999 86.0359C212.674 84.8567 187.491 89.1564 188.109 94.6564C188.906 101.757 203.932 102.145 211.316 101.372C211.316 101.372 213.584 116.613 227.512 113.595" fill="#FFFEFD"/>
<path d="M240.185 93.0349C235.488 90.4872 230.653 88.2033 225.703 86.1937C223.137 85.165 220.48 84.1629 217.697 83.98C215.092 83.8066 212.443 84.0676 209.859 84.3801C203.62 85.1421 197.162 86.3023 191.408 88.9085C189.46 89.7905 187.154 91.0764 186.416 93.2311C185.494 95.9268 187.558 98.7044 189.65 100.168C192.711 102.311 196.749 102.947 200.379 103.311C204.02 103.667 207.687 103.656 211.326 103.277L209.492 101.876C210.344 107.529 214.058 113.246 219.574 115.18C222.294 116.132 225.252 116.014 228.037 115.433C229.043 115.222 229.625 114.037 229.369 113.088C229.081 112.044 228.037 111.547 227.027 111.754C224.935 112.192 222.926 112.223 221.024 111.644C220.79 111.573 220.561 111.491 220.331 111.408C219.951 111.27 220.32 111.421 220.046 111.288C219.631 111.089 219.228 110.868 218.838 110.625C218.672 110.52 218.513 110.405 218.351 110.295C217.971 110.043 218.387 110.343 218.142 110.141C217.809 109.864 217.487 109.569 217.191 109.264C216.894 108.959 216.654 108.681 216.395 108.378C216.091 108.024 216.454 108.476 216.26 108.211C216.125 108.02 215.99 107.83 215.863 107.639C215.438 107.009 215.057 106.35 214.722 105.668C214.579 105.382 214.448 105.096 214.318 104.799C214.489 105.18 214.318 104.82 214.261 104.652C214.204 104.484 214.141 104.343 214.084 104.187C213.894 103.675 213.729 103.155 213.58 102.629C213.408 102.046 213.273 101.453 213.175 100.853C213.061 100.105 212.091 99.3769 211.339 99.455C208.309 99.7661 205.259 99.8298 202.218 99.6455C199.293 99.455 196.053 99.0492 193.418 97.9062C192.407 97.4997 191.495 96.8806 190.744 96.0906C190.689 96.0335 190.405 95.6239 190.653 95.9878C190.58 95.8811 190.51 95.7763 190.443 95.6658C190.377 95.5553 190.318 95.4429 190.253 95.3305C190.019 94.8923 190.36 95.6963 190.206 95.2219C190.126 94.9722 190.062 94.7177 190.015 94.4599C190.103 94.9457 189.994 94.5151 190.027 94.4865V94.4065C190.038 94.216 190.027 94.2979 189.981 94.6713C190.032 94.544 190.068 94.411 190.088 94.2751C190.034 94.759 190.034 94.5056 190.162 94.2236C190.289 93.9417 189.859 94.4942 190.261 94.1112C190.421 93.9588 190.578 93.8083 190.74 93.6597C191.121 93.313 190.481 93.8102 190.93 93.5169C191.121 93.3968 191.296 93.2711 191.484 93.1568C191.991 92.8513 192.514 92.5734 193.051 92.3243C193.299 92.21 193.546 92.0976 193.795 91.9909C193.447 92.1395 194.202 91.8328 194.295 91.8004C194.923 91.5565 195.557 91.3305 196.198 91.1222C197.6 90.663 199.022 90.2706 200.453 89.9181C201.975 89.546 203.5 89.2196 205.028 88.9389C205.759 88.803 206.492 88.676 207.227 88.5579C207.607 88.4969 207.988 88.4392 208.368 88.3846C208.777 88.3255 209.129 88.2779 209.285 88.2569C211.771 87.9388 214.292 87.6854 216.803 87.7444C217.269 87.7444 217.731 87.7844 218.195 87.8206C218.269 87.8206 218.343 87.8397 218.418 87.8435C218.815 87.8645 217.959 87.7368 218.326 87.8321C218.594 87.9026 218.878 87.9349 219.148 87.9978C220.544 88.3378 221.916 88.7706 223.255 89.2933C228.37 91.1984 233.417 93.7017 238.283 96.3173C240.442 97.4737 242.365 94.1855 240.204 93.0273L240.185 93.0349Z" fill="#606060"/>
</g>
</svg>
