<svg height="21.399" viewBox="0 0 19.409 21.399" width="19.409" xmlns="http://www.w3.org/2000/svg">
  <g data-name="Icon feather-share-2" id="Icon_feather-share-2" transform="translate(-3.75 -2.25)">
    <path d="M28.47,5.985A2.985,2.985,0,1,1,25.485,3,2.985,2.985,0,0,1,28.47,5.985Z"
        data-name="Path 5143" fill="none" id="Path_5143" stroke="#2f3640" stroke-linecap="round"
        stroke-linejoin="round" stroke-width="1.5" transform="translate(-6.061)" />
    <path d="M10.47,16.485A2.985,2.985,0,1,1,7.485,13.5,2.985,2.985,0,0,1,10.47,16.485Z"
        data-name="Path 5144" fill="none" id="Path_5144" stroke="#2f3640" stroke-linecap="round"
        stroke-linejoin="round" stroke-width="1.5" transform="translate(0 -3.535)" />
    <path d="M28.47,26.985A2.985,2.985,0,1,1,25.485,24,2.985,2.985,0,0,1,28.47,26.985Z"
        data-name="Path 5145" fill="none" id="Path_5145" stroke="#2f3640" stroke-linecap="round"
        stroke-linejoin="round" stroke-width="1.5" transform="translate(-6.061 -7.071)" />
    <path d="M12.885,20.265l6.8,3.96" data-name="Path 5146" fill="none" id="Path_5146"
        stroke="#2f3640" stroke-linecap="round" stroke-linejoin="round" stroke-width="1.5"
        transform="translate(-2.823 -5.813)" />
    <path d="M19.671,9.765l-6.786,3.96" data-name="Path 5147" fill="none" id="Path_5147"
        stroke="#2f3640" stroke-linecap="round" stroke-linejoin="round" stroke-width="1.5"
        transform="translate(-2.823 -2.278)" />
  </g>
</svg>
