<svg width="24" height="20" viewBox="0 0 24 20" fill="none" xmlns="http://www.w3.org/2000/svg">
<g filter="url(#filter0_d_932_727)">
<path d="M17.8245 5.88275C17.8245 2.64724 15.1772 0 11.9417 0C10.5299 0 9.23565 0.47062 8.23558 1.29421L8.94151 2.23544C9.76509 1.58834 10.7652 1.17655 11.9417 1.17655C14.5301 1.17655 16.6479 3.29434 16.6479 5.88275H14.5889L17.2362 9.17709L19.8834 5.88275H17.8245Z" fill="#2F3640"/>
<path d="M14.9419 9.53002C14.1183 10.1771 13.0594 10.5889 11.9417 10.5889C9.3533 10.5889 7.23551 8.47113 7.23551 5.88272H9.29447L6.64724 2.58838L4 5.88272H6.05896C6.05896 9.11823 8.7062 11.7655 11.9417 11.7655C13.3536 11.7655 14.6478 11.2948 15.6478 10.4713L14.9419 9.53002Z" fill="#2F3640"/>
</g>
<defs>
<filter id="filter0_d_932_727" x="1.21651e-07" y="0" width="23.8834" height="19.7654" filterUnits="userSpaceOnUse" color-interpolation-filters="sRGB">
<feFlood flood-opacity="0" result="BackgroundImageFix"/>
<feColorMatrix in="SourceAlpha" type="matrix" values="0 0 0 0 0 0 0 0 0 0 0 0 0 0 0 0 0 0 127 0" result="hardAlpha"/>
<feOffset dy="4"/>
<feGaussianBlur stdDeviation="2"/>
<feComposite in2="hardAlpha" operator="out"/>
<feColorMatrix type="matrix" values="0 0 0 0 0 0 0 0 0 0 0 0 0 0 0 0 0 0 0.25 0"/>
<feBlend mode="normal" in2="BackgroundImageFix" result="effect1_dropShadow_932_727"/>
<feBlend mode="normal" in="SourceGraphic" in2="effect1_dropShadow_932_727" result="shape"/>
</filter>
</defs>
</svg>
