<svg width="41" height="41" viewBox="0 0 41 41" fill="none" xmlns="http://www.w3.org/2000/svg">
<path d="M32.3415 35H8.92683C7.31707 35 6 33.6829 6 32.0732V16.7805C6 15.8293 6.43902 14.9512 7.2439 14.3659L20.6341 5L34.0244 14.3659C34.8293 14.878 35.2683 15.8293 35.2683 16.7805V32.0732C35.2683 33.6829 33.9512 35 32.3415 35Z" fill="#78909C"/>
<path d="M13.317 5.73242H27.9512V28.4153H13.317V5.73242Z" fill="#AED581"/>
<path d="M12.5854 5V29.1463H28.683V5H12.5854ZM27.2196 27.6829H14.0489V6.46341H27.2196V27.6829Z" fill="#558B2F"/>
<path d="M27.9513 7.19584C27.9513 8.43974 27.7317 9.39096 26.4878 9.39096C25.2439 9.39096 24.2927 8.43974 24.2927 7.19584C24.2927 5.95193 25.2439 5.73242 26.4878 5.73242C27.7317 5.73242 27.9513 5.95193 27.9513 7.19584Z" fill="#558B2F"/>
<path d="M14.7804 5.73242C16.0243 5.73242 16.9756 5.95193 16.9756 7.19584C16.9756 8.43974 16.0243 9.39096 14.7804 9.39096C13.5365 9.39096 13.317 8.43974 13.317 7.19584C13.317 5.95193 13.5365 5.73242 14.7804 5.73242Z" fill="#558B2F"/>
<path d="M20.6342 12.3175C21.4424 12.3175 22.0976 11.6623 22.0976 10.854C22.0976 10.0458 21.4424 9.39062 20.6342 9.39062C19.826 9.39062 19.1708 10.0458 19.1708 10.854C19.1708 11.6623 19.826 12.3175 20.6342 12.3175Z" fill="#558B2F"/>
<path d="M20.6341 24.0246C23.0588 24.0246 25.0244 22.059 25.0244 19.6344C25.0244 17.2097 23.0588 15.2441 20.6341 15.2441C18.2095 15.2441 16.2439 17.2097 16.2439 19.6344C16.2439 22.059 18.2095 24.0246 20.6341 24.0246Z" fill="#558B2F"/>
<path d="M32.3415 35.0004H8.92683C7.31707 35.0004 6 33.6834 6 32.0736V17.4395L20.6341 26.9516L35.2683 17.4395V32.0736C35.2683 33.6834 33.9512 35.0004 32.3415 35.0004Z" fill="#CFD8DC"/>
</svg>
