<svg width="43" height="44" viewBox="0 0 43 44" fill="none" xmlns="http://www.w3.org/2000/svg">
<path opacity="0.17" d="M21.481 43.8858C33.3446 43.8858 42.962 34.2685 42.962 22.4048C42.962 10.5412 33.3446 0.923828 21.481 0.923828C9.61737 0.923828 0 10.5412 0 22.4048C0 34.2685 9.61737 43.8858 21.481 43.8858Z" fill="#61923A"/>
<path d="M28.5833 32.8332V25.1415C28.5831 24.1455 28.3867 23.1592 28.0053 22.2391C27.6238 21.319 27.0649 20.4831 26.3603 19.779L24.2478 17.6665V24.8024C24.2478 25.7666 23.0811 26.2508 22.3986 25.5683L20.9957 24.1665C20.454 23.6248 19.1529 23.2998 18.2852 24.1665C17.4185 25.0332 17.7435 26.3332 18.2852 26.8748L24.2478 32.8332" stroke="#7B923A" stroke-width="2" stroke-linecap="round" stroke-linejoin="round"/>
<path d="M19.9167 11.1665H22.0833C22.658 11.1665 23.2091 11.3948 23.6154 11.8011C24.0217 12.2074 24.25 12.7585 24.25 13.3332V15.4998M19.9167 11.1665C19.9167 12.6106 20.7833 15.4998 24.25 15.4998M19.9167 11.1665H17.75M24.25 15.4998V21.9998M17.75 11.1665H15.5833C15.0087 11.1665 14.4576 11.3948 14.0513 11.8011C13.6449 12.2074 13.4167 12.7585 13.4167 13.3332V15.4998M17.75 11.1665C17.75 12.6106 16.8833 15.4998 13.4167 15.4998M13.4167 21.9998V24.1665C13.4167 24.7411 13.6449 25.2922 14.0513 25.6986C14.4576 26.1049 15.0087 26.3332 15.5833 26.3332H17.75C17.75 24.8891 16.8833 21.9998 13.4167 21.9998ZM13.4167 21.9998V15.4998" stroke="#7B923A" stroke-width="2" stroke-linecap="round" stroke-linejoin="round"/>
<path d="M17.75 18.7498C17.75 19.3481 18.235 19.8332 18.8333 19.8332C19.4316 19.8332 19.9167 19.3481 19.9167 18.7498C19.9167 18.1515 19.4316 17.6665 18.8333 17.6665C18.235 17.6665 17.75 18.1515 17.75 18.7498Z" stroke="#7B923A" stroke-width="2" stroke-linecap="round" stroke-linejoin="round"/>
</svg>
