<svg width="43" height="43" viewBox="0 0 43 43" fill="none" xmlns="http://www.w3.org/2000/svg">
<path opacity="0.17" d="M21.481 42.962C33.3446 42.962 42.962 33.3446 42.962 21.481C42.962 9.61737 33.3446 0 21.481 0C9.61737 0 0 9.61737 0 21.481C0 33.3446 9.61737 42.962 21.481 42.962Z" fill="#974AAA"/>
<path fill-rule="evenodd" clip-rule="evenodd" d="M31.4113 20.7085H28.2683C26.607 20.7085 25.3738 21.944 25.3738 23.3335C25.3738 24.723 26.607 25.9585 28.2672 25.9585H31.4382C31.6785 25.9433 31.7823 25.7812 31.7905 25.6832V20.9838C31.7823 20.8858 31.6785 20.7237 31.4382 20.7097H31.4102L31.4113 20.7085ZM31.325 18.9585C31.402 18.9585 31.4767 18.9585 31.5467 18.9632C32.5617 19.025 33.4612 19.7915 33.537 20.8625C33.5417 20.9325 33.5417 21.0083 33.5417 21.0783V25.5887C33.5417 25.6587 33.5417 25.7345 33.537 25.8045C33.4612 26.8755 32.5617 27.642 31.5455 27.705C31.4767 27.7085 31.402 27.7085 31.3238 27.7085H28.2695C25.767 27.7085 23.625 25.8092 23.625 23.3335C23.625 20.8578 25.767 18.9585 28.2683 18.9585H31.325Z" fill="#A84AAA"/>
<path d="M29.1667 23.3337C29.1667 23.6431 29.0438 23.9398 28.825 24.1586C28.6062 24.3774 28.3094 24.5003 28 24.5003C27.6906 24.5003 27.3938 24.3774 27.1751 24.1586C26.9563 23.9398 26.8333 23.6431 26.8333 23.3337C26.8333 23.0242 26.9563 22.7275 27.1751 22.5087C27.3938 22.2899 27.6906 22.167 28 22.167C28.3094 22.167 28.6062 22.2899 28.825 22.5087C29.0438 22.7275 29.1667 23.0242 29.1667 23.3337V23.3337Z" fill="#A84AAA"/>
<path fill-rule="evenodd" clip-rule="evenodd" d="M31.325 18.9585C31.6597 18.9458 31.9929 19.0097 32.2992 19.1451C32.1743 17.2715 31.8302 15.8271 30.7522 14.748C29.8783 13.8753 28.7712 13.488 27.4038 13.3036L27.3548 13.2978C27.3426 13.2885 27.3302 13.2796 27.3175 13.271L22.9588 10.3811C22.2028 9.88773 21.3195 9.625 20.4167 9.625C19.5139 9.625 18.6306 9.88773 17.8745 10.3811L13.517 13.271C13.5039 13.2796 13.4911 13.2885 13.4785 13.2978L13.4295 13.3036C12.0622 13.488 10.955 13.8753 10.0812 14.748C9.20851 15.6218 8.82118 16.729 8.63684 18.0963C8.45834 19.4263 8.45834 21.1238 8.45834 23.2681V23.3988C8.45834 25.5431 8.45834 27.2418 8.63684 28.5706C8.82118 29.938 9.20851 31.0451 10.0812 31.919C10.955 32.7916 12.0622 33.179 13.4295 33.3633C14.7595 33.5418 16.457 33.5418 18.6013 33.5418H22.232C24.3763 33.5418 26.075 33.5418 27.4038 33.3633C28.7712 33.179 29.8783 32.7916 30.7522 31.919C31.8302 30.8398 32.1743 29.3955 32.2992 27.5206C32.0635 27.6256 31.8092 27.6886 31.5455 27.705C31.4767 27.7085 31.402 27.7085 31.3238 27.7085H30.5293C30.3963 29.273 30.0965 30.1001 29.5143 30.6811C29.0208 31.1746 28.3442 31.471 27.1705 31.6285C25.9723 31.7895 24.3915 31.7918 22.1667 31.7918H18.6667C16.4418 31.7918 14.8622 31.7895 13.6617 31.6285C12.4892 31.471 11.8125 31.1746 11.319 30.6811C10.8255 30.1876 10.5292 29.511 10.3717 28.3373C10.2107 27.1391 10.2083 25.5583 10.2083 23.3335C10.2083 21.1086 10.2107 19.529 10.3717 18.3285C10.5292 17.156 10.8255 16.4793 11.319 15.9858C11.8125 15.4923 12.4892 15.196 13.6628 15.0385C14.8622 14.8775 16.4418 14.8751 18.6667 14.8751H22.1667C24.3915 14.8751 25.9723 14.8775 27.1717 15.0385C28.3442 15.196 29.0208 15.4923 29.5143 15.9858C30.0965 16.5668 30.3963 17.394 30.5293 18.9585H31.325ZM18.6013 13.1251H22.232C22.8352 13.1251 23.4022 13.1251 23.9353 13.1286L21.9917 11.8395C21.0583 11.2211 19.775 11.2211 18.8417 11.8395L16.8968 13.1286C17.4312 13.1251 17.9982 13.1251 18.6002 13.1251H18.6013Z" fill="#A84AAA"/>
<path d="M14 17.792C13.7679 17.792 13.5454 17.8842 13.3813 18.0483C13.2172 18.2124 13.125 18.4349 13.125 18.667C13.125 18.8991 13.2172 19.1216 13.3813 19.2857C13.5454 19.4498 13.7679 19.542 14 19.542H18.6667C18.8987 19.542 19.1213 19.4498 19.2854 19.2857C19.4495 19.1216 19.5417 18.8991 19.5417 18.667C19.5417 18.4349 19.4495 18.2124 19.2854 18.0483C19.1213 17.8842 18.8987 17.792 18.6667 17.792H14Z" fill="#A84AAA"/>
<path d="M29.1667 23.3337C29.1667 23.6431 29.0438 23.9398 28.825 24.1586C28.6062 24.3774 28.3094 24.5003 28 24.5003C27.6906 24.5003 27.3938 24.3774 27.1751 24.1586C26.9563 23.9398 26.8333 23.6431 26.8333 23.3337C26.8333 23.0242 26.9563 22.7275 27.1751 22.5087C27.3938 22.2899 27.6906 22.167 28 22.167C28.3094 22.167 28.6062 22.2899 28.825 22.5087C29.0438 22.7275 29.1667 23.0242 29.1667 23.3337V23.3337Z" fill="#A84AAA"/>
</svg>
