<svg width="43" height="44" viewBox="0 0 43 44" fill="none" xmlns="http://www.w3.org/2000/svg">
<path opacity="0.17" d="M21.481 43.9239C33.3446 43.9239 42.962 34.3065 42.962 22.4429C42.962 10.5793 33.3446 0.961914 21.481 0.961914C9.61737 0.961914 0 10.5793 0 22.4429C0 34.3065 9.61737 43.9239 21.481 43.9239Z" fill="#2CB1EA"/>
<path d="M31.8333 12.25H13.4167C12.842 12.25 12.2909 12.4783 11.8846 12.8846C11.4783 13.2909 11.25 13.842 11.25 14.4167V18.75H13.4167V14.4167H31.8333V29.5833H13.4167V25.25H11.25V29.5833C11.25 30.158 11.4783 30.7091 11.8846 31.1154C12.2909 31.5217 12.842 31.75 13.4167 31.75H31.8333C32.408 31.75 32.9591 31.5217 33.3654 31.1154C33.7717 30.7091 34 30.158 34 29.5833V14.4167C34 13.842 33.7717 13.2909 33.3654 12.8846C32.9591 12.4783 32.408 12.25 31.8333 12.25ZM15.5833 25.25V23.0833H8V20.9167H15.5833V18.75L19.9167 22L15.5833 25.25ZM29.6667 23.0833H22.0833V20.9167H29.6667V23.0833ZM29.6667 18.75H22.0833V16.5833H29.6667V18.75ZM26.4167 27.4167H22.0833V25.25H26.4167V27.4167Z" fill="#2CBCEA"/>
</svg>
