<svg width="91" height="93" viewBox="0 0 91 93" fill="none" xmlns="http://www.w3.org/2000/svg">
<path d="M45.0007 89.4988C69.8539 89.4988 90.0014 69.898 90.0014 45.7191C90.0014 21.5403 69.8539 1.93945 45.0007 1.93945C20.1475 1.93945 0 21.5403 0 45.7191C0 69.898 20.1475 89.4988 45.0007 89.4988Z" fill="#B5C291"/>
<path d="M77.3818 45.1858C77.5582 63.1891 63.1059 77.9231 45.1025 78.0995C27.0992 78.2758 12.3652 63.8235 12.1888 45.8201C12.0125 27.8168 26.4648 13.0828 44.4692 12.9092C62.4688 12.7311 77.2055 27.1824 77.3818 45.1858Z" fill="#FFFEFD" stroke="#9B9B9B" stroke-width="2" stroke-miterlimit="10"/>
<path d="M65.4664 55.3527C70.7041 44.1303 65.8526 30.7869 54.6303 25.5491C43.408 20.3114 30.0645 25.1629 24.8268 36.3853C19.5891 47.6076 24.4406 60.9511 35.6629 66.1888C46.8852 71.4265 60.2287 66.575 65.4664 55.3527Z" stroke="#9B9B9B" stroke-width="2" stroke-miterlimit="10"/>
<path d="M42.8727 49.537C42.5952 50.3421 42.1891 51.0164 41.6581 51.5616C41.1244 52.1078 40.4759 52.5181 39.707 52.7945C38.9391 53.0737 38.0796 53.221 37.1313 53.2355C35.221 53.2695 33.7075 52.7665 32.5881 51.7276C31.4725 50.6904 30.8956 49.1208 30.8574 47.0189L30.7139 38.8849L33.8447 38.831L33.986 46.8816C34.0082 48.0483 34.2939 48.9198 34.8451 49.5016C35.399 50.0823 36.1551 50.3621 37.1182 50.3454C38.0812 50.3287 38.8274 50.0325 39.3611 49.452C39.892 48.8725 40.1505 48.0151 40.1291 46.8762L39.9878 38.7227L43.1187 38.6688L43.2594 46.7009C43.2776 47.7881 43.1502 48.7318 42.8727 49.537Z" fill="#9B9B9B"/>
<path d="M55.2028 52.6979L52.0731 48.1956L49.6119 48.2398L49.6912 52.7948L46.5604 52.8487L46.3116 38.6142L52.8177 38.5016C54.5114 38.4717 55.8374 38.8621 56.7932 39.6738C57.7489 40.4855 58.242 41.6275 58.2652 43.1054L58.2645 43.1462C58.2844 44.2982 58.0199 45.2419 57.4709 45.9775C56.922 46.7131 56.1946 47.258 55.2916 47.6113L58.8568 52.6346L55.2028 52.6979ZM55.1009 43.3242C55.0881 42.6464 54.8642 42.142 54.4226 41.8102C53.981 41.4784 53.3783 41.3205 52.6041 41.334L49.4918 41.3874L49.5632 45.4747L52.7338 45.4188C53.5052 45.4064 54.0957 45.2135 54.5043 44.8374C54.9112 44.4651 55.1091 43.9725 55.0991 43.3622L55.1009 43.3242Z" fill="#9B9B9B"/>
<path d="M60.8047 89.5508L67 85.4206L73.1953 89.5508L75.0834 90.8096L74.7384 88.5667L73.3884 79.7917L73.1163 78.0234C73.3319 77.8177 73.5221 77.5884 73.682 77.3484L73.7435 77.2562L73.7833 77.1527L74.888 74.2806C75.0178 74.0449 75.2762 73.7866 75.5119 73.6567L78.384 72.5521L78.429 72.5348L78.4722 72.5132C79.1157 72.1914 79.6664 71.6407 79.9882 70.9972C80.3042 70.3651 80.4401 69.5447 80.0741 68.7581L78.9667 65.6574L78.9464 65.6005L78.9194 65.5465C78.8905 65.4887 78.8562 65.3673 78.8562 65.2063C78.8562 65.0452 78.8905 64.9238 78.9194 64.866L80.2694 62.166C81.0233 60.6582 80.1978 58.9459 78.6214 58.3153L78.6214 58.3152L78.609 58.3104L75.7369 57.2058C75.5012 57.0759 75.2428 56.8176 75.113 56.5819L74.0283 53.7617C73.6791 52.4753 72.6349 51.7188 71.5 51.7188L71.4878 51.7187C71.3754 51.7187 71.1372 51.7185 70.8856 51.7605C70.6865 51.7937 70.3601 51.8706 70.0631 52.0902L67.4554 53.2937H67C66.9864 53.2937 66.9747 53.2937 66.9642 53.2937L66.882 53.2116L66.684 53.1354L63.903 52.0658C63.6153 51.8648 63.3059 51.7924 63.1144 51.7605C62.8628 51.7185 62.6246 51.7187 62.5121 51.7187C62.5079 51.7187 62.5039 51.7188 62.5 51.7188C61.3848 51.7188 60.4358 52.4372 59.8679 53.289L59.7997 53.3915L59.7583 53.5074L58.6333 56.6574L58.575 56.8205V56.9361C58.5669 56.9489 58.554 56.9671 58.5345 56.9898C58.4694 57.0657 58.3729 57.1436 58.2716 57.201L55.2293 58.2875C53.5724 58.7391 53.1174 60.6424 53.6965 62.0901L53.7062 62.1142L53.717 62.1378L55.067 65.0628L55.0736 65.077L55.0806 65.091C55.1095 65.1488 55.1437 65.2702 55.1437 65.4312C55.1437 65.5923 55.1095 65.7137 55.0806 65.7715L53.7306 68.4715L54.3579 68.7852L53.7306 68.4715C52.9767 69.9793 53.8021 71.6916 55.3786 72.3222L55.3786 72.3223L55.391 72.3271L58.2631 73.4317C58.4988 73.5616 58.7572 73.8199 58.887 74.0556L59.9717 76.8757C60.3209 78.1622 61.3651 78.9187 62.5 78.9187C62.5072 78.9187 62.5148 78.9188 62.5227 78.9188C62.7511 78.9193 63.2489 78.9204 63.7252 78.5412L66.3842 77.3139C66.4779 77.2944 66.5576 77.2683 66.6199 77.2449C66.7057 77.2128 66.7857 77.1748 66.84 77.148L66.869 77.177L67.0309 77.2517L69.8248 78.5412C70.3011 78.9204 70.7989 78.9193 71.0273 78.9188C71.0352 78.9188 71.0428 78.9187 71.05 78.9187C71.5153 78.9187 71.9517 78.7937 72.3436 78.586L71.7734 79.1561C71.7423 79.1607 71.704 79.1642 71.6585 79.1663C71.6066 79.1686 71.5572 79.1687 71.5 79.1687C71.1513 79.1687 70.9438 79.0951 70.517 78.9435C70.3859 78.897 70.2342 78.8431 70.0513 78.7818L67.3846 77.6707L67 77.5104L66.6154 77.6707L63.9154 78.7957L63.8836 78.8089L63.8528 78.8243C63.4964 79.0025 62.976 79.1687 62.5 79.1687C62.2553 79.1687 62.1736 79.1662 62.1019 79.1542C62.055 79.1464 61.9822 79.1293 61.8222 79.0493L60.5622 78.4193L60.3831 79.8166L59.2581 88.5916L58.9791 90.7679L60.8047 89.5508ZM67 73.3188C62.6023 73.3188 59 69.7165 59 65.3187C59 60.921 62.6023 57.3188 67 57.3188C71.3977 57.3188 75 60.921 75 65.3187C75 69.7165 71.3977 73.3188 67 73.3188Z" fill="white" stroke="#9B9B9B" stroke-width="2"/>
<path d="M72.4801 70.7984C73.9335 69.345 74.75 67.3738 74.75 65.3184C74.75 63.2629 73.9335 61.2917 72.4801 59.8383C71.0267 58.3849 69.0554 57.5684 67 57.5684C64.9446 57.5684 62.9733 58.3849 61.5199 59.8383C60.0665 61.2917 59.25 63.2629 59.25 65.3184C59.25 67.3738 60.0665 69.345 61.5199 70.7984C62.9733 72.2518 64.9446 73.0684 67 73.0684C69.0554 73.0684 71.0267 72.2518 72.4801 70.7984Z" fill="white" stroke="#9B9B9B" stroke-width="2"/>
</svg>
