<svg width="41" height="41" viewBox="0 0 41 41" fill="none" xmlns="http://www.w3.org/2000/svg">
<g clip-path="url(#clip0_2727_6067)">
<path d="M20.0006 34.9989C28.8357 34.9989 35.9981 27.8366 35.9981 19.0014C35.9981 10.1662 28.8357 3.00391 20.0006 3.00391C11.1654 3.00391 4.00305 10.1662 4.00305 19.0014C4.00305 27.8366 11.1654 34.9989 20.0006 34.9989Z" fill="#FFDE56"/>
<path d="M20.0005 31.7251C27.0283 31.7251 32.7254 26.028 32.7254 19.0003C32.7254 11.9725 27.0283 6.27539 20.0005 6.27539C12.9728 6.27539 7.27563 11.9725 7.27563 19.0003C7.27563 26.028 12.9728 31.7251 20.0005 31.7251Z" fill="#F9B500"/>
<path d="M13.7829 14.5749L13.8998 20.6206C13.9117 21.2253 14.0696 21.6879 14.3733 22.0082C14.677 22.3285 15.1165 22.4834 15.6919 22.4727C16.268 22.4614 16.7065 22.2896 17.0075 21.9573C17.3086 21.6249 17.4531 21.1567 17.4411 20.5527L17.3242 14.5059L19.7867 14.459L19.9026 20.4908C19.9199 21.3925 19.7427 22.1584 19.3711 22.7884C19.0141 23.4053 18.486 23.9057 17.8507 24.2289C17.1808 24.565 16.4424 24.7421 15.6929 24.7464C14.9539 24.7731 14.2188 24.6271 13.5461 24.3198C12.9136 24.0217 12.3851 23.5408 12.0287 22.9392C11.6517 22.3179 11.4549 21.556 11.4383 20.6536L11.3214 14.6218L13.7829 14.5749Z" fill="#DF9800"/>
<path d="M26.8625 24.4324L24.6867 20.6583L24.0963 20.6703L24.1702 24.4844L21.7088 24.5323L21.509 14.4268L25.6407 14.3468C26.4399 14.3322 27.1215 14.4584 27.6856 14.7255C28.2187 14.9595 28.6682 15.35 28.9743 15.8453C29.2641 16.3331 29.419 16.8892 29.4228 17.4566C29.4443 18.1018 29.2568 18.7367 28.8884 19.2668C28.5201 19.7996 27.9683 20.1848 27.2331 20.4226L29.6406 24.3785L26.8625 24.4324ZM24.0653 18.9281L25.5908 18.8982C26.0423 18.8902 26.3786 18.7733 26.5997 18.5475C26.8208 18.3217 26.9274 18.0077 26.9194 17.6055C26.9127 17.2219 26.7942 16.9222 26.5638 16.7064C26.3333 16.4906 25.993 16.3867 25.5428 16.3947L24.0164 16.4237L24.0653 18.9281Z" fill="#DF9800"/>
<path d="M13.2335 14.3698L13.3493 20.4166C13.3613 21.0213 13.5192 21.4838 13.8228 21.8041C14.1265 22.1245 14.5664 22.2793 15.1425 22.2686C15.7179 22.258 16.1561 22.0862 16.4571 21.7532C16.7582 21.4202 16.9013 20.9517 16.8867 20.3476L16.7708 14.3019L19.2323 14.2539L19.3482 20.2867C19.3661 21.1891 19.189 21.955 18.8167 22.5843C18.4599 23.2015 17.9318 23.7019 17.2963 24.0248C16.6265 24.3612 15.888 24.538 15.1385 24.5413C14.3994 24.5685 13.6642 24.4225 12.9917 24.1147C12.3591 23.8167 11.8308 23.3353 11.4753 22.7332C11.1003 22.1131 10.9062 21.3519 10.8929 20.4495L10.771 14.4177L13.2335 14.3698Z" fill="#FFDE56"/>
<path d="M26.312 24.2276L24.1362 20.4535L23.5468 20.4645L23.6198 24.2776L21.1583 24.3245L20.9635 14.2189L25.0952 14.14C25.8944 14.124 26.576 14.2499 27.1401 14.5176C27.6706 14.7535 28.1173 15.1442 28.4218 15.6385C28.714 16.1262 28.8702 16.6833 28.8743 17.2518C28.8951 17.8968 28.7081 18.5313 28.3409 19.0619C27.9713 19.5947 27.4192 19.9797 26.6846 20.2168L29.0901 24.1777L26.312 24.2276ZM23.5149 18.7233L25.0403 18.6933C25.4918 18.6843 25.8275 18.5685 26.0493 18.3427C26.271 18.1169 26.3769 17.8032 26.3699 17.4007C26.3619 17.0171 26.2431 16.7174 26.0133 16.5016C25.7835 16.2858 25.4425 16.1806 24.9903 16.1859L23.4649 16.2149L23.5149 18.7233Z" fill="#FFDE56"/>
</g>
<defs>
<clipPath id="clip0_2727_6067">
<rect width="32" height="32" fill="white" transform="translate(4 3)"/>
</clipPath>
</defs>
</svg>
