<svg width="43" height="43" viewBox="0 0 43 43" fill="none" xmlns="http://www.w3.org/2000/svg">
<path opacity="0.17" d="M21.481 42.962C33.3446 42.962 42.962 33.3446 42.962 21.481C42.962 9.61737 33.3446 0 21.481 0C9.61737 0 0 9.61737 0 21.481C0 33.3446 9.61737 42.962 21.481 42.962Z" fill="#FFAA2B"/>
<path d="M26.4166 24.2493V23.7017C26.4166 23.2723 26.5872 22.8605 26.8908 22.5569C27.1945 22.2533 27.6063 22.0827 28.0357 22.0827C28.4647 22.0827 28.8762 22.253 29.1797 22.5561C29.4833 22.8593 29.6541 23.2705 29.6547 23.6996L29.6612 28.1412C29.6619 28.6257 29.5671 29.1056 29.3822 29.5535C29.1973 30.0013 28.9259 30.4083 28.5835 30.7511C28.2412 31.094 27.8346 31.366 27.387 31.5516C26.9395 31.7372 26.4597 31.8327 25.9752 31.8327H21.8921C20.7133 31.8327 19.5509 31.5565 18.4982 31.0262C17.4454 30.496 16.5315 29.7265 15.8298 28.7793L13.5196 25.6609C13.3288 25.4034 13.2186 25.0952 13.203 24.7751C13.1874 24.455 13.267 24.1374 13.4318 23.8626C13.5585 23.6514 13.7317 23.4718 13.9383 23.3375C14.1448 23.2032 14.3792 23.1178 14.6237 23.0877C14.8682 23.0577 15.1163 23.0837 15.3493 23.1639C15.5822 23.2441 15.7937 23.3764 15.9679 23.5506L16.6666 24.2493V16.666C16.6666 16.235 16.8378 15.8217 17.1426 15.517C17.4473 15.2122 17.8607 15.041 18.2916 15.041C18.7226 15.041 19.1359 15.2122 19.4407 15.517C19.7454 15.8217 19.9166 16.235 19.9166 16.666V23.0983V19.3884C19.9166 18.9537 20.0893 18.5368 20.3967 18.2294C20.7041 17.922 21.121 17.7493 21.5557 17.7493C21.771 17.7493 21.9842 17.7916 22.1831 17.874C22.3821 17.9563 22.5628 18.077 22.7151 18.2292C22.8673 18.3814 22.9881 18.5622 23.0705 18.7611C23.1529 18.96 23.1953 19.1731 23.1953 19.3884V23.7077V23.1113C23.1953 22.6842 23.365 22.2745 23.667 21.9724C23.969 21.6703 24.3786 21.5005 24.8057 21.5004C25.233 21.5004 25.6427 21.6701 25.9448 21.9722C26.2469 22.2743 26.4166 22.6841 26.4166 23.1113V24.2493Z" stroke="#F2A000" stroke-width="2.1" stroke-linecap="round" stroke-linejoin="round"/>
<path d="M25.3333 10.166V14.4993" stroke="#F2A000" stroke-width="2.1" stroke-linecap="round"/>
<path d="M16.6667 18.8327H11.25V16.666C12.3333 16.666 13.4167 15.8535 13.4026 14.4993C13.3885 13.1452 12.3333 12.3327 11.25 12.3327V10.166H30.75V12.3327C29.6667 12.3327 28.6115 13.1452 28.5974 14.4993C28.5833 15.8535 29.6667 16.666 30.75 16.666V18.8327H23.1667" stroke="#F2A000" stroke-width="2.1" stroke-linecap="round" stroke-linejoin="round"/>
</svg>
