<svg width="43" height="43" viewBox="0 0 43 43" fill="none" xmlns="http://www.w3.org/2000/svg">
<path opacity="0.17" d="M21.481 42.962C33.3446 42.962 42.962 33.3446 42.962 21.481C42.962 9.61737 33.3446 0 21.481 0C9.61737 0 0 9.61737 0 21.481C0 33.3446 9.61737 42.962 21.481 42.962Z" fill="#2BFF66"/>
<path d="M19.3208 22.6798L16.125 21.2444C16.0167 21.1902 15.9625 21.109 15.9625 21.0007C15.9625 20.8923 16.0167 20.8111 16.125 20.7569L19.3208 19.2944L20.7562 16.1257C20.8104 16.0173 20.8917 15.9632 21 15.9632C21.1083 15.9632 21.1896 16.0173 21.2437 16.1257L22.7062 19.2944L25.875 20.7569C25.9833 20.8111 26.0375 20.8923 26.0375 21.0007C26.0375 21.109 25.9833 21.1902 25.875 21.2444L22.7062 22.6798L21.2437 25.8757C21.1896 25.984 21.1083 26.0382 21 26.0382C20.8917 26.0382 20.8104 25.984 20.7562 25.8757L19.3208 22.6798ZM21 32.9173C18.9778 32.9173 17.118 32.4569 15.4208 31.5361C13.7236 30.6152 12.3333 29.3875 11.25 27.8527V29.6673C11.25 29.9743 11.146 30.2317 10.938 30.4397C10.73 30.6477 10.4729 30.7514 10.1667 30.7507C9.85971 30.7507 9.60223 30.6467 9.39423 30.4387C9.18623 30.2307 9.08259 29.9735 9.08332 29.6673V25.334C9.08332 25.027 9.18732 24.7696 9.39532 24.5616C9.60332 24.3536 9.86043 24.2499 10.1667 24.2507H14.5C14.8069 24.2507 15.0644 24.3547 15.2724 24.5627C15.4804 24.7707 15.584 25.0278 15.5833 25.334C15.5833 25.6409 15.4793 25.8984 15.2713 26.1064C15.0633 26.3144 14.8062 26.418 14.5 26.4173H12.9021C13.7687 27.7173 14.9109 28.7645 16.3287 29.559C17.7464 30.3534 19.3035 30.7507 21 30.7507C23.5458 30.7507 25.7352 29.902 27.5682 28.2048C29.4012 26.5076 30.4438 24.4222 30.6958 21.9486C30.7319 21.6597 30.8583 21.4293 31.075 21.2574C31.2917 21.0855 31.5444 20.9999 31.8333 21.0007C32.1403 21.0007 32.4021 21.0956 32.6187 21.2856C32.8354 21.4755 32.9257 21.7055 32.8896 21.9757C32.7632 23.5104 32.366 24.9411 31.6979 26.2678C31.0298 27.5945 30.1632 28.7501 29.0979 29.7345C28.0326 30.7189 26.8092 31.4953 25.4276 32.0637C24.046 32.632 22.5701 32.9166 21 32.9173ZM21 11.2507C18.4542 11.2507 16.2651 12.0993 14.4328 13.7965C12.6005 15.4937 11.5577 17.5791 11.3042 20.0527C11.268 20.3416 11.1417 20.572 10.925 20.7439C10.7083 20.9158 10.4555 21.0014 10.1667 21.0007C9.85971 21.0007 9.5979 20.9057 9.38123 20.7157C9.16457 20.5258 9.07429 20.2958 9.1104 20.0257C9.23679 18.4909 9.63401 17.0602 10.3021 15.7335C10.9701 14.4068 11.8368 13.2512 12.9021 12.2668C13.9673 11.2824 15.1908 10.506 16.5724 9.93765C17.954 9.36926 19.4299 9.08471 21 9.08398C23.0222 9.08398 24.8819 9.5444 26.5792 10.4652C28.2764 11.3861 29.6667 12.6138 30.75 14.1486V12.334C30.75 12.027 30.854 11.7699 31.062 11.5627C31.27 11.3554 31.5271 11.2514 31.8333 11.2507C32.1403 11.2507 32.3977 11.3547 32.6057 11.5627C32.8137 11.7707 32.9174 12.0278 32.9167 12.334V16.6673C32.9167 16.9743 32.8127 17.2317 32.6047 17.4397C32.3967 17.6477 32.1395 17.7514 31.8333 17.7507H27.5C27.193 17.7507 26.9356 17.6467 26.7276 17.4387C26.5196 17.2307 26.4159 16.9735 26.4167 16.6673C26.4167 16.3604 26.5207 16.1029 26.7287 15.8949C26.9367 15.6869 27.1938 15.5833 27.5 15.584H29.0979C28.2312 14.284 27.089 13.2368 25.6713 12.4423C24.2536 11.6479 22.6965 11.2507 21 11.2507Z" fill="#71CD46"/>
</svg>
