<svg width="43" height="43" viewBox="0 0 43 43" fill="none" xmlns="http://www.w3.org/2000/svg">
<path opacity="0.17" d="M21.481 42.962C33.3446 42.962 42.962 33.3446 42.962 21.481C42.962 9.61737 33.3446 0 21.481 0C9.61737 0 0 9.61737 0 21.481C0 33.3446 9.61737 42.962 21.481 42.962Z" fill="#923A89"/>
<path d="M24.0334 16.6673L25.3334 17.9673L17.9667 25.334L16.6667 24.034L24.0334 16.6673ZM12.3334 12.334H29.6667C30.8692 12.334 31.8334 13.2982 31.8334 14.5007V18.834C31.2587 18.834 30.7076 19.0623 30.3013 19.4686C29.895 19.8749 29.6667 20.426 29.6667 21.0007C29.6667 21.5753 29.895 22.1264 30.3013 22.5327C30.7076 22.939 31.2587 23.1673 31.8334 23.1673V27.5007C31.8334 28.7032 30.8692 29.6673 29.6667 29.6673H12.3334C11.7587 29.6673 11.2076 29.439 10.8013 29.0327C10.395 28.6264 10.1667 28.0753 10.1667 27.5007V23.1673C11.3692 23.1673 12.3334 22.2032 12.3334 21.0007C12.3334 20.426 12.1051 19.8749 11.6988 19.4686C11.2924 19.0623 10.7413 18.834 10.1667 18.834V14.5007C10.1667 13.926 10.395 13.3749 10.8013 12.9686C11.2076 12.5623 11.7587 12.334 12.3334 12.334ZM12.3334 14.5007V17.2523C12.9917 17.6319 13.5384 18.1782 13.9185 18.8362C14.2987 19.4942 14.4988 20.2407 14.4988 21.0007C14.4988 21.7606 14.2987 22.5071 13.9185 23.1651C13.5384 23.8231 12.9917 24.3694 12.3334 24.749V27.5007H29.6667V24.749C29.0084 24.3694 28.4616 23.8231 28.0815 23.1651C27.7014 22.5071 27.5012 21.7606 27.5012 21.0007C27.5012 20.2407 27.7014 19.4942 28.0815 18.8362C28.4616 18.1782 29.0084 17.6319 29.6667 17.2523V14.5007H12.3334ZM18.2917 16.6673C19.1909 16.6673 19.9167 17.3932 19.9167 18.2923C19.9167 19.1915 19.1909 19.9173 18.2917 19.9173C17.3925 19.9173 16.6667 19.1915 16.6667 18.2923C16.6667 17.3932 17.3925 16.6673 18.2917 16.6673ZM23.7084 22.084C24.6075 22.084 25.3334 22.8098 25.3334 23.709C25.3334 24.6082 24.6075 25.334 23.7084 25.334C22.8092 25.334 22.0834 24.6082 22.0834 23.709C22.0834 22.8098 22.8092 22.084 23.7084 22.084Z" fill="#C93B88"/>
</svg>
