<svg width="88" height="91" viewBox="0 0 88 91" fill="none" xmlns="http://www.w3.org/2000/svg">
<g clip-path="url(#clip0_1443_6162)">
<path d="M44 91.7187C68.3005 91.7187 88 72.0193 88 47.7188C88 23.4182 68.3005 3.71875 44 3.71875C19.6995 3.71875 0 23.4182 0 47.7188C0 72.0193 19.6995 91.7187 44 91.7187Z" fill="#3A7792" fill-opacity="0.45"/>
<path d="M68.7394 30.3594H27.5449C24.0463 30.3594 21.2102 33.2114 21.2102 36.7296V79.5858C21.2102 83.104 24.0463 85.956 27.5449 85.956H68.7394C72.2379 85.956 75.0741 83.104 75.0741 79.5858V36.7296C75.0741 33.2114 72.2379 30.3594 68.7394 30.3594Z" fill="#FFFEFD" stroke="#9B9B9B" stroke-width="3" stroke-miterlimit="10"/>
<path d="M38.8426 2.58283C38.8426 2.54481 38.8426 2.50544 38.8507 2.46607L26.3933 1.96509C26.3115 3.26089 25.7291 4.47316 24.7705 5.34301C23.8119 6.21286 22.5531 6.67135 21.2629 6.62054C21.1468 6.61511 21.032 6.60561 20.9186 6.59203L19.5186 41.7204C19.632 41.7204 19.7481 41.7204 19.8642 41.7204C21.1733 41.773 22.4081 42.3459 23.2975 43.3131C24.187 44.2804 24.6585 45.5631 24.6085 46.8796C24.6015 47.0573 24.5848 47.2345 24.5585 47.4104L37.047 47.9127C37.047 47.8136 37.047 47.7145 37.047 47.6154C37.0997 46.2971 37.6709 45.0537 38.635 44.1588C39.5991 43.2639 40.8772 42.7907 42.1882 42.8432C42.2544 42.8432 42.3232 42.8513 42.3867 42.8568L43.7867 7.75555C43.7206 7.75555 43.6517 7.75555 43.5883 7.75555C42.9389 7.72934 42.301 7.57474 41.711 7.30058C41.1211 7.02642 40.5906 6.63808 40.1499 6.15773C39.7092 5.67738 39.367 5.11443 39.1427 4.50105C38.9184 3.88766 38.8164 3.23584 38.8426 2.58283Z" fill="#FFFEFD" stroke="#9B9B9B" stroke-width="2" stroke-miterlimit="10"/>
<path d="M19.8642 41.7205C19.7481 41.7205 19.6319 41.7205 19.5185 41.7205L19.3835 45.1269C19.3631 45.6779 19.5606 46.2146 19.9328 46.6194C20.3051 47.0243 20.8217 47.2643 21.3695 47.2869L24.5585 47.4159C24.5848 47.24 24.6015 47.0628 24.6084 46.885C24.66 45.5676 24.1891 44.2836 23.2995 43.3151C22.4099 42.3466 21.1742 41.7731 19.8642 41.7205Z" fill="#FFFEFD" stroke="#9B9B9B" stroke-width="2" stroke-miterlimit="10"/>
<path d="M37.0497 47.6209C37.0497 47.72 37.0497 47.8191 37.0497 47.9182L40.1131 48.0417C40.6609 48.0619 41.1943 47.8629 41.5964 47.4883C41.9986 47.1137 42.2366 46.594 42.2584 46.0432L42.3853 42.8622C42.3191 42.8622 42.2503 42.8514 42.1868 42.8486C40.8765 42.7972 39.5994 43.2709 38.6362 44.1657C37.673 45.0605 37.1024 46.3032 37.0497 47.6209Z" fill="#FFFEFD" stroke="#9B9B9B" stroke-width="2" stroke-miterlimit="10"/>
<path d="M26.3933 1.96503L23.1787 1.83605C22.9063 1.82497 22.6344 1.86811 22.3786 1.963C22.1228 2.05789 21.8882 2.20266 21.6883 2.38899C21.4883 2.57532 21.3269 2.79954 21.2134 3.04878C21.0998 3.29802 21.0363 3.56736 21.0266 3.84133L20.9159 6.59876C21.0293 6.61234 21.1441 6.62184 21.2602 6.62727C22.5519 6.67874 23.8124 6.21965 24.7717 5.34829C25.7311 4.47693 26.3131 3.26253 26.3933 1.96503Z" fill="#FFFEFD" stroke="#9B9B9B" stroke-width="2" stroke-miterlimit="10"/>
<path d="M41.9194 2.58961L38.8507 2.46606C38.8507 2.50544 38.8439 2.54481 38.8426 2.58282C38.7903 3.90119 39.2609 5.18645 40.1508 6.15597C41.0408 7.12549 42.2772 7.69988 43.5882 7.75283C43.6543 7.75283 43.7232 7.75283 43.7866 7.75283L43.9068 4.75238C43.928 4.20069 43.7306 3.66309 43.358 3.25759C42.9854 2.8521 42.468 2.61186 41.9194 2.58961Z" fill="#FFFEFD" stroke="#9B9B9B" stroke-width="2" stroke-miterlimit="10"/>
<path d="M31.5425 32.3728C35.8531 32.3728 39.3475 28.8588 39.3475 24.5241C39.3475 20.1894 35.8531 16.6754 31.5425 16.6754C27.232 16.6754 23.7375 20.1894 23.7375 24.5241C23.7375 28.8588 27.232 32.3728 31.5425 32.3728Z" fill="#FFFEFD" stroke="#9B9B9B" stroke-width="2" stroke-miterlimit="10"/>
<path d="M28.1714 28.919L28.2686 26.448C28.301 25.6497 28.5305 25.1066 28.9004 24.7699C29.0656 24.6192 29.2601 24.5046 29.4715 24.4333C29.683 24.362 29.9069 24.3356 30.129 24.3558H30.1439C30.4887 24.3582 30.8241 24.4694 31.1027 24.6738C31.3813 24.8782 31.589 25.1654 31.6965 25.4949L33.557 24.3219L33.4908 25.9932L31.8707 26.9816V26.9965L31.8464 27.617L33.4193 27.6794L33.3612 29.1281L28.1714 28.919ZM30.7595 26.6109C30.7798 26.1181 30.553 25.8248 30.1749 25.8099H30.1601C29.7551 25.7936 29.5323 26.0814 29.5134 26.5688L29.4756 27.5192L30.7217 27.5694L30.7595 26.6109Z" fill="#9B9B9B"/>
<path d="M29.5674 23.6824L29.6241 22.2636L30.1641 22.2853C29.8415 21.9961 29.566 21.6404 29.589 21.0363C29.6281 20.0737 30.4544 19.2713 31.7384 19.3283H31.7532C33.0601 19.3813 33.8202 20.2407 33.7784 21.1965C33.7746 21.4331 33.7158 21.6656 33.6068 21.8754C33.4978 22.0852 33.3416 22.2665 33.1506 22.4048L34.8288 22.4727L34.772 23.8901L29.5674 23.6824ZM31.7006 20.7253H31.6857C31.1578 20.7036 30.7649 21.0539 30.7474 21.5169C30.7298 21.9798 31.093 22.3532 31.6195 22.3736H31.6344C32.1744 22.3953 32.5619 22.045 32.5795 21.5888C32.597 21.1326 32.2352 20.7471 31.6938 20.7253H31.7006Z" fill="#9B9B9B"/>
<path d="M59.1009 5.61722C59.1104 5.57921 59.1212 5.54119 59.132 5.50453L47.0485 2.42126C46.7017 3.67232 45.882 4.73732 44.7646 5.38858C43.6472 6.03984 42.3208 6.2257 41.0689 5.90641C40.9555 5.87789 40.8461 5.84395 40.7368 5.80865L32.1406 39.8862C32.254 39.9066 32.3661 39.9296 32.4795 39.9595C33.1091 40.1201 33.7012 40.4038 34.2217 40.7945C34.7423 41.1851 35.1813 41.6751 35.5135 42.2364C35.8457 42.7977 36.0648 43.4193 36.1581 44.0657C36.2514 44.7122 36.2171 45.3707 36.0573 46.0039C36.0132 46.1761 35.9605 46.3461 35.8993 46.513L48.0138 49.5949C48.0327 49.4985 48.053 49.4007 48.0773 49.3044C48.4004 48.0257 49.2152 46.9284 50.3426 46.2538C51.47 45.5791 52.8177 45.3822 54.0893 45.7065C54.1541 45.7228 54.2176 45.7418 54.281 45.7608L62.8731 11.7064C62.8083 11.6928 62.7435 11.6779 62.6787 11.6616C62.0491 11.501 61.4571 11.2173 60.9365 10.8266C60.4159 10.436 59.977 9.94597 59.6447 9.38468C59.3125 8.82339 59.0934 8.20178 59.0001 7.55535C58.9068 6.90892 58.9411 6.25034 59.1009 5.61722Z" fill="#FFFEFD" stroke="#9B9B9B" stroke-width="2" stroke-miterlimit="10"/>
<path d="M32.4796 39.9554C32.3662 39.9255 32.2541 39.9024 32.1407 39.8821L31.3077 43.1867C31.2409 43.4518 31.2267 43.7275 31.2659 43.9982C31.3052 44.2688 31.3971 44.529 31.5364 44.7639C31.6757 44.9989 31.8596 45.2038 32.0778 45.3672C32.2959 45.5306 32.5439 45.6491 32.8077 45.716L35.9007 46.5062C35.9619 46.3392 36.0146 46.1693 36.0587 45.997C36.3807 44.7186 36.1845 43.3639 35.5133 42.2309C34.8421 41.0979 33.7508 40.2794 32.4796 39.9554Z" fill="#FFFEFD" stroke="#9B9B9B" stroke-width="2" stroke-miterlimit="10"/>
<path d="M48.0774 49.3057C48.0531 49.4021 48.0328 49.4999 48.0139 49.5963L50.9842 50.3538C51.2478 50.4213 51.5221 50.4357 51.7913 50.3965C52.0605 50.3572 52.3194 50.2649 52.5531 50.125C52.7869 49.985 52.9909 49.8001 53.1535 49.5808C53.3161 49.3614 53.4341 49.112 53.5008 48.8468L54.2798 45.7622C54.2163 45.7432 54.1529 45.7242 54.088 45.7079C52.8166 45.384 51.4692 45.5811 50.3421 46.2557C49.2151 46.9303 48.4005 48.0274 48.0774 49.3057Z" fill="#FFFEFD" stroke="#9B9B9B" stroke-width="2" stroke-miterlimit="10"/>
<path d="M47.0486 2.42133L43.9298 1.62573C43.6661 1.55831 43.3917 1.54381 43.1224 1.58306C42.8531 1.62232 42.5941 1.71456 42.3603 1.85452C42.1264 1.99448 41.9223 2.1794 41.7596 2.39873C41.5969 2.61805 41.4787 2.86748 41.4119 3.13275L40.7368 5.80872C40.8462 5.84402 40.9555 5.87796 41.0689 5.90647C42.3208 6.22576 43.6472 6.03991 44.7647 5.38865C45.8821 4.73738 46.7018 3.67239 47.0486 2.42133Z" fill="#FFFEFD" stroke="#9B9B9B" stroke-width="2" stroke-miterlimit="10"/>
<path d="M62.1049 6.26345L59.1347 5.50452C59.1239 5.54117 59.1131 5.57919 59.1036 5.6172C58.9438 6.25032 58.9095 6.9089 59.0028 7.55533C59.0961 8.20176 59.3152 8.82337 59.6474 9.38466C59.9796 9.94596 60.4186 10.4359 60.9392 10.8266C61.4597 11.2173 62.0518 11.501 62.6814 11.6616C62.7462 11.6778 62.811 11.6928 62.8758 11.7064L63.6103 8.79551C63.6774 8.52984 63.6917 8.25345 63.6523 7.98221C63.6129 7.71097 63.5206 7.45023 63.3807 7.21496C63.2409 6.97969 63.0561 6.77452 62.8372 6.61123C62.6183 6.44794 62.3694 6.32976 62.1049 6.26345Z" fill="#FFFEFD" stroke="#9B9B9B" stroke-width="2" stroke-miterlimit="10"/>
<path d="M47.4428 33.4128C51.7534 33.4128 55.2478 29.8989 55.2478 25.5641C55.2478 21.2294 51.7534 17.7155 47.4428 17.7155C43.1322 17.7155 39.6378 21.2294 39.6378 25.5641C39.6378 29.8989 43.1322 33.4128 47.4428 33.4128Z" fill="#FFFEFD" stroke="#9B9B9B" stroke-width="2" stroke-miterlimit="10"/>
<path d="M43.2399 29.1606L43.8447 26.7643C44.0405 25.9904 44.3767 25.5057 44.8087 25.2532C45.0014 25.1406 45.2151 25.0693 45.4365 25.0436C45.6579 25.0179 45.8822 25.0384 46.0953 25.1038H46.1088C46.8798 25.3007 47.2861 25.8438 47.3942 26.5416L49.4558 25.7799L49.0507 27.4024L47.2672 28.0337V28.0473L47.116 28.6487L48.6416 29.0384L48.2798 30.4517L43.2399 29.1606ZM46.2466 27.4472C46.3681 26.9693 46.2061 26.6326 45.8415 26.5416H45.8267C45.4311 26.4411 45.1516 26.6774 45.0369 27.1498L44.8046 28.069L46.0197 28.3772L46.2466 27.4472Z" fill="#9B9B9B"/>
<path d="M45.6782 24.3272L46.0252 22.9519L46.5436 23.0877C46.2871 22.7374 46.09 22.3328 46.2385 21.7463C46.4734 20.8122 47.4469 20.2053 48.693 20.5244H48.7065C49.9743 20.8475 50.5413 21.8468 50.3077 22.7741C50.2554 23.0048 50.1502 23.2199 50.0004 23.4024C49.8506 23.5849 49.6604 23.7296 49.445 23.8249L51.0652 24.2403L50.7182 25.6157L45.6782 24.3272ZM48.3784 21.8834H48.3636C47.8519 21.7477 47.3956 22.0192 47.2835 22.4632C47.1714 22.9071 47.4496 23.3538 47.9586 23.4841H47.9734C48.4918 23.6199 48.9482 23.3565 49.0535 22.9139C49.1588 22.4713 48.8982 22.0124 48.373 21.878L48.3784 21.8834Z" fill="#9B9B9B"/>
<path d="M80.6365 18.1798C80.6554 18.1459 80.677 18.1133 80.6972 18.0807L69.9355 11.7499C69.2576 12.8553 68.1763 13.6501 66.9231 13.9643C65.6699 14.2784 64.3442 14.0868 63.2295 13.4307C63.1296 13.3723 63.0324 13.3098 62.9379 13.2447L45.2866 43.5845C45.3892 43.6348 45.4918 43.6891 45.5917 43.7475C46.1525 44.0774 46.6431 44.5151 47.0356 45.0357C47.428 45.5563 47.7147 46.1495 47.8792 46.7815C48.0437 47.4135 48.0828 48.0719 47.9942 48.7191C47.9057 49.3663 47.6912 49.9896 47.3631 50.5535C47.2742 50.7068 47.1769 50.8551 47.0715 50.9974L57.8602 57.3445C57.9047 57.2577 57.9506 57.1694 57.9952 57.0839C58.3229 56.519 58.7582 56.0246 59.2762 55.629C59.7941 55.2334 60.3845 54.9444 61.0136 54.7784C61.6427 54.6125 62.2981 54.5729 62.9425 54.6619C63.5868 54.7509 64.2074 54.9668 64.7687 55.2972C64.8267 55.3311 64.8821 55.3678 64.9388 55.4031L82.582 25.0822C82.5239 25.051 82.4645 25.0198 82.4078 24.9858C81.8471 24.6559 81.3565 24.2181 80.964 23.6976C80.5715 23.177 80.2849 22.5837 80.1204 21.9517C79.9559 21.3197 79.9168 20.6613 80.0054 20.0142C80.0939 19.367 80.3084 18.7437 80.6365 18.1798Z" fill="#FFFEFD" stroke="#9B9B9B" stroke-width="2" stroke-miterlimit="10"/>
<path d="M45.5917 43.7474C45.4918 43.689 45.3892 43.6347 45.2866 43.5845L43.5747 46.5265C43.4371 46.7627 43.3472 47.0239 43.31 47.2951C43.2729 47.5662 43.2893 47.8421 43.3582 48.1069C43.4272 48.3717 43.5474 48.6202 43.7119 48.8383C43.8765 49.0563 44.0822 49.2396 44.3172 49.3777L47.0715 50.9987C47.1769 50.8563 47.2742 50.7081 47.3631 50.5548C47.6914 49.9909 47.906 49.3674 47.9947 48.7201C48.0834 48.0728 48.0443 47.4142 47.8798 46.782C47.7154 46.1499 47.4286 45.5565 47.036 45.0358C46.6434 44.5151 46.1526 44.0773 45.5917 43.7474Z" fill="#FFFEFD" stroke="#9B9B9B" stroke-width="2" stroke-miterlimit="10"/>
<path d="M58.0006 57.0838C57.9507 57.1694 57.9048 57.2576 57.8656 57.3445L60.5105 58.9018C60.7453 59.0401 61.005 59.1305 61.2747 59.1679C61.5443 59.2052 61.8187 59.1888 62.082 59.1194C62.3453 59.0501 62.5925 58.9292 62.8093 58.7637C63.0261 58.5982 63.2084 58.3914 63.3457 58.155L64.9402 55.4071C64.8835 55.3718 64.8281 55.3352 64.77 55.3012C63.6373 54.6349 62.2877 54.4484 61.0182 54.7827C59.7487 55.117 58.6632 55.9447 58.0006 57.0838Z" fill="#FFFEFD" stroke="#9B9B9B" stroke-width="2" stroke-miterlimit="10"/>
<path d="M69.9356 11.7498L67.1584 10.1206C66.9235 9.98223 66.6639 9.89179 66.3942 9.85444C66.1245 9.81709 65.8502 9.83356 65.5869 9.90291C65.3235 9.97227 65.0764 10.0931 64.8596 10.2586C64.6427 10.4241 64.4605 10.6309 64.3232 10.8673L62.9393 13.2446C63.0338 13.3098 63.131 13.3722 63.231 13.4306C64.3454 14.0863 65.6708 14.2776 66.9237 13.9635C68.1766 13.6494 69.2576 12.8549 69.9356 11.7498Z" fill="#FFFEFD" stroke="#9B9B9B" stroke-width="2" stroke-miterlimit="10"/>
<path d="M83.3475 19.6393L80.6973 18.0807C80.677 18.1133 80.6554 18.1459 80.6365 18.1798C80.3084 18.7436 80.094 19.367 80.0054 20.0141C79.9168 20.6613 79.9559 21.3197 80.1204 21.9517C80.2849 22.5837 80.5716 23.177 80.964 23.6976C81.3565 24.2181 81.8471 24.6559 82.4079 24.9858C82.4646 25.0197 82.524 25.051 82.582 25.0822L84.0901 22.4904C84.2275 22.2542 84.3173 21.993 84.3543 21.7219C84.3914 21.4508 84.375 21.1749 84.306 20.9102C84.2371 20.6454 84.1169 20.3969 83.9525 20.1789C83.788 19.9608 83.5825 19.7775 83.3475 19.6393Z" fill="#FFFEFD" stroke="#9B9B9B" stroke-width="2" stroke-miterlimit="10"/>
<path d="M63.9357 41.9431C68.2463 41.9431 71.7407 38.4291 71.7407 34.0944C71.7407 29.7597 68.2463 26.2457 63.9357 26.2457C59.6251 26.2457 56.1307 29.7597 56.1307 34.0944C56.1307 38.4291 59.6251 41.9431 63.9357 41.9431Z" fill="#FFFEFD" stroke="#9B9B9B" stroke-width="2" stroke-miterlimit="10"/>
<path d="M58.9065 36.3793L60.1472 34.245C60.5523 33.5553 61.0059 33.1847 61.4906 33.0625C61.7066 33.0072 61.9318 32.9977 62.1516 33.0346C62.3715 33.0716 62.5814 33.1541 62.7678 33.277L62.78 33.2852C63.4658 33.6925 63.7075 34.3238 63.6184 35.0243L65.8096 34.8682L64.9685 36.3114L63.0783 36.4214L63.0716 36.4336L62.7624 36.9685L64.122 37.7682L63.3942 39.02L58.9065 36.3793ZM62.2683 35.5647C62.5153 35.1398 62.4532 34.7745 62.1333 34.5817L62.1197 34.5736C61.7674 34.3672 61.4379 34.5193 61.1936 34.9375L60.7183 35.7521L61.7984 36.3861L62.2683 35.5647Z" fill="#9B9B9B"/>
<path d="M62.5815 32.4149L63.2944 31.193L63.7561 31.4645C63.6063 31.0572 63.528 30.6133 63.8317 30.0906C64.3164 29.2597 65.4181 28.9474 66.532 29.6004L66.5441 29.6072C67.6728 30.2711 67.9415 31.3912 67.4622 32.2153C67.3484 32.4227 67.1879 32.6003 66.9935 32.734C66.7992 32.8677 66.5763 32.9537 66.3429 32.9851L67.7916 33.8377L67.0788 35.0596L62.5815 32.4149ZM65.8448 30.8128L65.8326 30.8047C65.3776 30.5332 64.8659 30.6608 64.6337 31.0599C64.4015 31.4591 64.5486 31.9614 65.0036 32.2302L65.0158 32.237C65.4775 32.5086 65.9892 32.385 66.2174 31.9927C66.4455 31.6003 66.3132 31.0884 65.8448 30.8128Z" fill="#9B9B9B"/>
<path d="M64.6971 30.3594H18.194C14.506 30.3594 11.5164 33.3658 11.5164 37.0744V79.2409C11.5164 82.9496 14.506 85.956 18.194 85.956H64.6971C68.385 85.956 71.3747 82.9496 71.3747 79.2409V37.0744C71.3747 33.3658 68.385 30.3594 64.6971 30.3594Z" fill="#FFFEFD" stroke="#9B9B9B" stroke-width="2" stroke-miterlimit="10"/>
<path d="M74.4058 52.2478H66.0581C63.7048 52.2478 61.7971 54.1662 61.7971 56.5326V64.9271C61.7971 67.2935 63.7048 69.2119 66.0581 69.2119H74.4058C76.759 69.2119 78.6667 67.2935 78.6667 64.9271V56.5326C78.6667 54.1662 76.759 52.2478 74.4058 52.2478Z" fill="#FFFEFD" stroke="#9B9B9B" stroke-width="2" stroke-miterlimit="10"/>
</g>
<defs>
<clipPath id="clip0_1443_6162">
<rect width="88" height="90" fill="white" transform="translate(0 0.71875)"/>
</clipPath>
</defs>
</svg>
