<svg width="28" height="29" viewBox="0 0 28 29" fill="none" xmlns="http://www.w3.org/2000/svg">
<path d="M12.75 7.33984C12.75 8.33441 12.3549 9.28823 11.6517 9.99149C10.9484 10.6948 9.99456 11.0898 9 11.0898C8.00544 11.0898 7.05161 10.6948 6.34835 9.99149C5.64509 9.28823 5.25 8.33441 5.25 7.33984C5.25 6.34528 5.64509 5.39145 6.34835 4.68819C7.05161 3.98493 8.00544 3.58984 9 3.58984C9.99456 3.58984 10.9484 3.98493 11.6517 4.68819C12.3549 5.39145 12.75 6.34528 12.75 7.33984ZM18 9.58984C17.1984 9.58924 16.4011 9.70547 15.633 9.93484C15.2876 9.49168 15.0736 8.96043 15.0154 8.4016C14.9572 7.84277 15.0571 7.27881 15.3037 6.77397C15.5503 6.26912 15.9337 5.84368 16.4103 5.54608C16.8868 5.24848 17.4374 5.0907 17.9993 5.0907C18.5611 5.0907 19.1117 5.24848 19.5882 5.54608C20.0648 5.84368 20.4482 6.26912 20.6948 6.77397C20.9414 7.27881 21.0413 7.84277 20.9831 8.4016C20.9249 8.96043 20.7109 9.49168 20.3655 9.93484C19.5979 9.70561 18.8011 9.58939 18 9.58984ZM5.25 12.5898H11.6355C10.414 14.0664 9.74708 15.9235 9.75 17.8398C9.75 18.3408 9.795 18.8298 9.8805 19.3053C9.58758 19.3287 9.29384 19.3402 9 19.3398C3 19.3398 3 14.9523 3 14.9523V14.8398C3 14.2431 3.23705 13.6708 3.65901 13.2489C4.08097 12.8269 4.65326 12.5898 5.25 12.5898ZM11.25 17.8398C11.25 19.6301 11.9612 21.3469 13.227 22.6128C14.4929 23.8787 16.2098 24.5898 18 24.5898C19.7902 24.5898 21.5071 23.8787 22.773 22.6128C24.0388 21.3469 24.75 19.6301 24.75 17.8398C24.75 16.0496 24.0388 14.3327 22.773 13.0669C21.5071 11.801 19.7902 11.0898 18 11.0898C16.2098 11.0898 14.4929 11.801 13.227 13.0669C11.9612 14.3327 11.25 16.0496 11.25 17.8398ZM21 13.3398C21.1989 13.3398 21.3897 13.4189 21.5303 13.5595C21.671 13.7002 21.75 13.8909 21.75 14.0898V16.3398C21.75 16.5388 21.671 16.7295 21.5303 16.8702C21.3897 17.0108 21.1989 17.0898 21 17.0898H18.75C18.5511 17.0898 18.3603 17.0108 18.2197 16.8702C18.079 16.7295 18 16.5388 18 16.3398C18 16.1409 18.079 15.9502 18.2197 15.8095C18.3603 15.6689 18.5511 15.5898 18.75 15.5898H19.452C19.0236 15.3513 18.5428 15.2225 18.0525 15.2148C17.6495 15.2077 17.2492 15.2819 16.8755 15.4329C16.5018 15.584 16.1624 15.8087 15.8775 16.0938C15.735 16.2248 15.5474 16.2956 15.3539 16.2915C15.1604 16.2873 14.976 16.2085 14.8393 16.0716C14.7025 15.9347 14.624 15.7501 14.6201 15.5566C14.6163 15.3632 14.6873 15.1757 14.8185 15.0333C15.5189 14.3329 16.4308 13.8832 17.4128 13.7538C18.3948 13.6244 19.3921 13.8227 20.25 14.3178V14.0898C20.25 13.8909 20.329 13.7002 20.4697 13.5595C20.6103 13.4189 20.8011 13.3398 21 13.3398ZM19.686 21.6378C19.0521 21.894 18.3681 22.0022 17.6861 21.9544C17.0041 21.9066 16.342 21.7039 15.75 21.3618V21.5898C15.75 21.7888 15.671 21.9795 15.5303 22.1202C15.3897 22.2608 15.1989 22.3398 15 22.3398C14.8011 22.3398 14.6103 22.2608 14.4697 22.1202C14.329 21.9795 14.25 21.7888 14.25 21.5898V19.3398C14.25 19.1409 14.329 18.9502 14.4697 18.8095C14.6103 18.6689 14.8011 18.5898 15 18.5898H17.25C17.4489 18.5898 17.6397 18.6689 17.7803 18.8095C17.921 18.9502 18 19.1409 18 19.3398C18 19.5388 17.921 19.7295 17.7803 19.8702C17.6397 20.0108 17.4489 20.0898 17.25 20.0898H16.548C17.1177 20.4054 17.7747 20.5269 18.4196 20.436C19.0645 20.3451 19.6623 20.0466 20.1225 19.5858C20.265 19.4549 20.4526 19.3841 20.6461 19.3882C20.8396 19.3924 21.024 19.4711 21.1607 19.6081C21.2975 19.745 21.376 19.9295 21.3799 20.123C21.3837 20.3165 21.3127 20.504 21.1815 20.6463C20.754 21.0738 20.2455 21.4128 19.686 21.6378Z" fill="#B6AC94"/>
</svg>
