<svg width="43" height="44" viewBox="0 0 43 44" fill="none" xmlns="http://www.w3.org/2000/svg">
<path d="M21.481 43.5138C33.3446 43.5138 42.962 33.8964 42.962 22.0328C42.962 10.1691 33.3446 0.551758 21.481 0.551758C9.61737 0.551758 0 10.1691 0 22.0328C0 33.8964 9.61737 43.5138 21.481 43.5138Z" fill="#E0ECF5"/>
<path d="M19.67 22.6098C19.45 22.5998 19.23 22.5898 19 22.5898C16.58 22.5898 14.32 23.2598 12.39 24.4098C11.51 24.9298 11 25.9098 11 26.9398V28.5898C11 29.1398 11.45 29.5898 12 29.5898H20.26C19.5537 28.5823 19.127 27.4055 19.0234 26.1794C18.9197 24.9533 19.1428 23.7217 19.67 22.6098Z" fill="#2074B0"/>
<path d="M19 21.5898C21.2091 21.5898 23 19.799 23 17.5898C23 15.3807 21.2091 13.5898 19 13.5898C16.7909 13.5898 15 15.3807 15 17.5898C15 19.799 16.7909 21.5898 19 21.5898Z" fill="#2074B0"/>
<path d="M29.7509 25.5896C29.7509 25.3696 29.7209 25.1696 29.6909 24.9596L30.5309 24.2296C30.7109 24.0696 30.7509 23.8096 30.6309 23.5996L30.0409 22.5796C29.9843 22.4792 29.8941 22.402 29.7861 22.3617C29.6781 22.3215 29.5593 22.3207 29.4509 22.3596L28.3909 22.7196C28.0709 22.4496 27.7109 22.2396 27.3109 22.0896L27.0909 20.9996C27.0673 20.8869 27.0058 20.7857 26.9166 20.7129C26.8274 20.6402 26.716 20.6001 26.6009 20.5996H25.4209C25.1809 20.5996 24.9809 20.7696 24.9309 20.9996L24.7109 22.0896C24.3109 22.2396 23.9509 22.4496 23.6309 22.7196L22.5709 22.3596C22.4623 22.3223 22.3441 22.3239 22.2365 22.364C22.1289 22.4041 22.0385 22.4803 21.9809 22.5796L21.3909 23.5996C21.2709 23.8096 21.3109 24.0696 21.4909 24.2296L22.3309 24.9596C22.3009 25.1696 22.2709 25.3696 22.2709 25.5896C22.2709 25.8096 22.3009 26.0096 22.3309 26.2196L21.4909 26.9496C21.3109 27.1096 21.2709 27.3696 21.3909 27.5796L21.9809 28.5996C22.1009 28.8096 22.3509 28.8996 22.5709 28.8196L23.6309 28.4596C23.9509 28.7296 24.3109 28.9396 24.7109 29.0896L24.9309 30.1796C24.9809 30.4096 25.1809 30.5796 25.4209 30.5796H26.6009C26.8409 30.5796 27.0409 30.4096 27.0909 30.1796L27.3109 29.0896C27.7109 28.9396 28.0709 28.7296 28.3909 28.4596L29.4509 28.8196C29.6809 28.8996 29.9209 28.7996 30.0409 28.5996L30.6309 27.5796C30.7509 27.3696 30.7109 27.1096 30.5309 26.9496L29.6909 26.2196C29.7209 26.0096 29.7509 25.8096 29.7509 25.5896ZM26.0009 27.5896C24.9009 27.5896 24.0009 26.6896 24.0009 25.5896C24.0009 24.4896 24.9009 23.5896 26.0009 23.5896C27.1009 23.5896 28.0009 24.4896 28.0009 25.5896C28.0009 26.6896 27.1009 27.5896 26.0009 27.5896Z" fill="#2074B0"/>
</svg>
