<svg width="18" height="18" viewBox="0 0 18 18" fill="none" xmlns="http://www.w3.org/2000/svg">
<path d="M10.0575 9.00014L13.2825 5.78264C13.4237 5.64141 13.5031 5.44987 13.5031 5.25014C13.5031 5.05041 13.4237 4.85887 13.2825 4.71764C13.1413 4.57641 12.9497 4.49707 12.75 4.49707C12.5503 4.49707 12.3587 4.57641 12.2175 4.71764L9.00002 7.94264L5.78252 4.71764C5.64129 4.57641 5.44974 4.49707 5.25002 4.49707C5.05029 4.49707 4.85874 4.57641 4.71752 4.71764C4.57629 4.85887 4.49695 5.05041 4.49695 5.25014C4.49695 5.44987 4.57629 5.64141 4.71752 5.78264L7.94252 9.00014L4.71752 12.2176C4.64722 12.2874 4.59142 12.3703 4.55335 12.4617C4.51527 12.5531 4.49567 12.6511 4.49567 12.7501C4.49567 12.8491 4.51527 12.9472 4.55335 13.0386C4.59142 13.13 4.64722 13.2129 4.71752 13.2826C4.78724 13.3529 4.87019 13.4087 4.96158 13.4468C5.05298 13.4849 5.15101 13.5045 5.25002 13.5045C5.34902 13.5045 5.44705 13.4849 5.53845 13.4468C5.62984 13.4087 5.71279 13.3529 5.78252 13.2826L9.00002 10.0576L12.2175 13.2826C12.2872 13.3529 12.3702 13.4087 12.4616 13.4468C12.553 13.4849 12.651 13.5045 12.75 13.5045C12.849 13.5045 12.9471 13.4849 13.0384 13.4468C13.1298 13.4087 13.2128 13.3529 13.2825 13.2826C13.3528 13.2129 13.4086 13.13 13.4467 13.0386C13.4848 12.9472 13.5044 12.8491 13.5044 12.7501C13.5044 12.6511 13.4848 12.5531 13.4467 12.4617C13.4086 12.3703 13.3528 12.2874 13.2825 12.2176L10.0575 9.00014Z" fill="#B6BBC0"/>
</svg>
