<svg width="43" height="44" viewBox="0 0 43 44" fill="none" xmlns="http://www.w3.org/2000/svg">
<path d="M21.481 43.5518C33.3446 43.5518 42.962 33.9345 42.962 22.0708C42.962 10.2072 33.3446 0.589844 21.481 0.589844C9.61737 0.589844 0 10.2072 0 22.0708C0 33.9345 9.61737 43.5518 21.481 43.5518Z" fill="#E5D9F0"/>
<path d="M24.5 11.5898C27 11.5898 29 13.5898 29 16.0898C29 16.9698 28.75 17.7898 28.31 18.4798L31.41 21.5898L30 22.9798L26.89 19.8998C26.2 20.3398 25.38 20.5898 24.5 20.5898C22 20.5898 20 18.5898 20 16.0898C20 13.5898 22 11.5898 24.5 11.5898ZM24.5 13.5898C23.837 13.5898 23.2011 13.8532 22.7322 14.3221C22.2634 14.7909 22 15.4268 22 16.0898C22 16.7529 22.2634 17.3888 22.7322 17.8576C23.2011 18.3265 23.837 18.5898 24.5 18.5898C25.163 18.5898 25.7989 18.3265 26.2678 17.8576C26.7366 17.3888 27 16.7529 27 16.0898C27 15.4268 26.7366 14.7909 26.2678 14.3221C25.7989 13.8532 25.163 13.5898 24.5 13.5898ZM13 13.5898H18.5C18.19 14.3798 18 15.2298 18 16.0898C18 17.8138 18.6848 19.4671 19.9038 20.686C21.1228 21.905 22.7761 22.5898 24.5 22.5898C25.18 22.5898 25.83 22.4798 26.46 22.2798L29 24.8198V25.5898C29 26.1203 28.7893 26.629 28.4142 27.0041C28.0391 27.3791 27.5304 27.5898 27 27.5898H22.9L19.2 31.2998C19 31.4798 18.76 31.5898 18.5 31.5898H18C17.7348 31.5898 17.4804 31.4845 17.2929 31.297C17.1054 31.1094 17 30.8551 17 30.5898V27.5898H13C12.4696 27.5898 11.9609 27.3791 11.5858 27.0041C11.2107 26.629 11 26.1203 11 25.5898V15.5898C11 15.0594 11.2107 14.5507 11.5858 14.1756C11.9609 13.8006 12.4696 13.5898 13 13.5898Z" fill="#895D8A"/>
</svg>
