<svg width="43" height="44" viewBox="0 0 43 44" fill="none" xmlns="http://www.w3.org/2000/svg">
<path d="M21.481 43.4757C33.3446 43.4757 42.962 33.8583 42.962 21.9947C42.962 10.131 33.3446 0.513672 21.481 0.513672C9.61737 0.513672 0 10.131 0 21.9947C0 33.8583 9.61737 43.4757 21.481 43.4757Z" fill="#FAE7D6"/>
<path d="M10.5 15.9648C10.5 14.9298 11.34 14.0898 12.375 14.0898H26.625C27.66 14.0898 28.5 14.9298 28.5 15.9648V24.2148C28.5 25.2498 27.66 26.0898 26.625 26.0898H12.375C11.34 26.0898 10.5 25.2498 10.5 24.2148V15.9648ZM15 16.3398V15.5898H13.5V16.3398C13.5 16.5388 13.421 16.7295 13.2803 16.8702C13.1397 17.0108 12.9489 17.0898 12.75 17.0898H12V18.5898H12.75C13.3467 18.5898 13.919 18.3528 14.341 17.9308C14.7629 17.5089 15 16.9366 15 16.3398ZM22.5 20.0898C22.5 19.2942 22.1839 18.5311 21.6213 17.9685C21.0587 17.4059 20.2956 17.0898 19.5 17.0898C18.7044 17.0898 17.9413 17.4059 17.3787 17.9685C16.8161 18.5311 16.5 19.2942 16.5 20.0898C16.5 20.8855 16.8161 21.6486 17.3787 22.2112C17.9413 22.7738 18.7044 23.0898 19.5 23.0898C20.2956 23.0898 21.0587 22.7738 21.6213 22.2112C22.1839 21.6486 22.5 20.8855 22.5 20.0898ZM25.5 15.5898H24V16.3398C24 16.9366 24.2371 17.5089 24.659 17.9308C25.081 18.3528 25.6533 18.5898 26.25 18.5898H27V17.0898H26.25C26.0511 17.0898 25.8603 17.0108 25.7197 16.8702C25.579 16.7295 25.5 16.5388 25.5 16.3398V15.5898ZM15 23.8398C15 23.2431 14.7629 22.6708 14.341 22.2489C13.919 21.8269 13.3467 21.5898 12.75 21.5898H12V23.0898H12.75C12.9489 23.0898 13.1397 23.1689 13.2803 23.3095C13.421 23.4502 13.5 23.6409 13.5 23.8398V24.5898H15V23.8398ZM25.5 24.5898V23.8398C25.5 23.6409 25.579 23.4502 25.7197 23.3095C25.8603 23.1689 26.0511 23.0898 26.25 23.0898H27V21.5898H26.25C25.6533 21.5898 25.081 21.8269 24.659 22.2489C24.2371 22.6708 24 23.2431 24 23.8398V24.5898H25.5ZM15.75 29.0898C15.2748 29.09 14.8118 28.9398 14.4273 28.6606C14.0428 28.3814 13.7565 27.9877 13.6095 27.5358C13.818 27.5718 14.031 27.5898 14.25 27.5898H26.625C27.5201 27.5898 28.3785 27.2343 29.0115 26.6013C29.6444 25.9684 30 25.1099 30 24.2148V17.2173C30.4389 17.3725 30.8188 17.66 31.0875 18.0401C31.3561 18.4202 31.5002 18.8744 31.5 19.3398V24.2148C31.5 24.855 31.3739 25.489 31.1289 26.0804C30.8839 26.6719 30.5248 27.2093 30.0721 27.662C29.6195 28.1147 29.082 28.4738 28.4906 28.7188C27.8991 28.9637 27.2652 29.0898 26.625 29.0898H15.75Z" fill="#774C24"/>
</svg>
