<svg width="16" height="16" viewBox="0 0 16 16" fill="none" xmlns="http://www.w3.org/2000/svg">
<path d="M8 5.5C8 6.16304 7.73661 6.79893 7.26777 7.26777C6.79893 7.73661 6.16304 8 5.5 8C4.83696 8 4.20107 7.73661 3.73223 7.26777C3.26339 6.79893 3 6.16304 3 5.5C3 4.83696 3.26339 4.20107 3.73223 3.73223C4.20107 3.26339 4.83696 3 5.5 3C6.16304 3 6.79893 3.26339 7.26777 3.73223C7.73661 4.20107 8 4.83696 8 5.5ZM11.5 8C12.0304 8 12.5391 7.78929 12.9142 7.41421C13.2893 7.03914 13.5 6.53043 13.5 6C13.5 5.46957 13.2893 4.96086 12.9142 4.58579C12.5391 4.21071 12.0304 4 11.5 4C10.9696 4 10.4609 4.21071 10.0858 4.58579C9.71071 4.96086 9.5 5.46957 9.5 6C9.5 6.53043 9.71071 7.03914 10.0858 7.41421C10.4609 7.78929 10.9696 8 11.5 8ZM8 9.5C8 9.326 8.03 9.158 8.085 9.002C8.05669 9.00055 8.02835 8.99988 8 9H3C2.60218 9 2.22064 9.15804 1.93934 9.43934C1.65804 9.72064 1.5 10.1022 1.5 10.5V10.575C1.5 10.575 1.5 13.5 5.5 13.5C6.71 13.5 7.555 13.232 8.144 12.858C8.206 12.728 8.286 12.607 8.382 12.5C8.13552 12.2253 7.99944 11.8691 8 11.5C8 11.116 8.144 10.765 8.382 10.5C8.13552 10.2253 7.99944 9.86907 8 9.5ZM9.5 9C9.36739 9 9.24021 9.05268 9.14645 9.14645C9.05268 9.24021 9 9.36739 9 9.5C9 9.63261 9.05268 9.75979 9.14645 9.85355C9.24021 9.94732 9.36739 10 9.5 10H14.5C14.6326 10 14.7598 9.94732 14.8536 9.85355C14.9473 9.75979 15 9.63261 15 9.5C15 9.36739 14.9473 9.24021 14.8536 9.14645C14.7598 9.05268 14.6326 9 14.5 9H9.5ZM9.5 11C9.36739 11 9.24021 11.0527 9.14645 11.1464C9.05268 11.2402 9 11.3674 9 11.5C9 11.6326 9.05268 11.7598 9.14645 11.8536C9.24021 11.9473 9.36739 12 9.5 12H14.5C14.6326 12 14.7598 11.9473 14.8536 11.8536C14.9473 11.7598 15 11.6326 15 11.5C15 11.3674 14.9473 11.2402 14.8536 11.1464C14.7598 11.0527 14.6326 11 14.5 11H9.5ZM9.5 13C9.36739 13 9.24021 13.0527 9.14645 13.1464C9.05268 13.2402 9 13.3674 9 13.5C9 13.6326 9.05268 13.7598 9.14645 13.8536C9.24021 13.9473 9.36739 14 9.5 14H14.5C14.6326 14 14.7598 13.9473 14.8536 13.8536C14.9473 13.7598 15 13.6326 15 13.5C15 13.3674 14.9473 13.2402 14.8536 13.1464C14.7598 13.0527 14.6326 13 14.5 13H9.5Z" fill="#F39C12"/>
</svg>
