<svg width="28" height="29" viewBox="0 0 28 29" fill="none" xmlns="http://www.w3.org/2000/svg">
<path d="M21.2042 21.5897H17.5C17.1694 21.5897 16.8926 21.4777 16.6693 21.2537C16.4461 21.0297 16.3341 20.7528 16.3333 20.423C16.3333 20.0925 16.4453 19.8156 16.6693 19.5923C16.8933 19.3691 17.1702 19.2571 17.5 19.2563H21.2042L20.1833 18.2355C19.9694 18.0022 19.8574 17.7253 19.8473 17.4048C19.8372 17.0844 19.9492 16.8071 20.1833 16.573C20.4167 16.3397 20.6889 16.223 21 16.223C21.3111 16.223 21.5833 16.3397 21.8167 16.573L24.85 19.6063C25.0833 19.8397 25.2 20.1119 25.2 20.423C25.2 20.7341 25.0833 21.0063 24.85 21.2397L21.8167 24.273C21.5833 24.5063 21.3111 24.623 21 24.623C20.6889 24.623 20.4167 24.5063 20.1833 24.273C19.95 24.0397 19.838 23.7628 19.8473 23.4423C19.8567 23.1219 19.9687 22.8446 20.1833 22.6105L21.2042 21.5897ZM9.33333 12.2563H16.3333C16.6639 12.2563 16.9412 12.1443 17.1652 11.9203C17.3892 11.6963 17.5008 11.4195 17.5 11.0897C17.5 10.7591 17.388 10.4822 17.164 10.259C16.94 10.0358 16.6631 9.92379 16.3333 9.92301H9.33333C9.00278 9.92301 8.72589 10.035 8.50267 10.259C8.27944 10.483 8.16744 10.7599 8.16667 11.0897C8.16667 11.4202 8.27867 11.6975 8.50267 11.9215C8.72667 12.1455 9.00356 12.2571 9.33333 12.2563ZM9.33333 16.923H12.8333C13.1639 16.923 13.4412 16.811 13.6652 16.587C13.8892 16.363 14.0008 16.0861 14 15.7563C14 15.4258 13.888 15.1489 13.664 14.9257C13.44 14.7025 13.1631 14.5905 12.8333 14.5897H9.33333C9.00278 14.5897 8.72589 14.7017 8.50267 14.9257C8.27944 15.1497 8.16744 15.4266 8.16667 15.7563C8.16667 16.0869 8.27867 16.3642 8.50267 16.5882C8.72667 16.8122 9.00356 16.9238 9.33333 16.923ZM7 21.5897L4.49167 24.098C4.29722 24.2925 4.08333 24.3411 3.85 24.2438C3.61667 24.1466 3.5 23.9619 3.5 23.6897V7.58968C3.5 6.94801 3.72867 6.3989 4.186 5.94235C4.64333 5.48579 5.19244 5.25713 5.83333 5.25635H19.8333C20.475 5.25635 21.0245 5.48501 21.4818 5.94235C21.9392 6.39968 22.1674 6.94879 22.1667 7.58968V13.5105C21.9722 13.4716 21.7778 13.4475 21.5833 13.4382C21.3889 13.4288 21.1944 13.4238 21 13.423C19.0361 13.423 17.3787 14.1036 16.0277 15.4647C14.6767 16.8258 14.0008 18.4786 14 20.423C14 20.6175 14.0051 20.8119 14.0152 21.0063C14.0253 21.2008 14.0494 21.3952 14.0875 21.5897H7Z" fill="#B6AC94"/>
</svg>
