<svg width="20" height="17" viewBox="0 0 20 17" fill="none" xmlns="http://www.w3.org/2000/svg">
<rect x="0.5" y="1" width="19" height="15" rx="3.5" fill="#FFF6E7"/>
<rect x="0.5" y="1" width="19" height="15" rx="3.5" stroke="#FFD592"/>
<g clip-path="url(#clip0_9915_15072)">
<path fill-rule="evenodd" clip-rule="evenodd" d="M5.5 4.75C5.5 4.55109 5.57902 4.36032 5.71967 4.21967C5.86032 4.07902 6.05109 4 6.25 4H13.75C13.9489 4 14.1397 4.07902 14.2803 4.21967C14.421 4.36032 14.5 4.55109 14.5 4.75V5.793C14.4999 6.05819 14.3945 6.31251 14.207 6.5L11.5 9.207V12.919C11.5 13.0128 11.4761 13.105 11.4304 13.1869C11.3848 13.2688 11.3189 13.3376 11.2392 13.3869C11.1594 13.4362 11.0684 13.4643 10.9747 13.4685C10.881 13.4727 10.7879 13.4529 10.704 13.411L8.8455 12.482C8.74168 12.4301 8.65437 12.3503 8.59335 12.2516C8.53233 12.1528 8.5 12.0391 8.5 11.923V9.207L5.793 6.5C5.60545 6.31251 5.50006 6.05819 5.5 5.793V4.75ZM6.5 5V5.793L9.28 8.573C9.34972 8.64264 9.40504 8.72533 9.44279 8.81636C9.48054 8.90738 9.49998 9.00496 9.5 9.1035V11.691L10.5 12.191V9.1035C10.5 8.9045 10.579 8.7135 10.72 8.5735L13.5 5.7925V5H6.5Z" fill="#F39C12"/>
</g>
<defs>
<clipPath id="clip0_9915_15072">
<rect width="12" height="12" fill="white" transform="translate(4 2.5)"/>
</clipPath>
</defs>
</svg>
