<svg width="28" height="29" viewBox="0 0 28 29" fill="none" xmlns="http://www.w3.org/2000/svg">
<path d="M23.1924 5.396C23.7086 5.91226 23.9986 6.61241 23.9986 7.34246C23.9986 8.0725 23.7086 8.77265 23.1924 9.28892L22.6965 9.78491C22.5159 9.7453 22.3379 9.69488 22.1635 9.63391C21.422 9.37451 20.7491 8.95019 20.1955 8.39293C19.6382 7.83931 19.2139 7.16642 18.9545 6.42498C18.8939 6.25048 18.8438 6.07249 18.8045 5.89199L19.2995 5.396C19.8158 4.87982 20.5159 4.58984 21.246 4.58984C21.976 4.58984 22.6762 4.87982 23.1924 5.396ZM16.5786 15.9028C16.1746 16.3068 15.9726 16.5088 15.7496 16.6828C15.4868 16.8877 15.2025 17.0634 14.9016 17.2067C14.6466 17.3277 14.3756 17.4177 13.8336 17.5987L10.9757 18.5517C10.8448 18.5956 10.7043 18.602 10.5699 18.5704C10.4355 18.5387 10.3127 18.4702 10.2151 18.3725C10.1175 18.2749 10.0491 18.1519 10.0176 18.0175C9.98612 17.8831 9.99273 17.7426 10.0367 17.6117L10.9897 14.7548C11.1697 14.2128 11.2597 13.9418 11.3817 13.6868C11.5257 13.3858 11.7017 13.1008 11.9057 12.8388C12.0797 12.6158 12.2817 12.4138 12.6857 12.0089L17.6016 7.09396C17.9397 7.98027 18.4622 8.78466 19.1345 9.45391C19.8038 10.1262 20.6082 10.6487 21.4945 10.9869L16.5786 15.9028Z" fill="#B6AC94"/>
<path d="M22.5356 23.1259C23.9996 21.66 23.9996 19.304 23.9996 14.5901C23.9996 13.0422 23.9996 11.7482 23.9476 10.6562L17.5857 17.0181C17.2347 17.3701 16.9707 17.6341 16.6737 17.8651C16.3252 18.1373 15.9479 18.3707 15.5488 18.561C15.2088 18.723 14.8548 18.841 14.3828 18.998L11.4508 19.975C11.0558 20.1067 10.632 20.1258 10.2267 20.0301C9.82149 19.9345 9.45089 19.7279 9.15647 19.4334C8.86205 19.139 8.65544 18.7684 8.55978 18.3632C8.46413 17.9579 8.48321 17.5341 8.6149 17.1391L9.59188 14.2071C9.74888 13.7351 9.86688 13.3811 10.0289 13.0412C10.2189 12.6422 10.4529 12.2652 10.7249 11.9162C10.9559 11.6192 11.2198 11.3562 11.5718 11.0042L17.9337 4.64233C16.8417 4.59033 15.5478 4.59033 13.9998 4.59033C9.28589 4.59033 6.92894 4.59033 5.46397 6.0543C4 7.52027 4 9.87622 4 14.5901C4 19.304 4 21.661 5.46397 23.1249C6.92994 24.5899 9.28589 24.5899 13.9998 24.5899C18.7137 24.5899 21.0706 24.5899 22.5346 23.1249" fill="#B6AC94"/>
</svg>
