<svg width="220" height="205" viewBox="0 0 220 205" fill="none" xmlns="http://www.w3.org/2000/svg">
<path d="M120.443 162.461H70.3093V201.129H120.443V162.461Z" fill="#EBEBEB"/>
<path d="M107.884 200.86C107.817 200.86 107.759 192.238 107.759 181.605C107.759 170.972 107.817 162.351 107.884 162.351C107.952 162.351 108.01 170.972 108.01 181.605C108.01 192.238 107.952 200.86 107.884 200.86Z" fill="#E0E0E0"/>
<path d="M116.193 192.33H112.352V196.677H116.193V192.33Z" fill="#FAFAFA"/>
<path d="M91.3015 162.562H85.6069V170.813H91.3015V162.562Z" fill="#E0E0E0"/>
<path d="M91.3015 192.764H85.6069V201.014H91.3015V192.764Z" fill="#E0E0E0"/>
<path d="M211.416 152.767H148.198V201.524H211.416V152.767Z" fill="#EBEBEB"/>
<path d="M195.574 201.177C195.507 201.177 195.449 190.313 195.449 176.907C195.449 163.501 195.507 152.637 195.574 152.637C195.642 152.637 195.7 163.501 195.7 176.907C195.7 190.313 195.647 201.177 195.574 201.177Z" fill="#E0E0E0"/>
<path d="M206.054 190.424H201.206V195.902H206.054V190.424Z" fill="#FAFAFA"/>
<path d="M174.664 152.892H167.482V163.294H174.664V152.892Z" fill="#E0E0E0"/>
<path d="M174.664 190.973H167.482V201.375H174.664V190.973Z" fill="#E0E0E0"/>
<path d="M29.1287 154.201C31.6896 152.882 34.7029 152.709 37.543 153.181C39.0689 153.431 40.6574 153.888 41.6971 155.034C42.7369 156.18 42.9294 158.197 41.7404 159.183C41.028 159.771 40.0412 159.857 39.117 159.848C36.8931 159.819 34.4285 159.429 32.6523 160.767C31.6366 161.532 30.9627 162.798 29.7641 163.174C28.5655 163.549 27.2418 162.842 26.616 161.773C26.0371 160.659 25.9095 159.364 26.2598 158.158C26.4015 157.322 26.7341 156.531 27.2317 155.844C27.7293 155.158 28.3785 154.596 29.1287 154.201Z" fill="#EBEBEB"/>
<path d="M23.2657 142.884C24.8301 145.118 27.8723 144.381 29.2827 143.014C30.6931 141.647 31.29 139.673 31.8291 137.791C33.0711 133.483 34.3178 128.963 33.3984 124.578C33.177 123.248 32.5923 122.005 31.7088 120.987C31.2615 120.487 30.6913 120.112 30.0547 119.9C29.4181 119.688 28.7371 119.646 28.0793 119.779C26.5438 120.183 25.5907 121.704 24.9023 123.115C22.8728 127.331 21.8104 131.947 21.7927 136.626C21.7927 138.807 22.0382 141.089 23.2657 142.884Z" fill="#EBEBEB"/>
<path d="M18.9719 146.09C20.6711 144.073 20.9936 141.137 20.2379 138.61C19.4822 136.083 17.7733 133.936 15.8046 132.179C13.489 130.119 10.7946 128.53 7.87169 127.5C6.73887 127.042 5.52038 126.835 4.29998 126.893C3.69119 126.928 3.10012 127.111 2.57827 127.427C2.05642 127.742 1.61962 128.18 1.30591 128.703C0.468336 130.297 1.27221 132.227 2.13866 133.806C3.66449 136.584 5.40595 139.238 7.34701 141.743C8.91144 143.755 10.7165 145.744 13.08 146.653C15.4435 147.563 17.937 147.457 19.1982 145.806" fill="#EBEBEB"/>
<path d="M23.1597 176.59C23.2433 176.259 23.2917 175.92 23.3041 175.579C23.3763 174.837 23.4629 173.908 23.5736 172.806C23.7116 171.442 23.9189 170.086 24.1946 168.743C24.5563 167.102 25.0505 165.492 25.6724 163.93C26.2823 162.378 27.1071 160.92 28.1225 159.598C28.9527 158.522 30.0094 157.643 31.2177 157.022C32.0394 156.617 32.9199 156.344 33.8267 156.214C34.168 156.2 34.5069 156.15 34.8375 156.064C34.4968 156.027 34.153 156.027 33.8122 156.064C32.8706 156.135 31.9494 156.375 31.0925 156.772C29.8166 157.374 28.6978 158.264 27.8241 159.371C26.7613 160.711 25.9047 162.202 25.2825 163.795C24.6613 165.376 24.1782 167.007 23.8384 168.671C23.5765 170.031 23.3949 171.405 23.2944 172.787C23.2078 173.966 23.1741 174.919 23.1597 175.579C23.1242 175.915 23.1242 176.254 23.1597 176.59Z" fill="#E0E0E0"/>
<path d="M23.3522 174.461C23.3808 174.303 23.3905 174.141 23.3811 173.98C23.3811 173.624 23.3811 173.176 23.3811 172.632C23.3811 171.463 23.3811 169.768 23.4389 167.679C23.5448 163.501 23.9203 159.014 24.599 152.665C25.2584 146.701 26.1393 139.765 27.0732 135.254C27.2705 134.229 27.4727 133.305 27.6653 132.496C27.8578 131.688 27.9974 130.985 28.1466 130.422C28.2958 129.858 28.3777 129.459 28.4643 129.112C28.5114 128.956 28.5389 128.794 28.5462 128.631C28.4736 128.771 28.4187 128.92 28.3825 129.074C28.2766 129.415 28.1466 129.839 27.9878 130.364C27.8289 130.888 27.6364 131.62 27.4342 132.424C27.232 133.228 27.001 134.152 26.7844 135.177C25.628 140.512 24.7587 145.904 24.1802 151.332C23.487 157.686 23.1741 163.472 23.1453 167.66C23.1453 169.754 23.1453 171.453 23.2175 172.623C23.2512 173.167 23.28 173.614 23.2993 173.966C23.297 174.132 23.3147 174.299 23.3522 174.461Z" fill="#E0E0E0"/>
<path d="M23.3812 163.304C23.4179 162.835 23.4179 162.363 23.3812 161.894C23.3283 160.989 23.2031 159.684 22.948 158.081C22.6332 156.207 22.2121 154.353 21.6868 152.526C21.0798 150.279 20.3025 148.081 19.3619 145.951C17.7513 142.027 15.44 138.428 12.5409 135.332C12.0379 134.8 11.5009 134.302 10.9332 133.84C10.6877 133.628 10.4518 133.421 10.2497 133.257L9.65277 132.829C9.27814 132.543 8.88045 132.289 8.4638 132.068C8.39641 132.16 10.1438 133.19 12.3484 135.534C15.1527 138.66 17.4025 142.241 19.0008 146.124C19.9253 148.24 20.7053 150.416 21.3354 152.637C21.8648 154.446 22.3034 156.281 22.6496 158.134C22.9384 159.718 23.1309 161.022 23.2079 161.908C23.2285 162.377 23.2865 162.844 23.3812 163.304Z" fill="#E0E0E0"/>
<path d="M11.8477 181.287L12.9644 196.609H32.6473L33.7641 181.287H11.8477Z" fill="#EBEBEB"/>
<path d="M36.1084 175.251H9.94629V181.287H36.1084V175.251Z" fill="#EBEBEB"/>
<path d="M9.94629 196.022V197.693H11.1786H35.6799V196.022H9.94629Z" fill="#E0E0E0"/>
<path d="M12.3821 200.456L11.1787 197.51H34.7414L33.3358 200.456H12.3821Z" fill="#E0E0E0"/>
<path d="M33.3984 186.293C33.3738 186.345 33.3431 186.394 33.3069 186.438C33.2299 186.539 33.1288 186.669 33.0133 186.828L31.8677 188.272L31.8147 188.339L31.7666 188.272L28.9506 184.378H29.1095L26.3368 188.301L26.2502 188.426L26.1539 188.31L22.8662 184.397H23.0539L22.8758 184.628L19.9347 188.31L19.8336 188.435L19.747 188.306L16.9695 184.382H17.1332L13.7155 188.272L13.6577 188.344L13.6096 188.262L12.541 186.491C12.4254 186.298 12.3388 186.139 12.2666 186.009C12.2303 185.956 12.2012 185.897 12.1799 185.836C12.225 185.882 12.2638 185.934 12.2955 185.99L12.5987 186.447L13.7203 188.214H13.6144L16.9839 184.277L17.0658 184.175L17.1428 184.281L19.9443 188.19H19.7614L22.6929 184.498C22.7555 184.421 22.818 184.344 22.871 184.272L22.9673 184.151L23.0635 184.267L26.3416 188.19H26.1587L28.9602 184.286L29.0421 184.171L29.1191 184.286C30.231 185.87 31.1745 187.213 31.8773 188.224H31.7762L32.97 186.78C33.1 186.63 33.2059 186.51 33.2877 186.409C33.3217 186.368 33.3587 186.329 33.3984 186.293Z" fill="#F5F5F5"/>
<path d="M34.0386 181.187C34.0386 181.254 29.1047 181.312 23.0251 181.312C16.9454 181.312 12.0115 181.254 12.0115 181.187C12.0115 181.119 16.9406 181.066 23.0251 181.066C29.1095 181.066 34.0386 181.119 34.0386 181.187Z" fill="#F5F5F5"/>
<path d="M172.075 7.48696L168.041 7.50879L168.15 27.5813L172.184 27.5595L172.075 7.48696Z" fill="#E0E0E0"/>
<path d="M143.541 7.54114L133.095 7.59766L133.155 18.6785L143.601 18.6219L143.541 7.54114Z" fill="#EBEBEB"/>
<path d="M153.938 7.4845L143.492 7.54102L143.552 18.6218L153.998 18.5653L153.938 7.4845Z" fill="#F5F5F5"/>
<path d="M133.108 10.664C140.052 10.7217 147 10.6896 153.951 10.5677C153.98 10.5677 154.008 10.556 154.029 10.5353C154.05 10.5145 154.062 10.4863 154.062 10.457C154.062 10.4276 154.05 10.3994 154.029 10.3787C154.008 10.3579 153.98 10.3463 153.951 10.3463C147.01 10.3077 140.049 10.3463 133.108 10.4762C133.087 10.4811 133.068 10.493 133.054 10.51C133.04 10.5271 133.033 10.5483 133.033 10.5701C133.033 10.5919 133.04 10.6131 133.054 10.6301C133.068 10.6472 133.087 10.6591 133.108 10.664Z" fill="#E0E0E0"/>
<path d="M145.564 18.4373L126.584 18.54L126.633 27.5703L145.613 27.4676L145.564 18.4373Z" fill="#EBEBEB"/>
<path d="M164.452 18.3348L145.472 18.4375L145.521 27.4677L164.5 27.365L164.452 18.3348Z" fill="#F5F5F5"/>
<path d="M126.595 21.0613C139.202 21.2009 151.852 21.0613 164.464 20.8735C164.493 20.8735 164.521 20.8619 164.542 20.8411C164.563 20.8203 164.575 20.7922 164.575 20.7628C164.575 20.7335 164.563 20.7053 164.542 20.6845C164.521 20.6638 164.493 20.6521 164.464 20.6521C151.857 20.5847 139.202 20.5895 126.595 20.8687C126.57 20.8687 126.545 20.8789 126.527 20.8969C126.509 20.915 126.499 20.9395 126.499 20.965C126.499 20.9905 126.509 21.015 126.527 21.0331C126.545 21.0511 126.57 21.0613 126.595 21.0613Z" fill="#E0E0E0"/>
<path d="M193.028 27.5791H119.495V30.8139H193.028V27.5791Z" fill="#E0E0E0"/>
<path d="M134.518 29.1338H131.534V40.1714H134.518V29.1338Z" fill="#E0E0E0"/>
<path d="M179.078 29.1338H176.094V40.1714H179.078V29.1338Z" fill="#E0E0E0"/>
<path d="M176.011 -0.000340594L171.977 0.0214844L172.126 27.6272L176.16 27.6054L176.011 -0.000340594Z" fill="#EBEBEB"/>
<path d="M182.31 5.1409L176.043 5.1748L176.164 27.5482L182.432 27.5143L182.31 5.1409Z" fill="#F5F5F5"/>
<path d="M182.269 9.46006C180.186 9.60722 178.095 9.60722 176.012 9.46006C178.095 9.3193 180.186 9.3193 182.269 9.46006Z" fill="#E0E0E0"/>
<path d="M182.269 8.54591C181.228 8.65127 180.181 8.68665 179.136 8.65182C178.09 8.68646 177.043 8.65108 176.002 8.54591C178.085 8.39876 180.176 8.39876 182.26 8.54591H182.269Z" fill="#E0E0E0"/>
<path d="M182.269 24.1564C180.186 24.3035 178.095 24.3035 176.012 24.1564C178.095 24.0156 180.186 24.0156 182.269 24.1564Z" fill="#E0E0E0"/>
<path d="M182.269 23.2178C180.186 23.3586 178.095 23.3586 176.012 23.2178C178.095 23.0706 180.186 23.0706 182.269 23.2178Z" fill="#E0E0E0"/>
<path d="M179.237 21.1666C179.179 21.1666 179.131 18.909 179.131 16.1267C179.131 13.3444 179.179 11.082 179.237 11.082C179.295 11.082 179.347 13.3396 179.347 16.1267C179.347 18.9138 179.299 21.1666 179.237 21.1666Z" fill="#E0E0E0"/>
<path d="M189.162 10.6445H182.342V27.5307H189.162V10.6445Z" fill="#EBEBEB"/>
<path d="M173.932 5.88364C174.573 5.88364 175.092 5.36426 175.092 4.72356C175.092 4.08286 174.573 3.56348 173.932 3.56348C173.292 3.56348 172.772 4.08286 172.772 4.72356C172.772 5.36426 173.292 5.88364 173.932 5.88364Z" fill="#E0E0E0"/>
<path d="M174.293 7.91504H173.576V24.3391H174.293V7.91504Z" fill="#E0E0E0"/>
<path d="M213.587 201.26C213.587 201.332 167.318 201.385 110.262 201.385C53.2064 201.385 6.92822 201.332 6.92822 201.26C6.92822 201.188 53.1872 201.135 110.262 201.135C167.338 201.135 213.587 201.193 213.587 201.26Z" fill="#263238"/>
<path d="M61.7411 24.5986C64.0111 27.3766 65.2403 30.8599 65.2165 34.4473C65.1924 36.4787 64.817 38.717 66.0011 40.3681C66.8965 41.6196 68.5331 42.2502 69.26 43.6076C70.136 45.2395 69.3899 47.3045 69.9291 49.0759C70.6896 51.5886 73.6355 52.6428 75.3829 54.602C76.1277 55.4683 76.6489 56.504 76.9006 57.6185C77.1524 58.7329 77.1271 59.8921 76.827 60.9945C76.5087 62.0923 75.9329 63.0982 75.1476 63.9288C74.3623 64.7593 73.3901 65.3904 72.3118 65.7696C71.1604 66.2235 69.8762 66.2027 68.7401 65.7118C67.5608 65.1246 66.8146 63.9163 66.237 62.737C65.0769 60.4168 54.8865 47.8773 54.3088 45.3454" fill="#263238"/>
<path d="M54.3281 21.6433C50.1595 20.9694 46.145 23.7372 44.3976 27.5785C42.6503 31.4198 42.5925 35.7617 42.4722 39.9977C42.3518 44.2337 42.0438 48.6237 39.8921 52.2532C38.525 54.5589 36.407 56.5854 36.0749 59.2377C35.7764 61.6157 37.0087 64.0128 36.5996 66.3763C36.2434 68.4366 34.6741 70.2272 34.7367 72.3115C34.8137 74.8243 37.3986 76.716 39.9065 76.7834C42.4144 76.8508 44.7635 75.5367 46.7322 73.9771C49.9399 71.4303 52.5067 68.1678 54.2271 64.4509" fill="#263238"/>
<path d="M47.4685 31.5781C47.3376 30.5295 47.4186 29.4653 47.7068 28.4486C47.9951 27.4319 48.4846 26.4835 49.1464 25.6597C49.8082 24.8358 50.6287 24.1533 51.5593 23.6526C52.4899 23.1519 53.5116 22.8433 54.5638 22.7451C58.7661 22.3408 62.5063 25.4744 63.1369 29.6527C63.6904 33.3158 64.1622 37.0127 64.1477 38.3557C64.0948 42.404 61.7409 43.978 60.7782 44.4546C60.4319 44.5789 60.0738 44.6676 59.7096 44.7193V44.7482L60.6049 49.3981C61.0141 52.4452 59.3149 55.1745 56.2726 55.6029C53.2304 56.0313 50.8381 53.7064 50.3711 50.6593L47.4685 31.5781Z" fill="#FFBE9D"/>
<path d="M62.3089 31.4245C62.2415 31.5207 61.7072 31.2367 61.0237 31.3378C60.3402 31.4389 59.8829 31.8529 59.7962 31.7807C59.7096 31.7085 59.7962 31.5881 60.008 31.3956C60.2712 31.1392 60.6077 30.9709 60.9708 30.9142C61.3269 30.8593 61.6914 30.92 62.0105 31.0875C62.2512 31.2415 62.3426 31.386 62.3089 31.4245Z" fill="#263238"/>
<path d="M56.2149 32.9073C56.1476 33.0036 55.6132 32.7148 54.9249 32.8159C54.2365 32.917 53.7889 33.3357 53.7022 33.2635C53.6156 33.1913 53.7022 33.0662 53.914 32.8784C54.1772 32.622 54.5137 32.4538 54.8768 32.3971C55.2334 32.3463 55.5971 32.4086 55.9165 32.5752C56.1524 32.7244 56.2486 32.864 56.2149 32.9073Z" fill="#263238"/>
<path d="M58.7134 36.5797C59.0577 36.414 59.4216 36.2927 59.7965 36.2187C59.9697 36.1753 60.1286 36.1176 60.143 35.9924C60.1275 35.8166 60.0605 35.6492 59.9505 35.5111L59.2333 34.2306C58.2368 32.44 57.4907 30.9574 57.5629 30.914C57.6351 30.8707 58.5257 32.3004 59.4884 34.091C59.7339 34.5339 59.9697 34.9575 60.1815 35.357C60.3214 35.5528 60.3894 35.7908 60.3741 36.0309C60.3582 36.0966 60.3274 36.1577 60.2839 36.2095C60.2405 36.2613 60.1857 36.3023 60.1238 36.3294C60.0299 36.3704 59.9313 36.3996 59.8302 36.416C59.4666 36.519 59.0912 36.5741 58.7134 36.5797Z" fill="#263238"/>
<path d="M59.6712 44.7243C59.6712 44.7243 57.0574 45.326 53.4568 43.8193C53.4568 43.8193 55.0116 47.1648 59.9167 45.9758L59.6712 44.7243Z" fill="#EB996E"/>
<path d="M55.8636 31.1118C55.8251 31.3092 55.1271 31.3188 54.3377 31.5354C53.5482 31.752 52.9273 32.0601 52.7973 31.9109C52.7396 31.8387 52.8262 31.6461 53.0621 31.4295C53.3797 31.1579 53.7549 30.9621 54.1594 30.857C54.5639 30.7519 54.987 30.7403 55.3967 30.823C55.7144 30.8952 55.8636 31.0204 55.8636 31.1118Z" fill="#263238"/>
<path d="M61.7458 29.9083C61.6496 30.0816 61.1538 29.9901 60.5858 30.0623C60.0177 30.1345 59.5508 30.3222 59.416 30.173C59.3583 30.1008 59.416 29.9371 59.599 29.759C59.8514 29.5353 60.1682 29.3971 60.5039 29.3643C60.8355 29.3244 61.1713 29.3865 61.4666 29.5424C61.6977 29.6724 61.7892 29.8216 61.7458 29.9083Z" fill="#263238"/>
<path d="M54.7276 33.7922C54.7382 33.8667 54.7635 33.9383 54.802 34.003C54.8405 34.0676 54.8915 34.1239 54.9519 34.1687C55.0124 34.2135 55.0811 34.2458 55.1542 34.2638C55.2272 34.2818 55.3031 34.2851 55.3775 34.2735C55.4498 34.2652 55.5197 34.2426 55.5831 34.207C55.6466 34.1714 55.7023 34.1236 55.7471 34.0662C55.7919 34.0089 55.8249 33.9432 55.8441 33.873C55.8632 33.8028 55.8683 33.7295 55.8588 33.6574C55.8363 33.5075 55.7552 33.3727 55.6334 33.2825C55.5116 33.1922 55.359 33.154 55.209 33.176C55.1365 33.1837 55.0662 33.2059 55.0024 33.2413C54.9386 33.2767 54.8826 33.3246 54.8377 33.3821C54.7928 33.4395 54.7599 33.5055 54.741 33.5759C54.7221 33.6464 54.7175 33.7199 54.7276 33.7922Z" fill="#263238"/>
<path d="M60.7975 32.4787C60.8201 32.6286 60.9011 32.7634 61.0229 32.8536C61.1447 32.9439 61.2973 32.9821 61.4473 32.9601C61.5196 32.9517 61.5895 32.9291 61.653 32.8935C61.7164 32.8579 61.7722 32.8101 61.817 32.7527C61.8618 32.6954 61.8947 32.6297 61.9139 32.5596C61.933 32.4894 61.9381 32.4161 61.9287 32.3439C61.9061 32.194 61.825 32.0592 61.7032 31.969C61.5814 31.8787 61.4288 31.8405 61.2788 31.8626C61.2063 31.8702 61.136 31.8924 61.0722 31.9278C61.0085 31.9632 60.9524 32.0111 60.9075 32.0686C60.8626 32.1261 60.8297 32.192 60.8108 32.2625C60.7919 32.3329 60.7874 32.4065 60.7975 32.4787Z" fill="#263238"/>
<path d="M59.7916 37.9084C59.6026 37.8496 59.399 37.8588 59.2161 37.9344C59.0332 38.01 58.8826 38.1473 58.7903 38.3224C58.7022 38.4831 58.6664 38.6674 58.688 38.8494C58.7096 39.0315 58.7874 39.2023 58.9107 39.338C59.0419 39.4669 59.2146 39.5449 59.398 39.5581C59.5814 39.5714 59.7636 39.5189 59.9119 39.4102C60.0976 39.2412 60.2099 39.0063 60.2248 38.7556C60.2575 38.5258 60.2025 38.2921 60.0708 38.1009C60.0031 38.0075 59.9066 37.9389 59.7961 37.9059C59.6856 37.8728 59.5673 37.8771 59.4594 37.918" fill="#EB996E"/>
<path d="M62.6026 26.3557C62.2247 24.8305 61.2819 23.5058 59.9647 22.6492C58.8865 21.8704 57.6058 21.4206 56.2775 21.3543C54.9408 21.2967 53.6358 21.771 52.648 22.6732C51.947 23.368 51.5461 24.3098 51.5312 25.2967L51.6082 24.6228C51.406 25.1711 51.406 25.7736 51.6082 26.322C51.719 26.6156 51.8537 26.914 51.9693 27.2077C52.3139 28.0562 52.9531 28.7519 53.7696 29.1668C54.1393 29.3651 54.5534 29.4662 54.973 29.4604C55.183 29.4562 55.3896 29.4062 55.5783 29.3139C55.767 29.2217 55.9334 29.0893 56.0657 28.9261C56.3645 28.4043 56.4573 27.7896 56.3256 27.2029C56.6415 27.7827 57.0922 28.278 57.6397 28.6469C57.9193 28.8256 58.2518 28.9025 58.5814 28.8649C58.9111 28.8272 59.2176 28.6771 59.4496 28.44C59.8444 27.9586 59.6903 27.198 59.4496 26.6012C59.822 27.1642 60.3437 27.6125 60.9563 27.896C61.1175 27.9885 61.2961 28.0465 61.4809 28.0664C61.6657 28.0863 61.8526 28.0676 62.0297 28.0115C62.1714 27.9413 62.2953 27.8398 62.392 27.7147C62.4887 27.5897 62.5558 27.4443 62.5881 27.2895C62.6596 26.9828 62.6645 26.6644 62.6026 26.3557Z" fill="#263238"/>
<path d="M59.1223 27.6358C59.079 27.6358 59.0886 27.0629 58.9009 26.1917C58.6844 25.0339 58.1023 23.9761 57.2402 23.1735C56.7664 22.7427 56.1947 22.4337 55.5747 22.2734C55.0669 22.1487 54.5381 22.1356 54.0247 22.2349C53.5515 22.3455 53.0995 22.5324 52.6865 22.7884C52.6865 22.7884 52.7684 22.6681 52.9802 22.5141C53.2841 22.3014 53.6254 22.1479 53.9862 22.0616C54.5261 21.9352 55.0878 21.9352 55.6277 22.0616C56.2928 22.2276 56.9054 22.5588 57.4087 23.0243C58.3113 23.86 58.9008 24.9794 59.079 26.1965C59.1363 26.5563 59.1653 26.92 59.1657 27.2844C59.1716 27.4031 59.157 27.522 59.1223 27.6358Z" fill="#455A64"/>
<path d="M103.456 83.7582L84.9474 76.4174C84.9474 76.4174 75.4694 63.9838 75.6668 63.7432L69.0095 71.031L78.6849 84.1192L101.112 89.3757L104.963 88.3071C104.115 84.2203 103.456 83.7582 103.456 83.7582Z" fill="#FFBE9D"/>
<path d="M63.1177 48.2869L60.5954 47.3242L49.7069 48.7057V50.6312L49.394 50.6697C47.0469 51.1687 44.7957 52.0432 42.7272 53.2594C40.7896 54.4422 39.25 56.1775 38.3064 58.2422C37.3629 60.307 37.0584 62.6067 37.4322 64.8458C37.875 67.5992 38.7319 70.9447 40.3877 72.8798C43.5503 76.5814 46.4385 72.0085 46.4385 72.0085C46.4385 72.0085 48.4217 76.5333 48.3062 78.6754C48.2099 80.4709 47.4205 84.2062 47.1653 85.3711C47.1549 85.4177 47.154 85.4659 47.1627 85.5128C47.1715 85.5597 47.1897 85.6043 47.2163 85.644C47.2429 85.6836 47.2772 85.7174 47.3173 85.7433C47.3574 85.7692 47.4023 85.7867 47.4493 85.7947L70.42 90.0452L70.5307 84.4277L69.799 61.3222L68.7641 52.3496C68.7641 52.3496 68.7978 48.0655 63.1177 48.2869Z" fill="#3A7792"/>
<path d="M68.4126 50.8574L77.1734 63.5125L70.1214 72.1L68.4126 50.8574Z" fill="#3A7792"/>
<path d="M70.3045 77.4862C70.273 77.2146 70.2618 76.9411 70.2708 76.6679C70.2708 76.0998 70.2708 75.3537 70.2419 74.444C70.1993 72.0022 70.0242 69.5645 69.7172 67.1417C69.3562 64.3016 68.8027 61.7649 68.3839 59.9212L67.8736 57.7551C67.7996 57.4931 67.7449 57.226 67.71 56.9561C67.8194 57.2062 67.9064 57.4655 67.9699 57.731C68.1191 58.2124 68.3213 58.9681 68.5523 59.8827C69.1739 62.2578 69.6465 64.6693 69.9676 67.1032C70.277 69.5361 70.4281 71.9866 70.42 74.4391C70.42 75.4019 70.396 76.1432 70.3671 76.6679C70.3696 76.9419 70.3486 77.2157 70.3045 77.4862Z" fill="#263238"/>
<path d="M48.7395 58.2458C48.7395 58.2843 48.0752 58.2795 47.0114 58.3325C45.6233 58.4077 44.2428 58.5863 42.8813 58.8668C41.5201 59.1524 40.1816 59.5369 38.8763 60.0172C37.8751 60.3879 37.2734 60.6623 37.2542 60.6238C37.3775 60.5271 37.5136 60.4477 37.6585 60.3879C37.9232 60.2435 38.318 60.0606 38.8138 59.8536C41.4112 58.781 44.1871 58.2062 46.9969 58.1592C47.5361 58.1592 47.9597 58.1592 48.2725 58.1881C48.4302 58.183 48.5878 58.2025 48.7395 58.2458Z" fill="#FAFAFA"/>
<path d="M69.0288 64.0364C68.6767 64.1643 68.3093 64.2452 67.9361 64.2771C66.1561 64.5369 64.3528 64.5982 62.5593 64.46C62.1847 64.4535 61.8126 64.3985 61.4521 64.2963C61.8237 64.2633 62.1974 64.2633 62.5689 64.2963C63.2524 64.2963 64.2007 64.2963 65.2453 64.2963C66.2898 64.2963 67.2333 64.1904 67.9168 64.1278C68.284 64.0637 68.6561 64.0331 69.0288 64.0364Z" fill="#FAFAFA"/>
<path d="M73.0483 58.3133C72.5177 58.9263 71.882 59.4398 71.171 59.8295C70.4998 60.2833 69.7509 60.6096 68.9616 60.7923C68.9327 60.7249 69.9243 60.3109 71.041 59.5985C72.1578 58.8861 73.0002 58.2555 73.0483 58.3133Z" fill="#FAFAFA"/>
<path d="M69.5102 52.4459C67.9915 53.812 66.0564 54.6261 64.0178 54.7564C64.0178 54.6794 65.3416 54.4772 66.8627 53.8274C68.3838 53.1775 69.462 52.3833 69.5102 52.4459Z" fill="#FAFAFA"/>
<path d="M69.9867 73.8376C69.8451 73.9328 69.6933 74.0119 69.5342 74.0735C69.2309 74.2179 68.7929 74.396 68.2345 74.603C66.7838 75.1243 65.2863 75.5047 63.7627 75.739C62.2391 75.9742 60.6962 76.0596 59.156 75.9941C58.5639 75.97 58.0874 75.9267 57.7601 75.8834C57.5887 75.872 57.4191 75.8413 57.2546 75.7919C57.2546 75.7486 57.9863 75.7919 59.1801 75.8208C62.2406 75.8494 65.2855 75.3812 68.196 74.4345C69.2935 74.0735 69.9722 73.7991 69.9867 73.8376Z" fill="#FAFAFA"/>
<path d="M70.1648 80.3594C70.1648 80.3594 70.0974 80.4075 69.9578 80.4797L69.3417 80.7493C68.8122 80.9996 68.0276 81.3269 67.0456 81.712C66.0636 82.0971 64.8746 82.4677 63.5365 82.8336C60.6272 83.617 57.6411 84.0802 54.6312 84.2151C53.2449 84.268 51.9982 84.2632 50.9488 84.2151C49.8994 84.167 49.0571 84.0899 48.4746 84.0081L47.8055 83.9166C47.7267 83.9109 47.649 83.8947 47.5745 83.8685C47.6526 83.8561 47.7322 83.8561 47.8103 83.8685L48.4842 83.9118C49.0667 83.96 49.9283 84.0081 50.9536 84.037C51.9789 84.0659 53.2449 84.037 54.6216 83.9888C55.9983 83.9407 57.5098 83.7674 59.0838 83.5075C60.6579 83.2475 62.1405 82.9347 63.4787 82.5977C64.8169 82.2608 66.001 81.8805 66.983 81.5291C67.965 81.1777 68.764 80.8841 69.3032 80.6626L69.9289 80.4171C70.0053 80.3897 70.0844 80.3703 70.1648 80.3594Z" fill="#FAFAFA"/>
<path d="M27.9446 182.692L25.3404 194.452L20.5893 203.16C20.5085 203.309 20.4591 203.472 20.4441 203.641C20.4291 203.809 20.4488 203.979 20.502 204.14C20.5553 204.3 20.6409 204.448 20.7536 204.575C20.8663 204.701 21.0037 204.803 21.1573 204.874C21.3357 204.955 21.531 204.993 21.727 204.984C21.923 204.975 22.1139 204.919 22.2837 204.821C24.4884 203.55 32.5801 198.818 32.7197 197.947C32.8881 196.941 36.2914 185.725 36.2914 185.725L27.9446 182.692Z" fill="#3A7792"/>
<g opacity="0.6">
<path d="M21.1572 204.874L32.9169 197.172L32.7918 197.653C32.6889 198.083 32.4363 198.462 32.0793 198.722C31.1166 199.41 28.4354 201.259 22.3221 204.83C22.1466 204.933 21.9484 204.991 21.7451 204.998C21.5419 205.006 21.3399 204.963 21.1572 204.874Z" fill="white"/>
</g>
<g opacity="0.6">
<path d="M31.4392 192.796C31.2694 192.866 31.1317 192.998 31.0526 193.164C30.9736 193.33 30.9587 193.519 31.0108 193.696C31.0751 193.868 31.2027 194.008 31.3674 194.089C31.5322 194.169 31.7215 194.184 31.8965 194.129C32.0784 194.054 32.2256 193.913 32.3093 193.735C32.393 193.557 32.4071 193.354 32.349 193.166C32.2638 192.996 32.1165 192.864 31.9375 192.799C31.7585 192.734 31.5613 192.739 31.3863 192.815" fill="white"/>
</g>
<path d="M25.0852 200.416C24.891 199.983 24.6185 199.59 24.2813 199.256C23.893 198.986 23.4569 198.791 22.9961 198.683C22.9961 198.65 23.1646 198.597 23.4486 198.626C23.8181 198.673 24.1659 198.827 24.4498 199.068C24.7358 199.3 24.9469 199.612 25.0563 199.964C25.1382 200.238 25.1141 200.416 25.0852 200.416Z" fill="#263238"/>
<path d="M23.8674 201.779C23.8 201.817 23.516 201.346 22.9528 201.023C22.5936 200.856 22.2237 200.713 21.8457 200.595C22.0535 200.527 22.2745 200.509 22.4905 200.543C22.7065 200.578 22.9112 200.663 23.0876 200.792C23.7278 201.163 23.9348 201.765 23.8674 201.779Z" fill="#263238"/>
<path d="M27.1263 198.79C26.717 198.335 26.2728 197.914 25.7978 197.529C25.2744 197.209 24.7272 196.931 24.1611 196.696C24.8122 196.683 25.4467 196.901 25.9518 197.312C26.5086 197.647 26.9257 198.172 27.1263 198.79Z" fill="#263238"/>
<path d="M28.2189 195.281C28.1707 195.343 27.5883 194.915 26.7748 194.679C25.9613 194.443 25.2248 194.482 25.22 194.4C25.7557 194.261 26.319 194.27 26.8503 194.425C27.3816 194.58 27.8611 194.876 28.2381 195.281H28.2189Z" fill="#263238"/>
<path d="M29.0709 191.848C28.6013 191.557 28.0945 191.332 27.5642 191.179C27.018 191.104 26.4642 191.104 25.918 191.179C25.918 191.15 26.0672 191.034 26.3753 190.943C26.7802 190.833 27.2053 190.819 27.6165 190.903C28.0277 190.986 28.4137 191.165 28.7436 191.424C28.9891 191.655 29.0901 191.828 29.0709 191.848Z" fill="#263238"/>
<path d="M27.7423 190.529C27.7427 190.376 27.7755 190.225 27.8386 190.086C27.975 189.689 28.1912 189.323 28.474 189.013C28.659 188.766 28.9193 188.587 29.2153 188.502C29.3161 188.486 29.4195 188.5 29.5122 188.543C29.6049 188.586 29.6825 188.655 29.7352 188.743C29.8236 188.922 29.8425 189.128 29.7881 189.321C29.6647 189.707 29.4109 190.038 29.0702 190.257C28.7294 190.477 28.323 190.571 27.9204 190.524C27.5234 190.467 27.1521 190.295 26.8531 190.027C26.5542 189.76 26.341 189.41 26.2405 189.022C26.2174 188.924 26.2153 188.821 26.2343 188.722C26.2534 188.622 26.2932 188.528 26.3512 188.445C26.4177 188.367 26.5072 188.312 26.6067 188.289C26.7062 188.266 26.8106 188.275 26.9047 188.315C27.1768 188.45 27.409 188.654 27.5787 188.907C27.8338 189.241 28.0277 189.617 28.1515 190.019C28.2101 190.162 28.238 190.316 28.2333 190.471C28.0393 189.952 27.7683 189.465 27.4294 189.027C27.2717 188.821 27.067 188.656 26.8325 188.546C26.781 188.523 26.7236 188.518 26.6689 188.531C26.6142 188.544 26.5652 188.575 26.5293 188.618C26.4956 188.675 26.474 188.738 26.4657 188.803C26.4574 188.868 26.4627 188.935 26.4811 188.998C26.5816 189.325 26.7722 189.616 27.0311 189.84C27.2899 190.063 27.6066 190.208 27.9445 190.259C28.285 190.299 28.6288 190.222 28.9199 190.041C29.211 189.86 29.4322 189.586 29.5474 189.263C29.5941 189.132 29.5941 188.989 29.5474 188.859C29.5201 188.809 29.4781 188.77 29.4271 188.745C29.3762 188.721 29.3189 188.714 29.2634 188.724C29.0126 188.793 28.789 188.937 28.6232 189.138C28.254 189.549 27.9562 190.019 27.7423 190.529Z" fill="#263238"/>
<g opacity="0.3">
<path d="M27.6269 183.968L27.0637 186.664L35.579 188.079L36.2914 185.725L27.9302 182.692L27.6269 183.968Z" fill="black"/>
</g>
<path d="M65.9723 187.044L65.2695 196.441C65.2695 196.441 74.5887 200.291 74.6272 202.063L56.3354 201.355L56.8168 186.664L65.9723 187.044Z" fill="#3A7792"/>
<g opacity="0.6">
<path d="M59.6615 195.43C59.4839 195.477 59.33 195.589 59.2289 195.742C59.1277 195.895 59.0864 196.081 59.1127 196.263C59.1532 196.442 59.2604 196.598 59.4124 196.701C59.5644 196.804 59.7498 196.845 59.931 196.816C60.1198 196.766 60.2834 196.648 60.39 196.484C60.4967 196.321 60.539 196.123 60.5087 195.93C60.4478 195.748 60.3187 195.596 60.1482 195.506C59.9777 195.416 59.7792 195.396 59.5941 195.449" fill="white"/>
</g>
<g opacity="0.6">
<path d="M56.345 201.356L56.4509 199.873L73.9484 201.091C73.9484 201.091 74.7523 201.476 74.6368 202.054L56.345 201.356Z" fill="white"/>
</g>
<path d="M65.5774 196.359C65.5774 196.45 65.125 196.474 64.6773 196.744C64.2296 197.013 63.9793 197.379 63.8975 197.341C63.8157 197.302 63.9697 196.792 64.5184 196.474C65.0672 196.156 65.6015 196.277 65.5774 196.359Z" fill="#263238"/>
<path d="M67.4644 197.239C67.4644 197.331 67.0889 197.466 66.7712 197.831C66.4535 198.197 66.3524 198.592 66.261 198.587C66.1695 198.582 66.1358 198.072 66.5402 197.624C66.9445 197.177 67.4644 197.143 67.4644 197.239Z" fill="#263238"/>
<path d="M68.4656 199.564C68.3838 199.564 68.2779 199.126 68.5234 198.649C68.7689 198.173 69.1973 197.99 69.231 198.067C69.2647 198.144 68.9999 198.394 68.8026 198.789C68.6052 199.184 68.5522 199.559 68.4656 199.564Z" fill="#263238"/>
<path d="M65.4907 194.202C65.4522 194.279 65.0479 194.14 64.528 194.154C64.0081 194.168 63.6231 194.313 63.5653 194.236C63.5075 194.159 63.9119 193.856 64.528 193.846C65.1442 193.836 65.5485 194.135 65.4907 194.202Z" fill="#263238"/>
<g opacity="0.3">
<path d="M65.8423 188.907L65.7172 190.582L56.7397 190.149L56.8023 188.214L65.8423 188.907Z" fill="black"/>
</g>
<path d="M65.6112 192.301C65.3088 192.374 64.9919 192.361 64.6966 192.263C64.3629 192.193 64.0394 192.082 63.7339 191.93C63.5557 191.843 63.3836 191.743 63.2189 191.632C63.1184 191.57 63.0275 191.494 62.9493 191.406C62.8962 191.337 62.8674 191.252 62.8674 191.165C62.8674 191.078 62.8962 190.993 62.9493 190.924C62.9961 190.864 63.0568 190.815 63.1263 190.782C63.1958 190.749 63.2721 190.734 63.3488 190.737C63.4647 190.741 63.5796 190.761 63.6906 190.794C63.8832 190.851 64.0702 190.925 64.249 191.016C64.553 191.164 64.8309 191.361 65.0721 191.598C65.4813 192.007 65.6112 192.349 65.5824 192.364C65.5535 192.378 65.3465 192.104 64.9277 191.762C64.6818 191.57 64.4135 191.408 64.1286 191.281C63.9588 191.21 63.7852 191.149 63.6088 191.098C63.4162 191.04 63.2526 191.035 63.1996 191.098C63.1467 191.16 63.1996 191.146 63.1996 191.204C63.2573 191.267 63.3238 191.322 63.397 191.367C63.5514 191.475 63.7121 191.573 63.8783 191.661C64.1559 191.814 64.4477 191.94 64.7496 192.036C65.0427 192.104 65.3307 192.192 65.6112 192.301Z" fill="#263238"/>
<path d="M65.4907 192.425C65.3308 192.156 65.2585 191.843 65.2837 191.53C65.2856 191.191 65.3409 190.855 65.4474 190.534C65.5165 190.345 65.6019 190.163 65.7025 189.99C65.7566 189.871 65.8403 189.767 65.9457 189.69C66.051 189.612 66.1745 189.563 66.3042 189.547C66.3864 189.552 66.4654 189.581 66.5319 189.629C66.5984 189.678 66.6497 189.745 66.6797 189.821C66.7215 189.929 66.7475 190.043 66.7567 190.158C66.7883 190.362 66.7883 190.57 66.7567 190.774C66.6923 191.115 66.5452 191.434 66.3283 191.703C65.9528 192.185 65.5774 192.257 65.5677 192.228C65.5581 192.199 65.8566 192.021 66.1502 191.573C66.3187 191.318 66.4288 191.029 66.4727 190.726C66.4971 190.551 66.4971 190.372 66.4727 190.197C66.4486 190.004 66.3812 189.841 66.309 189.86C66.2368 189.879 66.0587 189.995 65.9769 190.149C65.8829 190.303 65.8009 190.463 65.7314 190.63C65.62 190.921 65.5487 191.225 65.5196 191.535C65.457 192.074 65.5389 192.425 65.4907 192.425Z" fill="#263238"/>
<path d="M47.0643 85.7081C47.0643 85.7081 44.1761 85.8381 42.2506 95.7156C40.3252 105.593 25.6484 185.629 25.6484 185.629L36.2914 185.726L56.3449 109.632L55.0116 188.094L65.823 188.922C65.823 188.922 73.9339 102.137 74.0061 97.0875C74.1024 90.7913 70.4874 84.4229 70.4874 84.4229L47.0643 85.7081Z" fill="#263238"/>
<path d="M61.6929 84.8653C61.7603 84.8653 60.6531 90.5213 59.2235 97.4673C57.7939 104.413 56.5808 110.036 56.5134 110.021C56.446 110.007 57.5484 104.365 58.978 97.4192C60.4077 90.4731 61.6399 84.8508 61.6929 84.8653Z" fill="#455A64"/>
<path d="M63.3487 86.2757C63.3487 86.2468 63.6375 86.1602 63.9696 86.4538C64.064 86.5394 64.1387 86.6443 64.1885 86.7615C64.2384 86.8787 64.2622 87.0053 64.2585 87.1325C64.2464 87.2935 64.1889 87.4477 64.0926 87.5773C63.9963 87.7068 63.8652 87.8063 63.7145 87.8642C63.5675 87.9309 63.4048 87.955 63.2448 87.9337C63.0848 87.9125 62.934 87.8467 62.8096 87.7439C62.7165 87.6566 62.643 87.5505 62.594 87.4326C62.5451 87.3148 62.5217 87.1879 62.5255 87.0603C62.5255 86.6175 62.824 86.4634 62.8288 86.4923C62.7476 86.6691 62.705 86.861 62.7037 87.0555C62.7101 87.1533 62.736 87.2487 62.7798 87.3363C62.8236 87.424 62.8845 87.502 62.9588 87.5658C63.0538 87.6312 63.1637 87.6718 63.2784 87.6837C63.3931 87.6956 63.509 87.6785 63.6154 87.6339C63.7218 87.5893 63.8153 87.5187 63.8873 87.4286C63.9593 87.3385 64.0074 87.2317 64.0274 87.1181C64.0345 87.0206 64.022 86.9226 63.9905 86.83C63.9591 86.7374 63.9095 86.6521 63.8445 86.579C63.6086 86.3046 63.3439 86.3142 63.3487 86.2757Z" fill="#455A64"/>
<path d="M62.8916 90.184C62.8916 90.1551 63.19 90.184 63.3729 90.5835C63.4194 90.6976 63.4405 90.8204 63.4347 90.9435C63.4289 91.0665 63.3963 91.1868 63.3392 91.296C63.2564 91.4257 63.1399 91.5305 63.002 91.599C62.8642 91.6675 62.7103 91.6971 62.5569 91.6847C62.4035 91.6724 62.2563 91.6184 62.1313 91.5287C62.0062 91.439 61.9079 91.317 61.847 91.1756C61.8085 91.0596 61.7959 90.9366 61.8101 90.8151C61.8242 90.6937 61.8647 90.5769 61.9288 90.4728C62.1551 90.1118 62.4631 90.1214 62.4535 90.1503C62.4439 90.1792 62.2225 90.2466 62.0829 90.5547C62.0122 90.7274 62.0122 90.921 62.0829 91.0938C62.1331 91.1893 62.2067 91.2706 62.2968 91.33C62.3869 91.3895 62.4906 91.4252 62.5981 91.4338C62.7057 91.4425 62.8138 91.4238 62.9122 91.3795C63.0106 91.3352 63.0963 91.2667 63.1611 91.1804C63.2518 91.0159 63.2743 90.8223 63.2237 90.6413C63.0841 90.314 62.8675 90.2177 62.8916 90.184Z" fill="#455A64"/>
<path d="M52.6915 86.3723C52.6717 86.5377 52.6296 86.6996 52.5663 86.8537C52.416 87.2944 52.2275 87.7212 52.0032 88.1293C51.2687 89.491 50.2079 90.6492 48.9159 91.5002C47.6238 92.3512 46.1408 92.8684 44.5998 93.0055C44.137 93.0458 43.6715 93.0458 43.2087 93.0055C43.0456 93.0003 42.8838 92.9744 42.7273 92.9285C42.7273 92.8803 43.4542 92.9622 44.6046 92.8177C46.104 92.6358 47.5408 92.1086 48.802 91.2775C50.0632 90.4464 51.1145 89.3342 51.8732 88.0282C52.4364 87.0558 52.6482 86.3578 52.6915 86.3723Z" fill="#455A64"/>
<path d="M73.3997 93.3951C73.3997 93.3951 73.2745 93.3373 73.0772 93.2025C72.8014 93.0042 72.5437 92.7819 72.307 92.5383C71.5153 91.7369 70.8977 90.7808 70.4926 89.7297C70.0876 88.6785 69.9039 87.5551 69.9531 86.4298C69.9641 86.091 70.0077 85.7541 70.0831 85.4237C70.136 85.1879 70.1697 85.0627 70.189 85.0675C70.2082 85.0723 70.1312 85.5922 70.1312 86.4346C70.132 88.6458 70.9537 90.778 72.4369 92.4179C73.0001 93.0389 73.4237 93.3566 73.3997 93.3951Z" fill="#455A64"/>
<path d="M110.739 93.6741C110.898 93.289 110.854 93.443 108.303 91.7486C108.303 91.7486 111.961 94.1554 111.581 93.0098C111.252 92.5758 110.85 92.2027 110.392 91.9075C111.355 92.4755 111.913 92.538 112.082 92.307C112.371 91.9075 110.277 90.3815 109.28 89.6932C110.191 90.3449 111.147 90.932 112.14 91.4502C112.732 91.6331 112.448 90.9399 112.048 90.4345C111.649 89.9291 108.549 86.9446 107.716 86.0541C107.637 85.9863 107.573 85.9022 107.529 85.8074C107.486 85.7127 107.463 85.6096 107.463 85.5053C107.463 85.401 107.486 85.298 107.529 85.2033C107.573 85.1085 107.637 85.0244 107.716 84.9566C109.208 83.9939 109.863 82.4583 109.843 81.9529C109.827 81.8391 109.775 81.7335 109.694 81.6512C109.614 81.5689 109.51 81.5142 109.396 81.495C109.283 81.4757 109.166 81.4929 109.063 81.544C108.96 81.5952 108.876 81.6776 108.823 81.7796C108.446 82.2478 108.007 82.6624 107.519 83.0119C107.139 83.3076 106.713 83.5371 106.257 83.6906C105.728 83.8639 103.124 83.7195 102.565 83.4355L100.789 89.4573C100.789 89.4573 107.235 92.4707 108.457 93.0579C109.959 93.7703 110.628 93.9677 110.739 93.6741Z" fill="#FFBE9D"/>
<path d="M107.143 90.8581C107.09 90.9303 107.928 91.5417 109.011 92.23C110.094 92.9183 111.004 93.4142 111.047 93.3419C111.09 93.2697 110.253 92.6536 109.175 91.9701C108.096 91.2865 107.191 90.7667 107.143 90.8581Z" fill="#EB996E"/>
<path d="M107.75 89.6791C107.702 89.7513 108.558 90.4541 109.675 91.2531C110.792 92.0522 111.716 92.6443 111.764 92.5769C111.812 92.5095 110.96 91.8019 109.839 91.0028C108.717 90.2037 107.803 89.6117 107.75 89.6791Z" fill="#EB996E"/>
<path d="M108.39 88.4849C108.342 88.5523 109.141 89.2358 110.176 90.006C111.211 90.7762 112.101 91.3442 112.14 91.2768C112.178 91.2094 111.393 90.5259 110.359 89.7557C109.324 88.9855 108.443 88.4175 108.39 88.4849Z" fill="#EB996E"/>
<path d="M42.8331 66.6748L47.56 66.9348C47.8949 68.2544 48.3426 69.5428 48.8982 70.7857C52.7058 64.1814 55.6373 55.3291 56.3882 51.7718C56.2823 51.422 56.1524 51.0273 55.9983 50.5877C55.883 49.9231 55.9026 49.2421 56.0561 48.5852C56.1861 47.7958 56.4075 46.7271 56.4701 46.2362C56.6771 44.7343 56.9177 44.4936 57.4328 44.6669C58.1452 44.898 57.1392 48.8885 57.7216 48.9751C58.0393 49.0184 58.4196 47.6514 58.5351 46.5298C58.6506 45.4082 59.1513 41.9617 59.5219 41.7162C60.0659 41.3792 60.5376 41.9135 60.4028 43.0303C60.268 44.147 60.0899 47.531 60.682 47.5743C61.2741 47.6177 61.7554 41.8991 61.7554 41.8991C61.7554 41.8991 61.664 40.6572 62.3475 40.686C63.5846 40.739 62.6219 46.7705 62.516 47.3433C62.439 47.738 63.084 47.8247 63.1418 47.3818C63.1995 46.9389 63.498 41.6584 64.7543 41.7017C65.7171 41.7354 64.0082 46.6694 64.5522 47.815C65.0961 48.9607 65.4716 43.9304 66.3958 43.9978C66.7375 44.0267 66.9927 44.0941 66.3621 46.9389C65.7467 49.2011 65.0091 51.4283 64.1526 53.6106C62.7085 61.505 56.2631 86.7573 46.193 82.1362C40.561 79.5513 37.928 66.7326 37.928 66.7326L42.8331 66.6748Z" fill="#FFBE9D"/>
<path d="M64.1623 53.6535C64.1705 53.5939 64.1867 53.5356 64.2104 53.4802C64.2537 53.3551 64.3067 53.1914 64.3789 52.9989C64.5377 52.5416 64.7543 51.9062 65.0383 51.0734C65.3223 50.2407 65.6641 49.2298 66.0011 48.036C66.1743 47.4439 66.3188 46.7989 66.4487 46.1106C66.5161 45.764 66.5787 45.4078 66.622 45.0419C66.634 44.8608 66.634 44.6791 66.622 44.498C66.622 44.3103 66.5787 44.1562 66.4295 44.1514C66.2802 44.1466 66.1743 44.2381 66.0684 44.3969C65.9726 44.5669 65.8936 44.7458 65.8326 44.9312C65.6978 45.3115 65.5919 45.7158 65.486 46.125C65.3801 46.5342 65.2838 46.9626 65.1587 47.3958C65.1041 47.6331 65.0062 47.8583 64.8699 48.0601C64.8356 48.0996 64.7903 48.1281 64.7399 48.1419C64.7081 48.1489 64.6752 48.1486 64.6435 48.1411C64.6118 48.1336 64.5822 48.1191 64.557 48.0986C64.5016 48.0479 64.456 47.9875 64.4222 47.9205C64.3713 47.8023 64.3373 47.6775 64.3211 47.5498C64.2992 46.5789 64.3961 45.609 64.6099 44.6617C64.6918 44.1803 64.7784 43.6989 64.841 43.2176C64.8699 42.9721 64.8987 42.7362 64.9036 42.4763C64.9084 42.2163 64.8699 41.942 64.7688 41.8986C64.6677 41.8553 64.4222 41.9901 64.2874 42.1923C64.1544 42.4058 64.0492 42.6355 63.9745 42.8758C63.8104 43.3786 63.6864 43.8937 63.6039 44.4162C63.5124 44.9457 63.4402 45.4848 63.3776 46.0335C63.3536 46.3079 63.3247 46.5823 63.3006 46.8615L63.2621 47.2803C63.2672 47.3697 63.2527 47.4592 63.2194 47.5424C63.1861 47.6256 63.135 47.7004 63.0696 47.7616C62.9871 47.8219 62.8877 47.8543 62.7856 47.8543C62.6835 47.8543 62.584 47.8219 62.5015 47.7616C62.4549 47.7308 62.4153 47.6904 62.3854 47.6431C62.3555 47.5958 62.336 47.5427 62.3283 47.4873C62.321 47.4362 62.321 47.3843 62.3283 47.3332V47.2321L62.4582 46.3898C62.5401 45.8217 62.6074 45.2537 62.6604 44.6761C62.7133 44.0985 62.7567 43.516 62.7663 42.9336C62.7945 42.3569 62.7361 41.7793 62.593 41.2199C62.5598 41.078 62.4737 40.954 62.3523 40.8733C62.2943 40.8547 62.2318 40.8549 62.1739 40.8739C62.1159 40.8929 62.0655 40.9298 62.0298 40.9792C61.874 41.2642 61.8101 41.5904 61.8469 41.9131C61.741 43.0443 61.6207 44.1562 61.457 45.2489C61.3752 45.7929 61.2837 46.3368 61.1489 46.8711C61.1104 47.0011 61.0719 47.1359 61.0238 47.2706C60.978 47.434 60.882 47.5788 60.7494 47.6846C60.6907 47.7134 60.6241 47.7215 60.5602 47.7075C60.4964 47.6935 60.4392 47.6583 60.398 47.6076C60.3392 47.5459 60.2948 47.4719 60.268 47.391C60.2161 47.2575 60.179 47.1186 60.1573 46.977C60.0445 45.9295 60.0348 44.8735 60.1284 43.8241C60.1996 43.3349 60.227 42.8404 60.2103 42.3463C60.1947 42.1354 60.0981 41.9388 59.9407 41.7976C59.9037 41.7746 59.8625 41.7593 59.8195 41.7527C59.7765 41.7461 59.7326 41.7482 59.6904 41.759C59.6454 41.7742 59.6019 41.7936 59.5604 41.8168C59.5171 41.8553 59.5219 41.8168 59.493 41.8986C59.3189 42.3315 59.1915 42.7817 59.1128 43.2416C59.0165 43.723 58.9347 44.161 58.8624 44.6135C58.7902 45.066 58.7229 45.5089 58.6651 45.9517C58.6073 46.3946 58.5784 46.8278 58.4918 47.261C58.417 47.6843 58.3042 48.0999 58.1548 48.5029C58.1152 48.6055 58.0685 48.7052 58.0153 48.8014C57.9479 48.8928 57.9093 49.0084 57.7264 49.0661C57.6796 49.0747 57.6313 49.0693 57.5876 49.0504C57.5439 49.0316 57.5068 49.0002 57.4809 48.9602C57.4473 48.9047 57.4213 48.8447 57.4039 48.7821C57.3823 48.6775 57.3694 48.5712 57.3654 48.4644C57.3654 47.6413 57.4761 46.8904 57.5194 46.1635C57.5508 45.816 57.5508 45.4664 57.5194 45.119C57.5194 44.9649 57.4472 44.782 57.3606 44.7483C57.2999 44.7186 57.2332 44.7031 57.1656 44.7031C57.0981 44.7031 57.0314 44.7186 56.9707 44.7483C56.7686 44.9653 56.6435 45.2427 56.6145 45.5377C56.5423 45.8314 56.5134 46.1298 56.4605 46.4138C56.2583 47.5498 56.0465 48.5318 55.9454 49.3309C55.8979 49.6823 55.8979 50.0385 55.9454 50.3899C56.0128 50.6787 56.1139 50.9386 56.1668 51.1408C56.2198 51.343 56.2727 51.4874 56.3064 51.6222C56.3243 51.6738 56.3372 51.727 56.3449 51.781C56.3161 51.7344 56.2934 51.6842 56.2775 51.6318L56.1139 51.1504C56.0465 50.9434 55.9454 50.7124 55.8636 50.3947C55.8121 50.0339 55.8121 49.6676 55.8636 49.3068C55.955 48.4933 56.1476 47.521 56.3449 46.3801C56.3979 46.0961 56.4268 45.7977 56.4893 45.4896C56.5238 45.3269 56.5672 45.1662 56.6193 45.0082C56.6674 44.8332 56.7724 44.6791 56.9177 44.5702C57.0052 44.5238 57.1027 44.4996 57.2017 44.4996C57.3008 44.4996 57.3983 44.5238 57.4858 44.5702C57.5799 44.6295 57.6572 44.712 57.7103 44.8098C57.7634 44.9076 57.7905 45.0173 57.789 45.1286C57.8227 45.4904 57.8227 45.8546 57.789 46.2165C57.7553 46.9481 57.6398 47.7135 57.659 48.4933C57.6626 48.5856 57.6738 48.6773 57.6927 48.7677C57.6927 48.8591 57.7601 48.8977 57.7505 48.8784C57.7409 48.8591 57.842 48.8014 57.8805 48.7244C57.9279 48.6389 57.9697 48.5505 58.0056 48.4596C58.1482 48.0694 58.253 47.6664 58.3185 47.2562C58.4003 46.8374 58.4292 46.4042 58.487 45.9565C58.5447 45.5089 58.6025 45.066 58.6747 44.6087C58.7469 44.1514 58.8288 43.6941 58.9202 43.2272C58.9985 42.7396 59.1342 42.2629 59.3246 41.8072C59.363 41.7307 59.4212 41.6659 59.493 41.6194C59.557 41.5844 59.6249 41.5569 59.6952 41.5376C59.7759 41.5145 59.8607 41.509 59.9437 41.5215C60.0268 41.534 60.1062 41.5641 60.1766 41.6098C60.2883 41.6985 60.3805 41.8092 60.4476 41.9351C60.5147 42.061 60.5551 42.1993 60.5665 42.3415C60.6026 42.6034 60.6026 42.869 60.5665 43.1309C60.5424 43.3764 60.5183 43.6123 60.5039 43.8819C60.4101 44.9071 60.4198 45.9392 60.5328 46.9626C60.5534 47.0841 60.5856 47.2034 60.629 47.3188C60.6435 47.3654 60.6682 47.4081 60.7013 47.4439C60.7013 47.4439 60.7013 47.4439 60.7253 47.4439C60.7253 47.5547 60.7253 47.4439 60.7253 47.4873C60.7253 47.5306 60.7253 47.4873 60.7253 47.4488C60.7854 47.3683 60.8325 47.279 60.8649 47.184C60.9098 47.0653 60.9484 46.9401 60.9804 46.8085C61.1104 46.2983 61.1971 45.7592 61.2789 45.22C61.4426 44.137 61.5629 43.025 61.664 41.8986V41.9227C61.6212 41.5259 61.7073 41.1259 61.9095 40.7819C61.9867 40.6836 62.0926 40.6117 62.2125 40.5763C62.3324 40.541 62.4604 40.5438 62.5786 40.5845C62.6795 40.6405 62.7682 40.7163 62.8393 40.8072C62.9104 40.8982 62.9625 41.0025 62.9925 41.114C63.1467 41.7059 63.21 42.3178 63.1803 42.9288C63.1803 43.5256 63.1273 44.1129 63.0744 44.6954C63.0214 45.2778 62.9492 45.8506 62.8674 46.4186C62.8241 46.7074 62.7807 46.9866 62.7374 47.2706C62.6989 47.4488 62.7085 47.4536 62.7374 47.5065C62.7708 47.5291 62.8102 47.5411 62.8505 47.5411C62.8909 47.5411 62.9302 47.5291 62.9637 47.5065C63.0214 47.4632 63.0311 47.3814 63.0455 47.2225L63.0792 46.8037L63.1658 45.971C63.2236 45.4222 63.3006 44.8735 63.3921 44.3391C63.4811 43.8025 63.6098 43.2731 63.7772 42.7555C63.8646 42.4938 63.9825 42.2434 64.1286 42.0094C64.2081 41.8832 64.313 41.775 64.4366 41.6917C64.5052 41.642 64.5848 41.6095 64.6685 41.597C64.7523 41.5844 64.8378 41.5921 64.918 41.6194C64.9917 41.6649 65.054 41.7268 65.0999 41.8003C65.1458 41.8738 65.1742 41.9568 65.1827 42.043C65.2026 42.1785 65.2107 42.3154 65.2068 42.4522C65.2068 42.717 65.1731 42.9721 65.1442 43.2272C65.0768 43.7086 64.9854 44.2188 64.8987 44.705C64.692 45.6194 64.5918 46.5546 64.6003 47.4921C64.6139 47.5927 64.6397 47.6913 64.6773 47.7857C64.6948 47.8199 64.7157 47.8521 64.7399 47.882C64.7399 47.882 64.7399 47.882 64.7399 47.8483C64.848 47.6743 64.9276 47.4842 64.9758 47.2851C65.1009 46.8663 65.202 46.4427 65.3127 46.0287C65.412 45.6168 65.5325 45.2103 65.6737 44.8109C65.7404 44.613 65.8275 44.4227 65.9337 44.2429C65.9911 44.1449 66.0662 44.0584 66.1551 43.9878C66.2035 43.9458 66.2613 43.9161 66.3236 43.9011C66.3858 43.8914 66.4491 43.8914 66.5113 43.9011C66.577 43.9077 66.6397 43.9316 66.693 43.9706C66.7464 44.0095 66.7883 44.062 66.8146 44.1225C66.8548 44.2237 66.876 44.3314 66.8771 44.4402C66.8809 44.635 66.8696 44.8297 66.8434 45.0227C66.8001 45.3981 66.7279 45.7544 66.6605 46.1057C66.5209 46.7941 66.3669 47.4488 66.1792 48.0312C65.8181 49.225 65.4571 50.2358 65.1635 51.059C64.8699 51.8821 64.6195 52.5031 64.4511 52.9459C64.3692 53.1481 64.3018 53.3069 64.2537 53.4273C64.2322 53.506 64.2015 53.5819 64.1623 53.6535Z" fill="#EB996E"/>
<path d="M37.8848 67.2185C38.7994 70.4485 40.59 75.4306 42.5107 80.6967C42.5712 80.8664 42.6807 81.0142 42.8254 81.1216C42.9701 81.2289 43.1433 81.2909 43.3233 81.2997C43.5032 81.3084 43.6817 81.2636 43.8361 81.1708C43.9905 81.078 44.1139 80.9415 44.1906 80.7785L48.8983 70.8191C48.8983 70.8191 47.7623 62.636 47.8586 62.9296C47.9549 63.2232 38.1447 63.9886 38.1447 63.9886L37.8848 67.2185Z" fill="#3A7792"/>
<path d="M48.4938 65.6154C48.4938 65.6539 47.9065 65.8272 46.9775 66.1834C45.7634 66.6443 44.5936 67.2147 43.4828 67.8874C42.3735 68.5634 41.3264 69.3366 40.354 70.198C39.6078 70.8575 39.1794 71.3099 39.1506 71.2811C39.1217 71.2522 39.2324 71.1463 39.4153 70.9297C39.6732 70.6286 39.9463 70.3411 40.2336 70.068C41.1825 69.1544 42.2284 68.3473 43.3529 67.6612C44.4776 66.9835 45.6718 66.4284 46.9149 66.0053C47.2907 65.8759 47.6731 65.7666 48.0606 65.678C48.2007 65.6342 48.347 65.613 48.4938 65.6154Z" fill="#FAFAFA"/>
<path d="M50.3615 68.099C50.0557 67.7906 49.7904 67.4445 49.5721 67.0689C49.01 66.1924 48.5267 65.2678 48.128 64.3059C47.7291 63.3411 47.4181 62.3422 47.199 61.3214C47.0868 60.9039 47.0302 60.4734 47.0305 60.041C47.1741 60.4446 47.2883 60.8581 47.3723 61.2781C47.6302 62.2749 47.9517 63.254 48.335 64.2096C48.7354 65.1602 49.1953 66.0846 49.7117 66.9775C49.9521 67.337 50.1692 67.7117 50.3615 68.099Z" fill="#263238"/>
<path d="M53.5001 23.9969C52.6835 25.3429 52.1772 26.854 52.0182 28.4203C51.8591 29.9866 52.0513 31.5687 52.5807 33.0513C53.0621 34.3751 53.8323 35.6796 53.6927 37.0852C53.5531 38.4907 52.4556 39.8819 52.8407 41.2682C53.0717 42.0913 53.7745 42.7123 54.0489 43.5114C54.3618 44.4741 54.0489 45.4898 53.8804 46.4766C53.4953 48.9989 54.304 51.5357 54.5014 54.0773C54.6987 56.6189 54.02 59.5985 51.748 60.7056C51.0596 61.0426 50.1595 61.1389 49.5867 60.6238C48.855 59.974 49.0572 58.7994 49.2593 57.8367C51.2522 48.2095 45.0955 38.8133 46.5011 29.0705C46.7274 27.5109 47.5986 24.8634 48.7202 23.7755C49.8418 22.6876 52.9562 22.8128 54.0152 23.968" fill="#263238"/>
<path d="M44.0173 51.926C44.0173 51.926 44.311 51.5794 44.7442 50.8959C45.3521 49.9305 45.778 48.8619 46.0005 47.743C46.1458 46.9722 46.1959 46.1865 46.1498 45.4035C46.0656 44.4931 46.0318 43.5787 46.0487 42.6646C46.0774 42.164 46.1696 41.669 46.3231 41.1916C46.499 40.6998 46.7214 40.2259 46.9873 39.7764C47.5265 38.8666 48.2052 38.0194 48.831 37.1145C49.4736 36.2592 49.9205 35.2733 50.1403 34.2263C50.247 33.2401 50.1901 32.2431 49.9718 31.2755C49.7897 30.3763 49.7185 29.458 49.76 28.5414C49.8173 27.7407 49.9791 26.951 50.2414 26.1924C50.6091 25.0915 51.1879 24.0728 51.9454 23.1935C52.1466 22.9544 52.3654 22.7307 52.6 22.5244C52.6744 22.4451 52.7585 22.3756 52.8503 22.3174C52.8503 22.3174 52.5278 22.6303 52.0176 23.2801C50.8023 24.7886 50.0917 26.6408 49.9862 28.5751C49.954 29.4767 50.0332 30.3789 50.2221 31.2611C50.4517 32.2547 50.5135 33.2797 50.405 34.2937C50.1768 35.3698 49.7169 36.3834 49.0572 37.2637C48.4266 38.1831 47.7479 39.0255 47.2184 39.9112C46.958 40.344 46.7418 40.802 46.5734 41.2783C46.4211 41.7361 46.3289 42.2118 46.299 42.6935C46.2777 43.5975 46.3034 44.5021 46.376 45.4035C46.4142 46.2023 46.3528 47.0027 46.1931 47.7863C45.9519 48.9205 45.4943 49.9975 44.8453 50.9585C44.6696 51.2182 44.4766 51.4659 44.2676 51.6998C44.1927 51.7841 44.1088 51.86 44.0173 51.926Z" fill="#455A64"/>
<path d="M39.4539 52.6429C39.4926 52.5306 39.5426 52.4226 39.6031 52.3204C39.7234 52.0941 39.8775 51.7957 40.0844 51.4202C40.4888 50.6356 41.0905 49.4948 41.6826 48.0507C42.4068 46.3641 42.8085 44.5566 42.8667 42.722C42.867 42.1934 42.8268 41.6656 42.7464 41.1431C42.6645 40.604 42.5394 40.0601 42.4576 39.4921C42.3575 38.9045 42.3705 38.3033 42.4961 37.7206C42.6589 37.1225 42.9936 36.5852 43.4588 36.1755C44.3638 35.3523 45.4564 34.8132 46.0245 33.8457C46.5166 32.8863 46.8066 31.8361 46.8765 30.7601C46.9783 29.7738 47.2015 28.8037 47.5407 27.872C48.3037 25.8716 49.6632 24.1542 51.435 22.9524C51.7174 22.7623 52.0117 22.5903 52.3159 22.4374C52.4186 22.3759 52.5285 22.3274 52.6432 22.293C52.6432 22.293 52.21 22.524 51.4927 23.0343C50.4818 23.7556 49.6067 24.6504 48.9078 25.6769C48.4232 26.3807 48.0286 27.1423 47.7333 27.9442C47.4089 28.8781 47.1988 29.8479 47.1075 30.8323C46.9631 31.8576 46.8476 33.0033 46.2314 34.019C45.6153 35.0346 44.4889 35.6123 43.6273 36.4258C43.1882 36.8068 42.8716 37.3093 42.7175 37.8699C42.6005 38.4211 42.589 38.9895 42.6838 39.545C42.7608 40.0986 42.8812 40.6473 42.963 41.1913C43.0463 41.7263 43.0849 42.2672 43.0785 42.8086C43.0131 44.6769 42.5899 46.5152 41.8318 48.224C41.3394 49.3788 40.7801 50.5039 40.1566 51.5935L39.6464 52.3493C39.5928 52.4537 39.5282 52.5521 39.4539 52.6429Z" fill="#455A64"/>
<path d="M198.718 188.662C198.74 188.592 198.769 188.524 198.804 188.46C198.872 188.316 198.963 188.123 199.074 187.878C199.409 187.126 199.678 186.346 199.878 185.548C200.407 183.478 200.595 180.315 199.81 176.561C199.384 174.513 198.826 172.495 198.14 170.52C197.437 168.378 196.614 166.105 195.945 163.646C195.19 161.08 194.824 158.416 194.862 155.742C194.963 152.945 195.791 150.158 196.701 147.376C197.611 144.593 198.549 141.883 198.828 139.14C199.139 136.508 198.61 133.847 197.317 131.534C196.113 129.315 194.597 127.414 193.466 125.45C192.407 123.625 191.627 121.652 191.151 119.596C190.468 116.62 190.417 113.534 191.001 110.537C191.214 109.44 191.537 108.368 191.964 107.336C191.951 107.408 191.932 107.479 191.906 107.548L191.714 108.159C191.55 108.698 191.334 109.507 191.127 110.566C190.588 113.549 190.669 116.611 191.362 119.563C191.845 121.593 192.629 123.54 193.687 125.339C194.819 127.264 196.34 129.19 197.572 131.419C198.896 133.778 199.441 136.496 199.127 139.183C198.843 141.965 197.899 144.704 196.99 147.482C196.08 150.259 195.261 153.017 195.16 155.766C195.117 158.413 195.474 161.052 196.219 163.593C196.879 166.038 197.688 168.31 198.385 170.462C199.065 172.448 199.612 174.478 200.022 176.537C200.788 180.32 200.571 183.516 200.022 185.591C199.807 186.391 199.519 187.169 199.161 187.916L198.862 188.489C198.821 188.552 198.772 188.61 198.718 188.662Z" fill="#263238"/>
<path d="M195.006 127.39C195.006 127.39 192.705 120.02 196.835 115.707C196.867 115.672 196.909 115.647 196.954 115.634C196.999 115.622 197.048 115.622 197.093 115.635C197.138 115.648 197.179 115.673 197.211 115.708C197.243 115.743 197.265 115.786 197.273 115.832C197.495 117.05 197.769 120.757 195.006 127.39Z" fill="#3A7792"/>
<path d="M196.388 118.161C196.381 118.618 196.329 119.072 196.234 119.519C196.08 120.457 195.902 121.555 195.709 122.768C195.517 123.981 195.338 125.083 195.189 126.017C195.147 126.472 195.067 126.923 194.949 127.365C194.903 126.91 194.913 126.451 194.977 125.998C195.054 125.155 195.204 124 195.411 122.729C195.618 121.458 195.844 120.322 196.022 119.49C196.092 119.034 196.215 118.588 196.388 118.161Z" fill="#263238"/>
<path d="M197.711 144.772C197.711 144.772 199.122 137.181 204.792 135.303C204.837 135.288 204.885 135.285 204.931 135.295C204.978 135.305 205.02 135.328 205.054 135.361C205.088 135.394 205.112 135.436 205.124 135.482C205.135 135.528 205.134 135.576 205.12 135.621C204.744 136.791 203.257 140.194 197.711 144.772Z" fill="#3A7792"/>
<path d="M203.247 137.253C203.027 137.654 202.769 138.033 202.477 138.384L200.489 141.008L198.515 143.641C198.267 144.023 197.985 144.382 197.673 144.714C197.849 144.29 198.075 143.89 198.347 143.52C198.828 142.813 199.483 141.86 200.272 140.834C201.062 139.809 201.779 138.909 202.323 138.254C202.593 137.887 202.903 137.552 203.247 137.253Z" fill="#263238"/>
<path d="M196.181 163.8C196.181 163.8 195.324 156.127 200.205 152.685C200.242 152.656 200.288 152.638 200.335 152.633C200.383 152.628 200.431 152.638 200.473 152.659C200.516 152.681 200.551 152.715 200.575 152.756C200.599 152.797 200.611 152.844 200.609 152.892C200.595 154.129 200.157 157.816 196.181 163.8Z" fill="#3A7792"/>
<path d="M199.31 155.005C199.22 155.453 199.083 155.89 198.9 156.309L197.764 159.4C197.341 160.555 196.961 161.6 196.638 162.49C196.515 162.928 196.354 163.355 196.157 163.766C196.201 163.309 196.301 162.86 196.455 162.427C196.691 161.619 197.057 160.502 197.505 159.299C197.952 158.095 198.39 157.012 198.722 156.237C198.876 155.807 199.072 155.395 199.31 155.005Z" fill="#263238"/>
<path d="M200.451 182.948C200.451 182.948 199.873 175.246 204.869 171.982C204.909 171.956 204.954 171.94 205.002 171.938C205.049 171.936 205.096 171.946 205.138 171.969C205.179 171.992 205.214 172.027 205.237 172.068C205.26 172.109 205.271 172.156 205.269 172.204C205.211 173.441 204.643 177.114 200.451 182.948Z" fill="#3A7792"/>
<path d="M203.878 174.274C203.77 174.719 203.617 175.151 203.42 175.564C203.064 176.441 202.641 177.49 202.174 178.611C201.707 179.733 201.298 180.778 200.941 181.659C200.799 182.093 200.617 182.514 200.397 182.915C200.461 182.46 200.579 182.014 200.749 181.586C201.014 180.787 201.418 179.69 201.909 178.501C202.4 177.312 202.872 176.243 203.233 175.483C203.404 175.058 203.62 174.653 203.878 174.274Z" fill="#263238"/>
<path d="M191.694 120.915C191.694 120.915 184.869 117.334 184.719 111.37C184.719 111.323 184.731 111.277 184.755 111.236C184.778 111.196 184.813 111.163 184.853 111.14C184.894 111.117 184.941 111.106 184.987 111.108C185.034 111.109 185.08 111.123 185.119 111.148C186.135 111.851 188.955 114.277 191.694 120.915Z" fill="#3A7792"/>
<path d="M186.14 113.42C186.46 113.747 186.746 114.107 186.992 114.493C187.55 115.259 188.2 116.164 188.917 117.16L190.843 119.817C191.136 120.167 191.397 120.542 191.622 120.939C191.27 120.646 190.955 120.311 190.684 119.942C190.14 119.297 189.427 118.373 188.676 117.329C187.925 116.284 187.266 115.316 186.814 114.609C186.548 114.237 186.322 113.839 186.14 113.42Z" fill="#263238"/>
<path d="M199.045 136.738C199.045 136.738 191.998 133.585 191.502 127.63C191.498 127.584 191.507 127.537 191.528 127.495C191.549 127.453 191.581 127.417 191.621 127.392C191.661 127.367 191.707 127.354 191.754 127.354C191.801 127.353 191.847 127.366 191.887 127.39C192.941 128.03 195.902 130.273 199.045 136.738Z" fill="#3A7792"/>
<path d="M193.052 129.594C193.392 129.899 193.698 130.24 193.967 130.609L196.056 133.156L198.15 135.693C198.463 136.025 198.747 136.384 198.997 136.766C198.627 136.493 198.291 136.178 197.996 135.827C197.418 135.211 196.648 134.335 195.834 133.339C195.021 132.342 194.308 131.413 193.808 130.735C193.514 130.383 193.261 130.001 193.052 129.594Z" fill="#263238"/>
<path d="M194.977 154.399C194.977 154.399 190.164 148.382 192.412 142.846C192.43 142.803 192.459 142.765 192.497 142.737C192.535 142.709 192.579 142.692 192.626 142.688C192.673 142.684 192.72 142.693 192.762 142.714C192.804 142.735 192.839 142.768 192.864 142.807C193.533 143.852 195.136 147.202 194.977 154.399Z" fill="#3A7792"/>
<path d="M192.898 145.291C193.062 145.719 193.182 146.162 193.254 146.615C193.456 147.539 193.692 148.627 193.952 149.83C194.212 151.034 194.457 152.117 194.66 153.041C194.788 153.48 194.877 153.929 194.924 154.384C194.713 153.975 194.551 153.542 194.443 153.094C194.207 152.28 193.918 151.168 193.649 149.888C193.379 148.608 193.167 147.481 193.033 146.653C192.938 146.205 192.893 145.749 192.898 145.291Z" fill="#263238"/>
<path d="M199.791 175.15C199.791 175.15 192.797 171.882 192.402 165.923C192.397 165.875 192.406 165.827 192.427 165.784C192.449 165.742 192.481 165.706 192.522 165.681C192.563 165.656 192.609 165.642 192.657 165.643C192.705 165.643 192.752 165.656 192.792 165.682C193.827 166.341 196.749 168.637 199.791 175.15Z" fill="#3A7792"/>
<path d="M193.904 167.905C194.235 168.221 194.534 168.567 194.799 168.94L196.845 171.515L198.896 174.091C199.204 174.428 199.481 174.792 199.723 175.179C199.365 174.898 199.042 174.574 198.761 174.216C198.188 173.59 197.437 172.7 196.638 171.689C195.839 170.678 195.146 169.739 194.655 169.051C194.361 168.7 194.109 168.315 193.904 167.905Z" fill="#263238"/>
<path d="M213.707 144.805C213.707 144.805 213.707 144.862 213.707 144.973C213.707 145.084 213.707 145.267 213.707 145.455C213.707 145.936 213.659 146.547 213.625 147.327C213.539 148.973 213.409 151.269 213.26 154.013C212.778 156.805 211.334 159.9 209.409 162.909C208.008 165.123 206.52 167.135 205.269 169.008C204.127 170.651 203.1 172.372 202.198 174.158C201.6 175.365 201.117 176.625 200.754 177.922C200.633 178.38 200.537 178.741 200.484 178.986C200.461 179.114 200.428 179.24 200.383 179.362C200.385 179.232 200.401 179.103 200.431 178.977C200.465 178.726 200.537 178.36 200.648 177.894C200.972 176.574 201.431 175.292 202.02 174.067C202.914 172.266 203.939 170.534 205.086 168.882C206.347 166.996 207.806 164.979 209.202 162.779C211.103 159.785 212.518 156.738 213.053 153.989C213.245 151.25 213.404 148.959 213.534 147.313C213.596 146.533 213.649 145.912 213.688 145.445C213.688 145.252 213.722 145.089 213.736 144.964C213.72 144.912 213.71 144.859 213.707 144.805Z" fill="#263238"/>
<path d="M209.543 162.356C209.543 162.356 212.504 155.231 208.783 150.557C208.754 150.52 208.715 150.491 208.671 150.474C208.627 150.458 208.579 150.454 208.532 150.463C208.486 150.472 208.443 150.493 208.408 150.525C208.373 150.557 208.348 150.599 208.335 150.644C208.003 151.838 207.392 155.501 209.543 162.356Z" fill="#3A7792"/>
<path d="M209.004 153.046C209.132 153.485 209.211 153.937 209.24 154.394C209.346 155.231 209.462 156.391 209.553 157.677C209.644 158.962 209.688 160.127 209.688 160.974C209.717 161.431 209.689 161.89 209.606 162.341C209.523 161.892 209.483 161.436 209.486 160.979C209.423 160.016 209.346 158.923 209.264 157.696C209.182 156.468 209.105 155.356 209.038 154.413C208.982 153.959 208.971 153.502 209.004 153.046Z" fill="#263238"/>
<g opacity="0.3">
<path d="M209.543 162.356C209.543 162.356 212.504 155.231 208.783 150.557C208.754 150.52 208.715 150.491 208.671 150.474C208.627 150.458 208.579 150.454 208.532 150.463C208.486 150.472 208.443 150.493 208.408 150.525C208.373 150.557 208.348 150.599 208.335 150.644C208.003 151.838 207.392 155.501 209.543 162.356Z" fill="black"/>
</g>
<path d="M200.374 179.535C200.374 179.535 202.747 172.189 198.655 167.838C198.623 167.803 198.583 167.778 198.538 167.765C198.492 167.752 198.445 167.752 198.399 167.764C198.354 167.776 198.313 167.801 198.281 167.835C198.249 167.87 198.227 167.912 198.217 167.958C197.986 169.171 197.673 172.878 200.374 179.535Z" fill="#3A7792"/>
<path d="M199.079 170.283C199.245 170.711 199.362 171.157 199.425 171.612C199.598 172.435 199.805 173.585 200.003 174.856C200.2 176.127 200.335 177.287 200.407 178.129C200.47 178.584 200.478 179.045 200.431 179.501C200.317 179.059 200.24 178.608 200.2 178.153C200.061 177.215 199.897 176.117 199.719 174.899C199.541 173.682 199.367 172.584 199.237 171.645C199.14 171.198 199.087 170.741 199.079 170.283Z" fill="#263238"/>
<g opacity="0.3">
<path d="M200.374 179.536C200.374 179.536 202.747 172.19 198.655 167.839C198.623 167.804 198.583 167.779 198.538 167.766C198.492 167.753 198.445 167.753 198.399 167.765C198.354 167.777 198.313 167.802 198.281 167.836C198.249 167.871 198.227 167.913 198.217 167.959C197.986 169.172 197.673 172.879 200.374 179.536Z" fill="black"/>
</g>
<path d="M213.317 153.648C213.317 153.648 219.638 149.219 219.002 143.279C218.997 143.233 218.98 143.188 218.951 143.151C218.923 143.114 218.884 143.085 218.84 143.068C218.797 143.051 218.749 143.046 218.703 143.055C218.657 143.063 218.614 143.084 218.579 143.116C217.659 143.944 215.195 146.697 213.317 153.648Z" fill="#3A7792"/>
<g opacity="0.3">
<path d="M213.317 153.648C213.317 153.648 219.638 149.219 219.002 143.279C218.997 143.233 218.98 143.188 218.951 143.151C218.923 143.114 218.884 143.085 218.84 143.068C218.797 143.051 218.749 143.046 218.703 143.055C218.657 143.063 218.614 143.084 218.579 143.116C217.659 143.944 215.195 146.697 213.317 153.648Z" fill="black"/>
</g>
<path d="M217.857 145.498C217.731 145.939 217.555 146.364 217.332 146.764C216.971 147.525 216.446 148.564 215.835 149.7C215.223 150.836 214.636 151.842 214.184 152.555C213.961 152.955 213.691 153.326 213.38 153.662C213.549 153.238 213.759 152.832 214.006 152.449C214.458 151.616 214.992 150.644 215.58 149.561L217.149 146.673C217.346 146.259 217.583 145.866 217.857 145.498Z" fill="#263238"/>
<path d="M202.925 172.252C202.925 172.252 210.549 171.063 212.59 165.451C212.607 165.407 212.611 165.359 212.602 165.313C212.594 165.267 212.573 165.225 212.541 165.19C212.51 165.155 212.47 165.13 212.425 165.116C212.38 165.103 212.332 165.102 212.287 165.114C211.098 165.47 207.652 166.842 202.925 172.252Z" fill="#3A7792"/>
<g opacity="0.3">
<path d="M202.925 172.252C202.925 172.252 210.55 171.063 212.591 165.451C212.607 165.407 212.611 165.359 212.603 165.313C212.594 165.267 212.573 165.225 212.542 165.19C212.51 165.155 212.47 165.13 212.425 165.116C212.38 165.103 212.333 165.102 212.287 165.114C211.098 165.47 207.652 166.842 202.925 172.252Z" fill="black"/>
</g>
<path d="M210.588 166.938C210.279 167.276 209.933 167.578 209.558 167.839C208.898 168.368 207.969 169.071 206.925 169.822C205.88 170.573 204.903 171.213 204.181 171.656C203.805 171.918 203.397 172.133 202.968 172.296C203.31 171.992 203.679 171.719 204.07 171.483L206.756 169.586L209.438 167.661C209.794 167.38 210.18 167.138 210.588 166.938Z" fill="#263238"/>
<path d="M195.647 186.289L193.423 201.259H207.286L205.49 186.289H195.647Z" fill="#455A64"/>
<path d="M206.049 190.924C206.049 191.006 203.546 191.069 200.46 191.069C197.375 191.069 194.867 191.006 194.867 190.924C196.728 190.782 198.594 190.733 200.46 190.78C202.324 190.733 204.19 190.782 206.049 190.924Z" fill="#263238"/>
<path d="M206.318 192.118C206.318 192.2 203.733 192.262 200.542 192.262C197.351 192.262 194.766 192.2 194.766 192.118C194.766 192.036 197.351 191.974 200.542 191.974C203.733 191.974 206.318 192.036 206.318 192.118Z" fill="#263238"/>
<path d="M152.41 41.0567C152.41 41.0567 152.281 41.0567 152.03 41.0567C151.665 41.035 151.298 41.035 150.933 41.0567C149.519 41.1395 148.13 41.4652 146.827 42.0195C144.761 42.8854 142.963 44.2861 141.618 46.0774C140.789 47.1959 140.172 48.4571 139.799 49.7983C138.956 52.9932 139.411 56.3916 141.065 59.2523C141.515 60.0443 142.065 60.7754 142.701 61.428C143.343 62.1194 144.09 62.7043 144.916 63.1609C145.763 63.6375 146.722 63.8785 147.693 63.8589C148.695 63.8469 149.655 63.4585 150.384 62.771C150.736 62.402 151.012 61.9672 151.196 61.4915C151.381 61.0157 151.469 60.5084 151.457 59.9984C151.45 58.9388 151.114 57.9077 150.495 57.0476C149.248 55.2906 147.226 54.1113 145.075 53.4759C142.843 52.8493 140.487 52.8161 138.239 53.3796C137.092 53.6781 135.986 54.1179 134.947 54.6889C133.898 55.2809 132.945 56.0292 132.121 56.908C131.924 57.1343 131.697 57.3412 131.519 57.5916L130.975 58.3232C130.645 58.8388 130.349 59.3759 130.09 59.931C129.575 61.0579 129.223 62.2525 129.045 63.4786C128.696 65.9282 129.029 68.4266 130.008 70.6991C130.944 72.9195 132.573 74.7772 134.653 75.9941C135.661 76.5702 136.787 76.9108 137.946 76.9905C139.082 77.054 140.211 76.7829 141.195 76.2107C142.171 75.6712 142.942 74.8254 143.39 73.8039C143.812 72.7971 143.841 71.6686 143.472 70.6413C143.091 69.6502 142.469 68.7699 141.662 68.0804C140.879 67.4037 139.976 66.8796 139 66.5353C137.096 65.9351 135.06 65.9 133.137 66.4342C131.337 66.9217 129.685 67.8423 128.323 69.1154C127.083 70.3036 126.138 71.7659 125.565 73.3851C124.562 76.1945 124.608 79.2715 125.695 82.0496C126.542 84.1235 127.906 85.9463 129.656 87.3446C130.759 88.229 131.987 88.9444 133.3 89.4674C133.753 89.6359 134.104 89.761 134.345 89.8284L134.701 89.9439C134.701 89.9439 134.576 89.9199 134.335 89.8525C133.98 89.7573 133.629 89.6432 133.286 89.5107C131.956 89.0107 130.711 88.3059 129.599 87.4216C127.819 86.0243 126.428 84.1926 125.56 82.1025C124.454 79.2983 124.398 76.1891 125.401 73.3466C125.976 71.7029 126.931 70.2183 128.188 69.0143C129.569 67.7156 131.246 66.7738 133.074 66.2705C135.037 65.7228 137.118 65.7562 139.062 66.3668C140.067 66.7172 140.996 67.2545 141.801 67.9505C142.64 68.6625 143.286 69.5748 143.679 70.6028C144.074 71.676 144.057 72.8581 143.63 73.9194C143.156 74.9811 142.35 75.8609 141.334 76.4273C140.315 77.0216 139.144 77.306 137.965 77.2456C136.778 77.1628 135.626 76.8105 134.595 76.2155C132.468 74.9816 130.798 73.0918 129.835 70.829C128.835 68.515 128.491 65.9701 128.843 63.4738C129.027 62.2229 129.387 61.0042 129.912 59.854C130.176 59.2871 130.478 58.7387 130.817 58.2125L131.375 57.4664C131.553 57.2113 131.784 56.985 131.986 56.7636C132.829 55.8681 133.803 55.1054 134.874 54.5012C135.938 53.9193 137.07 53.473 138.244 53.1727C140.535 52.5986 142.936 52.6334 145.209 53.2737C147.404 53.9284 149.46 55.127 150.755 56.9465C151.405 57.8425 151.759 58.9199 151.765 60.0273C151.789 61.117 151.379 62.1715 150.625 62.9587C149.854 63.6817 148.841 64.0889 147.785 64.0996C146.774 64.1225 145.776 63.8713 144.896 63.3727C144.051 62.9065 143.287 62.3067 142.634 61.5965C141.99 60.9293 141.432 60.1838 140.973 59.3774C139.29 56.4636 138.833 53.0008 139.703 49.7502C140.088 48.3934 140.719 47.1191 141.565 45.9907C142.935 44.1858 144.763 42.7812 146.86 41.9232C148.174 41.3796 149.574 41.0732 150.995 41.0182C151.364 40.9939 151.734 40.9939 152.102 41.0182L152.41 41.0567Z" fill="#263238"/>
<path d="M168.483 89.2217H100.991V141.276H168.483V89.2217Z" fill="#3A7792"/>
<path d="M100.991 89.2217L113.459 100.851H179.805L168.483 89.2217H100.991Z" fill="#3A7792"/>
<path d="M100.991 89.2219L168.503 89.1016H168.556L168.594 89.1353L179.8 100.645L179.916 100.765L180.123 100.977H179.824L113.478 100.924H113.449L100.991 89.2219L113.507 100.775H113.454L179.8 100.726L179.714 100.938L179.593 100.818L168.392 89.3085L168.479 89.3471L100.991 89.2219Z" fill="#263238"/>
<path d="M121.266 113.228C120.901 113.241 120.555 113.397 120.303 113.663C120.052 113.928 119.915 114.282 119.921 114.648C119.928 115.014 120.078 115.362 120.339 115.619C120.6 115.875 120.951 116.019 121.317 116.019C121.683 116.019 122.034 115.875 122.295 115.619C122.556 115.362 122.706 115.014 122.713 114.648C122.719 114.282 122.582 113.928 122.33 113.663C122.079 113.397 121.733 113.241 121.367 113.228" fill="#263238"/>
<path d="M137.214 113.228C136.85 113.241 136.506 113.398 136.256 113.662C136.005 113.927 135.869 114.28 135.876 114.644C135.883 115.008 136.033 115.355 136.293 115.611C136.553 115.866 136.902 116.009 137.267 116.009C137.631 116.009 137.981 115.866 138.241 115.611C138.501 115.355 138.651 115.008 138.658 114.644C138.665 114.28 138.528 113.927 138.278 113.662C138.028 113.398 137.684 113.241 137.32 113.228" fill="#263238"/>
<path d="M137.305 125.685C137.027 124.622 136.575 123.612 135.967 122.696C135.291 121.717 134.423 120.885 133.416 120.251C132.201 119.444 130.783 118.995 129.325 118.955C127.868 118.915 126.428 119.286 125.17 120.024C124.132 120.604 123.22 121.387 122.489 122.325C121.831 123.207 121.325 124.193 120.992 125.242C120.996 125.164 121.009 125.087 121.03 125.011C121.077 124.795 121.136 124.581 121.209 124.371C121.472 123.598 121.857 122.872 122.349 122.219C123.075 121.237 123.998 120.417 125.059 119.813C126.349 119.043 127.832 118.655 129.334 118.696C130.836 118.737 132.295 119.205 133.541 120.044C134.566 120.702 135.441 121.568 136.112 122.585C136.569 123.264 136.915 124.012 137.137 124.8C137.196 125.013 137.243 125.23 137.276 125.449C137.293 125.527 137.303 125.606 137.305 125.685Z" fill="#263238"/>
<path opacity="0.5" d="M101.146 89.7949L113.083 104.929H168.483V100.852H113.459L101.146 89.7949Z" fill="black"/>
<path d="M155.173 141.161C155.106 141.161 155.048 132.107 155.048 120.944C155.048 109.781 155.106 100.727 155.173 100.727C155.241 100.727 155.303 109.776 155.303 120.944C155.303 132.111 155.246 141.161 155.173 141.161Z" fill="#263238"/>
<path d="M165.773 129.358H159.823V136.083H165.773V129.358Z" fill="#F5F5F5"/>
<path d="M100.991 89.2217L87.1377 100.851H100.991V89.2217Z" fill="#3A7792"/>
<g opacity="0.4">
<path d="M100.991 89.2227L87.1377 100.852H100.991V89.2227Z" fill="black"/>
</g>
<path d="M170.476 141.276H92.8755V201.129H170.476V141.276Z" fill="#3A7792"/>
<path opacity="0.3" d="M170.476 141.276H92.8755V201.129H170.476V141.276Z" fill="black"/>
<path d="M151.034 200.706C150.966 200.706 150.909 187.367 150.909 170.915C150.909 154.462 150.966 141.118 151.034 141.118C151.101 141.118 151.159 154.457 151.159 170.915C151.159 187.372 151.101 200.706 151.034 200.706Z" fill="#263238"/>
<path d="M163.896 187.507H157.946V194.231H163.896V187.507Z" fill="#F5F5F5"/>
<path d="M125.363 141.436H116.549V154.206H125.363V141.436Z" fill="#263238"/>
<path d="M125.363 188.181H116.549V200.951H125.363V188.181Z" fill="#263238"/>
<path d="M169.802 141.276H169.6H169.017L166.779 141.3L158.533 141.339L131.341 141.401L104.139 141.368L95.8984 141.329L93.6601 141.305H93.0728H92.8755H93.0728H93.6601L95.8984 141.281L104.139 141.243L131.341 141.204L158.533 141.243L166.779 141.281L169.017 141.305H169.6L169.802 141.276Z" fill="#263238"/>
<path d="M36.8112 37.653L28.3584 35.5735H28.421C26.2385 36.9618 23.7147 37.7198 21.1284 37.7637C19.5972 37.7707 18.0737 37.5484 16.6084 37.1043C14.0322 36.2771 11.7467 34.7297 10.0219 32.645C8.29712 30.5602 7.20522 28.0253 6.87522 25.3398C6.61605 23.3087 6.80684 21.2455 7.43408 19.2965C8.06131 17.3474 9.10962 15.5601 10.5047 14.0614C11.2381 13.2559 12.06 12.5357 12.9548 11.9146C13.4073 11.6306 13.8598 11.3369 14.3315 11.0914L15.0488 10.7449L15.405 10.5716L15.7804 10.4368C17.7133 9.68755 19.7868 9.37046 21.8552 9.50775C24.6274 9.68775 27.2842 10.6843 29.4909 12.3719C31.6975 14.0594 33.3553 16.3624 34.2551 18.9906C34.7551 20.4608 35.0183 22.0011 35.0349 23.5539C35.047 26.1345 34.3457 28.6683 33.0084 30.8754V30.7984C35.3575 35.0392 36.5416 37.1813 36.8064 37.653C36.532 37.1717 35.3045 35.0681 32.8736 30.8706V30.8321V30.7936C34.1629 28.6078 34.8288 26.1107 34.7991 23.5732C34.7767 22.0452 34.5102 20.5307 34.0096 19.0869C33.1195 16.5124 31.4897 14.2578 29.3243 12.6052C27.1589 10.9527 24.554 9.9757 21.836 9.79657C19.8082 9.66442 17.7761 9.97655 15.8815 10.7112L15.5157 10.8411L15.1643 11.0144L14.4615 11.3514C13.9801 11.5969 13.5565 11.8809 13.1089 12.1601C12.2313 12.7646 11.424 13.4653 10.7021 14.2492C9.33249 15.7204 8.30307 17.4747 7.68669 19.388C7.0703 21.3012 6.88202 23.3265 7.13516 25.3205C7.58143 28.9737 9.45569 32.3017 12.3483 34.5771C13.6415 35.6018 15.1092 36.3846 16.6806 36.8877C18.1196 37.3325 19.6174 37.5581 21.1236 37.5568C23.6789 37.5294 26.1772 36.7982 28.344 35.4436H28.3729H28.4258L36.8112 37.653Z" fill="#263238"/>
<path d="M19.7613 17.3535L20.1897 24.4296C20.2068 24.7087 20.3253 24.9719 20.5231 25.1696C20.7208 25.3673 20.984 25.4859 21.2631 25.503C21.5568 25.5196 21.8457 25.4231 22.0704 25.2333C22.2951 25.0435 22.4386 24.7748 22.4713 24.4825L23.2559 17.3921C23.2696 17.2652 23.2561 17.1369 23.2165 17.0156C23.1768 16.8944 23.1117 16.7829 23.0257 16.6887C22.9397 16.5945 22.8346 16.5196 22.7175 16.4691C22.6003 16.4186 22.4737 16.3935 22.3462 16.3956H20.6277C20.5071 16.3992 20.3885 16.4271 20.279 16.4777C20.1695 16.5283 20.0713 16.6005 19.9904 16.69C19.9094 16.7794 19.8474 16.8843 19.8081 16.9984C19.7687 17.1124 19.7528 17.2332 19.7613 17.3535Z" fill="#3A7792"/>
<path d="M23.1309 29.4556C23.0232 29.7788 22.822 30.0629 22.5529 30.2719C22.2838 30.4808 21.9588 30.6053 21.619 30.6297C21.2791 30.654 20.9397 30.577 20.6436 30.4085C20.3475 30.2399 20.108 29.9874 19.9553 29.6828C19.8027 29.3782 19.7438 29.0352 19.786 28.6971C19.8283 28.359 19.9698 28.041 20.1927 27.7834C20.4156 27.5257 20.7099 27.3399 21.0384 27.2494C21.3668 27.1589 21.7148 27.1678 22.0382 27.275C22.2532 27.3463 22.4521 27.4593 22.6234 27.6075C22.7947 27.7557 22.9352 27.9362 23.0366 28.1387C23.1381 28.3413 23.1987 28.5618 23.2149 28.7878C23.231 29.0137 23.2025 29.2407 23.1309 29.4556Z" fill="#3A7792"/>
</svg>
