<svg width="36" height="35" viewBox="0 0 36 35" fill="none" xmlns="http://www.w3.org/2000/svg">
<path d="M5.5 5C5.5 3.67392 6.02678 2.40215 6.96447 1.46447C7.90215 0.526784 9.17392 0 10.5 0C11.8261 0 13.0979 0.526784 14.0355 1.46447C14.9732 2.40215 15.5 3.67392 15.5 5C15.5 6.32608 14.9732 7.59785 14.0355 8.53553C13.0979 9.47322 11.8261 10 10.5 10C9.17392 10 7.90215 9.47322 6.96447 8.53553C6.02678 7.59785 5.5 6.32608 5.5 5ZM22.4475 8.96L22.5525 9.04C23.6132 9.82627 24.9419 10.161 26.2486 9.97128C27.5552 9.78151 28.7338 9.08261 29.527 8.02709C30.3203 6.97157 30.6638 5.64513 30.4827 4.33725C30.3015 3.02937 29.6104 1.84623 28.5602 1.04603C27.5099 0.245831 26.1858 -0.106459 24.8767 0.0660428C23.5677 0.238544 22.38 0.921831 21.5729 1.96679C20.7658 3.01174 20.4047 4.33353 20.5686 5.64369C20.7325 6.95385 21.4079 8.14601 22.4475 8.96ZM13.67 12.5C13.984 11.9054 14.4147 11.3803 14.9364 10.956C15.458 10.5317 16.0599 10.217 16.706 10.0307C17.3521 9.84437 18.0291 9.79029 18.6965 9.87168C19.364 9.95307 20.0082 10.1683 20.5906 10.5044C21.173 10.8405 21.6816 11.2906 22.086 11.8278C22.4904 12.365 22.7823 12.9783 22.9442 13.6309C23.1061 14.2835 23.1347 14.9621 23.0283 15.626C22.922 16.29 22.6827 16.9256 22.325 17.495C21.6368 18.5903 20.5509 19.3763 19.2953 19.6878C18.0398 19.9993 16.7125 19.8121 15.5921 19.1655C14.4717 18.5189 13.6455 17.4632 13.2871 16.2203C12.9287 14.9773 13.0659 13.6439 13.67 12.5ZM4.25 12.5H10.925C10.4807 13.7689 10.3841 15.1336 10.6452 16.4524C10.9063 17.7712 11.5157 18.9962 12.41 20H11.75C10.4611 19.9998 9.20362 20.398 8.14971 21.14C7.0958 21.882 6.29695 22.9315 5.8625 24.145C5.02333 23.8079 4.23762 23.3506 3.53 22.7875C1.65 21.275 0.5 19.04 0.5 16.25C0.5 15.2554 0.895088 14.3016 1.59835 13.5983C2.30161 12.8951 3.25544 12.5 4.25 12.5ZM24.25 20C25.5386 20 26.7956 20.3982 27.8491 21.1402C28.9026 21.8822 29.701 22.9317 30.135 24.145C30.985 23.7975 31.7725 23.345 32.47 22.7875C34.35 21.275 35.5 19.04 35.5 16.25C35.5 15.2554 35.1049 14.3016 34.4016 13.5983C33.6984 12.8951 32.7446 12.5 31.75 12.5H25.075C25.35 13.2825 25.5 14.125 25.5 15C25.5023 16.8453 24.822 18.6262 23.59 20H24.25ZM27.7175 24.82C27.9 25.26 28 25.745 28 26.25C28 29.04 26.8525 31.275 24.97 32.7875C23.1175 34.275 20.6325 35 18 35C15.3675 35 12.8825 34.275 11.03 32.7875C9.15 31.275 8 29.04 8 26.25C7.99868 25.7572 8.09478 25.2689 8.28276 24.8134C8.47075 24.3578 8.74692 23.9439 9.09541 23.5954C9.44389 23.2469 9.85781 22.9708 10.3134 22.7828C10.7689 22.5948 11.2572 22.4987 11.75 22.5H24.25C24.9928 22.4998 25.7188 22.7202 26.3362 23.1333C26.9535 23.5463 27.4343 24.1334 27.7175 24.82Z" fill="white"/>
</svg>
