<svg width="380" height="177" viewBox="0 0 380 177" fill="none" xmlns="http://www.w3.org/2000/svg">
<path d="M230.669 14.376L235.383 26.4385L232.455 26.4261L230.104 19.0113L230.669 14.376Z" fill="#E0E0E0"/>
<path d="M214.573 3.2334L212.953 26.3439L229.684 26.6903L231.564 3.2334H214.573Z" fill="#EBEBEB"/>
<path d="M216.248 5.09789L214.895 24.3278L227.333 24.9134L229.073 4.98242L216.248 5.09789Z" fill="#FAFAFA"/>
<path d="M218.974 7.81445L217.967 21.3327H224.826L226.038 7.81445H218.974Z" fill="#E0E0E0"/>
<path d="M198.073 26.4888V14.917H206.544V26.4805L198.073 26.4888Z" fill="#EBEBEB"/>
<path d="M202.89 14.9163C202.89 14.9163 204.932 -0.0205984 204.359 2.13287e-05C203.785 0.020641 202.35 13.609 202.35 13.609C202.35 13.609 202.284 2.35891 201.752 2.41665C201.22 2.47438 201.752 14.3389 201.752 14.3389C201.752 14.3389 200.828 4.71368 200.334 4.94462C199.839 5.17556 200.544 14.9163 200.544 14.9163H202.89" fill="#E0E0E0"/>
<path d="M201.348 14.916C201.348 14.916 202.058 7.47233 202.284 7.97957C202.511 8.48682 202.284 12.4128 202.284 12.4128C202.284 12.4128 204.243 2.79166 204.759 3.12158C205.274 3.45149 202.75 13.5634 202.75 13.5634C202.75 13.5634 204.664 7.78987 205.085 8.39609C205.505 9.00231 203.522 14.4212 203.522 14.4212C203.522 14.4212 205.584 10.59 205.716 11.122C205.847 11.654 204.734 14.9325 204.734 14.9325L201.348 14.916Z" fill="#EBEBEB"/>
<path d="M200.14 14.9611C200.14 14.9611 195.603 6.06985 196.172 6.34615C196.742 6.62246 199.628 12.363 199.628 12.363C199.628 12.363 197.711 6.81216 198.131 6.65132C198.552 6.49049 200.655 12.8785 200.655 12.8785L201.125 14.9611H200.14Z" fill="#F5F5F5"/>
<path d="M201.996 14.9375L202.206 26.5051H198.181L198.103 14.9004L201.996 14.9375Z" fill="#E0E0E0"/>
<path d="M198.082 15.9402L201.984 16.0062L206.545 15.9402L206.689 14.835H197.971L198.082 15.9402Z" fill="#E0E0E0"/>
<path d="M248.81 26.166H189.496V29.2219H248.81V26.166Z" fill="#E0E0E0"/>
<path d="M96.5301 77.4395L97.3837 173.931H59.1631V78.755L96.5301 77.4395Z" fill="#F5F5F5"/>
<path d="M75.9393 78.166L76.2774 173.932H59.1631V78.7557L75.9393 78.166Z" fill="#E0E0E0"/>
<path d="M95.3299 78.6309V92.1532H77.2258V79.2701L95.3299 78.6309Z" fill="#E0E0E0"/>
<path d="M89.0863 82.3504V84.3464H83.5479V82.1689L89.0863 82.3504Z" fill="#F5F5F5"/>
<path d="M89.0865 86.0293H83.3666V86.8458H89.0865V86.0293Z" fill="#F5F5F5"/>
<path d="M95.3299 126.023V139.55H77.2258V126.663L95.3299 126.023Z" fill="#E0E0E0"/>
<path d="M89.0863 129.748V131.744H83.5479V129.566L89.0863 129.748Z" fill="#F5F5F5"/>
<path d="M89.0865 133.422H83.3666V134.238H89.0865V133.422Z" fill="#F5F5F5"/>
<path d="M95.3299 93.8779V107.404H77.2258V94.5171L95.3299 93.8779Z" fill="#E0E0E0"/>
<path d="M89.0863 97.5975V99.5976H83.5479V97.416L89.0863 97.5975Z" fill="#F5F5F5"/>
<path d="M89.0865 101.275H83.3666V102.092H89.0865V101.275Z" fill="#F5F5F5"/>
<path d="M95.3299 141.271V154.793H77.2258V141.91L95.3299 141.271Z" fill="#E0E0E0"/>
<path d="M89.0863 144.989V146.985H83.5479V144.808L89.0863 144.989Z" fill="#F5F5F5"/>
<path d="M89.0865 148.669H83.3666V149.485H89.0865V148.669Z" fill="#F5F5F5"/>
<path d="M95.5238 156.512V170.038H77.4197V157.151L95.5238 156.512Z" fill="#E0E0E0"/>
<path d="M89.2803 160.23V162.23H83.7418V160.049L89.2803 160.23Z" fill="#F5F5F5"/>
<path d="M89.2803 163.911H83.5604V164.728H89.2803V163.911Z" fill="#F5F5F5"/>
<path d="M95.5653 110.072H77.4612V123.599H95.5653V110.072Z" fill="#E0E0E0"/>
<path d="M89.2021 116.167V118.044H83.9935V115.998L89.2021 116.167Z" fill="#F5F5F5"/>
<path d="M89.2018 119.623H83.8242V120.39H89.2018V119.623Z" fill="#F5F5F5"/>
<path d="M208.115 162.157V173.948H225.357H244.373V162.157H208.115Z" fill="#F5F5F5"/>
<path d="M206.594 158.863V162.158H245.639V158.863H225.358H206.594Z" fill="#E0E0E0"/>
<path d="M226.117 173.949H244.373V162.158H245.639V158.863H225.358V161.853L226.117 173.949Z" fill="#E0E0E0"/>
<path d="M220.541 164.059H213.188V165.832H220.541V164.059Z" fill="#E0E0E0"/>
<path d="M221.679 168.051H212.24V171.799H221.679V168.051Z" fill="white"/>
<path d="M254.959 147.072V158.863H272.197H291.213V147.072H254.959Z" fill="#F5F5F5"/>
<path d="M253.438 143.777V147.072H292.479V143.777H272.197H253.438Z" fill="#E0E0E0"/>
<path d="M272.96 158.863H291.213V147.072H292.479V143.777H272.197V146.767L272.96 158.863Z" fill="#E0E0E0"/>
<path d="M267.38 148.973H260.027V150.746H267.38V148.973Z" fill="#E0E0E0"/>
<path d="M268.523 152.965H259.083V156.713H268.523V152.965Z" fill="white"/>
<path d="M253.219 162.157V173.948H270.461H289.477V162.157H253.219Z" fill="#F5F5F5"/>
<path d="M251.702 158.863V162.158H290.743V158.863H270.461H251.702Z" fill="#E0E0E0"/>
<path d="M271.224 173.949H289.477V162.158H290.743V158.863H270.461V161.853L271.224 173.949Z" fill="#E0E0E0"/>
<path d="M265.644 164.059H258.291V165.832H265.644V164.059Z" fill="#E0E0E0"/>
<path d="M266.787 168.051H257.347V171.799H266.787V168.051Z" fill="white"/>
<path d="M288.966 77.3896L288.112 173.877H326.328V78.7052L288.966 77.3896Z" fill="#F5F5F5"/>
<path d="M309.556 78.1162L309.218 173.878H326.328V78.7059L309.556 78.1162Z" fill="#E0E0E0"/>
<path d="M290.165 78.582V92.1044H308.269V79.2212L290.165 78.582Z" fill="#E0E0E0"/>
<path d="M296.409 82.3016V84.2976H301.947V82.1201L296.409 82.3016Z" fill="#F5F5F5"/>
<path d="M302.129 85.9805H296.409V86.797H302.129V85.9805Z" fill="#F5F5F5"/>
<path d="M290.165 125.974V139.5H308.269V126.613L290.165 125.974Z" fill="#E0E0E0"/>
<path d="M296.409 129.698V131.694H301.947V129.517L296.409 129.698Z" fill="#F5F5F5"/>
<path d="M302.129 133.372H296.409V134.189H302.129V133.372Z" fill="#F5F5F5"/>
<path d="M290.165 93.8281V107.355H308.269V94.4673L290.165 93.8281Z" fill="#E0E0E0"/>
<path d="M296.409 97.5477V99.5478H301.947V97.3662L296.409 97.5477Z" fill="#F5F5F5"/>
<path d="M302.129 101.227H296.409V102.043H302.129V101.227Z" fill="#F5F5F5"/>
<path d="M290.165 141.221V154.743H308.269V141.86L290.165 141.221Z" fill="#E0E0E0"/>
<path d="M296.409 144.94V146.936H301.947V144.759L296.409 144.94Z" fill="#F5F5F5"/>
<path d="M302.129 148.619H296.409V149.436H302.129V148.619Z" fill="#F5F5F5"/>
<path d="M289.971 156.462V169.988H308.076V157.101L289.971 156.462Z" fill="#E0E0E0"/>
<path d="M296.211 160.182V162.183H301.754V160.001L296.211 160.182Z" fill="#F5F5F5"/>
<path d="M301.931 163.861H296.211V164.678H301.931V163.861Z" fill="#F5F5F5"/>
<path d="M308.034 110.022H289.93V123.549H308.034V110.022Z" fill="#E0E0E0"/>
<path d="M296.294 116.119V117.995H301.502V115.945L296.294 116.119Z" fill="#F5F5F5"/>
<path d="M301.671 119.573H296.294V120.34H301.671V119.573Z" fill="#F5F5F5"/>
<path d="M326.589 173.935C326.589 173.993 265.431 174.042 190.008 174.042C114.586 174.042 53.4111 173.993 53.4111 173.935C53.4111 173.877 114.557 173.832 190.008 173.832C265.46 173.832 326.589 173.873 326.589 173.935Z" fill="#263238"/>
<path d="M201.977 39.4313C201.977 39.4313 201.884 39.4313 201.705 39.4313C201.443 39.4157 201.18 39.4157 200.919 39.4313C199.906 39.4905 198.911 39.7238 197.978 40.1208C196.498 40.741 195.211 41.7441 194.248 43.0271C193.654 43.8282 193.212 44.7315 192.944 45.692C192.341 47.9803 192.667 50.4142 193.851 52.4631C194.174 53.0303 194.568 53.554 195.023 54.0214C195.483 54.5165 196.018 54.9355 196.609 55.2625C197.216 55.6038 197.903 55.7764 198.598 55.7624C199.316 55.7538 200.004 55.4756 200.526 54.9832C200.778 54.7189 200.976 54.4075 201.108 54.0668C201.24 53.7261 201.303 53.3627 201.294 52.9974C201.289 52.2385 201.048 51.5 200.605 50.8841C199.712 49.6257 198.264 48.7811 196.723 48.326C195.125 47.8772 193.438 47.8534 191.827 48.257C191.006 48.4708 190.214 48.7858 189.469 49.1948C188.718 49.6188 188.036 50.1547 187.446 50.7841C187.304 50.9461 187.142 51.0944 187.015 51.2737L186.625 51.7977C186.388 52.1669 186.176 52.5516 185.991 52.9492C185.622 53.7563 185.37 54.6118 185.243 55.49C184.992 57.2444 185.231 59.0338 185.932 60.6614C186.602 62.2517 187.77 63.5822 189.259 64.4537C189.981 64.8663 190.787 65.1103 191.617 65.1673C192.431 65.2129 193.24 65.0187 193.944 64.6088C194.643 64.2225 195.196 63.6167 195.516 62.8851C195.819 62.164 195.84 61.3557 195.575 60.62C195.303 59.9101 194.857 59.2797 194.279 58.7859C193.718 58.3012 193.071 57.9259 192.372 57.6792C191.009 57.2494 189.55 57.2242 188.173 57.6068C186.884 57.956 185.701 58.6153 184.725 59.5271C183.837 60.3782 183.161 61.4255 182.75 62.5851C182.032 64.5972 182.065 66.8011 182.843 68.7907C183.45 70.2761 184.427 71.5816 185.68 72.5831C186.47 73.2165 187.35 73.7289 188.29 74.1034C188.614 74.2241 188.866 74.3137 189.038 74.362L189.294 74.4447C189.294 74.4447 189.204 74.4275 189.032 74.3792C188.777 74.3111 188.526 74.2294 188.28 74.1345C187.327 73.7764 186.436 73.2715 185.639 72.6382C184.364 71.6374 183.368 70.3256 182.747 68.8287C181.955 66.8202 181.914 64.5934 182.633 62.5575C183.044 61.3803 183.728 60.3171 184.629 59.4547C185.618 58.5246 186.819 57.85 188.128 57.4896C189.534 57.0973 191.024 57.1212 192.417 57.5586C193.137 57.8095 193.802 58.1944 194.379 58.6928C194.98 59.2028 195.442 59.8561 195.723 60.5924C196.007 61.3611 195.994 62.2077 195.689 62.9678C195.349 63.7282 194.772 64.3583 194.044 64.764C193.314 65.1897 192.475 65.3933 191.631 65.3501C190.781 65.2908 189.956 65.0384 189.218 64.6123C187.694 63.7286 186.498 62.375 185.808 60.7545C185.092 59.0971 184.846 57.2744 185.098 55.4866C185.229 54.5906 185.487 53.7178 185.863 52.894C186.053 52.488 186.269 52.0953 186.511 51.7184L186.911 51.184C187.039 51.0013 187.204 50.8393 187.349 50.6807C187.953 50.0393 188.65 49.493 189.418 49.0603C190.179 48.6435 190.99 48.3239 191.831 48.1088C193.472 47.6976 195.191 47.7226 196.82 48.1812C198.392 48.6501 199.864 49.5085 200.791 50.8117C201.257 51.4534 201.51 52.225 201.515 53.0181C201.532 53.7986 201.238 54.5538 200.698 55.1177C200.146 55.6355 199.42 55.9271 198.664 55.9348C197.94 55.9512 197.225 55.7713 196.595 55.4142C195.99 55.0803 195.443 54.6507 194.975 54.142C194.514 53.6642 194.114 53.1302 193.786 52.5527C192.58 50.4658 192.253 47.9857 192.876 45.6576C193.151 44.6859 193.604 43.7732 194.21 42.965C195.191 41.6723 196.5 40.6663 198.002 40.0518C198.943 39.6625 199.946 39.4431 200.964 39.4037C201.228 39.3863 201.492 39.3863 201.756 39.4037L201.977 39.4313Z" fill="#263238"/>
<path d="M134.768 63.0615L137.68 112.71C137.729 113.561 138.102 114.362 138.722 114.949C139.342 115.535 140.162 115.863 141.016 115.864L230.381 116.137C230.822 116.138 231.258 116.053 231.665 115.886C232.072 115.719 232.442 115.473 232.754 115.163C233.067 114.853 233.315 114.484 233.484 114.078C233.654 113.672 233.741 113.236 233.743 112.796L233.862 74.1383C233.863 73.6963 233.777 73.2584 233.608 72.8499C233.439 72.4414 233.191 72.0702 232.879 71.7579C232.566 71.4455 232.194 71.1981 231.786 71.0298C231.377 70.8615 230.939 70.7757 230.497 70.7773L175.537 70.9629C175.097 70.9646 174.662 70.8795 174.255 70.7125C173.848 70.5455 173.478 70.2998 173.166 69.9897L163.644 60.5541C163.018 59.9346 162.174 59.5852 161.293 59.5809L138.125 59.5107C137.667 59.51 137.214 59.6028 136.794 59.7835C136.373 59.9642 135.994 60.2289 135.68 60.5615C135.366 60.894 135.123 61.2873 134.966 61.7172C134.809 62.1471 134.742 62.6046 134.768 63.0615V63.0615Z" fill="#3A7792"/>
<path opacity="0.3" d="M134.768 63.0615L137.68 112.71C137.729 113.561 138.102 114.362 138.722 114.949C139.342 115.535 140.162 115.863 141.016 115.864L230.381 116.137C230.822 116.138 231.258 116.053 231.665 115.886C232.072 115.719 232.442 115.473 232.754 115.163C233.067 114.853 233.315 114.484 233.484 114.078C233.654 113.672 233.741 113.236 233.743 112.796L233.862 74.1383C233.863 73.6963 233.777 73.2584 233.608 72.8499C233.439 72.4414 233.191 72.0702 232.879 71.7579C232.566 71.4455 232.194 71.1981 231.786 71.0298C231.377 70.8615 230.939 70.7757 230.497 70.7773L175.537 70.9629C175.097 70.9646 174.662 70.8795 174.255 70.7125C173.848 70.5455 173.478 70.2998 173.166 69.9897L163.644 60.5541C163.018 59.9346 162.174 59.5852 161.293 59.5809L138.125 59.5107C137.667 59.51 137.214 59.6028 136.794 59.7835C136.373 59.9642 135.994 60.2289 135.68 60.5615C135.366 60.894 135.123 61.2873 134.966 61.7172C134.809 62.1471 134.742 62.6046 134.768 63.0615V63.0615Z" fill="black"/>
<path d="M132.941 90.2377L140.212 151.103C140.274 151.625 140.525 152.107 140.918 152.457C141.31 152.807 141.818 153.002 142.344 153.004L237.499 153.293C238.042 153.295 238.566 153.093 238.966 152.726C239.366 152.359 239.613 151.854 239.656 151.313L244.634 90.4851C244.658 90.1885 244.62 89.8902 244.523 89.6088C244.426 89.3274 244.272 89.0691 244.071 88.8499C243.87 88.6308 243.625 88.4556 243.353 88.3353C243.081 88.2151 242.787 88.1523 242.489 88.151L135.09 87.8252C134.784 87.8242 134.482 87.8881 134.203 88.0126C133.924 88.1372 133.675 88.3195 133.472 88.5476C133.269 88.7756 133.117 89.0442 133.025 89.3356C132.934 89.627 132.905 89.9345 132.941 90.2377Z" fill="#3A7792"/>
<path d="M174.44 105.282C173.803 105.305 173.2 105.578 172.761 106.041C172.323 106.504 172.084 107.12 172.095 107.758C172.107 108.396 172.368 109.003 172.823 109.45C173.278 109.897 173.89 110.147 174.528 110.147C175.166 110.147 175.778 109.897 176.233 109.45C176.688 109.003 176.949 108.396 176.961 107.758C176.973 107.12 176.733 106.504 176.295 106.041C175.856 105.578 175.253 105.305 174.616 105.282" fill="#263238"/>
<path d="M202.239 105.282C201.604 105.306 201.004 105.579 200.568 106.04C200.132 106.502 199.894 107.117 199.907 107.752C199.919 108.387 200.179 108.992 200.633 109.436C201.086 109.881 201.696 110.13 202.331 110.13C202.966 110.13 203.576 109.881 204.029 109.436C204.483 108.992 204.743 108.387 204.756 107.752C204.768 107.117 204.53 106.502 204.094 106.04C203.658 105.579 203.058 105.306 202.423 105.282" fill="#263238"/>
<path d="M202.398 126.997C201.913 125.144 201.125 123.383 200.065 121.787C198.887 120.079 197.374 118.629 195.618 117.524C193.5 116.118 191.029 115.336 188.488 115.266C185.947 115.197 183.437 115.842 181.245 117.13C179.434 118.141 177.845 119.504 176.571 121.141C175.424 122.678 174.542 124.397 173.962 126.225C173.968 126.089 173.991 125.954 174.029 125.823C174.109 125.445 174.213 125.072 174.339 124.707C174.799 123.359 175.47 122.093 176.328 120.956C177.593 119.243 179.202 117.814 181.052 116.761C183.3 115.418 185.885 114.743 188.503 114.815C191.12 114.886 193.664 115.701 195.836 117.163C197.622 118.311 199.149 119.821 200.317 121.594C201.114 122.777 201.717 124.08 202.104 125.453C202.207 125.826 202.289 126.204 202.347 126.586C202.376 126.721 202.393 126.859 202.398 126.997V126.997Z" fill="#263238"/>
<path d="M249.364 73.2646L246.155 75.5617L248.028 84.7581L252.242 80.997L249.364 73.2646Z" fill="#E2A38D"/>
<path d="M250.094 142.431L263.435 135.948L280.549 138.01C281.695 138.873 282.465 140.145 282.698 141.561C282.811 142.019 282.741 142.502 282.504 142.909C282.12 143.446 281.333 143.512 280.693 143.355C280.054 143.198 279.456 142.864 278.8 142.786C277.526 142.637 276.351 143.45 275.394 144.303C274.437 145.157 273.485 146.13 272.235 146.419C271.111 146.603 269.958 146.387 268.977 145.809C267.979 145.289 267.088 144.571 266.09 144.015C264.282 142.923 262.166 142.452 260.065 142.674C258.416 142.893 256.849 143.619 255.191 143.883C253.533 144.147 250.972 143.854 250.073 142.439" fill="#455A64"/>
<path d="M281.902 168.903C281.902 168.903 270.973 131.643 270.767 130.451C270.577 129.375 272.281 103.271 273.044 96.499L261.006 96.598V96.7135L255.286 96.8537L257.843 170.944L265.245 171.513L265.196 147.067C269.864 158.874 275.279 172.021 275.279 172.021L281.902 168.903Z" fill="#FFBE9D"/>
<path d="M260.317 128.744C260.317 128.744 260.292 129.033 260.268 129.569C260.225 130.304 260.236 131.042 260.301 131.775C260.391 132.865 260.572 133.945 260.841 135.004C261.195 136.296 261.631 137.565 262.144 138.802C263.158 141.475 264.066 143.904 264.709 145.661C265.014 146.518 265.27 147.223 265.46 147.751C265.56 148.005 265.643 148.265 265.707 148.531C265.577 148.291 265.466 148.041 265.373 147.784C265.167 147.261 264.886 146.547 264.548 145.722C263.864 143.978 262.932 141.561 261.917 138.885C261.666 138.217 261.418 137.561 261.183 136.93C260.962 136.317 260.774 135.692 260.622 135.058C260.362 133.984 260.197 132.89 260.127 131.788C260.08 131.045 260.094 130.301 260.169 129.561C260.197 129.297 260.23 129.099 260.259 128.963C260.265 128.887 260.285 128.813 260.317 128.744V128.744Z" fill="#E2A38D"/>
<path d="M265.212 155.959C265.212 155.732 265.381 147.666 265.381 147.666C265.381 147.666 262.701 140.181 262.631 140.407C262.56 140.634 265.212 155.959 265.212 155.959Z" fill="#E2A38D"/>
<path d="M257.426 170.92V170.096L265.262 170.252L265.22 172.999L264.738 173.024C262.581 173.102 253.76 173.283 252.325 172.822C250.762 172.294 257.426 170.92 257.426 170.92Z" fill="#3A7792"/>
<g opacity="0.3">
<path d="M262.424 172.878C262.551 172.22 262.917 171.633 263.451 171.228C263.974 170.827 264.629 170.637 265.286 170.696L265.249 172.878H262.424Z" fill="white"/>
</g>
<path opacity="0.3" d="M254.168 171.708C254.168 171.708 251.826 172.335 252.106 172.727C252.387 173.118 261.311 173.267 265.249 172.991V172.817L254.845 172.727C254.845 172.727 254.622 171.733 254.168 171.708Z" fill="white"/>
<path d="M265.381 172.812C265.336 172.817 265.29 172.817 265.245 172.812H264.862L263.439 172.849C262.239 172.87 260.581 172.882 258.75 172.849C256.919 172.816 255.261 172.754 254.061 172.692L252.642 172.61L252.259 172.581H252.123H252.259H252.642L254.065 172.635C255.265 172.68 256.919 172.734 258.75 172.763C260.581 172.791 262.239 172.796 263.439 172.791H264.862H265.245L265.381 172.812Z" fill="#263238"/>
<path d="M254.84 172.845C254.782 172.609 254.696 172.381 254.585 172.165C254.448 171.963 254.289 171.778 254.11 171.612C254.353 171.704 254.551 171.884 254.667 172.115C254.811 172.33 254.872 172.589 254.84 172.845Z" fill="#263238"/>
<path d="M257.166 171.716C257.141 171.716 257.034 171.593 256.923 171.411C256.843 171.308 256.788 171.188 256.762 171.061C256.787 171.061 256.894 171.18 257.005 171.362C257.086 171.466 257.141 171.587 257.166 171.716V171.716Z" fill="#263238"/>
<path d="M257.802 171.394C257.802 171.394 257.665 171.328 257.529 171.204C257.393 171.081 257.307 170.965 257.323 170.944C257.34 170.924 257.463 171.01 257.595 171.134C257.727 171.258 257.822 171.357 257.802 171.394Z" fill="#263238"/>
<path d="M258.218 170.665C258.085 170.708 257.944 170.722 257.805 170.706C257.583 170.706 257.393 170.685 257.393 170.657C257.526 170.611 257.666 170.596 257.805 170.611C257.945 170.597 258.086 170.615 258.218 170.665Z" fill="#263238"/>
<path d="M258.371 170.145C258.229 170.218 258.073 170.26 257.914 170.269C257.755 170.278 257.596 170.254 257.447 170.199C257.6 170.175 257.754 170.167 257.909 170.174C258.062 170.151 258.216 170.142 258.371 170.145V170.145Z" fill="#263238"/>
<path d="M256.911 171.031C256.745 171.058 256.577 171.058 256.412 171.031C256.229 171.006 256.05 170.963 255.876 170.904C255.771 170.87 255.67 170.826 255.575 170.772C255.516 170.736 255.472 170.68 255.451 170.615C255.445 170.577 255.449 170.538 255.464 170.502C255.478 170.467 255.502 170.436 255.533 170.413C255.727 170.323 255.946 170.303 256.153 170.356C256.359 170.41 256.541 170.533 256.667 170.706C256.741 170.805 256.795 170.919 256.824 171.04C256.824 171.126 256.824 171.176 256.824 171.176C256.776 171.027 256.702 170.887 256.606 170.763C256.497 170.631 256.354 170.531 256.193 170.475C256.096 170.44 255.994 170.425 255.891 170.431C255.788 170.436 255.688 170.463 255.595 170.508C255.513 170.565 255.542 170.656 255.632 170.714C255.72 170.764 255.813 170.806 255.909 170.838C256.076 170.899 256.249 170.948 256.424 170.982C256.721 171.011 256.911 171.015 256.911 171.031Z" fill="#263238"/>
<path d="M256.783 171.052C256.72 170.946 256.701 170.821 256.729 170.701C256.748 170.57 256.797 170.446 256.874 170.338C256.916 170.266 256.976 170.205 257.048 170.162C257.12 170.118 257.202 170.094 257.286 170.091C257.337 170.103 257.381 170.134 257.41 170.178C257.438 170.221 257.448 170.275 257.439 170.326C257.424 170.405 257.393 170.481 257.348 170.549C257.282 170.659 257.2 170.759 257.104 170.846C256.948 170.998 256.82 171.056 256.816 171.043C256.812 171.031 256.919 170.957 257.059 170.8C257.14 170.709 257.212 170.609 257.274 170.503C257.344 170.396 257.393 170.206 257.274 170.182C257.154 170.157 257.018 170.293 256.94 170.392C256.867 170.487 256.816 170.597 256.791 170.714C256.777 170.826 256.775 170.939 256.783 171.052V171.052Z" fill="#263238"/>
<path d="M265.245 170.673C265.245 170.673 265.022 170.648 264.668 170.673C264.208 170.716 263.769 170.888 263.402 171.168C263.031 171.451 262.746 171.83 262.577 172.265C262.453 172.599 262.437 172.825 262.42 172.821C262.411 172.769 262.411 172.716 262.42 172.665C262.434 172.524 262.465 172.386 262.511 172.252C262.662 171.794 262.95 171.392 263.336 171.102C263.717 170.811 264.176 170.64 264.655 170.611C264.793 170.604 264.931 170.611 265.068 170.631C265.129 170.634 265.189 170.648 265.245 170.673V170.673Z" fill="#263238"/>
<path d="M261.455 172.098C261.08 172.178 260.696 172.21 260.313 172.193C259.929 172.205 259.545 172.168 259.171 172.081C259.171 172.052 259.682 172.081 260.313 172.081C260.944 172.081 261.451 172.069 261.455 172.098Z" fill="#263238"/>
<path d="M262.985 172.124C262.985 172.144 262.94 172.231 262.886 172.347C262.833 172.462 262.804 172.565 262.775 172.565C262.746 172.565 262.738 172.441 262.8 172.305C262.861 172.169 262.969 172.103 262.985 172.124Z" fill="#263238"/>
<path d="M263.575 171.415C263.575 171.436 263.542 171.514 263.459 171.597C263.377 171.679 263.294 171.725 263.278 171.708C263.261 171.692 263.311 171.609 263.393 171.527C263.476 171.444 263.554 171.399 263.575 171.415Z" fill="#263238"/>
<path d="M264.404 171.101C264.404 171.13 264.297 171.126 264.181 171.163C264.066 171.2 263.983 171.262 263.963 171.245C263.942 171.229 264.008 171.118 264.152 171.072C264.297 171.027 264.416 171.076 264.404 171.101Z" fill="#263238"/>
<path d="M264.998 170.944C264.998 170.968 264.96 171.01 264.894 171.03C264.828 171.051 264.771 171.055 264.758 171.03C264.746 171.005 264.795 170.968 264.861 170.944C264.927 170.919 264.969 170.944 264.998 170.944Z" fill="#263238"/>
<path d="M275.279 172.181L274.924 171.426L282.017 168.065L283.213 170.54L282.801 170.779C280.904 171.814 273.089 175.909 271.6 176.14C269.918 176.396 275.279 172.181 275.279 172.181Z" fill="#3A7792"/>
<g opacity="0.3">
<path d="M280.64 171.715C280.459 171.07 280.524 170.381 280.821 169.781C281.113 169.19 281.614 168.728 282.228 168.486L283.168 170.458L280.64 171.715Z" fill="white"/>
</g>
<path opacity="0.3" d="M272.71 174.351C272.71 174.351 270.899 175.959 271.324 176.178C271.749 176.397 279.803 172.557 283.209 170.553L283.123 170.4L273.765 174.961C273.765 174.961 273.13 174.174 272.71 174.351Z" fill="white"/>
<path d="M283.23 170.343C283.194 170.372 283.155 170.397 283.114 170.417L282.776 170.603L281.539 171.271C280.475 171.823 278.994 172.574 277.341 173.361C275.687 174.149 274.178 174.834 273.077 175.312L271.753 175.894L271.394 176.038L271.266 176.083C271.304 176.059 271.344 176.038 271.386 176.021L271.736 175.861L273.031 175.275C274.124 174.78 275.629 174.087 277.283 173.3C278.937 172.512 280.417 171.77 281.489 171.238L282.76 170.598L283.106 170.429C283.145 170.398 283.187 170.369 283.23 170.343V170.343Z" fill="#263238"/>
<path d="M273.819 175.069C273.665 174.88 273.488 174.713 273.291 174.57C273.078 174.451 272.853 174.355 272.619 174.286C272.876 174.265 273.132 174.338 273.34 174.492C273.568 174.615 273.74 174.822 273.819 175.069V175.069Z" fill="#263238"/>
<path d="M275.398 173.007C275.271 172.979 275.151 172.922 275.048 172.842C274.866 172.73 274.73 172.619 274.747 172.598C274.763 172.578 274.916 172.648 275.097 172.759C275.279 172.87 275.411 173.007 275.398 173.007Z" fill="#263238"/>
<path d="M275.823 172.45C275.823 172.475 275.67 172.45 275.497 172.401C275.324 172.351 275.188 172.289 275.196 172.265C275.204 172.24 275.349 172.265 275.526 172.31C275.703 172.355 275.831 172.421 275.823 172.45Z" fill="#263238"/>
<path d="M275.868 171.609C275.868 171.634 275.724 171.733 275.522 171.832C275.404 171.905 275.272 171.953 275.134 171.972C275.134 171.948 275.278 171.849 275.481 171.75C275.599 171.677 275.731 171.629 275.868 171.609Z" fill="#263238"/>
<path d="M275.769 171.08C275.769 171.08 275.645 171.266 275.414 171.398C275.283 171.491 275.126 171.541 274.965 171.542C275.095 171.453 275.233 171.378 275.377 171.315C275.588 171.192 275.749 171.06 275.769 171.08Z" fill="#263238"/>
<path d="M274.866 172.519C274.729 172.617 274.576 172.69 274.413 172.733C274.238 172.79 274.058 172.832 273.876 172.857C273.767 172.871 273.656 172.871 273.546 172.857C273.478 172.852 273.415 172.821 273.369 172.77C273.348 172.738 273.337 172.701 273.337 172.663C273.337 172.625 273.348 172.587 273.369 172.556C273.503 172.389 273.69 172.274 273.899 172.229C274.107 172.184 274.325 172.212 274.516 172.308C274.627 172.365 274.726 172.445 274.804 172.543C274.862 172.609 274.883 172.655 274.874 172.659C274.763 172.54 274.632 172.442 274.487 172.37C274.327 172.3 274.151 172.277 273.979 172.304C273.877 172.316 273.778 172.347 273.688 172.398C273.598 172.448 273.519 172.516 273.456 172.597C273.41 172.688 273.476 172.758 273.579 172.766C273.682 172.776 273.786 172.776 273.889 172.766C274.065 172.746 274.241 172.712 274.413 172.667C274.685 172.593 274.866 172.506 274.866 172.519Z" fill="#263238"/>
<path d="M274.759 172.594C274.759 172.594 274.631 172.52 274.557 172.305C274.513 172.179 274.502 172.045 274.524 171.913C274.528 171.828 274.554 171.744 274.601 171.672C274.647 171.6 274.712 171.541 274.788 171.501C274.838 171.488 274.891 171.496 274.936 171.522C274.981 171.549 275.013 171.591 275.027 171.641C275.054 171.718 275.061 171.8 275.048 171.88C275.037 172.01 275.009 172.138 274.965 172.26C274.935 172.375 274.875 172.48 274.792 172.565C274.792 172.565 274.845 172.441 274.899 172.239C274.932 172.121 274.953 171.999 274.961 171.876C274.961 171.748 274.936 171.559 274.812 171.592C274.689 171.625 274.635 171.802 274.606 171.926C274.581 172.043 274.581 172.164 274.606 172.28C274.645 172.39 274.696 172.496 274.759 172.594V172.594Z" fill="#263238"/>
<path d="M282.166 168.471C282.166 168.471 281.955 168.549 281.654 168.739C281.262 168.985 280.945 169.335 280.739 169.749C280.541 170.168 280.462 170.633 280.508 171.094C280.545 171.444 280.632 171.654 280.615 171.659C280.583 171.617 280.559 171.569 280.545 171.518C280.499 171.384 280.465 171.246 280.442 171.106C280.358 170.558 280.469 169.998 280.756 169.523C281.042 169.049 281.485 168.689 282.009 168.508C282.059 168.488 282.112 168.475 282.166 168.471Z" fill="#263238"/>
<path d="M279.402 171.452C279.103 171.692 278.773 171.892 278.421 172.046C278.085 172.23 277.726 172.369 277.353 172.458C277.353 172.433 277.815 172.244 278.38 171.963C278.945 171.683 279.402 171.427 279.402 171.452Z" fill="#263238"/>
<path d="M280.788 170.792C280.813 170.792 280.788 170.907 280.788 171.035C280.788 171.163 280.813 171.27 280.788 171.279C280.764 171.287 280.702 171.184 280.698 171.035C280.694 170.887 280.764 170.78 280.788 170.792Z" fill="#263238"/>
<path d="M280.999 169.892C281.023 169.892 280.999 169.995 280.999 170.107C280.999 170.218 280.908 170.296 280.883 170.288C280.858 170.28 280.883 170.185 280.908 170.074C280.933 169.962 280.974 169.884 280.999 169.892Z" fill="#263238"/>
<path d="M281.605 169.241C281.605 169.27 281.518 169.311 281.431 169.398C281.345 169.485 281.295 169.575 281.271 169.567C281.246 169.559 281.271 169.435 281.365 169.332C281.46 169.229 281.6 169.217 281.605 169.241Z" fill="#263238"/>
<path d="M282.067 168.849C282.067 168.849 282.067 168.924 282.017 168.973C281.968 169.022 281.914 169.051 281.898 169.031C281.881 169.01 281.898 168.961 281.947 168.907C281.997 168.853 282.05 168.833 282.067 168.849Z" fill="#263238"/>
<path d="M272.722 94.3996C269.423 88.7085 268.598 89.3725 269.712 86.0568L272.928 75.2686L271.567 68.5054C270.818 67.7757 269.923 67.2125 268.941 66.8529C267.959 66.4933 266.911 66.3453 265.868 66.4187L259.154 66.8805C259.154 66.8805 255.855 66.1589 250.981 70.8849L247.624 74.0314L251.867 82.0855L252.082 85.7393L255.142 95.7316L254.317 100.14C253.962 103.493 249.455 141.944 250.065 142.555C250.675 143.165 260.103 138.484 262.379 140.406C264.656 142.328 269.237 143.507 271.823 142.678C274.409 141.85 278.285 136.707 282.199 140.175C282.207 140.175 280.929 106.058 272.722 94.3996Z" fill="#263238"/>
<path d="M269.027 66.8857C269.027 66.8857 276.037 68.7456 274.986 73.7397C274.478 76.2141 271.126 81.3195 271.126 81.3195L263.199 77.5709L269.027 66.8857Z" fill="#263238"/>
<path d="M254.762 97.7814C256.145 96.5865 257.925 95.9537 259.752 96.0081C260.678 96.0415 261.581 96.3097 262.375 96.7875C263.296 97.3398 264.018 98.17 264.437 99.1588C264.658 99.6953 264.756 100.274 264.725 100.854C264.681 101.456 264.505 102.042 264.21 102.569C263.645 103.654 262.754 104.557 262.148 105.662C261.542 106.767 261.505 108.034 261.591 109.213C261.678 110.392 261.851 111.576 261.591 112.681C261.48 113.218 261.277 113.732 260.989 114.199C260.725 114.653 260.341 115.025 259.88 115.275C259.441 115.504 258.942 115.589 258.453 115.518C258.013 115.446 257.592 115.284 257.216 115.044C256.592 114.62 256.02 114.123 255.513 113.564C255.109 113.17 254.685 112.799 254.242 112.45C253.963 112.228 253.668 112.027 253.36 111.848C253.149 111.724 253.03 111.671 253.034 111.663C253.038 111.654 253.067 111.663 253.125 111.691C253.183 111.72 253.273 111.753 253.38 111.807C253.699 111.973 254.004 112.165 254.292 112.38C254.746 112.722 255.181 113.088 255.595 113.477C256.105 114.02 256.675 114.503 257.294 114.916C257.657 115.14 258.061 115.289 258.482 115.354C258.935 115.414 259.397 115.332 259.801 115.118C260.232 114.88 260.589 114.527 260.832 114.1C261.105 113.65 261.298 113.156 261.401 112.64C261.653 111.58 261.472 110.421 261.401 109.229C261.346 108.615 261.346 107.997 261.401 107.382C261.47 106.743 261.664 106.124 261.971 105.559C262.585 104.417 263.472 103.522 264.033 102.474C264.318 101.968 264.489 101.405 264.532 100.825C264.563 100.276 264.471 99.7262 264.264 99.2165C263.87 98.2642 263.184 97.4614 262.305 96.9236C261.54 96.4518 260.666 96.1835 259.768 96.1442C258.46 96.0621 257.155 96.36 256.012 97.002C255.698 97.1712 255.394 97.3571 255.1 97.5587L254.869 97.7195C254.795 97.769 254.766 97.7855 254.762 97.7814Z" fill="#FAFAFA"/>
<path d="M281.382 129.758L281.275 129.787L280.953 129.841C280.669 129.886 280.252 129.952 279.716 130.022C278.193 130.253 276.654 130.358 275.114 130.336C274.047 130.319 272.986 130.18 271.951 129.923C270.756 129.627 269.622 129.123 268.602 128.435C267.46 127.676 266.553 126.613 265.983 125.366C265.38 124.013 265.256 122.494 265.633 121.061C265.84 120.339 266.205 119.671 266.701 119.106C267.195 118.587 267.732 118.11 268.305 117.679C268.849 117.272 269.345 116.806 269.786 116.29C270.183 115.781 270.457 115.186 270.586 114.553C270.85 113.316 270.726 112.079 270.784 110.933C270.78 109.855 271.049 108.793 271.567 107.848C272.007 107.078 272.606 106.41 273.324 105.889C273.861 105.493 274.458 105.187 275.093 104.982C275.494 104.851 275.91 104.768 276.33 104.734H276.656H276.767C276.206 104.777 275.652 104.889 275.118 105.068C274.498 105.283 273.916 105.595 273.394 105.992C272.621 106.563 271.996 107.309 271.57 108.17C271.144 109.031 270.929 109.981 270.944 110.941C270.895 112.075 271.031 113.312 270.763 114.599C270.635 115.261 270.352 115.885 269.938 116.417C269.491 116.95 268.984 117.43 268.429 117.848C267.864 118.273 267.336 118.743 266.849 119.255C266.378 119.796 266.03 120.433 265.831 121.123C265.467 122.508 265.586 123.976 266.169 125.284C266.719 126.5 267.599 127.538 268.709 128.278C269.708 128.957 270.817 129.457 271.988 129.754C273.008 130.02 274.056 130.171 275.11 130.204C276.642 130.236 278.175 130.155 279.695 129.96L280.933 129.82L281.254 129.783L281.382 129.758Z" fill="#FAFAFA"/>
<path d="M261.723 140.068C261.767 140.029 261.816 139.994 261.868 139.965C262.017 139.891 262.156 139.796 262.28 139.685C262.424 139.541 262.367 139.273 262.28 138.98C262.157 138.658 262.005 138.347 261.826 138.052C261.451 137.371 261.002 136.563 260.465 135.697C259.888 134.756 259.195 133.89 258.404 133.12C257.614 132.351 256.667 131.763 255.628 131.396C254.782 131.097 253.876 131.011 252.989 131.144C252.391 131.247 251.826 131.488 251.339 131.849C250.997 132.109 250.836 132.291 250.82 132.262C250.849 132.211 250.885 132.163 250.927 132.122C251.039 131.996 251.16 131.879 251.29 131.771C251.771 131.372 252.346 131.101 252.96 130.983C253.873 130.822 254.812 130.894 255.69 131.194C256.762 131.561 257.74 132.161 258.552 132.951C259.358 133.733 260.058 134.618 260.635 135.582C261.175 136.456 261.6 137.281 261.962 137.965C262.13 138.273 262.268 138.596 262.375 138.93C262.419 139.072 262.447 139.219 262.457 139.367C262.463 139.433 262.454 139.5 262.432 139.562C262.41 139.625 262.375 139.682 262.329 139.73C262.199 139.84 262.051 139.928 261.892 139.99C261.785 140.052 261.727 140.077 261.723 140.068Z" fill="#FAFAFA"/>
<path d="M270.742 91.5837C270.742 91.5837 270.693 91.6826 270.545 91.7981C270.328 91.9583 270.079 92.0681 269.815 92.1198C269.42 92.1965 269.012 92.1623 268.635 92.0208C268.176 91.8392 267.78 91.5265 267.497 91.1218C267.002 90.3868 266.788 89.4982 266.895 88.6186C266.908 88.2597 266.986 87.9062 267.126 87.5752C267.163 87.5752 267.072 87.9876 267.047 88.6268C266.989 89.4629 267.208 90.295 267.67 90.9939C267.932 91.3592 268.291 91.6447 268.705 91.8187C269.049 91.9567 269.423 92.0035 269.79 91.9548C270.129 91.8965 270.453 91.7703 270.742 91.5837V91.5837Z" fill="#FAFAFA"/>
<path d="M271.34 79.7237C271.34 79.7237 271.286 79.7237 271.179 79.7608C271.023 79.7749 270.865 79.7749 270.709 79.7608C270.126 79.7163 269.568 79.5059 269.101 79.1545C268.775 78.9128 268.504 78.605 268.305 78.2514C268.077 77.8417 267.95 77.3837 267.934 76.9153C267.908 76.3967 268.014 75.8801 268.243 75.4141C268.513 74.9403 268.849 74.5071 269.241 74.1275C269.418 73.9345 269.568 73.718 269.686 73.4841C269.796 73.2648 269.837 73.0179 269.806 72.7748C269.679 72.3035 269.476 71.8563 269.204 71.451C268.987 71.0659 268.89 70.625 268.924 70.1844C268.959 69.7437 269.123 69.3233 269.398 68.9767C269.585 68.7499 269.816 68.5641 270.078 68.4307C270.34 68.2973 270.626 68.2192 270.919 68.2014C271.077 68.1909 271.235 68.2006 271.39 68.2302C271.444 68.2354 271.497 68.2508 271.546 68.2756C271.546 68.3003 271.324 68.2385 270.928 68.2756C270.649 68.3089 270.379 68.3975 270.135 68.5363C269.89 68.6751 269.676 68.8613 269.505 69.0839C269.257 69.4091 269.111 69.8007 269.086 70.209C269.061 70.6173 269.158 71.0238 269.365 71.3768C269.656 71.7987 269.872 72.2674 270.004 72.7624C270.039 73.0447 269.991 73.3311 269.868 73.5872C269.742 73.8395 269.581 74.0727 269.389 74.2801C269.013 74.6484 268.685 75.0643 268.416 75.5172C268.205 75.9521 268.103 76.432 268.119 76.9153C268.128 77.3262 268.227 77.7301 268.411 78.0981C268.594 78.466 268.856 78.7888 269.179 79.0432C269.622 79.3883 270.149 79.6102 270.705 79.6865C271.113 79.736 271.34 79.703 271.34 79.7237Z" fill="#FAFAFA"/>
<path d="M252.415 83.6898C252.636 83.7169 252.858 83.7279 253.079 83.7228C253.681 83.6928 254.254 83.4553 254.7 83.0506C255.019 82.749 255.251 82.3667 255.371 81.9442C255.49 81.5217 255.494 81.0748 255.381 80.6505C255.248 80.1453 254.96 79.6949 254.556 79.3638C254.088 79.0105 253.679 78.5861 253.343 78.106C253.07 77.5712 252.973 76.9632 253.067 76.3698C253.129 75.8049 253.261 75.2811 253.347 74.7821C253.446 74.3175 253.475 73.8408 253.434 73.3676C253.395 72.9596 253.239 72.5716 252.985 72.25C252.609 71.7805 252.073 71.4674 251.479 71.3716C251.259 71.3469 251.037 71.3386 250.815 71.3469C250.815 71.3469 250.869 71.3263 250.984 71.3015C251.151 71.281 251.32 71.281 251.488 71.3015C252.118 71.3696 252.698 71.6801 253.104 72.1676C253.385 72.5057 253.561 72.9184 253.611 73.3553C253.663 73.8467 253.64 74.3432 253.541 74.8275C253.459 75.3389 253.331 75.8585 253.277 76.4028C253.19 76.9521 253.278 77.5148 253.529 78.0112C253.857 78.4696 254.252 78.8768 254.7 79.2195C255.125 79.5838 255.426 80.0708 255.562 80.6134C255.679 81.07 255.669 81.5499 255.533 82.0013C255.397 82.4527 255.141 82.8583 254.791 83.1743C254.314 83.589 253.703 83.8174 253.071 83.8177C252.902 83.8205 252.733 83.8025 252.568 83.7641C252.469 83.7187 252.411 83.6981 252.415 83.6898Z" fill="#FAFAFA"/>
<path d="M262.581 46.1956C263.285 46.0554 264.01 46.0673 264.709 46.2306C265.407 46.3938 266.063 46.7045 266.632 47.142C267.2 47.5794 267.669 48.1334 268.006 48.7668C268.343 49.4002 268.54 50.0984 268.585 50.8144C268.635 51.6021 268.536 52.5135 269.093 53.0743C269.505 53.4867 270.091 53.5527 270.581 53.8208C271.04 54.086 271.392 54.5031 271.576 55.0001C271.759 55.4971 271.764 56.0428 271.588 56.5426C271.398 57.0333 271.035 57.4498 270.849 57.9447C270.577 58.6747 270.35 59.5118 270.573 60.2582C271.72 64.176 268.924 64.6544 267.464 64.9183C265.377 65.2853 263.261 64.6214 263.047 62.4439C262.977 61.7387 261.719 61.8171 261.018 61.9078C260.193 62.0192 259.546 62.7326 258.927 63.3058C257.99 64.2599 256.804 64.9315 255.504 65.2441C254.855 65.3931 254.179 65.38 253.536 65.206C252.893 65.0319 252.303 64.7023 251.817 64.2461C250.894 63.2935 250.667 61.6563 251.479 60.6088C250.983 60.3828 250.545 60.0475 250.197 59.628C249.849 59.2085 249.6 58.7156 249.47 58.1864C249.339 57.6572 249.33 57.1053 249.443 56.5721C249.556 56.0389 249.788 55.5382 250.123 55.1074C250.63 54.4517 251.36 53.9651 251.727 53.2187C252.032 52.5918 252.362 51.1567 252.601 50.4928C252.939 49.5566 254.094 47.9524 254.989 47.5153" fill="#455A64"/>
<path d="M266.288 67.5908L258.544 67.7022C258.412 66.8073 258.152 63.3308 258.152 63.3308C258.152 63.3308 254.906 63.1328 254.564 59.9409C254.222 56.749 254.086 49.3507 254.086 49.3507C255.829 48.3992 257.795 47.9301 259.781 47.9917C261.766 48.0533 263.7 48.6434 265.381 49.7012L265.888 50.0187L266.288 67.5908Z" fill="#FFBE9D"/>
<path d="M257.892 57.8578C257.657 57.7859 257.412 57.7566 257.166 57.7712C257.051 57.7712 256.956 57.7712 256.944 57.6928C256.928 57.5777 256.945 57.4605 256.993 57.3547L257.257 56.4268C257.62 55.1071 257.859 54.0225 257.789 54.0061C257.719 53.9896 257.377 55.0412 257.014 56.3608C256.931 56.6825 256.849 56.9918 256.771 57.2928C256.716 57.4505 256.716 57.6218 256.771 57.7794C256.791 57.8216 256.821 57.8584 256.858 57.887C256.896 57.9156 256.939 57.9353 256.985 57.9444C257.051 57.9524 257.117 57.9524 257.183 57.9444C257.422 57.9529 257.662 57.9236 257.892 57.8578Z" fill="#263238"/>
<path d="M258.14 63.2845C259.619 63.1714 261.031 62.6217 262.197 61.7051C262.197 61.7051 261.43 64.1011 258.21 64.1135L258.14 63.2845Z" fill="#E2A38D"/>
<path d="M260.301 54.5177C260.301 54.6271 260.257 54.7319 260.18 54.8093C260.102 54.8866 259.998 54.9301 259.888 54.9301C259.836 54.9334 259.784 54.9263 259.735 54.9091C259.686 54.8919 259.641 54.865 259.602 54.8299C259.564 54.7949 259.533 54.7525 259.511 54.7052C259.489 54.658 259.477 54.6068 259.476 54.5548C259.476 54.4454 259.519 54.3405 259.597 54.2632C259.674 54.1859 259.779 54.1424 259.888 54.1424C259.94 54.1391 259.992 54.1462 260.041 54.1634C260.09 54.1806 260.136 54.2075 260.174 54.2425C260.213 54.2776 260.244 54.32 260.265 54.3672C260.287 54.4145 260.299 54.4657 260.301 54.5177V54.5177Z" fill="#263238"/>
<path d="M260.964 54.0814C260.915 54.1309 260.614 53.9 260.177 53.8917C259.74 53.8835 259.418 54.0938 259.352 54.0402C259.286 53.9866 259.385 53.9206 259.525 53.8216C259.717 53.6954 259.943 53.6307 260.173 53.6361C260.4 53.6396 260.619 53.7163 260.799 53.8546C260.948 53.9619 260.989 54.0567 260.964 54.0814Z" fill="#263238"/>
<path d="M255.834 54.5049C255.834 54.6143 255.791 54.7192 255.714 54.7966C255.636 54.8739 255.531 54.9173 255.422 54.9173C255.37 54.9213 255.318 54.9147 255.269 54.8979C255.22 54.8812 255.175 54.8547 255.136 54.82C255.098 54.7853 255.067 54.7431 255.045 54.6961C255.023 54.649 255.011 54.598 255.01 54.5462C255.01 54.4368 255.053 54.3319 255.13 54.2546C255.208 54.1772 255.313 54.1338 255.422 54.1338C255.525 54.1333 255.624 54.171 255.7 54.2397C255.776 54.3083 255.824 54.4029 255.834 54.5049V54.5049Z" fill="#263238"/>
<path d="M256.411 54.1468C256.362 54.1963 256.061 53.9654 255.624 53.9571C255.187 53.9489 254.865 54.1592 254.799 54.1056C254.733 54.052 254.832 53.986 254.972 53.887C255.165 53.7622 255.39 53.6989 255.62 53.7055C255.846 53.7079 256.066 53.7831 256.246 53.92C256.395 54.0272 256.44 54.1221 256.411 54.1468Z" fill="#263238"/>
<path d="M259.272 59.4185C258.92 59.2803 258.53 59.2732 258.173 59.3985C257.816 59.5238 257.515 59.7731 257.327 60.1011C257.621 59.9108 257.928 59.7417 258.246 59.595C258.779 59.4061 259.264 59.4826 259.272 59.4185Z" fill="#263238"/>
<path d="M254.832 52.9671C255.205 52.791 255.625 52.7432 256.028 52.831Z" fill="#E2A38D"/>
<path d="M256.028 52.8306C255.995 52.9502 255.735 52.979 255.443 53.012C255.15 53.045 254.89 53.0698 254.832 52.9667C254.774 52.8636 255.009 52.6285 255.397 52.5873C255.785 52.546 256.061 52.7192 256.028 52.8306Z" fill="#263238"/>
<path d="M259.323 52.9995C259.878 52.8133 260.483 52.8473 261.014 53.0943Z" fill="#E2A38D"/>
<path d="M261.014 53.0909C260.956 53.1981 260.602 53.1157 260.165 53.0909C259.727 53.0662 259.369 53.0909 259.34 52.9919C259.311 52.893 259.67 52.629 260.206 52.662C260.742 52.695 261.072 53.0002 261.014 53.0909Z" fill="#263238"/>
<path d="M261.097 46.1335C260.867 45.8699 260.587 45.6561 260.272 45.505C259.957 45.354 259.615 45.2689 259.266 45.2551C258.214 45.1507 257.154 45.3244 256.19 45.7586C255.227 46.1929 254.395 46.8725 253.777 47.7294C253.071 48.7439 252.717 50.1584 253.364 51.2018C253.586 51.5523 253.905 51.8313 254.282 52.0056C254.658 52.1799 255.077 52.2421 255.488 52.1847C255.899 52.1272 256.285 51.9527 256.599 51.6819C256.914 51.411 257.144 51.0554 257.261 50.6574C257.268 50.8972 257.322 51.1332 257.421 51.3518C257.519 51.5704 257.661 51.7671 257.836 51.9305C258.012 52.0939 258.218 52.2207 258.443 52.3035C258.668 52.3863 258.908 52.4234 259.147 52.4127C259.387 52.4021 259.622 52.3438 259.839 52.2413C260.056 52.1388 260.25 51.9941 260.41 51.8158C260.571 51.6374 260.694 51.4289 260.773 51.2024C260.852 50.9759 260.885 50.736 260.87 50.4966C261.067 51.1541 261.469 51.7318 262.016 52.1462C262.589 52.5049 263.493 52.4183 263.79 51.808C264.152 52.2204 264.66 52.6782 265.204 52.5421C265.431 52.4634 265.625 52.3129 265.759 52.1134C265.892 51.9139 265.956 51.6763 265.942 51.4369C265.902 50.9573 265.741 50.4959 265.472 50.0966C264.416 48.2573 262.857 46.5665 260.808 46.0098" fill="#455A64"/>
<path d="M263.554 50.4968C264.031 51.3462 264.286 52.3026 264.294 53.2767C264.301 54.2509 264.063 55.2112 263.6 56.0683C263.255 56.5787 262.961 57.1215 262.721 57.689C262.607 57.9746 262.582 58.2881 262.649 58.5883C262.716 58.8886 262.872 59.1616 263.097 59.3715C263.398 59.5984 263.859 59.7138 263.921 60.0809C263.935 60.2691 263.897 60.4575 263.81 60.6252C263.526 61.3679 263.491 62.1828 263.711 62.947C263.859 63.4501 263.884 64.0728 265.084 64.5966C265.678 64.8646 266.004 65.3183 267.295 64.9883C269.555 64.4069 268.755 59.355 268.532 57.0333C268.309 54.7115 267.237 50.5669 265.934 48.6328" fill="#455A64"/>
<path d="M258.399 66.3375C258.399 66.3375 256.057 75.0844 257.55 74.2183C259.043 73.3523 266.288 67.5912 266.288 67.5912L262.626 64.8281L258.399 66.3375Z" fill="#FFBE9D"/>
<path d="M236.34 81.4015C236.081 80.5437 232.839 78.7786 233.33 78.3044C233.969 77.6817 236.629 80.3004 236.872 80.5024C237.116 80.7045 237.408 80.3581 237.182 80.1849C236.852 79.9375 233.47 77.2445 234.105 76.6301C234.452 76.2878 234.996 76.9806 234.996 76.9806C234.996 76.9806 237.965 79.7395 238.25 79.455C238.534 79.1704 236.848 77.4714 236.237 76.9476C235.627 76.4239 235.631 75.9249 236.072 75.8424C236.378 75.7847 238.279 77.3476 238.868 77.9044C239.458 78.4611 241.054 79.9292 240.852 78.5394C240.852 78.5188 240.852 78.4982 240.852 78.4735C240.613 77.1126 240.881 75.9991 241.178 75.7104C241.249 75.6556 241.333 75.6218 241.422 75.6128C241.512 75.6038 241.601 75.62 241.682 75.6595C241.762 75.699 241.83 75.7603 241.877 75.8364C241.924 75.9125 241.949 76.0003 241.949 76.0898C241.963 76.1564 241.963 76.2253 241.949 76.2919C241.949 76.3208 241.949 76.362 241.949 76.395C241.929 76.8684 241.96 77.3425 242.04 77.8095C242.1 78.23 242.231 78.6372 242.427 79.0137C242.658 79.4261 242.873 79.8137 243.058 80.1148C245.227 81.319 251.463 84.4944 257.715 84.9934C258.841 85.0841 263.831 77.2115 263.831 77.2115L271.254 80.7169C269.524 83.9697 267.549 87.0854 265.344 90.037C259.043 98.4993 239.483 84.3418 239.483 84.3418L239.301 84.2511C237.817 83.5175 236.374 82.7024 234.979 81.8097C233.297 80.622 233.396 80.4653 233.565 80.288C234.014 79.8055 236.6 82.2551 236.34 81.4015Z" fill="#FFBE9D"/>
<path d="M123.769 172.047L123.732 168.665L117.389 168.698V173.647L117.802 173.671C119.55 173.758 126.705 173.993 127.872 173.634C129.163 173.23 123.769 172.047 123.769 172.047Z" fill="#455A64"/>
<path d="M117.307 173.502H117.414H117.728L118.882 173.547C119.856 173.576 121.2 173.601 122.685 173.597C124.169 173.592 125.518 173.555 126.491 173.518L127.642 173.465L127.955 173.444H128.062C128.027 173.439 127.991 173.439 127.955 173.444H127.642L126.487 173.469C125.514 173.493 124.169 173.522 122.685 173.526C121.2 173.531 119.856 173.526 118.882 173.502L117.728 173.481H117.315L117.307 173.502Z" fill="#263238"/>
<path d="M125.848 173.637C125.896 173.446 125.967 173.26 126.058 173.085C126.178 172.923 126.317 172.775 126.47 172.644C126.27 172.717 126.106 172.865 126.013 173.056C125.886 173.222 125.827 173.43 125.848 173.637Z" fill="#263238"/>
<path d="M123.971 172.698C123.992 172.698 124.079 172.599 124.169 172.454C124.236 172.371 124.282 172.274 124.305 172.17C124.305 172.17 124.198 172.265 124.107 172.413C124.017 172.562 123.955 172.685 123.971 172.698Z" fill="#263238"/>
<path d="M123.456 172.43C123.456 172.43 123.571 172.376 123.678 172.277C123.786 172.178 123.864 172.087 123.852 172.071C123.839 172.054 123.736 172.12 123.629 172.219C123.522 172.318 123.443 172.413 123.456 172.43Z" fill="#263238"/>
<path d="M123.13 171.832C123.236 171.868 123.348 171.882 123.46 171.874C123.573 171.886 123.687 171.873 123.794 171.837C123.687 171.797 123.573 171.783 123.46 171.795C123.349 171.783 123.236 171.796 123.13 171.832V171.832Z" fill="#263238"/>
<path d="M123.019 171.413C123.128 171.484 123.256 171.52 123.386 171.516C123.516 171.536 123.649 171.519 123.769 171.466C123.646 171.443 123.52 171.435 123.394 171.442C123.27 171.419 123.144 171.409 123.019 171.413V171.413Z" fill="#263238"/>
<path d="M124.186 172.142C124.322 172.17 124.462 172.17 124.598 172.142C124.747 172.125 124.893 172.093 125.035 172.047C125.121 172.022 125.204 171.987 125.283 171.944C125.329 171.914 125.364 171.869 125.382 171.816C125.388 171.786 125.386 171.754 125.375 171.725C125.364 171.696 125.345 171.67 125.32 171.651C125.164 171.577 124.987 171.559 124.819 171.599C124.651 171.64 124.501 171.737 124.396 171.874C124.334 171.956 124.289 172.05 124.264 172.15C124.254 172.186 124.254 172.223 124.264 172.258C124.302 172.132 124.364 172.014 124.446 171.911C124.537 171.804 124.657 171.725 124.792 171.684C124.871 171.656 124.955 171.644 125.038 171.649C125.122 171.654 125.204 171.676 125.279 171.713C125.345 171.763 125.32 171.837 125.246 171.878C125.175 171.921 125.099 171.955 125.019 171.977C124.885 172.028 124.747 172.065 124.607 172.089C124.343 172.13 124.186 172.13 124.186 172.142Z" fill="#263238"/>
<path d="M124.289 172.183C124.34 172.099 124.356 171.998 124.334 171.903C124.323 171.796 124.285 171.693 124.223 171.606C124.188 171.546 124.139 171.495 124.08 171.459C124.021 171.423 123.954 171.403 123.885 171.399C123.844 171.408 123.808 171.433 123.784 171.467C123.76 171.501 123.751 171.544 123.757 171.585C123.767 171.65 123.791 171.712 123.827 171.766C123.881 171.857 123.946 171.94 124.021 172.014C124.084 172.087 124.165 172.144 124.256 172.179C124.256 172.179 124.173 172.105 124.062 171.977C123.995 171.902 123.937 171.821 123.889 171.733C123.835 171.647 123.794 171.494 123.889 171.474C123.984 171.453 124.095 171.564 124.157 171.647C124.215 171.725 124.254 171.815 124.272 171.911C124.288 172.001 124.293 172.092 124.289 172.183V172.183Z" fill="#263238"/>
<path d="M117.427 171.771C117.427 171.771 117.608 171.771 117.897 171.771C118.267 171.813 118.619 171.959 118.911 172.192C119.202 172.424 119.423 172.735 119.546 173.087C119.645 173.359 119.654 173.54 119.67 173.536C119.677 173.494 119.677 173.451 119.67 173.408C119.661 173.293 119.637 173.179 119.6 173.07C119.485 172.698 119.261 172.369 118.957 172.126C118.649 171.886 118.277 171.743 117.889 171.713C117.773 171.7 117.657 171.7 117.542 171.713C117.501 171.727 117.462 171.746 117.427 171.771V171.771Z" fill="#263238"/>
<path d="M118.074 169.127C118.031 169.56 118.015 169.995 118.025 170.43C118.005 170.865 118.014 171.3 118.053 171.733C118.093 171.3 118.109 170.865 118.099 170.43C118.116 169.996 118.108 169.56 118.074 169.127Z" fill="#263238"/>
<path d="M120.49 172.966C120.794 173.032 121.104 173.061 121.414 173.053C121.726 173.068 122.038 173.041 122.342 172.974C122.342 172.95 121.93 172.974 121.414 172.974C120.899 172.974 120.49 172.941 120.49 172.966Z" fill="#263238"/>
<path d="M119.246 172.966C119.246 172.966 119.283 173.056 119.324 173.151C119.365 173.246 119.39 173.328 119.411 173.328C119.431 173.328 119.444 173.225 119.411 173.118C119.378 173.011 119.262 172.953 119.246 172.966Z" fill="#263238"/>
<path d="M118.775 172.389C118.775 172.389 118.804 172.468 118.87 172.534C118.936 172.6 118.998 172.641 119.014 172.629C119.031 172.616 118.99 172.546 118.924 172.48C118.858 172.414 118.792 172.373 118.775 172.389Z" fill="#263238"/>
<path d="M118.107 172.124C118.107 172.145 118.194 172.145 118.288 172.178C118.383 172.211 118.449 172.256 118.466 172.244C118.482 172.232 118.429 172.141 118.313 172.104C118.198 172.067 118.099 172.104 118.107 172.124Z" fill="#263238"/>
<path d="M117.629 172.002C117.629 172.022 117.658 172.055 117.711 172.076C117.765 172.097 117.81 172.076 117.818 172.076C117.827 172.076 117.79 172.022 117.736 172.002C117.682 171.981 117.637 171.981 117.629 172.002Z" fill="#263238"/>
<path d="M86.8599 167.168L88.6538 164.281L83.2927 160.896L80.6287 165.081L80.9462 165.312C82.3731 166.327 88.2703 170.381 89.4456 170.706C90.7653 171.069 86.8599 167.168 86.8599 167.168Z" fill="#455A64"/>
<path d="M80.6287 164.909L80.7153 164.979L80.9709 165.161L81.9153 165.821C82.7401 166.369 83.8412 167.115 85.0949 167.911C86.3486 168.707 87.4991 169.404 88.3404 169.895L89.3384 170.472L89.6147 170.625C89.6766 170.658 89.7096 170.674 89.7137 170.67L89.623 170.608L89.3549 170.448L88.3693 169.85C87.5445 169.347 86.3898 168.641 85.1361 167.845C83.8824 167.05 82.7566 166.315 81.9483 165.783L80.9874 165.144L80.7235 164.975L80.6287 164.909Z" fill="#263238"/>
<path d="M87.7549 169.626C87.9001 169.492 88.0591 169.375 88.2291 169.275C88.4117 169.199 88.6028 169.145 88.7982 169.114C88.5932 169.07 88.3789 169.102 88.1961 169.205C88.0007 169.284 87.8429 169.434 87.7549 169.626V169.626Z" fill="#263238"/>
<path d="M86.6826 167.825C86.6826 167.845 86.8269 167.8 86.9795 167.726C87.1321 167.651 87.2558 167.577 87.2476 167.557C87.1411 167.567 87.0382 167.601 86.9465 167.656C86.8146 167.73 86.6744 167.804 86.6826 167.825Z" fill="#263238"/>
<path d="M86.4025 167.321C86.4025 167.342 86.5262 167.321 86.6705 167.321C86.8149 167.321 86.9303 167.259 86.9262 167.239C86.9221 167.218 86.8025 167.239 86.6582 167.239C86.5138 167.239 86.4025 167.301 86.4025 167.321Z" fill="#263238"/>
<path d="M86.4391 166.64C86.4391 166.64 86.5422 166.751 86.6948 166.854C86.8474 166.957 86.9834 167.019 86.9958 166.998C87.0082 166.978 86.8927 166.887 86.7401 166.788C86.6514 166.718 86.5488 166.667 86.4391 166.64V166.64Z" fill="#263238"/>
<path d="M86.5712 166.224C86.5712 166.224 86.6536 166.384 86.8268 166.512C86.9235 166.6 87.0442 166.656 87.1733 166.673C87.1733 166.653 87.0372 166.574 86.8722 166.45C86.7778 166.367 86.6771 166.291 86.5712 166.224V166.224Z" fill="#263238"/>
<path d="M87.1612 167.468C87.2607 167.561 87.3768 167.636 87.5035 167.686C87.636 167.749 87.7741 167.798 87.9159 167.835C88.0017 167.861 88.0902 167.878 88.1798 167.884C88.2356 167.886 88.29 167.867 88.3324 167.831C88.3533 167.809 88.3676 167.781 88.3734 167.751C88.3793 167.721 88.3765 167.69 88.3654 167.662C88.2756 167.514 88.1373 167.402 87.9741 167.345C87.8109 167.288 87.6328 167.289 87.4705 167.348C87.3739 167.384 87.2855 167.439 87.2107 167.509C87.1612 167.559 87.1406 167.592 87.1447 167.596C87.2466 167.512 87.3624 167.446 87.487 167.402C87.6214 167.361 87.7649 167.361 87.8994 167.402C87.9842 167.419 88.0646 167.454 88.1356 167.503C88.2065 167.553 88.2665 167.617 88.3117 167.691C88.3406 167.765 88.2788 167.814 88.1922 167.814C88.1099 167.809 88.0284 167.795 87.9488 167.773C87.8083 167.739 87.6704 167.695 87.5365 167.641C87.2973 167.542 87.1653 167.46 87.1612 167.468Z" fill="#263238"/>
<path d="M87.2272 167.543C87.2272 167.543 87.3344 167.494 87.4169 167.329C87.465 167.233 87.4877 167.126 87.4829 167.019C87.4855 166.95 87.4707 166.881 87.4397 166.819C87.4087 166.757 87.3626 166.704 87.3056 166.665C87.2662 166.65 87.2225 166.651 87.1839 166.668C87.1454 166.685 87.115 166.716 87.0994 166.755C87.0722 166.815 87.0594 166.88 87.0623 166.945C87.058 167.05 87.0677 167.156 87.0911 167.259C87.1065 167.354 87.1447 167.445 87.2025 167.522C87.2025 167.522 87.1695 167.415 87.1447 167.246C87.1338 167.147 87.1338 167.048 87.1447 166.949C87.1447 166.846 87.1942 166.694 87.2891 166.735C87.3839 166.776 87.4128 166.92 87.4252 167.023C87.4286 167.12 87.4132 167.217 87.3798 167.308C87.3358 167.391 87.2848 167.469 87.2272 167.543V167.543Z" fill="#263238"/>
<path d="M81.6722 163.522C81.6722 163.522 81.8331 163.605 82.0558 163.786C82.3481 164.023 82.5693 164.335 82.695 164.69C82.8161 165.044 82.8361 165.425 82.7527 165.791C82.6867 166.075 82.6001 166.232 82.6125 166.24C82.639 166.207 82.6612 166.171 82.6785 166.133C82.7325 166.029 82.7754 165.92 82.8063 165.807C82.9063 165.431 82.8934 165.034 82.7692 164.665C82.6384 164.298 82.4033 163.977 82.0929 163.741C81.9988 163.672 81.8979 163.612 81.7918 163.564C81.7546 163.543 81.7142 163.529 81.6722 163.522Z" fill="#263238"/>
<path d="M83.6392 161.638C83.3687 161.978 83.1194 162.335 82.8928 162.706C82.6437 163.062 82.4178 163.434 82.2164 163.819C82.4853 163.477 82.7332 163.119 82.9587 162.747C83.2047 162.389 83.4318 162.019 83.6392 161.638V161.638Z" fill="#263238"/>
<path d="M83.6061 166.17C83.8221 166.393 84.0677 166.586 84.336 166.743C84.5903 166.924 84.8677 167.069 85.1608 167.176C85.1608 167.155 84.8061 166.957 84.3773 166.677C83.9484 166.397 83.6185 166.153 83.6061 166.17Z" fill="#263238"/>
<path d="M82.5548 165.506C82.5548 165.506 82.5548 165.597 82.5218 165.7C82.4888 165.803 82.4806 165.886 82.5218 165.898C82.5631 165.91 82.6043 165.828 82.6208 165.713C82.6373 165.597 82.5754 165.498 82.5548 165.506Z" fill="#263238"/>
<path d="M82.4723 164.76C82.4723 164.76 82.4723 164.838 82.4723 164.933C82.4723 165.028 82.5218 165.094 82.5424 165.09C82.563 165.086 82.5671 165.007 82.5424 164.916C82.5177 164.826 82.4929 164.76 82.4723 164.76Z" fill="#263238"/>
<path d="M82.0472 164.178C82.0472 164.199 82.1132 164.244 82.1751 164.323C82.2369 164.401 82.2658 164.475 82.2864 164.475C82.307 164.475 82.3112 164.368 82.2328 164.273C82.1545 164.178 82.0555 164.158 82.0472 164.178Z" fill="#263238"/>
<path d="M81.7131 163.82C81.7131 163.82 81.7131 163.878 81.742 163.923C81.7709 163.969 81.8162 163.993 81.8327 163.981C81.8492 163.969 81.8327 163.923 81.8039 163.878C81.775 163.832 81.7296 163.804 81.7131 163.82Z" fill="#263238"/>
<path d="M111.414 101.536C111.414 101.536 116.775 137.269 116.008 138.993C115.241 140.717 90.1139 168.335 90.1139 168.335L80.8639 162.203C80.8639 162.203 102.795 134.572 102.63 133.925C102.465 133.277 94.3203 98.6611 94.3203 98.6611L111.414 101.536Z" fill="#3A7792"/>
<path d="M91.2645 98.1738L90.9387 99.4976C89.9857 103.406 90.5765 107.532 92.5883 111.016L107.162 136.304C108.198 138.094 108.952 140.033 109.397 142.052L115.996 171.25H126.153C126.153 171.856 123.526 147.195 122.206 139.005C121.217 132.819 112.948 113.655 108.944 104.599L111.418 101.547L107.105 100.838L91.2645 98.1738Z" fill="#3A7792"/>
<path d="M109.249 104.521C109.34 104.649 109.414 104.788 109.471 104.934C109.603 105.198 109.785 105.585 110.003 106.068C110.441 107.029 111.014 108.373 111.599 109.874C112.185 111.375 112.668 112.761 112.997 113.759C113.158 114.262 113.286 114.67 113.369 114.955C113.421 115.1 113.457 115.251 113.476 115.405C113.396 115.276 113.334 115.137 113.29 114.992C113.171 114.67 113.022 114.279 112.853 113.817C112.49 112.827 111.983 111.462 111.397 109.961C110.812 108.46 110.263 107.111 109.863 106.134C109.682 105.68 109.525 105.309 109.393 104.975C109.323 104.832 109.275 104.679 109.249 104.521Z" fill="#263238"/>
<path d="M110.445 146.903C110.414 146.81 110.392 146.715 110.379 146.618C110.341 146.408 110.292 146.136 110.234 145.793C110.201 145.612 110.168 145.414 110.131 145.2C110.094 144.985 110.032 144.75 109.974 144.498C109.863 143.999 109.748 143.426 109.562 142.804C109.475 142.49 109.389 142.164 109.294 141.826L108.96 140.775C108.745 140.049 108.444 139.294 108.135 138.49C107.508 136.898 106.745 135.191 105.859 133.417C104.305 130.424 102.594 127.516 100.733 124.704C100.027 123.64 99.4543 122.769 99.0377 122.147C98.848 121.858 98.6996 121.627 98.58 121.45C98.5234 121.37 98.4738 121.286 98.4315 121.198C98.5014 121.267 98.5636 121.343 98.6171 121.425L99.1078 122.097C99.5202 122.687 100.135 123.545 100.861 124.621C102.761 127.415 104.493 130.319 106.048 133.318C106.939 135.088 107.698 136.816 108.321 138.416C108.605 139.24 108.902 139.987 109.113 140.721L109.434 141.777C109.521 142.123 109.607 142.449 109.69 142.766C109.863 143.393 109.966 143.971 110.069 144.474C110.119 144.727 110.164 144.962 110.205 145.179C110.238 145.397 110.263 145.591 110.292 145.777C110.333 146.119 110.37 146.395 110.399 146.602C110.425 146.7 110.44 146.801 110.445 146.903V146.903Z" fill="#263238"/>
<path d="M91.4746 166.858C91.3322 166.827 91.1939 166.78 91.0622 166.718C90.6857 166.57 90.318 166.401 89.9611 166.211C88.7879 165.57 87.6657 164.841 86.6042 164.029C85.3671 163.097 84.2288 162.247 83.3793 161.687C82.5298 161.126 81.9813 160.812 81.9978 160.779C82.1421 160.823 82.2805 160.884 82.4102 160.961C82.67 161.084 83.0288 161.291 83.4659 161.559C84.3443 162.091 85.4908 162.924 86.7362 163.856C87.7897 164.662 88.8915 165.403 90.0353 166.074C90.9055 166.578 91.487 166.821 91.4746 166.858Z" fill="#263238"/>
<path d="M126.116 169.709C125.979 169.725 125.84 169.725 125.703 169.709H124.553L120.771 169.68L116.985 169.701H115.835C115.697 169.708 115.558 169.699 115.422 169.676C115.556 169.636 115.695 169.615 115.835 169.614C116.107 169.593 116.499 169.565 116.985 169.544C117.95 169.494 119.295 169.453 120.775 169.457C122.256 169.461 123.596 169.499 124.565 169.552C125.048 169.577 125.439 169.602 125.711 169.626C125.849 169.635 125.985 169.663 126.116 169.709V169.709Z" fill="#263238"/>
<path d="M97.9494 61.6987C97.0563 61.8198 96.1473 61.6764 95.3348 61.2863C94.9326 61.0898 94.5919 60.7867 94.3498 60.4101C94.1076 60.0335 93.9734 59.5977 93.9616 59.1501C93.9616 58.6264 94.2049 58.1109 94.1183 57.5954C94.0317 57.0799 93.6481 56.6675 93.4007 56.2057C93.1067 55.616 93.0233 54.9434 93.1643 54.2998C93.3053 53.6561 93.6623 53.0801 94.176 52.6673C94.7162 52.2549 95.4132 52.0405 95.8586 51.5332C96.3947 50.9353 96.4813 50.0692 96.8071 49.3352C97.049 48.8064 97.4169 48.345 97.8784 47.9913C98.34 47.6376 98.8812 47.4024 99.4546 47.3062C100.09 47.2072 100.75 47.2773 101.356 47.0753C101.856 46.8589 102.329 46.5819 102.762 46.2505C104.197 45.323 105.938 44.9958 107.612 45.3391C108.345 45.4686 109.026 45.8048 109.575 46.3082C110.164 46.8938 110.923 47.5454 111.138 48.3289C111.389 49.2774 111.08 50.4651 110.828 51.4095C110.577 52.3539 109.814 53.2199 108.841 53.3354" fill="#263238"/>
<path d="M97.7473 68.9934L105.492 69.1006C105.624 68.2099 105.904 64.7293 105.904 64.7293C105.904 64.7293 109.15 64.5354 109.488 61.3394C109.826 58.1433 109.967 50.7532 109.967 50.7532C108.223 49.7997 106.256 49.3295 104.269 49.3911C102.282 49.4527 100.348 50.044 98.667 51.1038L98.1597 51.4254L97.7473 68.9934Z" fill="#FFBE9D"/>
<path d="M106.144 59.257C106.381 59.1905 106.627 59.1626 106.873 59.1746C106.989 59.1746 107.08 59.1539 107.096 59.0921C107.108 58.9779 107.09 58.8627 107.043 58.758L106.779 57.8301C106.522 57.0412 106.344 56.229 106.247 55.4053C106.583 56.164 106.842 56.9541 107.022 57.7642C107.109 58.0858 107.187 58.391 107.265 58.6962C107.322 58.852 107.322 59.0228 107.265 59.1787C107.244 59.2215 107.214 59.2588 107.176 59.2874C107.138 59.3161 107.094 59.3354 107.047 59.3436C106.981 59.3535 106.914 59.3535 106.849 59.3436C106.61 59.3558 106.372 59.3265 106.144 59.257V59.257Z" fill="#263238"/>
<path d="M105.896 64.6837C104.417 64.5735 103.004 64.025 101.838 63.1084C101.838 63.1084 102.609 65.5003 105.826 65.5127L105.896 64.6837Z" fill="#EB996E"/>
<path d="M98.1841 54.7864C98.1181 54.7576 95.9943 54.4111 96.1221 56.9391C96.25 59.4671 98.7532 58.5103 98.7573 58.4361C98.7614 58.3619 98.1841 54.7864 98.1841 54.7864Z" fill="#FFBE9D"/>
<path d="M97.9493 57.5869C97.9493 57.5869 97.904 57.6199 97.8338 57.657C97.7309 57.7065 97.6131 57.7154 97.5039 57.6818C97.3363 57.5855 97.197 57.4467 97.1 57.2795C97.003 57.1123 96.9517 56.9225 96.9513 56.7291C96.9348 56.5117 96.9672 56.2932 97.0462 56.0899C97.0666 56.0107 97.1057 55.9375 97.1602 55.8765C97.2147 55.8155 97.2831 55.7685 97.3596 55.7394C97.4098 55.7242 97.4637 55.7265 97.5124 55.746C97.5612 55.7655 97.6018 55.801 97.6276 55.8466C97.6648 55.9167 97.6276 55.9662 97.6648 55.9703C97.7019 55.9745 97.7142 55.925 97.6895 55.8219C97.6725 55.7601 97.6346 55.7062 97.5823 55.6693C97.5478 55.6437 97.5083 55.6258 97.4664 55.6165C97.4244 55.6073 97.381 55.607 97.339 55.6157C97.2358 55.6399 97.1408 55.6907 97.0633 55.763C96.9859 55.8354 96.9288 55.9268 96.8977 56.0281C96.7998 56.2524 96.7587 56.4975 96.7781 56.7415C96.7751 56.967 96.8394 57.1883 96.9628 57.3771C97.0863 57.5659 97.2632 57.7136 97.4709 57.8014C97.5416 57.8203 97.6158 57.8224 97.6875 57.8073C97.7591 57.7923 97.8262 57.7606 97.8833 57.7148C97.9493 57.6488 97.9493 57.591 97.9493 57.5869Z" fill="#EB996E"/>
<path d="M103.273 54.7251C103.236 54.6798 103.298 54.5602 103.463 54.4323C103.682 54.2767 103.941 54.1853 104.209 54.1684C104.478 54.1473 104.747 54.2031 104.985 54.3292C105.166 54.4323 105.24 54.5437 105.211 54.5891C105.149 54.6963 104.741 54.5561 104.238 54.5891C103.735 54.622 103.347 54.82 103.273 54.7251Z" fill="#263238"/>
<path d="M107.756 54.7488C107.731 54.6375 108.078 54.4725 108.531 54.4766C108.985 54.4808 109.331 54.6416 109.311 54.7571C109.29 54.8725 108.944 54.9055 108.531 54.9055C108.119 54.9055 107.777 54.8684 107.756 54.7488Z" fill="#263238"/>
<path d="M97.3802 52.2018C97.504 52.9771 97.6249 53.7538 97.7432 54.5318C97.7638 54.9024 97.8913 55.259 98.1102 55.5587C98.5226 56.0165 99.2731 55.9711 99.801 55.67C100.572 55.2205 100.997 54.3586 101.323 53.5256C101.649 52.6926 101.937 51.8142 102.56 51.1791C103.008 51.648 103.592 51.9634 104.23 52.0804C104.867 52.1974 105.526 52.11 106.111 51.8307C106.626 51.575 107.055 51.1708 107.55 50.8739C107.786 50.7067 108.058 50.5959 108.344 50.5501C108.63 50.5044 108.923 50.5248 109.199 50.61C109.492 50.7337 109.756 50.9729 110.07 50.9564C110.19 50.9462 110.305 50.9052 110.405 50.8372C110.505 50.7693 110.585 50.6769 110.639 50.5687C110.741 50.3489 110.777 50.1036 110.742 49.8635C110.639 48.9728 109.917 48.2635 109.092 47.8676C107.942 47.3026 106.618 47.2242 105.331 47.2201C104.111 47.184 102.892 47.3046 101.702 47.5789C100.508 47.86 99.4214 48.4834 98.5762 49.3728C98.1598 49.8211 97.85 50.3578 97.6701 50.9426C97.4901 51.5275 97.4446 52.1454 97.537 52.7503" fill="#263238"/>
<path d="M107.463 49.6429C107.632 50.4637 108.067 51.2059 108.7 51.7544C108.986 52.039 109.366 52.2092 109.769 52.2327C110.092 52.1942 110.39 52.0379 110.605 51.7937C110.82 51.5495 110.938 51.2345 110.936 50.909C110.907 50.2527 110.624 49.6333 110.148 49.181C109.741 48.6993 109.163 48.3947 108.535 48.3315C108.224 48.3166 107.919 48.4195 107.681 48.6198C107.442 48.8201 107.288 49.103 107.249 49.412" fill="#263238"/>
<path d="M103.723 55.9213C103.723 56.0307 103.766 56.1356 103.844 56.2129C103.921 56.2902 104.026 56.3337 104.135 56.3337C104.187 56.337 104.239 56.3299 104.288 56.3127C104.337 56.2955 104.383 56.2686 104.421 56.2335C104.459 56.1985 104.491 56.1561 104.512 56.1089C104.534 56.0616 104.546 56.0104 104.548 55.9584C104.548 55.849 104.504 55.7441 104.427 55.6668C104.349 55.5895 104.245 55.546 104.135 55.546C104.083 55.5421 104.031 55.5488 103.981 55.5658C103.932 55.5828 103.887 55.6097 103.848 55.6448C103.81 55.6799 103.778 55.7226 103.757 55.7701C103.735 55.8177 103.724 55.8691 103.723 55.9213V55.9213Z" fill="#263238"/>
<path d="M103.071 55.4756C103.125 55.5292 103.426 55.2941 103.863 55.2859C104.3 55.2776 104.622 55.4921 104.667 55.4343C104.713 55.3766 104.638 55.3189 104.494 55.2199C104.305 55.094 104.082 55.0293 103.855 55.0345C103.627 55.0396 103.407 55.1144 103.224 55.2487C103.092 55.3601 103.047 55.4756 103.071 55.4756Z" fill="#263238"/>
<path d="M108.201 55.9075C108.201 56.0169 108.245 56.1218 108.322 56.1991C108.399 56.2765 108.504 56.3199 108.614 56.3199C108.666 56.3238 108.718 56.3171 108.767 56.3001C108.817 56.2831 108.862 56.2563 108.901 56.2211C108.939 56.186 108.97 56.1433 108.992 56.0958C109.013 56.0483 109.025 55.9968 109.026 55.9446C109.026 55.8352 108.983 55.7304 108.905 55.653C108.828 55.5757 108.723 55.5322 108.614 55.5322C108.51 55.5318 108.411 55.5701 108.334 55.6396C108.258 55.7091 108.21 55.8047 108.201 55.9075Z" fill="#263238"/>
<path d="M107.624 55.5463C107.673 55.5999 107.978 55.3648 108.416 55.3566C108.853 55.3483 109.174 55.5628 109.24 55.5092C109.306 55.4555 109.212 55.3896 109.067 55.2906C108.877 55.1638 108.653 55.099 108.425 55.1049C108.197 55.1108 107.976 55.1872 107.793 55.3236C107.644 55.4267 107.599 55.5257 107.624 55.5463Z" fill="#263238"/>
<path d="M106.552 61.0439C106.571 61.022 106.521 60.9146 106.363 60.7952C106.155 60.6419 105.897 60.5719 105.64 60.5991C105.382 60.6244 105.143 60.7438 104.967 60.9345C104.841 61.0816 104.809 61.201 104.831 61.214C104.852 61.227 105.139 60.854 105.659 60.8111C106.18 60.7683 106.517 61.0904 106.552 61.0439Z" fill="#263238"/>
<path d="M107.5 77.0726L113.938 74.9199C113.938 74.9199 118.416 85.5226 119.571 85.6422C125.959 86.2236 132.796 84.1081 135.192 83.2709C135.436 82.9946 135.716 82.6688 136.017 82.2647C136.281 81.9191 136.485 81.5315 136.619 81.1182C136.804 80.6094 136.919 80.0782 136.962 79.5387C136.948 79.4338 136.968 79.3272 137.019 79.2343C137.069 79.1413 137.148 79.0667 137.243 79.021C137.339 78.9753 137.446 78.9609 137.551 78.9798C137.655 78.9987 137.75 79.05 137.823 79.1263C138.1 79.4851 138.17 80.8543 137.539 82.3265C136.908 83.7988 139.139 82.6276 139.96 82.2152C140.78 81.8028 143.383 80.6481 143.708 80.8007C144.187 81.0234 144.038 81.576 143.209 81.9677C142.38 82.3595 139.972 83.7163 140.211 84.1369C140.45 84.5576 144.599 82.4007 144.599 82.4007C144.599 82.4007 145.424 81.7945 145.704 82.2729C146.232 83.1389 141.646 85.106 141.209 85.2834C140.9 85.4071 141.143 85.8772 141.465 85.7246C141.787 85.5721 145.556 83.4771 146.1 84.3555C146.513 85.0277 142.347 86.0051 141.811 86.8752C141.275 87.7454 144.896 85.8112 145.271 86.4628C145.407 86.7103 145.478 86.9123 143.234 87.7C141.592 88.2156 139.924 88.6424 138.236 88.9784V88.9784C138.236 88.9784 115.142 99.313 111.018 89.3413C106.783 79.2294 107.5 77.0726 107.5 77.0726Z" fill="#EB996E"/>
<path d="M116.095 78.4134C113.517 72.3801 110.144 70.0171 108.362 69.1428C107.738 68.8399 107.059 68.666 106.366 68.6315V68.6315L106.152 67.5922L97.6153 66.8252L97.405 68.1449L96.1678 68.0747C96.1678 68.0747 88.8107 68.8129 88.7942 77.3371C88.7942 81.3249 90.9428 85.2056 91.7016 87.1067C92.1758 91.0822 90.4644 98.2949 90.518 100.052L111.439 101.536L112.296 88.4676L112.103 87.2304L118.99 85.119L116.095 78.4134Z" fill="#EBEBEB"/>
<path d="M162.415 49.5619C159.395 45.822 155.334 43.0611 150.746 41.6284C146.158 40.1957 141.247 40.1554 136.636 41.5125C132.025 42.8697 127.919 45.5635 124.839 49.2533C121.758 52.9432 119.84 57.4635 119.328 62.243V62.243C118.914 66.1287 119.445 70.0567 120.873 73.6937C122.302 77.3308 124.587 80.5695 127.535 83.1349L106.259 108.105L109.311 110.708L130.755 85.5268C133.835 87.4281 137.301 88.6134 140.9 88.995C141.774 89.0888 142.652 89.1356 143.531 89.1352C148.114 89.12 152.599 87.8108 156.471 85.3585C160.342 82.9061 163.442 79.4103 165.414 75.2735C167.386 71.1366 168.149 66.527 167.617 61.9754C167.084 57.4237 165.276 53.115 162.402 49.5454L162.415 49.5619ZM163.677 66.9814C163.177 71.6488 161.075 75.9986 157.728 79.2897C154.381 82.5808 149.996 84.6096 145.321 85.0304C140.646 85.4512 135.969 84.2379 132.088 81.5974C128.208 78.9568 125.362 75.0523 124.037 70.5492C122.712 66.046 122.99 61.2227 124.822 56.9012C126.655 52.5796 129.929 49.0272 134.087 46.8491C138.246 44.671 143.03 44.002 147.626 44.9561C152.222 45.9102 156.345 48.4284 159.293 52.0816C160.972 54.152 162.225 56.5349 162.977 59.0925C163.73 61.65 163.967 64.3314 163.677 66.9814V66.9814Z" fill="#263238"/>
<path d="M160.703 47.8504C157.684 44.1085 153.624 41.3459 149.035 39.9119C144.446 38.478 139.535 38.4372 134.923 39.7946C130.311 41.152 126.205 43.8467 123.124 47.5379C120.043 51.2291 118.127 55.7509 117.616 60.5315V60.5315C117.202 64.4172 117.732 68.3454 119.161 71.9826C120.589 75.6197 122.875 78.8583 125.823 81.4233L104.288 106.579L107.55 109.19L129.056 83.7987C132.136 85.6984 135.603 86.8835 139.201 87.2669C140.075 87.3588 140.953 87.4056 141.832 87.4071C146.415 87.3919 150.9 86.0827 154.771 83.6304C158.643 81.178 161.743 77.6822 163.715 73.5454C165.687 69.4086 166.45 64.799 165.917 60.2473C165.385 55.6956 163.577 51.387 160.703 47.8174V47.8504ZM161.965 65.2699C161.466 69.9395 159.363 74.2917 156.015 77.5848C152.667 80.8778 148.281 82.908 143.603 83.3294C138.926 83.7508 134.247 82.5373 130.364 79.8956C126.482 77.254 123.635 73.3477 122.309 68.8424C120.984 64.3371 121.261 59.5116 123.095 55.1881C124.929 50.8646 128.205 47.3107 132.365 45.1319C136.525 42.9532 141.312 42.2844 145.91 43.2395C150.508 44.1947 154.633 46.7147 157.581 50.3701C159.26 52.4408 160.512 54.8238 161.264 57.3812C162.017 59.9386 162.255 62.6198 161.965 65.2699Z" fill="#455A64"/>
<path d="M130.756 76.2795C130.695 76.2276 130.64 76.168 130.595 76.1022C130.496 75.9785 130.343 75.8012 130.182 75.5579C129.681 74.8782 129.228 74.1644 128.826 73.4217C127.482 70.9673 126.666 68.2594 126.429 65.4714C126.193 62.6834 126.541 59.8767 127.452 57.2311C127.722 56.4326 128.047 55.654 128.426 54.9011C128.553 54.6289 128.673 54.4309 128.751 54.2948C128.783 54.2212 128.826 54.153 128.879 54.0928C128.855 54.1695 128.825 54.244 128.788 54.3155C128.727 54.4598 128.619 54.6619 128.5 54.9341C128.154 55.6986 127.851 56.482 127.592 57.2806C126.73 59.9161 126.406 62.6983 126.641 65.4615C126.877 68.2247 127.666 70.9122 128.962 73.3639C129.348 74.1073 129.778 74.8274 130.248 75.5207C130.409 75.7723 130.549 75.9331 130.636 76.0857C130.682 76.1461 130.722 76.2111 130.756 76.2795V76.2795Z" fill="#263238"/>
<path d="M131.765 51.3218C131.803 51.3713 131.555 51.6022 131.308 51.928C131.06 52.2538 130.895 52.5466 130.838 52.526C130.78 52.5054 130.862 52.1466 131.135 51.796C131.407 51.4455 131.737 51.2723 131.765 51.3218Z" fill="#263238"/>
<path d="M110.387 73.8564C110.454 74.0413 110.503 74.2318 110.536 74.4255C110.618 74.7926 110.725 75.3287 110.853 75.9968C111.101 77.3247 111.402 79.1722 111.678 81.2218C111.954 83.2714 112.091 85.1354 112.169 86.4839C112.21 87.1603 112.235 87.7211 112.243 88.084C112.263 88.2801 112.263 88.4777 112.243 88.6737C112.201 88.4825 112.176 88.2879 112.169 88.0923C112.132 87.6799 112.082 87.1396 112.025 86.4963C111.905 85.1519 111.723 83.292 111.472 81.2465C111.22 79.2011 110.94 77.3577 110.73 76.0215C110.631 75.3864 110.548 74.8544 110.482 74.4379C110.43 74.248 110.398 74.0531 110.387 73.8564V73.8564Z" fill="#263238"/>
<path d="M121.765 94.1135C121.765 94.1135 98.671 104.469 94.547 94.497C90.3159 84.3398 91.0335 82.183 91.0335 82.183L97.4709 80.0303C97.4709 80.0303 101.954 90.6329 103.104 90.7525C109.496 91.3381 116.334 89.2184 118.73 88.3812C118.973 88.1091 119.249 87.7792 119.555 87.3791C119.86 86.9791 120.099 86.5543 120.379 86.1956C120.99 85.4326 121.472 85.3048 121.74 85.0037C122.375 84.2821 122.977 84.8099 122.681 85.1976C122.384 85.5852 121.72 85.9811 121.089 87.4575C120.458 88.9339 122.705 88.2039 123.596 87.973C124.578 87.7132 126.421 86.9956 126.421 86.9956C126.466 87.4286 125.976 88.2988 125.147 88.6905C124.698 88.9092 124.236 89.1019 123.765 89.2679C123.765 89.2679 125.468 89.0576 125.514 89.4493C125.559 89.8411 125.011 92.7114 123.196 93.5733L121.765 94.1135Z" fill="#FFBE9D"/>
<path d="M95.9576 70.791L100.106 83.3154L91.0337 86.9032C91.0337 86.9032 86.2994 74.6015 92.2956 71.5911L95.9576 70.791Z" fill="#EBEBEB"/>
<path d="M100.708 82.8287C100.708 82.8287 100.659 82.7957 100.585 82.7132C100.482 82.5841 100.391 82.4461 100.313 82.3008C100.06 81.765 99.8411 81.2141 99.6568 80.6512C99.1496 79.2491 98.4609 77.3026 97.7145 75.154L96.6711 72.1188C96.3494 71.1868 96.0979 70.3208 95.6236 69.764C95.447 69.538 95.2219 69.3543 94.965 69.2266C94.7081 69.0989 94.4259 69.0303 94.139 69.0259C93.9272 69.0397 93.7193 69.0899 93.5245 69.1743C93.5245 69.1743 93.5658 69.129 93.6647 69.0753C93.8104 68.9988 93.9706 68.9539 94.1349 68.9434C94.4401 68.9296 94.7443 68.9878 95.023 69.1131C95.3016 69.2385 95.5469 69.4275 95.7391 69.6651C96.2587 70.2465 96.5268 71.1332 96.8567 72.0528C97.1866 72.9725 97.5412 74.0076 97.9165 75.0839C98.6671 77.2325 99.331 79.2079 99.8012 80.6017C100.04 81.3111 100.214 81.8925 100.387 82.2513C100.56 82.6101 100.725 82.8163 100.708 82.8287Z" fill="#263238"/>
<path d="M100.514 83.0645C100.41 83.1505 100.295 83.2226 100.172 83.2789C99.9454 83.4067 99.6113 83.5799 99.1948 83.7861C98.37 84.1985 97.1947 84.7347 95.8957 85.2666C94.5966 85.7986 93.3636 86.2234 92.4769 86.5038C92.0356 86.644 91.6521 86.7513 91.4212 86.8172C91.2884 86.865 91.1496 86.8941 91.0088 86.9038C91.4633 86.692 91.9318 86.5115 92.4109 86.3636C93.2852 86.0461 94.4729 85.6007 95.7967 85.0728C97.1205 84.545 98.271 84.0295 99.1288 83.6501C99.5782 83.4264 100.041 83.2308 100.514 83.0645V83.0645Z" fill="#263238"/>
<path d="M92.5184 86.4421C92.1435 85.8803 91.8932 85.2447 91.7843 84.5781C92.0011 84.8402 92.1599 85.1452 92.2503 85.473C92.4096 85.7725 92.5011 86.1034 92.5184 86.4421Z" fill="#263238"/>
<path d="M94.4355 85.7044C94.3819 85.7333 94.1345 85.3704 93.953 84.8796C93.8097 84.5824 93.7526 84.2509 93.7881 83.9229C93.9567 84.1971 94.0806 84.4964 94.1551 84.8095C94.2925 85.0922 94.387 85.3938 94.4355 85.7044V85.7044Z" fill="#263238"/>
<path d="M96.444 84.8333C96.1936 84.6009 96.0148 84.3019 95.9285 83.9714C95.778 83.6632 95.7179 83.3185 95.7553 82.9775C95.9222 83.2638 96.0485 83.572 96.1306 83.8931C96.2773 84.1908 96.3827 84.5071 96.444 84.8333V84.8333Z" fill="#263238"/>
<path d="M98.5928 83.9685C98.394 83.6797 98.2539 83.3546 98.1804 83.0118C98.0434 82.6896 97.9719 82.3433 97.9701 81.9932C98.1734 82.278 98.3139 82.6027 98.3825 82.9458C98.5234 83.2682 98.595 83.6167 98.5928 83.9685Z" fill="#263238"/>
<path d="M119.154 84.9863C118.016 85.4677 116.849 85.8808 115.661 86.2235C114.496 86.6319 113.307 86.9734 112.103 87.2462C113.242 86.7667 114.408 86.3537 115.596 86.0091C116.761 85.5993 117.949 85.2578 119.154 84.9863V84.9863Z" fill="#263238"/>
<path d="M113.62 86.4416C113.563 86.4664 113.381 86.1612 113.208 85.7653C113.035 85.3694 112.948 85.0271 113.002 85.0024C113.055 84.9776 113.237 85.2828 113.414 85.6828C113.592 86.0828 113.682 86.4045 113.62 86.4416Z" fill="#263238"/>
<path d="M115.402 86.0431C115.348 86.0431 115.155 85.705 115.023 85.2184C114.909 84.933 114.878 84.6216 114.932 84.3193C114.994 84.3193 115.101 84.6946 115.229 85.1441C115.344 85.4297 115.403 85.7351 115.402 86.0431V86.0431Z" fill="#263238"/>
<path d="M117.332 85.432C117.074 84.8805 116.951 84.2755 116.973 83.667C117.132 83.929 117.229 84.2237 117.257 84.5289C117.351 84.8202 117.377 85.1293 117.332 85.432V85.432Z" fill="#263238"/>
<path d="M98.4526 68.0297C98.3907 68.0297 98.3619 67.7988 98.3784 67.5184C98.3949 67.2379 98.465 67.0194 98.5227 67.0235C98.5804 67.0276 98.6134 67.2586 98.5928 67.5349C98.5722 67.8112 98.5103 68.0339 98.4526 68.0297Z" fill="#263238"/>
<path d="M100.333 68.1391C100.271 68.1391 100.217 67.9164 100.205 67.6401C100.193 67.3638 100.234 67.1328 100.292 67.1328C100.349 67.1328 100.407 67.3514 100.419 67.6318C100.432 67.9122 100.391 68.1349 100.333 68.1391Z" fill="#263238"/>
<path d="M101.784 68.391C101.727 68.391 101.681 68.156 101.681 67.8673C101.681 67.5786 101.735 67.3477 101.793 67.3477C101.85 67.3477 101.9 67.5827 101.896 67.8673C101.892 68.1518 101.846 68.391 101.784 68.391Z" fill="#263238"/>
<path d="M103.747 68.6049C103.694 68.6049 103.574 68.3533 103.566 67.9987C103.558 67.644 103.657 67.3718 103.71 67.3842C103.764 67.3966 103.768 67.6646 103.78 67.9904C103.793 68.3162 103.809 68.5884 103.747 68.6049Z" fill="#263238"/>
<path d="M105.372 68.6045C105.311 68.6045 105.232 68.3447 105.191 68.0065C105.15 67.6684 105.166 67.388 105.224 67.3838C105.282 67.3797 105.364 67.6436 105.405 67.9818C105.447 68.32 105.426 68.5963 105.372 68.6045Z" fill="#263238"/>
</svg>
