<svg width="380" height="181" viewBox="0 0 380 181" fill="none" xmlns="http://www.w3.org/2000/svg">
<path d="M199.6 142.979H155.524V176.975H199.6V142.979Z" fill="#EBEBEB"/>
<path d="M188.559 176.739C188.5 176.739 188.449 169.159 188.449 159.811C188.449 150.462 188.5 142.883 188.559 142.883C188.618 142.883 188.669 150.462 188.669 159.811C188.669 169.159 188.618 176.739 188.559 176.739Z" fill="#E0E0E0"/>
<path d="M195.863 169.24H192.486V173.062H195.863V169.24Z" fill="#FAFAFA"/>
<path d="M173.98 143.069H168.973V150.323H173.98V143.069Z" fill="#E0E0E0"/>
<path d="M173.98 169.621H168.973V176.875H173.98V169.621Z" fill="#E0E0E0"/>
<path d="M279.581 134.457H224.002V177.323H279.581V134.457Z" fill="#EBEBEB"/>
<path d="M265.653 177.018C265.594 177.018 265.543 167.467 265.543 155.681C265.543 143.894 265.594 134.343 265.653 134.343C265.713 134.343 265.763 143.894 265.763 155.681C265.763 167.467 265.717 177.018 265.653 177.018Z" fill="#E0E0E0"/>
<path d="M274.866 167.564H270.605V172.38H274.866V167.564Z" fill="#FAFAFA"/>
<path d="M247.27 134.566H240.955V143.712H247.27V134.566Z" fill="#E0E0E0"/>
<path d="M247.27 168.047H240.955V177.192H247.27V168.047Z" fill="#E0E0E0"/>
<path d="M119.319 135.718C121.57 134.559 124.22 134.406 126.717 134.821C128.058 135.041 129.455 135.443 130.369 136.45C131.283 137.457 131.452 139.231 130.407 140.098C129.781 140.615 128.913 140.691 128.1 140.682C126.145 140.657 123.978 140.314 122.417 141.491C121.524 142.163 120.931 143.276 119.878 143.607C118.824 143.937 117.66 143.315 117.11 142.375C116.601 141.395 116.489 140.257 116.797 139.197C116.921 138.462 117.214 137.766 117.651 137.163C118.089 136.559 118.659 136.065 119.319 135.718Z" fill="#EBEBEB"/>
<path d="M114.164 125.769C115.54 127.732 118.214 127.085 119.454 125.883C120.694 124.681 121.219 122.946 121.693 121.291C122.785 117.504 123.881 113.53 123.073 109.674C122.878 108.505 122.364 107.413 121.587 106.517C121.194 106.078 120.693 105.748 120.133 105.562C119.573 105.376 118.975 105.339 118.396 105.455C117.046 105.811 116.209 107.148 115.603 108.388C113.819 112.095 112.885 116.153 112.869 120.267C112.869 122.184 113.085 124.19 114.164 125.769" fill="#EBEBEB"/>
<path d="M110.39 128.587C111.883 126.814 112.167 124.232 111.503 122.01C110.838 119.788 109.336 117.901 107.605 116.356C105.569 114.546 103.2 113.148 100.631 112.243C99.6346 111.84 98.5633 111.659 97.4904 111.71C96.9551 111.74 96.4355 111.901 95.9767 112.178C95.5179 112.456 95.1339 112.841 94.8581 113.301C94.1217 114.702 94.8284 116.399 95.5902 117.787C96.9317 120.229 98.4627 122.562 100.169 124.765C101.545 126.534 103.132 128.282 105.21 129.082C107.287 129.882 109.48 129.789 110.588 128.337" fill="#EBEBEB"/>
<path d="M114.071 155.401C114.145 155.11 114.187 154.812 114.198 154.512C114.262 153.861 114.338 153.044 114.435 152.075C114.557 150.876 114.739 149.684 114.981 148.503C115.299 147.059 115.734 145.644 116.281 144.271C116.817 142.907 117.542 141.625 118.435 140.462C119.164 139.517 120.093 138.744 121.156 138.198C121.878 137.842 122.652 137.602 123.45 137.487C123.75 137.475 124.048 137.431 124.338 137.356C124.039 137.323 123.736 137.323 123.437 137.356C122.609 137.418 121.799 137.629 121.046 137.978C119.924 138.507 118.94 139.289 118.172 140.263C117.238 141.441 116.485 142.752 115.938 144.152C115.392 145.542 114.967 146.976 114.668 148.439C114.438 149.635 114.278 150.843 114.19 152.058C114.114 153.095 114.084 153.933 114.071 154.512C114.04 154.808 114.04 155.106 114.071 155.401V155.401Z" fill="#E0E0E0"/>
<path d="M114.241 153.53C114.266 153.391 114.274 153.249 114.266 153.107C114.266 152.794 114.266 152.4 114.266 151.922C114.266 150.894 114.266 149.404 114.317 147.567C114.41 143.894 114.74 139.95 115.337 134.368C115.917 129.124 116.691 123.026 117.512 119.061C117.686 118.159 117.863 117.347 118.033 116.636C118.202 115.925 118.325 115.307 118.456 114.812C118.587 114.316 118.659 113.965 118.735 113.661C118.776 113.523 118.801 113.381 118.807 113.237C118.743 113.361 118.695 113.491 118.663 113.627C118.57 113.927 118.456 114.3 118.316 114.761C118.176 115.222 118.007 115.865 117.829 116.572C117.652 117.279 117.449 118.091 117.258 118.993C116.241 123.683 115.477 128.424 114.969 133.195C114.359 138.782 114.084 143.869 114.059 147.55C114.059 149.391 114.059 150.885 114.122 151.914C114.152 152.392 114.177 152.785 114.194 153.094C114.192 153.241 114.208 153.387 114.241 153.53V153.53Z" fill="#E0E0E0"/>
<path d="M114.266 143.721C114.298 143.309 114.298 142.894 114.266 142.481C114.22 141.686 114.109 140.539 113.885 139.13C113.608 137.482 113.238 135.851 112.776 134.246C112.243 132.27 111.559 130.337 110.732 128.465C109.316 125.015 107.284 121.851 104.736 119.129C104.293 118.662 103.821 118.223 103.322 117.817C103.106 117.631 102.899 117.449 102.721 117.305L102.196 116.928C101.867 116.677 101.517 116.453 101.151 116.26C101.092 116.34 102.628 117.246 104.566 119.307C107.032 122.055 109.01 125.203 110.415 128.617C111.228 130.477 111.913 132.39 112.467 134.343C112.933 135.934 113.318 137.547 113.623 139.176C113.877 140.568 114.046 141.715 114.114 142.494C114.132 142.906 114.183 143.317 114.266 143.721V143.721Z" fill="#E0E0E0"/>
<path d="M104.126 159.531L105.108 173.002H122.413L123.394 159.531H104.126Z" fill="#EBEBEB"/>
<path d="M125.455 154.225H102.455V159.532H125.455V154.225Z" fill="#EBEBEB"/>
<path d="M102.455 172.486V173.955H103.538H125.079V172.486H102.455Z" fill="#E0E0E0"/>
<path d="M104.596 176.384L103.538 173.794H124.254L123.018 176.384H104.596Z" fill="#E0E0E0"/>
<path d="M123.073 163.933C123.051 163.978 123.024 164.021 122.992 164.06C122.925 164.149 122.836 164.263 122.734 164.403L121.727 165.672L121.681 165.732L121.638 165.672L119.162 162.249H119.302L116.865 165.698L116.788 165.808L116.704 165.706L113.813 162.266H113.978L113.822 162.469L111.236 165.706L111.147 165.816L111.071 165.702L108.629 162.253H108.773L105.768 165.672L105.717 165.736L105.675 165.664L104.736 164.107C104.634 163.937 104.558 163.798 104.494 163.683C104.462 163.636 104.437 163.585 104.418 163.531C104.458 163.572 104.492 163.617 104.52 163.666L104.786 164.068L105.772 165.622H105.679L108.642 162.16L108.714 162.071L108.781 162.164L111.244 165.6H111.084L113.661 162.355C113.716 162.287 113.771 162.219 113.817 162.156L113.902 162.05L113.987 162.151L116.869 165.6H116.708L119.171 162.168L119.243 162.067L119.311 162.168C120.288 163.561 121.118 164.741 121.736 165.63H121.647L122.696 164.36C122.81 164.229 122.904 164.123 122.976 164.035C123.005 163.998 123.038 163.964 123.073 163.933V163.933Z" fill="#F5F5F5"/>
<path d="M123.636 159.443C123.636 159.502 119.298 159.553 113.953 159.553C108.608 159.553 104.27 159.502 104.27 159.443C104.27 159.383 108.604 159.337 113.953 159.337C119.302 159.337 123.636 159.383 123.636 159.443Z" fill="#F5F5F5"/>
<path d="M244.994 6.73081L241.447 6.75L241.543 24.3972L245.089 24.378L244.994 6.73081Z" fill="#E0E0E0"/>
<path d="M219.907 6.77844L210.724 6.82812L210.776 16.5701L219.96 16.5204L219.907 6.77844Z" fill="#EBEBEB"/>
<path d="M229.048 6.72863L219.864 6.77832L219.917 16.5203L229.1 16.4706L229.048 6.72863Z" fill="#F5F5F5"/>
<path d="M210.735 9.52424C216.84 9.57502 222.948 9.54681 229.059 9.4396C229.085 9.4396 229.11 9.42934 229.128 9.41109C229.146 9.39283 229.157 9.36808 229.157 9.34226C229.157 9.31645 229.146 9.29169 229.128 9.27343C229.11 9.25518 229.085 9.24493 229.059 9.24493C222.957 9.21107 216.837 9.24492 210.735 9.35919C210.716 9.36345 210.699 9.37394 210.687 9.38893C210.675 9.40392 210.669 9.42254 210.669 9.44171C210.669 9.46089 210.675 9.4795 210.687 9.4945C210.699 9.50949 210.716 9.51998 210.735 9.52424V9.52424Z" fill="#E0E0E0"/>
<path d="M221.686 16.358L204.999 16.4482L205.042 24.3874L221.728 24.2971L221.686 16.358Z" fill="#EBEBEB"/>
<path d="M238.291 16.2681L221.605 16.3584L221.648 24.2975L238.334 24.2072L238.291 16.2681Z" fill="#F5F5F5"/>
<path d="M205.009 18.6657C216.092 18.7884 227.214 18.6657 238.302 18.5006C238.328 18.5006 238.352 18.4904 238.371 18.4721C238.389 18.4539 238.399 18.4291 238.399 18.4033C238.399 18.3775 238.389 18.3527 238.371 18.3345C238.352 18.3162 238.328 18.306 238.302 18.306C227.218 18.2467 216.092 18.251 205.009 18.4964C204.986 18.4964 204.965 18.5053 204.949 18.5212C204.933 18.5371 204.924 18.5586 204.924 18.581C204.924 18.6035 204.933 18.625 204.949 18.6409C204.965 18.6568 204.986 18.6657 205.009 18.6657V18.6657Z" fill="#E0E0E0"/>
<path d="M263.415 24.3955H198.767V27.2394H263.415V24.3955Z" fill="#E0E0E0"/>
<path d="M211.975 25.7627H209.351V35.4667H211.975V25.7627Z" fill="#E0E0E0"/>
<path d="M251.15 25.7627H248.526V35.4667H251.15V25.7627Z" fill="#E0E0E0"/>
<path d="M248.454 0.148781L244.907 0.167969L245.039 24.4382L248.585 24.419L248.454 0.148781Z" fill="#EBEBEB"/>
<path d="M253.992 4.66843L248.482 4.69824L248.589 24.3683L254.099 24.3385L253.992 4.66843Z" fill="#F5F5F5"/>
<path d="M253.956 8.46586C252.125 8.59524 250.286 8.59524 248.454 8.46586C250.286 8.34211 252.124 8.34211 253.956 8.46586V8.46586Z" fill="#E0E0E0"/>
<path d="M253.956 7.66246C253.041 7.75509 252.12 7.78619 251.201 7.75557C250.282 7.78603 249.361 7.75492 248.446 7.66246C250.278 7.53309 252.116 7.53309 253.948 7.66246H253.956Z" fill="#E0E0E0"/>
<path d="M253.956 21.3868C252.125 21.5161 250.286 21.5161 248.454 21.3868C250.286 21.263 252.124 21.263 253.956 21.3868V21.3868Z" fill="#E0E0E0"/>
<path d="M253.956 20.5609C252.124 20.6847 250.286 20.6847 248.454 20.5609C250.286 20.4315 252.125 20.4315 253.956 20.5609V20.5609Z" fill="#E0E0E0"/>
<path d="M251.29 18.7577C251.239 18.7577 251.197 16.7728 251.197 14.3267C251.197 11.8806 251.239 9.8916 251.29 9.8916C251.341 9.8916 251.387 11.8764 251.387 14.3267C251.387 16.7771 251.345 18.7577 251.29 18.7577Z" fill="#E0E0E0"/>
<path d="M260.016 9.50684H254.02V24.3527H260.016V9.50684Z" fill="#EBEBEB"/>
<path d="M246.626 5.32108C247.19 5.32108 247.646 4.86445 247.646 4.30116C247.646 3.73788 247.19 3.28125 246.626 3.28125C246.063 3.28125 245.606 3.73788 245.606 4.30116C245.606 4.86445 246.063 5.32108 246.626 5.32108Z" fill="#E0E0E0"/>
<path d="M246.944 7.10742H246.313V21.547H246.944V7.10742Z" fill="#E0E0E0"/>
<path d="M281.49 177.091C281.49 177.154 240.811 177.201 190.65 177.201C140.488 177.201 99.8011 177.154 99.8011 177.091C99.8011 177.027 140.471 176.98 190.65 176.98C240.828 176.98 281.49 177.031 281.49 177.091Z" fill="#263238"/>
<path d="M147.991 21.7754C149.987 24.2177 151.067 27.2801 151.046 30.4341C151.025 32.22 150.695 34.1879 151.736 35.6394C152.523 36.7398 153.962 37.2942 154.601 38.4876C155.372 39.9222 154.716 41.7378 155.19 43.2951C155.858 45.5042 158.448 46.4311 159.984 48.1535C160.639 48.9151 161.097 49.8257 161.319 50.8055C161.54 51.7853 161.518 52.8044 161.254 53.7736C160.974 54.7388 160.468 55.6232 159.778 56.3533C159.087 57.0835 158.232 57.6384 157.284 57.9717C156.272 58.3708 155.143 58.3525 154.144 57.921C153.107 57.4047 152.451 56.3424 151.944 55.3056C150.924 53.2658 141.965 42.2414 141.457 40.0153" fill="#263238"/>
<path d="M141.474 19.177C137.809 18.5845 134.279 21.0179 132.743 24.395C131.207 27.7722 131.156 31.5894 131.05 35.3136C130.944 39.0378 130.674 42.8974 128.782 46.0883C127.58 48.1154 125.718 49.8971 125.426 52.2289C125.163 54.3195 126.247 56.4271 125.887 58.505C125.574 60.3163 124.194 61.8906 124.249 63.7231C124.317 65.9322 126.59 67.5953 128.795 67.6546C130.999 67.7138 133.065 66.5585 134.796 65.1873C137.616 62.9483 139.872 60.08 141.385 56.8122" fill="#263238"/>
<path d="M135.443 27.9119C135.328 26.99 135.399 26.0543 135.653 25.1605C135.906 24.2667 136.336 23.4328 136.918 22.7085C137.5 21.9842 138.221 21.3842 139.04 20.944C139.858 20.5038 140.756 20.2325 141.681 20.1461C145.376 19.7906 148.664 22.5457 149.218 26.2191C149.705 29.4396 150.12 32.6898 150.107 33.8705C150.06 37.4296 147.991 38.8135 147.145 39.2325C146.84 39.3418 146.525 39.4197 146.205 39.4652V39.4652V39.4906L146.992 43.5787C147.352 46.2576 145.858 48.6571 143.183 49.0338C140.509 49.4104 138.405 47.3664 137.995 44.6875L135.443 27.9119Z" fill="#FFBE9D"/>
<path d="M148.49 27.7764C148.431 27.8611 147.961 27.6114 147.36 27.7003C146.759 27.7891 146.357 28.1531 146.281 28.0896C146.205 28.0261 146.281 27.9203 146.467 27.7511C146.699 27.5256 146.995 27.3777 147.314 27.3279C147.627 27.2796 147.947 27.333 148.228 27.4802C148.439 27.6156 148.52 27.7426 148.49 27.7764Z" fill="#263238"/>
<path d="M143.133 29.0799C143.073 29.1646 142.604 28.9106 141.998 28.9995C141.393 29.0884 141 29.4566 140.923 29.3931C140.847 29.3296 140.923 29.2196 141.11 29.0545C141.341 28.8291 141.637 28.6812 141.956 28.6313C142.27 28.5867 142.589 28.6415 142.87 28.7879C143.078 28.9191 143.162 29.0418 143.133 29.0799Z" fill="#263238"/>
<path d="M145.329 32.3091C145.632 32.1634 145.952 32.0568 146.281 31.9917C146.434 31.9536 146.573 31.9028 146.586 31.7928C146.572 31.6381 146.513 31.491 146.417 31.3696L145.786 30.2438C144.91 28.6695 144.254 27.3661 144.318 27.328C144.381 27.2899 145.164 28.5468 146.01 30.1211C146.226 30.5105 146.434 30.8829 146.62 31.2341C146.743 31.4062 146.803 31.6155 146.789 31.8266C146.775 31.8844 146.748 31.9381 146.71 31.9836C146.672 32.0291 146.623 32.0652 146.569 32.089C146.486 32.1251 146.4 32.1507 146.311 32.1652C145.991 32.2557 145.661 32.3041 145.329 32.3091Z" fill="#263238"/>
<path d="M146.171 39.4694C146.171 39.4694 143.873 39.9984 140.708 38.6738C140.708 38.6738 142.075 41.6151 146.387 40.5698L146.171 39.4694Z" fill="#EB996E"/>
<path d="M142.824 27.502C142.79 27.6755 142.176 27.684 141.482 27.8744C140.788 28.0649 140.242 28.3357 140.128 28.2045C140.077 28.141 140.153 27.9717 140.361 27.7813C140.64 27.5425 140.97 27.3704 141.325 27.278C141.681 27.1856 142.053 27.1754 142.413 27.2481C142.692 27.3116 142.824 27.4216 142.824 27.502Z" fill="#263238"/>
<path d="M147.995 26.4437C147.911 26.596 147.475 26.5156 146.975 26.5791C146.476 26.6426 146.065 26.8076 145.947 26.6764C145.896 26.6129 145.947 26.469 146.108 26.3125C146.33 26.1157 146.608 25.9942 146.903 25.9654C147.195 25.9303 147.49 25.9849 147.75 26.122C147.953 26.2363 148.033 26.3675 147.995 26.4437Z" fill="#263238"/>
<path d="M141.825 29.8576C141.834 29.9231 141.856 29.9861 141.89 30.0429C141.924 30.0998 141.969 30.1493 142.022 30.1887C142.075 30.228 142.136 30.2565 142.2 30.2723C142.264 30.2881 142.331 30.291 142.396 30.2808C142.46 30.2735 142.521 30.2536 142.577 30.2223C142.633 30.191 142.682 30.149 142.721 30.0985C142.761 30.0481 142.79 29.9904 142.806 29.9287C142.823 29.867 142.828 29.8025 142.819 29.7391C142.8 29.6073 142.728 29.4888 142.621 29.4095C142.514 29.3302 142.38 29.2965 142.248 29.3159C142.184 29.3227 142.123 29.3422 142.066 29.3733C142.01 29.4044 141.961 29.4465 141.922 29.4971C141.882 29.5476 141.853 29.6056 141.837 29.6675C141.82 29.7294 141.816 29.7941 141.825 29.8576V29.8576Z" fill="#263238"/>
<path d="M147.161 28.7033C147.181 28.8351 147.253 28.9536 147.36 29.033C147.467 29.1123 147.601 29.1459 147.733 29.1265C147.796 29.1192 147.858 29.0993 147.914 29.068C147.969 29.0367 148.018 28.9947 148.058 28.9443C148.097 28.8938 148.126 28.8361 148.143 28.7744C148.16 28.7127 148.164 28.6483 148.156 28.5848C148.136 28.453 148.065 28.3345 147.958 28.2552C147.851 28.1759 147.716 28.1422 147.585 28.1616C147.521 28.1684 147.459 28.1879 147.403 28.219C147.347 28.2501 147.298 28.2922 147.258 28.3428C147.219 28.3933 147.19 28.4513 147.173 28.5132C147.157 28.5751 147.153 28.6398 147.161 28.7033Z" fill="#263238"/>
<path d="M146.277 33.477C146.111 33.4253 145.932 33.4334 145.771 33.4999C145.61 33.5664 145.478 33.687 145.397 33.841C145.319 33.9823 145.288 34.1443 145.307 34.3044C145.326 34.4644 145.394 34.6146 145.502 34.7339C145.618 34.8472 145.77 34.9158 145.931 34.9274C146.092 34.9391 146.252 34.893 146.383 34.7974C146.546 34.6488 146.645 34.4422 146.658 34.2218C146.687 34.0198 146.638 33.8143 146.522 33.6463C146.463 33.5641 146.378 33.5038 146.281 33.4748C146.184 33.4457 146.08 33.4495 145.985 33.4855" fill="#EB996E"/>
<path d="M148.748 23.3201C148.416 21.9793 147.587 20.8146 146.429 20.0615C145.481 19.3768 144.355 18.9814 143.188 18.9231C142.012 18.8725 140.865 19.2894 139.997 20.0826C139.38 20.6935 139.028 21.5215 139.015 22.3891L139.083 21.7966C138.905 22.2787 138.905 22.8084 139.083 23.2905V23.2905C139.18 23.5486 139.298 23.811 139.4 24.0692C139.703 24.8152 140.265 25.4268 140.983 25.7916C141.308 25.966 141.672 26.0548 142.041 26.0498C142.225 26.0461 142.407 26.0021 142.573 25.921C142.739 25.8398 142.885 25.7235 143.001 25.58C143.264 25.1213 143.346 24.5808 143.23 24.065C143.508 24.5747 143.904 25.0102 144.385 25.3346C144.631 25.4916 144.923 25.5593 145.213 25.5261C145.503 25.493 145.772 25.3611 145.976 25.1526C146.323 24.7294 146.188 24.0607 145.976 23.536C146.304 24.0309 146.763 24.4251 147.301 24.6744C147.443 24.7557 147.6 24.8067 147.762 24.8242C147.925 24.8416 148.089 24.8252 148.245 24.7759C148.369 24.7142 148.478 24.625 148.563 24.515C148.648 24.405 148.707 24.2772 148.736 24.1411C148.799 23.8715 148.803 23.5916 148.748 23.3201Z" fill="#263238"/>
<path d="M145.689 24.4459C145.651 24.4459 145.659 23.9423 145.494 23.1763C145.304 22.1584 144.792 21.2284 144.034 20.5228C143.617 20.144 143.115 19.8724 142.57 19.7315C142.123 19.6219 141.658 19.6103 141.207 19.6976C140.791 19.7948 140.394 19.9592 140.03 20.1843C140.03 20.1843 140.102 20.0785 140.289 19.9431C140.556 19.7561 140.856 19.6212 141.173 19.5452C141.648 19.4341 142.142 19.4341 142.616 19.5452C143.201 19.6912 143.74 19.9823 144.182 20.3916C144.976 21.1263 145.494 22.1105 145.651 23.1805C145.701 23.4969 145.726 23.8167 145.727 24.137C145.732 24.2414 145.719 24.3459 145.689 24.4459V24.4459Z" fill="#455A64"/>
<path d="M184.665 73.7871L168.393 67.3333C168.393 67.3333 160.061 56.402 160.234 56.1904L154.381 62.5977L162.888 74.1045L182.605 78.7259L185.99 77.7864C185.245 74.1934 184.665 73.7871 184.665 73.7871Z" fill="#FFBE9D"/>
<path d="M149.201 42.6013L146.984 41.7549L137.411 42.9695V44.6623L137.136 44.6961C135.072 45.1349 133.093 45.9037 131.274 46.9729C129.571 48.0128 128.217 49.5385 127.388 51.3537C126.558 53.1689 126.291 55.1908 126.619 57.1594C127.009 59.5801 127.762 62.5213 129.218 64.2226C131.998 67.477 134.537 63.4566 134.537 63.4566C134.537 63.4566 136.281 67.4347 136.179 69.3179C136.095 70.8965 135.401 74.1805 135.176 75.2047C135.167 75.2456 135.166 75.288 135.174 75.3292C135.182 75.3705 135.198 75.4097 135.221 75.4445C135.245 75.4794 135.275 75.5091 135.31 75.5319C135.345 75.5547 135.385 75.5701 135.426 75.5771L155.621 79.3139L155.719 74.3752L155.075 54.0616L154.165 46.1731C154.165 46.1731 154.195 42.4066 149.201 42.6013Z" fill="#3A7792"/>
<path d="M153.856 44.8613L161.559 55.9873L155.359 63.5372L153.856 44.8613Z" fill="#3A7792"/>
<path d="M155.52 68.2722C155.492 68.0334 155.482 67.7929 155.49 67.5527C155.49 67.0533 155.49 66.3974 155.465 65.5975C155.427 63.4508 155.273 61.3076 155.003 59.1776C154.686 56.6807 154.199 54.4504 153.831 52.8296L153.382 50.9252C153.317 50.6948 153.269 50.46 153.239 50.2227C153.335 50.4425 153.411 50.6705 153.467 50.904C153.598 51.3272 153.776 51.9916 153.979 52.7957C154.526 54.8838 154.941 57.0039 155.223 59.1437C155.495 61.2827 155.628 63.4371 155.621 65.5933C155.621 66.4397 155.6 67.0914 155.575 67.5527C155.577 67.7937 155.558 68.0343 155.52 68.2722V68.2722Z" fill="#263238"/>
<path d="M136.56 51.3574C136.56 51.3913 135.976 51.387 135.041 51.4336C133.821 51.4998 132.607 51.6568 131.41 51.9033C130.213 52.1545 129.036 52.4925 127.889 52.9148C127.009 53.2407 126.48 53.4819 126.463 53.448C126.571 53.363 126.691 53.2932 126.818 53.2407C127.051 53.1137 127.398 52.9529 127.834 52.7709C130.117 51.8279 132.558 51.3226 135.028 51.2812C135.502 51.2812 135.875 51.2812 136.15 51.3066C136.288 51.3022 136.427 51.3193 136.56 51.3574Z" fill="#FAFAFA"/>
<path d="M154.398 56.4475C154.089 56.5599 153.766 56.6311 153.438 56.6591C151.873 56.8875 150.287 56.9415 148.71 56.8199C148.381 56.8142 148.054 56.7659 147.737 56.676C148.064 56.647 148.392 56.647 148.719 56.676C149.32 56.676 150.153 56.676 151.072 56.676C151.99 56.676 152.82 56.5829 153.421 56.5279C153.743 56.4715 154.071 56.4446 154.398 56.4475Z" fill="#FAFAFA"/>
<path d="M157.932 51.4163C157.465 51.9553 156.906 52.4067 156.281 52.7494C155.691 53.1483 155.033 53.4352 154.339 53.5958C154.314 53.5366 155.185 53.1726 156.167 52.5463C157.149 51.9199 157.89 51.3655 157.932 51.4163Z" fill="#FAFAFA"/>
<path d="M154.821 46.2579C153.486 47.459 151.785 48.1747 149.993 48.2893C149.993 48.2216 151.156 48.0439 152.494 47.4725C153.831 46.9012 154.779 46.2029 154.821 46.2579Z" fill="#FAFAFA"/>
<path d="M155.24 65.0647C155.116 65.1484 154.982 65.2179 154.843 65.2721C154.576 65.399 154.191 65.5556 153.7 65.7376C152.424 66.1959 151.108 66.5304 149.768 66.7363C148.429 66.9431 147.072 67.0182 145.718 66.9606C145.198 66.9395 144.779 66.9014 144.491 66.8633C144.34 66.8533 144.191 66.8263 144.047 66.7829C144.047 66.7448 144.69 66.7829 145.739 66.8083C148.43 66.8334 151.107 66.4218 153.666 65.5895C154.631 65.2721 155.228 65.0308 155.24 65.0647Z" fill="#FAFAFA"/>
<path d="M155.397 70.7988C155.397 70.7988 155.338 70.8411 155.215 70.9046L154.673 71.1416C154.208 71.3617 153.518 71.6495 152.655 71.988C151.791 72.3266 150.746 72.6524 149.569 72.9741C147.012 73.6628 144.386 74.0701 141.74 74.1887C140.521 74.2352 139.425 74.231 138.503 74.1887C137.58 74.1463 136.84 74.0786 136.327 74.0067L135.739 73.9263C135.67 73.9212 135.602 73.907 135.536 73.884C135.605 73.873 135.675 73.873 135.743 73.884L136.336 73.9221C136.848 73.9644 137.606 74.0067 138.507 74.0321C139.408 74.0575 140.521 74.0321 141.732 73.9898C142.942 73.9474 144.271 73.7951 145.655 73.5666C147.039 73.338 148.342 73.0629 149.519 72.7667C150.695 72.4705 151.736 72.1361 152.6 71.8272C153.463 71.5183 154.165 71.2601 154.639 71.0654L155.19 70.8496C155.257 70.8255 155.326 70.8085 155.397 70.7988V70.7988Z" fill="#FAFAFA"/>
<path d="M118.278 160.767L115.988 171.105L111.811 178.761C111.74 178.892 111.697 179.036 111.684 179.184C111.671 179.332 111.688 179.481 111.735 179.623C111.782 179.764 111.857 179.894 111.956 180.005C112.055 180.116 112.176 180.205 112.311 180.268V180.268C112.468 180.34 112.639 180.373 112.812 180.365C112.984 180.357 113.152 180.307 113.301 180.221C115.239 179.104 122.353 174.944 122.476 174.178C122.624 173.293 125.616 163.433 125.616 163.433L118.278 160.767Z" fill="#3A7792"/>
<g opacity="0.6">
<path d="M112.311 180.268L122.65 173.497L122.54 173.92C122.449 174.298 122.227 174.631 121.913 174.86C121.067 175.465 118.71 177.09 113.335 180.23C113.181 180.321 113.006 180.371 112.828 180.378C112.649 180.385 112.471 180.347 112.311 180.268V180.268Z" fill="white"/>
</g>
<g opacity="0.6">
<path d="M121.35 169.65C121.201 169.712 121.08 169.827 121.011 169.974C120.941 170.12 120.928 170.286 120.974 170.441C121.03 170.592 121.142 170.716 121.287 170.787C121.432 170.858 121.599 170.87 121.752 170.822C121.912 170.756 122.042 170.633 122.115 170.476C122.189 170.32 122.201 170.141 122.15 169.976C122.075 169.826 121.946 169.71 121.789 169.653C121.631 169.596 121.458 169.601 121.304 169.667" fill="white"/>
</g>
<path d="M115.764 176.349C115.593 175.969 115.354 175.623 115.057 175.329C114.716 175.091 114.333 174.921 113.927 174.826C113.927 174.796 114.076 174.749 114.325 174.775C114.65 174.817 114.956 174.952 115.206 175.164C115.457 175.368 115.643 175.642 115.739 175.951C115.811 176.193 115.79 176.349 115.764 176.349Z" fill="#263238"/>
<path d="M114.693 177.548C114.634 177.581 114.385 177.167 113.889 176.883C113.574 176.736 113.248 176.611 112.916 176.506C113.099 176.447 113.293 176.431 113.483 176.461C113.673 176.491 113.853 176.566 114.008 176.68C114.571 177.006 114.753 177.535 114.693 177.548Z" fill="#263238"/>
<path d="M117.559 174.92C117.199 174.52 116.808 174.149 116.391 173.811C115.93 173.53 115.449 173.285 114.952 173.079C115.524 173.067 116.082 173.259 116.526 173.62C117.015 173.915 117.382 174.376 117.559 174.92Z" fill="#263238"/>
<path d="M118.519 171.834C118.477 171.889 117.965 171.513 117.25 171.305C116.534 171.098 115.887 171.132 115.883 171.06C116.354 170.938 116.849 170.945 117.316 171.082C117.783 171.218 118.205 171.478 118.536 171.834H118.519Z" fill="#263238"/>
<path d="M119.268 168.816C118.855 168.561 118.41 168.363 117.944 168.228C117.463 168.162 116.977 168.162 116.496 168.228C116.496 168.202 116.628 168.101 116.898 168.02C117.254 167.924 117.628 167.911 117.99 167.985C118.351 168.058 118.69 168.215 118.981 168.443C119.196 168.647 119.285 168.799 119.268 168.816Z" fill="#263238"/>
<path d="M118.1 167.657C118.101 167.523 118.129 167.39 118.185 167.268C118.305 166.918 118.495 166.597 118.744 166.324C118.906 166.108 119.135 165.95 119.395 165.875C119.484 165.861 119.575 165.873 119.656 165.911C119.738 165.949 119.806 166.01 119.852 166.087C119.93 166.245 119.947 166.426 119.899 166.595C119.79 166.934 119.567 167.225 119.268 167.418C118.968 167.611 118.611 167.694 118.257 167.653C117.908 167.603 117.581 167.451 117.319 167.216C117.056 166.981 116.868 166.674 116.78 166.332C116.76 166.246 116.758 166.156 116.775 166.068C116.791 165.981 116.826 165.898 116.877 165.825C116.936 165.756 117.014 165.709 117.102 165.688C117.189 165.667 117.281 165.675 117.364 165.71C117.603 165.83 117.807 166.009 117.956 166.231C118.181 166.524 118.351 166.855 118.46 167.209C118.512 167.335 118.536 167.47 118.532 167.606C118.361 167.15 118.123 166.722 117.825 166.337C117.686 166.156 117.507 166.011 117.3 165.914C117.255 165.894 117.205 165.889 117.157 165.901C117.108 165.912 117.065 165.939 117.034 165.977C117.004 166.027 116.985 166.082 116.978 166.14C116.971 166.197 116.975 166.256 116.991 166.311C117.08 166.599 117.247 166.855 117.475 167.051C117.703 167.247 117.981 167.375 118.278 167.42C118.577 167.455 118.88 167.387 119.136 167.228C119.391 167.069 119.586 166.828 119.687 166.544C119.728 166.429 119.728 166.304 119.687 166.189C119.663 166.145 119.626 166.11 119.581 166.089C119.537 166.068 119.486 166.061 119.438 166.07C119.217 166.131 119.02 166.258 118.875 166.434C118.55 166.796 118.288 167.209 118.1 167.657V167.657Z" fill="#263238"/>
<g opacity="0.3">
<path d="M117.999 161.888L117.504 164.258L124.99 165.502L125.616 163.433L118.265 160.767L117.999 161.888Z" fill="black"/>
</g>
<path d="M151.711 164.593L151.093 172.854C151.093 172.854 159.286 176.24 159.32 177.797L143.238 177.175L143.662 164.259L151.711 164.593Z" fill="#3A7792"/>
<g opacity="0.6">
<path d="M146.163 171.966C146.007 172.008 145.871 172.105 145.782 172.24C145.693 172.375 145.657 172.538 145.68 172.698C145.716 172.855 145.81 172.993 145.944 173.084C146.077 173.174 146.24 173.21 146.4 173.185C146.566 173.141 146.709 173.037 146.803 172.893C146.897 172.749 146.934 172.576 146.908 172.406C146.854 172.245 146.741 172.111 146.591 172.033C146.441 171.954 146.266 171.936 146.103 171.983" fill="white"/>
</g>
<g opacity="0.6">
<path d="M143.247 177.176L143.34 175.872L158.723 176.943C158.723 176.943 159.43 177.281 159.328 177.789L143.247 177.176Z" fill="white"/>
</g>
<path d="M151.364 172.782C151.364 172.863 150.966 172.884 150.572 173.121C150.179 173.358 149.959 173.679 149.887 173.645C149.815 173.612 149.95 173.163 150.433 172.884C150.915 172.604 151.385 172.71 151.364 172.782Z" fill="#263238"/>
<path d="M153.023 173.556C153.023 173.637 152.693 173.755 152.413 174.077C152.134 174.398 152.045 174.746 151.965 174.741C151.884 174.737 151.855 174.288 152.21 173.895C152.566 173.501 153.023 173.472 153.023 173.556Z" fill="#263238"/>
<path d="M153.903 175.6C153.831 175.6 153.738 175.215 153.954 174.796C154.17 174.377 154.546 174.216 154.576 174.284C154.606 174.351 154.373 174.571 154.199 174.918C154.026 175.265 153.979 175.595 153.903 175.6Z" fill="#263238"/>
<path d="M151.288 170.886C151.254 170.953 150.898 170.831 150.441 170.843C149.984 170.856 149.646 170.983 149.595 170.915C149.544 170.848 149.9 170.581 150.441 170.572C150.983 170.564 151.338 170.826 151.288 170.886Z" fill="#263238"/>
<g opacity="0.3">
<path d="M151.597 166.231L151.487 167.703L143.594 167.322L143.649 165.621L151.597 166.231Z" fill="black"/>
</g>
<path d="M151.393 169.215C151.128 169.279 150.849 169.267 150.589 169.181C150.296 169.12 150.012 169.022 149.743 168.889C149.586 168.812 149.435 168.724 149.29 168.626C149.202 168.572 149.122 168.505 149.053 168.427C149.007 168.367 148.981 168.292 148.981 168.216C148.981 168.139 149.007 168.065 149.053 168.004C149.094 167.951 149.148 167.908 149.209 167.879C149.27 167.85 149.337 167.837 149.404 167.839C149.506 167.843 149.607 167.86 149.705 167.89C149.874 167.939 150.039 168.005 150.196 168.085C150.463 168.215 150.707 168.388 150.919 168.597C151.279 168.956 151.393 169.257 151.368 169.27C151.343 169.282 151.161 169.041 150.793 168.741C150.576 168.572 150.34 168.429 150.09 168.317C149.941 168.256 149.788 168.202 149.633 168.157C149.464 168.106 149.32 168.102 149.273 168.157C149.227 168.212 149.273 168.199 149.273 168.25C149.324 168.306 149.382 168.354 149.447 168.394C149.583 168.488 149.724 168.574 149.87 168.652C150.114 168.786 150.371 168.897 150.636 168.982C150.894 169.041 151.147 169.119 151.393 169.215V169.215Z" fill="#263238"/>
<path d="M151.288 169.324C151.147 169.086 151.083 168.811 151.106 168.537C151.107 168.239 151.156 167.943 151.25 167.661C151.31 167.495 151.385 167.335 151.474 167.182C151.521 167.078 151.595 166.987 151.688 166.919C151.78 166.851 151.889 166.807 152.003 166.793C152.075 166.798 152.145 166.823 152.203 166.866C152.261 166.908 152.307 166.967 152.333 167.034C152.37 167.129 152.393 167.229 152.401 167.33C152.428 167.51 152.428 167.693 152.401 167.872C152.344 168.171 152.215 168.452 152.024 168.689C151.694 169.112 151.364 169.176 151.355 169.15C151.347 169.125 151.609 168.968 151.867 168.575C152.016 168.35 152.112 168.096 152.151 167.83C152.172 167.675 152.172 167.519 152.151 167.364C152.13 167.195 152.071 167.051 152.007 167.068C151.944 167.085 151.787 167.187 151.715 167.322C151.632 167.457 151.56 167.599 151.499 167.745C151.401 168.001 151.339 168.268 151.313 168.541C151.258 169.015 151.33 169.324 151.288 169.324Z" fill="#263238"/>
<path d="M135.088 75.501C135.088 75.501 132.548 75.6153 130.855 84.2994C129.163 92.9835 116.259 163.349 116.259 163.349L125.616 163.434L143.247 96.5341L142.075 165.516L151.58 166.244C151.58 166.244 158.711 89.9449 158.774 85.5055C158.859 79.97 155.68 74.3711 155.68 74.3711L135.088 75.501Z" fill="#263238"/>
<path d="M147.949 74.7598C148.008 74.7598 147.034 79.7324 145.778 85.8392C144.521 91.946 143.454 96.8889 143.395 96.8763C143.336 96.8636 144.305 91.9036 145.562 85.7969C146.819 79.6901 147.902 74.7471 147.949 74.7598Z" fill="#455A64"/>
<path d="M149.404 76.0001C149.404 75.9747 149.658 75.8985 149.95 76.1567C150.033 76.2318 150.099 76.3241 150.143 76.4271C150.187 76.5302 150.208 76.6415 150.204 76.7534C150.194 76.8949 150.143 77.0305 150.058 77.1443C149.974 77.2582 149.858 77.3457 149.726 77.3966C149.597 77.4553 149.454 77.4765 149.313 77.4578C149.172 77.4391 149.04 77.3812 148.93 77.2908C148.849 77.2141 148.784 77.1208 148.741 77.0172C148.698 76.9136 148.677 76.802 148.681 76.6899C148.681 76.3005 148.943 76.1651 148.947 76.1905C148.876 76.3459 148.838 76.5147 148.837 76.6857C148.843 76.7716 148.866 76.8555 148.904 76.9325C148.943 77.0096 148.996 77.0781 149.062 77.1342C149.145 77.1918 149.242 77.2274 149.343 77.2379C149.443 77.2484 149.545 77.2333 149.639 77.1941C149.732 77.155 149.815 77.0929 149.878 77.0137C149.941 76.9344 149.984 76.8405 150.001 76.7407C150.007 76.6549 149.996 76.5688 149.969 76.4874C149.941 76.406 149.897 76.3309 149.84 76.2667C149.633 76.0255 149.4 76.0339 149.404 76.0001Z" fill="#455A64"/>
<path d="M149.002 79.4362C149.002 79.4108 149.265 79.4362 149.426 79.7875C149.466 79.8878 149.485 79.9957 149.48 80.1039C149.475 80.2121 149.446 80.3178 149.396 80.4138C149.323 80.5279 149.221 80.62 149.099 80.6802C148.978 80.7404 148.843 80.7665 148.708 80.7556C148.573 80.7447 148.444 80.6973 148.334 80.6185C148.224 80.5396 148.138 80.4323 148.084 80.308C148.05 80.206 148.039 80.0978 148.052 79.9911C148.064 79.8844 148.1 79.7816 148.156 79.6901C148.355 79.3727 148.626 79.3812 148.617 79.4066C148.609 79.432 148.414 79.4912 148.291 79.7621C148.229 79.914 148.229 80.0842 148.291 80.2361C148.336 80.3201 148.4 80.3915 148.479 80.4438C148.559 80.496 148.65 80.5274 148.744 80.535C148.839 80.5426 148.934 80.5262 149.02 80.4872C149.107 80.4483 149.182 80.3881 149.239 80.3122C149.319 80.1676 149.339 79.9974 149.294 79.8383C149.172 79.5505 148.981 79.4658 149.002 79.4362Z" fill="#455A64"/>
<path d="M140.035 76.0852C140.017 76.2305 139.98 76.3729 139.925 76.5084C139.793 76.8958 139.627 77.2711 139.43 77.6298C138.784 78.827 137.851 79.8453 136.715 80.5935C135.579 81.3417 134.276 81.7964 132.921 81.9169C132.514 81.9523 132.105 81.9523 131.698 81.9169C131.554 81.9123 131.412 81.8896 131.274 81.8492C131.274 81.8068 131.914 81.8788 132.925 81.7518C134.243 81.5918 135.506 81.1283 136.615 80.3977C137.724 79.667 138.648 78.6892 139.315 77.541C139.81 76.6861 139.997 76.0725 140.035 76.0852Z" fill="#455A64"/>
<path d="M158.241 82.259C158.241 82.259 158.131 82.2082 157.957 82.0897C157.715 81.9153 157.488 81.7199 157.28 81.5057C156.584 80.8012 156.041 79.9605 155.685 79.0364C155.329 78.1123 155.167 77.1247 155.211 76.1353C155.22 75.8375 155.259 75.5413 155.325 75.2508C155.372 75.0434 155.401 74.9334 155.418 74.9376C155.435 74.9418 155.367 75.3989 155.367 76.1395C155.368 78.0835 156.09 79.9581 157.394 81.3999C157.89 81.9458 158.262 82.2251 158.241 82.259Z" fill="#455A64"/>
<path d="M191.069 82.5043C191.208 82.1657 191.17 82.3012 188.927 80.8115C188.927 80.8115 192.143 82.9275 191.809 81.9203C191.52 81.5387 191.166 81.2108 190.764 80.9511C191.61 81.4505 192.101 81.5055 192.249 81.3024C192.503 80.9511 190.662 79.6096 189.786 79.0044C190.587 79.5774 191.427 80.0935 192.3 80.5491C192.821 80.7099 192.571 80.1005 192.22 79.6562C191.868 79.2118 189.143 76.5879 188.411 75.805C188.341 75.7454 188.285 75.6714 188.247 75.5882C188.208 75.5049 188.189 75.4143 188.189 75.3226C188.189 75.2309 188.208 75.1403 188.247 75.057C188.285 74.9737 188.341 74.8997 188.411 74.8401C189.723 73.9937 190.298 72.6437 190.281 72.1994C190.267 72.0993 190.221 72.0065 190.15 71.9341C190.08 71.8618 189.988 71.8137 189.888 71.7968C189.789 71.7799 189.686 71.795 189.595 71.8399C189.505 71.8849 189.431 71.9574 189.384 72.047C189.053 72.4586 188.667 72.8231 188.237 73.1304C187.904 73.3904 187.529 73.5921 187.129 73.7271C186.663 73.8795 184.373 73.7525 183.883 73.5028L182.321 78.7971C182.321 78.7971 187.988 81.4463 189.063 81.9626C190.383 82.5889 190.971 82.7624 191.069 82.5043Z" fill="#FFBE9D"/>
<path d="M187.907 80.0287C187.861 80.0922 188.597 80.6297 189.549 81.2348C190.501 81.84 191.301 82.2759 191.339 82.2124C191.377 82.149 190.641 81.6073 189.693 81.0063C188.745 80.4054 187.95 79.9483 187.907 80.0287Z" fill="#EB996E"/>
<path d="M188.44 78.9919C188.398 79.0554 189.151 79.6733 190.133 80.3758C191.115 81.0783 191.928 81.5988 191.97 81.5396C192.012 81.4803 191.263 80.8582 190.277 80.1557C189.291 79.4532 188.487 78.9327 188.44 78.9919Z" fill="#EB996E"/>
<path d="M189.003 77.9423C188.961 78.0015 189.663 78.6025 190.573 79.2796C191.483 79.9567 192.266 80.4561 192.3 80.3968C192.334 80.3376 191.644 79.7366 190.734 79.0595C189.824 78.3824 189.05 77.883 189.003 77.9423Z" fill="#EB996E"/>
<path d="M131.368 58.768L135.523 58.9965C135.818 60.1567 136.211 61.2894 136.7 62.3821C140.047 56.5758 142.625 48.7931 143.285 45.6657C143.192 45.3582 143.078 45.0111 142.942 44.6246C142.841 44.0403 142.858 43.4416 142.993 42.8641C143.107 42.1701 143.302 41.2306 143.357 40.7989C143.539 39.4785 143.75 39.2669 144.203 39.4192C144.83 39.6224 143.945 43.1307 144.457 43.2069C144.737 43.245 145.071 42.0431 145.172 41.057C145.274 40.071 145.714 37.0409 146.04 36.825C146.518 36.5288 146.933 36.9985 146.814 37.9804C146.696 38.9622 146.539 41.9373 147.06 41.9754C147.58 42.0135 148.004 36.9858 148.004 36.9858C148.004 36.9858 147.923 35.894 148.524 35.9194C149.612 35.9659 148.765 41.2686 148.672 41.7723C148.605 42.1193 149.172 42.1954 149.222 41.8061C149.273 41.4168 149.536 36.7742 150.64 36.8123C151.487 36.842 149.984 41.1798 150.462 42.187C150.941 43.1942 151.271 38.7718 152.083 38.831C152.384 38.8564 152.608 38.9156 152.054 41.4168C151.513 43.4056 150.864 45.3637 150.111 47.2823C148.842 54.2228 143.175 76.4239 134.322 72.3612C129.37 70.0886 127.055 58.8188 127.055 58.8188L131.368 58.768Z" fill="#FFBE9D"/>
<path d="M150.12 47.3195C150.127 47.267 150.141 47.2158 150.162 47.1671C150.2 47.0571 150.247 46.9132 150.31 46.7439C150.45 46.3419 150.64 45.7833 150.89 45.0511C151.14 44.319 151.44 43.4303 151.736 42.3807C151.889 41.8602 152.016 41.2931 152.13 40.6879C152.189 40.3832 152.244 40.0701 152.282 39.7484C152.293 39.5892 152.293 39.4294 152.282 39.2702C152.282 39.1052 152.244 38.9697 152.113 38.9655C151.982 38.9613 151.889 39.0417 151.795 39.1813C151.711 39.3308 151.642 39.4881 151.588 39.6511C151.47 39.9854 151.377 40.3409 151.283 40.7006C151.19 41.0603 151.106 41.437 150.996 41.8179C150.948 42.0265 150.862 42.2245 150.742 42.4019C150.712 42.4366 150.672 42.4617 150.627 42.4738C150.599 42.48 150.571 42.4797 150.543 42.4731C150.515 42.4665 150.489 42.4538 150.467 42.4357C150.418 42.3911 150.378 42.3381 150.348 42.2792C150.303 42.1752 150.274 42.0655 150.259 41.9533C150.24 41.0997 150.325 40.247 150.513 39.4141C150.585 38.9909 150.661 38.5677 150.716 38.1445C150.742 37.9287 150.767 37.7213 150.771 37.4928C150.776 37.2642 150.742 37.023 150.653 36.9849C150.564 36.9468 150.348 37.0653 150.23 37.2431C150.113 37.4308 150.02 37.6328 149.955 37.844C149.81 38.2861 149.701 38.7389 149.629 39.1983C149.548 39.6638 149.485 40.1378 149.43 40.6202C149.409 40.8614 149.383 41.1027 149.362 41.3481L149.328 41.7163C149.333 41.7949 149.32 41.8736 149.291 41.9467C149.261 42.0199 149.216 42.0857 149.159 42.1395C149.086 42.1925 148.999 42.221 148.909 42.221C148.819 42.221 148.732 42.1925 148.66 42.1395C148.619 42.1124 148.584 42.0769 148.557 42.0353C148.531 41.9937 148.514 41.947 148.507 41.8983C148.501 41.8534 148.501 41.8078 148.507 41.7629V41.674L148.621 40.9334C148.693 40.434 148.753 39.9346 148.799 39.4268C148.846 38.9189 148.884 38.4069 148.892 37.8948C148.917 37.3878 148.866 36.88 148.74 36.3882C148.711 36.2634 148.635 36.1545 148.528 36.0835C148.477 36.0671 148.422 36.0673 148.371 36.084C148.321 36.1007 148.276 36.1331 148.245 36.1766C148.108 36.4271 148.052 36.7139 148.084 36.9976V36.9976C147.991 37.9921 147.885 38.9697 147.741 39.9304C147.669 40.4086 147.589 40.8868 147.47 41.3566C147.437 41.4708 147.403 41.5893 147.36 41.7078C147.32 41.8515 147.236 41.9788 147.119 42.0718C147.068 42.0971 147.009 42.1042 146.953 42.0919C146.897 42.0796 146.846 42.0486 146.81 42.0041C146.758 41.9498 146.719 41.8848 146.696 41.8136C146.65 41.6962 146.618 41.5742 146.599 41.4497C146.499 40.5288 146.491 39.6003 146.573 38.6777C146.636 38.2476 146.66 37.8129 146.645 37.3785C146.631 37.1931 146.546 37.0202 146.408 36.8961C146.376 36.8759 146.339 36.8624 146.302 36.8566C146.264 36.8508 146.225 36.8527 146.188 36.8622C146.148 36.8755 146.11 36.8925 146.074 36.913C146.036 36.9468 146.04 36.913 146.015 36.9849C145.861 37.3655 145.749 37.7613 145.68 38.1657C145.596 38.5889 145.524 38.974 145.46 39.3718C145.397 39.7696 145.337 40.1589 145.287 40.5483C145.236 40.9376 145.21 41.3185 145.134 41.6994C145.069 42.0715 144.969 42.4369 144.838 42.7912C144.803 42.8814 144.762 42.9691 144.715 43.0536C144.656 43.134 144.622 43.2356 144.461 43.2864C144.42 43.2939 144.378 43.2891 144.339 43.2726C144.301 43.256 144.268 43.2284 144.246 43.1933C144.216 43.1444 144.193 43.0917 144.178 43.0367C144.159 42.9447 144.148 42.8513 144.144 42.7574C144.144 42.0337 144.241 41.3735 144.279 40.7345C144.307 40.429 144.307 40.1216 144.279 39.8161C144.279 39.6807 144.216 39.5199 144.14 39.4903C144.086 39.4641 144.028 39.4505 143.968 39.4505C143.909 39.4505 143.85 39.4641 143.797 39.4903C143.619 39.681 143.509 39.9249 143.484 40.1843C143.42 40.4425 143.395 40.7049 143.348 40.9545C143.171 41.9533 142.984 42.8166 142.896 43.5191C142.854 43.8281 142.854 44.1412 142.896 44.4502C142.955 44.7041 143.044 44.9326 143.09 45.1104C143.137 45.2881 143.183 45.4151 143.213 45.5336C143.229 45.5789 143.24 45.6257 143.247 45.6732C143.221 45.6323 143.202 45.5882 143.188 45.542L143.044 45.1188C142.984 44.9369 142.896 44.7337 142.824 44.4544C142.778 44.1372 142.778 43.8152 142.824 43.498C142.904 42.7828 143.073 41.9279 143.247 40.9249C143.293 40.6752 143.319 40.4128 143.374 40.142C143.404 39.9989 143.442 39.8577 143.488 39.7188C143.53 39.5649 143.623 39.4294 143.75 39.3337C143.827 39.2929 143.913 39.2716 144 39.2716C144.087 39.2716 144.173 39.2929 144.25 39.3337C144.333 39.3858 144.401 39.4584 144.447 39.5443C144.494 39.6303 144.518 39.7268 144.516 39.8246C144.546 40.1427 144.546 40.4629 144.516 40.781C144.487 41.4243 144.385 42.0972 144.402 42.7828C144.405 42.8639 144.415 42.9446 144.432 43.024C144.432 43.1044 144.491 43.1383 144.483 43.1213C144.474 43.1044 144.563 43.0536 144.597 42.9859C144.639 42.9108 144.675 42.8331 144.707 42.7531C144.832 42.4101 144.924 42.0558 144.982 41.6951C145.054 41.327 145.079 40.9461 145.13 40.5525C145.181 40.1589 145.232 39.7696 145.295 39.3675C145.359 38.9655 145.431 38.5635 145.511 38.153C145.58 37.7242 145.699 37.3052 145.866 36.9045C145.9 36.8373 145.951 36.7803 146.015 36.7395C146.071 36.7086 146.13 36.6845 146.192 36.6675C146.263 36.6472 146.338 36.6424 146.411 36.6534C146.484 36.6643 146.554 36.6908 146.615 36.731C146.714 36.809 146.795 36.9063 146.854 37.017C146.913 37.1277 146.948 37.2493 146.958 37.3743C146.99 37.6045 146.99 37.8381 146.958 38.0683C146.937 38.2842 146.916 38.4915 146.903 38.7285C146.821 39.6299 146.829 40.5373 146.929 41.437C146.947 41.5439 146.975 41.6487 147.013 41.7502C147.026 41.7911 147.048 41.8287 147.077 41.8602C147.077 41.8602 147.077 41.8602 147.098 41.8602C147.098 41.9575 147.098 41.8602 147.098 41.8983C147.098 41.9364 147.098 41.8983 147.098 41.8644C147.151 41.7937 147.192 41.7152 147.221 41.6317C147.26 41.5273 147.294 41.4172 147.322 41.3016C147.437 40.853 147.513 40.379 147.585 39.905C147.729 38.9528 147.834 37.9752 147.923 36.9849V37.0061C147.886 36.6572 147.961 36.3056 148.139 36.0031C148.207 35.9166 148.3 35.8535 148.405 35.8224C148.511 35.7913 148.623 35.7938 148.727 35.8296C148.816 35.8788 148.894 35.9454 148.957 36.0254C149.019 36.1054 149.065 36.1971 149.091 36.2951C149.227 36.8155 149.282 37.3535 149.256 37.8906C149.256 38.4153 149.21 38.9316 149.163 39.4437C149.117 39.9558 149.053 40.4594 148.981 40.9588C148.943 41.2127 148.905 41.4582 148.867 41.7078C148.833 41.8644 148.842 41.8687 148.867 41.9152C148.896 41.935 148.931 41.9456 148.966 41.9456C149.002 41.9456 149.036 41.935 149.066 41.9152C149.117 41.8771 149.125 41.8052 149.138 41.6655L149.167 41.2973L149.244 40.5652C149.294 40.0828 149.362 39.6003 149.442 39.1306C149.521 38.6587 149.634 38.1933 149.781 37.7382C149.858 37.5082 149.962 37.288 150.09 37.0823C150.16 36.9714 150.252 36.8762 150.361 36.8029C150.421 36.7593 150.491 36.7307 150.565 36.7197C150.638 36.7087 150.714 36.7154 150.784 36.7395C150.849 36.7795 150.904 36.8339 150.944 36.8985C150.984 36.9631 151.009 37.0361 151.017 37.1119C151.034 37.2309 151.041 37.3513 151.038 37.4716C151.038 37.7044 151.008 37.9287 150.983 38.153C150.924 38.5762 150.843 39.0247 150.767 39.4522C150.585 40.2561 150.497 41.0783 150.505 41.9025C150.517 41.991 150.539 42.0777 150.572 42.1607C150.588 42.1907 150.606 42.2191 150.627 42.2453C150.627 42.2453 150.627 42.2453 150.627 42.2157C150.722 42.0627 150.792 41.8956 150.835 41.7205C150.945 41.3524 151.034 40.9799 151.131 40.616C151.218 40.2539 151.324 39.8965 151.448 39.5453C151.507 39.3713 151.584 39.204 151.677 39.0459C151.727 38.9598 151.793 38.8837 151.872 38.8216C151.914 38.7847 151.965 38.7586 152.02 38.7454C152.074 38.7369 152.13 38.7369 152.185 38.7454C152.243 38.7512 152.298 38.7723 152.345 38.8065C152.391 38.8407 152.428 38.8869 152.451 38.9401C152.487 39.029 152.505 39.1237 152.506 39.2194C152.51 39.3906 152.5 39.5618 152.477 39.7315C152.439 40.0616 152.375 40.3748 152.316 40.6837C152.193 41.2889 152.058 41.8644 151.893 42.3765C151.575 43.426 151.258 44.3148 151 45.0384C150.742 45.7621 150.522 46.308 150.374 46.6974C150.302 46.8751 150.242 47.0148 150.2 47.1206C150.181 47.1898 150.154 47.2566 150.12 47.3195Z" fill="#EB996E"/>
<path d="M127.017 59.2453C127.821 62.085 129.395 66.4651 131.084 71.0949C131.137 71.2441 131.234 71.3741 131.361 71.4684C131.488 71.5628 131.64 71.6173 131.798 71.625C131.957 71.6327 132.114 71.5933 132.249 71.5117C132.385 71.4302 132.494 71.3101 132.561 71.1668L136.7 62.4108C136.7 62.4108 135.701 55.2164 135.786 55.4746C135.87 55.7327 127.246 56.4056 127.246 56.4056L127.017 59.2453Z" fill="#3A7792"/>
<path d="M136.344 57.8361C136.344 57.87 135.828 58.0223 135.011 58.3355C133.944 58.7407 132.916 59.2421 131.939 59.8336C130.964 60.4279 130.043 61.1077 129.188 61.865C128.532 62.4448 128.155 62.8426 128.13 62.8172C128.105 62.7918 128.202 62.6987 128.363 62.5082C128.59 62.2436 128.83 61.9907 129.082 61.7507C129.917 60.9475 130.836 60.2379 131.825 59.6347C132.814 59.0389 133.863 58.5508 134.956 58.1789C135.287 58.0651 135.623 57.969 135.964 57.8911C136.087 57.8526 136.215 57.834 136.344 57.8361V57.8361Z" fill="#FAFAFA"/>
<path d="M137.986 60.0199C137.718 59.7488 137.484 59.4444 137.292 59.1143C136.798 58.3437 136.373 57.5308 136.023 56.6851C135.672 55.8369 135.399 54.9587 135.206 54.0613C135.107 53.6942 135.058 53.3157 135.058 52.9355C135.184 53.2904 135.285 53.6539 135.358 54.0232C135.585 54.8995 135.868 55.7604 136.205 56.6005C136.557 57.4362 136.961 58.2489 137.415 59.0339C137.626 59.35 137.817 59.6794 137.986 60.0199Z" fill="#263238"/>
<path d="M140.746 21.2468C140.028 22.4302 139.583 23.7587 139.443 25.1358C139.303 26.5128 139.472 27.9037 139.937 29.2072C140.361 30.371 141.038 31.5179 140.915 32.7537C140.792 33.9894 139.827 35.2125 140.166 36.4313C140.369 37.1549 140.987 37.7009 141.228 38.4034C141.503 39.2498 141.228 40.1427 141.08 41.0103C140.741 43.2279 141.452 45.4581 141.626 47.6926C141.799 49.9271 141.203 52.5467 139.205 53.5201C138.6 53.8163 137.809 53.901 137.305 53.4482C136.662 52.8768 136.84 51.8442 137.017 50.9978C138.769 42.5338 133.357 34.2729 134.592 25.7074C134.791 24.3362 135.557 22.0086 136.543 21.0522C137.529 20.0957 140.267 20.2058 141.199 21.2214" fill="#263238"/>
<path d="M132.409 45.8006C132.409 45.8006 132.667 45.4959 133.048 44.8949C133.582 44.0462 133.957 43.1067 134.152 42.123C134.28 41.4453 134.324 40.7546 134.283 40.0662C134.209 39.2658 134.18 38.4619 134.195 37.6582C134.22 37.2181 134.301 36.7829 134.436 36.3632C134.59 35.9309 134.786 35.5142 135.02 35.119C135.494 34.3192 136.091 33.5743 136.641 32.7787C137.206 32.0268 137.599 31.16 137.792 30.2395C137.886 29.3725 137.836 28.496 137.644 27.6453C137.484 26.8547 137.421 26.0474 137.457 25.2415C137.508 24.5376 137.65 23.8433 137.881 23.1763C138.204 22.2084 138.713 21.3129 139.379 20.5398C139.556 20.3296 139.748 20.1329 139.954 19.9515C140.02 19.8818 140.094 19.8207 140.174 19.7695C140.174 19.7695 139.891 20.0446 139.442 20.6159C138.374 21.9422 137.749 23.5706 137.656 25.2711C137.628 26.0638 137.698 26.857 137.864 27.6326C138.066 28.5061 138.12 29.4073 138.025 30.2988C137.824 31.2449 137.42 32.1359 136.84 32.9099C136.285 33.7182 135.688 34.4588 135.223 35.2375C134.994 35.6181 134.804 36.0207 134.656 36.4394C134.522 36.842 134.441 37.2602 134.415 37.6836C134.396 38.4785 134.419 39.2737 134.482 40.0662C134.516 40.7685 134.462 41.4722 134.322 42.1611C134.109 43.1582 133.707 44.1051 133.137 44.95C132.982 45.1784 132.812 45.3961 132.629 45.6017C132.563 45.6759 132.489 45.7426 132.409 45.8006V45.8006Z" fill="#455A64"/>
<path d="M128.397 46.4308C128.431 46.3322 128.475 46.2372 128.528 46.1473C128.634 45.9484 128.769 45.686 128.951 45.3559C129.307 44.6661 129.836 43.6631 130.356 42.3935C130.993 40.9107 131.346 39.3216 131.397 37.7087C131.397 37.244 131.362 36.7799 131.291 36.3206C131.219 35.8466 131.109 35.3684 131.037 34.869C130.949 34.3525 130.961 33.8239 131.071 33.3116C131.214 32.7857 131.509 32.3134 131.918 31.9532C132.713 31.2295 133.674 30.7555 134.173 29.9049C134.606 29.0614 134.861 28.1381 134.922 27.1921C135.012 26.325 135.208 25.4721 135.506 24.6529C136.177 22.8943 137.373 21.3844 138.93 20.3278C139.179 20.1607 139.437 20.0094 139.705 19.875C139.795 19.8209 139.892 19.7783 139.992 19.748C139.992 19.748 139.612 19.9512 138.981 20.3998C138.092 21.034 137.323 21.8206 136.708 22.7231C136.282 23.3418 135.935 24.0115 135.676 24.7164C135.391 25.5375 135.206 26.3901 135.126 27.2556C134.999 28.157 134.897 29.1643 134.355 30.0572C133.814 30.9502 132.823 31.458 132.066 32.1732C131.68 32.5082 131.402 32.95 131.266 33.4428C131.163 33.9274 131.153 34.4272 131.236 34.9156C131.304 35.4022 131.41 35.8847 131.482 36.3629C131.555 36.8333 131.589 37.3089 131.583 37.7849C131.526 39.4274 131.154 41.0436 130.487 42.5459C130.054 43.5611 129.563 44.5503 129.015 45.5083L128.566 46.1727C128.519 46.2645 128.462 46.351 128.397 46.4308V46.4308Z" fill="#455A64"/>
<path d="M268.417 166.014C268.436 165.953 268.462 165.893 268.493 165.837C268.552 165.71 268.633 165.54 268.73 165.325C269.024 164.664 269.261 163.978 269.437 163.276C269.902 161.457 270.067 158.676 269.378 155.375C269.003 153.575 268.512 151.801 267.909 150.064C267.291 148.181 266.568 146.183 265.979 144.021C265.315 141.765 264.994 139.423 265.027 137.072C265.116 134.613 265.844 132.163 266.644 129.716C267.444 127.27 268.269 124.888 268.514 122.476C268.787 120.162 268.322 117.822 267.185 115.789C266.127 113.838 264.794 112.166 263.8 110.44C262.869 108.835 262.183 107.101 261.764 105.294C261.164 102.677 261.119 99.9637 261.633 97.3289C261.82 96.3649 262.104 95.4221 262.479 94.5146C262.468 94.5781 262.451 94.6404 262.429 94.7009L262.259 95.2383C262.115 95.7123 261.925 96.4233 261.743 97.3543C261.27 99.9773 261.341 102.669 261.95 105.264C262.375 107.049 263.064 108.761 263.994 110.342C264.989 112.035 266.326 113.728 267.41 115.687C268.574 117.762 269.052 120.151 268.777 122.514C268.527 124.96 267.697 127.368 266.898 129.81C266.098 132.251 265.378 134.676 265.289 137.093C265.252 139.42 265.565 141.74 266.22 143.974C266.8 146.124 267.511 148.121 268.125 150.013C268.723 151.76 269.203 153.544 269.564 155.354C270.237 158.68 270.046 161.49 269.564 163.314C269.375 164.018 269.121 164.702 268.806 165.358L268.544 165.862C268.507 165.917 268.465 165.969 268.417 166.014V166.014Z" fill="#263238"/>
<path d="M265.154 112.145C265.154 112.145 263.131 105.666 266.762 101.874C266.79 101.843 266.826 101.821 266.866 101.81C266.906 101.799 266.949 101.799 266.989 101.81C267.028 101.822 267.064 101.844 267.092 101.875C267.12 101.905 267.139 101.943 267.147 101.984C267.342 103.055 267.583 106.313 265.154 112.145Z" fill="#3A7792"/>
<path d="M266.369 104.032C266.362 104.433 266.317 104.833 266.233 105.226C266.098 106.051 265.941 107.016 265.772 108.082C265.603 109.149 265.446 110.118 265.315 110.939C265.278 111.339 265.207 111.736 265.103 112.124C265.063 111.724 265.072 111.32 265.129 110.922C265.196 110.181 265.328 109.166 265.509 108.048C265.691 106.931 265.89 105.932 266.047 105.2C266.109 104.8 266.217 104.408 266.369 104.032Z" fill="#263238"/>
<path d="M267.532 127.427C267.532 127.427 268.772 120.753 273.758 119.102C273.797 119.089 273.839 119.086 273.88 119.095C273.921 119.104 273.958 119.124 273.988 119.153C274.018 119.182 274.039 119.219 274.049 119.259C274.059 119.3 274.058 119.342 274.045 119.382C273.715 120.41 272.408 123.402 267.532 127.427Z" fill="#3A7792"/>
<path d="M272.399 120.816C272.206 121.169 271.979 121.502 271.722 121.811L269.974 124.117L268.239 126.432C268.021 126.768 267.773 127.084 267.499 127.376C267.653 127.004 267.852 126.651 268.091 126.326C268.514 125.704 269.09 124.866 269.784 123.965C270.478 123.064 271.108 122.272 271.587 121.697C271.824 121.374 272.097 121.079 272.399 120.816V120.816Z" fill="#263238"/>
<path d="M266.187 144.156C266.187 144.156 265.433 137.411 269.725 134.385C269.758 134.359 269.797 134.343 269.839 134.339C269.881 134.335 269.923 134.343 269.96 134.362C269.998 134.381 270.029 134.411 270.05 134.447C270.071 134.483 270.082 134.525 270.08 134.567C270.067 135.654 269.682 138.896 266.187 144.156Z" fill="#3A7792"/>
<path d="M268.937 136.424C268.859 136.818 268.738 137.202 268.578 137.571L267.579 140.288C267.207 141.303 266.872 142.222 266.589 143.005C266.48 143.39 266.339 143.765 266.165 144.126C266.205 143.725 266.293 143.33 266.428 142.95C266.635 142.239 266.957 141.257 267.35 140.199C267.744 139.141 268.129 138.189 268.421 137.507C268.556 137.129 268.729 136.766 268.937 136.424V136.424Z" fill="#263238"/>
<path d="M269.94 160.991C269.94 160.991 269.433 154.219 273.825 151.35C273.86 151.326 273.9 151.313 273.942 151.311C273.983 151.309 274.025 151.318 274.061 151.339C274.098 151.359 274.128 151.389 274.148 151.425C274.169 151.462 274.178 151.503 274.177 151.545C274.126 152.632 273.626 155.861 269.94 160.991Z" fill="#3A7792"/>
<path d="M272.954 153.365C272.859 153.756 272.724 154.136 272.552 154.499C272.238 155.27 271.866 156.192 271.456 157.178C271.045 158.164 270.685 159.083 270.372 159.857C270.247 160.239 270.087 160.609 269.894 160.962C269.95 160.561 270.054 160.169 270.203 159.794C270.436 159.091 270.791 158.126 271.223 157.081C271.654 156.036 272.069 155.096 272.387 154.427C272.537 154.054 272.727 153.698 272.954 153.365V153.365Z" fill="#263238"/>
<path d="M262.242 106.453C262.242 106.453 256.241 103.304 256.11 98.0605C256.11 98.0194 256.121 97.9789 256.141 97.9434C256.162 97.9079 256.192 97.8787 256.228 97.8587C256.264 97.8388 256.305 97.8289 256.346 97.8302C256.387 97.8314 256.427 97.8437 256.461 97.8658C257.354 98.4837 259.834 100.617 262.242 106.453Z" fill="#3A7792"/>
<path d="M257.359 99.8633C257.64 100.151 257.891 100.467 258.108 100.807C258.599 101.48 259.17 102.276 259.801 103.152L261.493 105.488C261.751 105.795 261.981 106.125 262.179 106.474C261.869 106.216 261.592 105.922 261.354 105.598C260.875 105.031 260.249 104.218 259.589 103.3C258.929 102.381 258.349 101.531 257.951 100.909C257.718 100.582 257.519 100.231 257.359 99.8633V99.8633Z" fill="#263238"/>
<path d="M268.705 120.364C268.705 120.364 262.509 117.592 262.073 112.357C262.07 112.316 262.078 112.274 262.096 112.237C262.114 112.2 262.143 112.169 262.178 112.147C262.213 112.125 262.253 112.114 262.294 112.113C262.336 112.113 262.376 112.124 262.412 112.145C263.338 112.708 265.941 114.68 268.705 120.364Z" fill="#3A7792"/>
<path d="M263.436 114.083C263.734 114.352 264.004 114.651 264.24 114.976L266.077 117.215L267.918 119.445C268.193 119.737 268.443 120.053 268.662 120.389C268.338 120.149 268.042 119.872 267.782 119.563C267.274 119.022 266.597 118.252 265.882 117.376C265.167 116.499 264.54 115.683 264.1 115.086C263.842 114.777 263.62 114.441 263.436 114.083V114.083Z" fill="#263238"/>
<path d="M265.129 135.891C265.129 135.891 260.897 130.601 262.873 125.734C262.889 125.696 262.914 125.663 262.948 125.638C262.981 125.614 263.02 125.599 263.062 125.596C263.103 125.592 263.144 125.6 263.181 125.618C263.218 125.637 263.249 125.665 263.271 125.7C263.859 126.619 265.268 129.564 265.129 135.891Z" fill="#3A7792"/>
<path d="M263.3 127.884C263.445 128.26 263.55 128.65 263.614 129.048C263.791 129.86 263.999 130.817 264.227 131.875C264.456 132.933 264.672 133.885 264.849 134.697C264.962 135.083 265.04 135.478 265.082 135.878C264.896 135.518 264.754 135.137 264.659 134.744C264.451 134.029 264.198 133.051 263.961 131.925C263.724 130.8 263.537 129.809 263.419 129.081C263.336 128.688 263.296 128.286 263.3 127.884V127.884Z" fill="#263238"/>
<path d="M269.361 154.135C269.361 154.135 263.211 151.262 262.864 146.022C262.86 145.981 262.868 145.939 262.887 145.901C262.905 145.863 262.934 145.832 262.97 145.81C263.006 145.788 263.047 145.776 263.089 145.776C263.131 145.777 263.172 145.789 263.207 145.811C264.117 146.391 266.686 148.409 269.361 154.135Z" fill="#3A7792"/>
<path d="M264.185 147.766C264.476 148.043 264.739 148.348 264.972 148.676L266.771 150.94L268.573 153.204C268.845 153.5 269.088 153.82 269.301 154.16C268.986 153.913 268.702 153.629 268.455 153.314C267.951 152.764 267.291 151.981 266.589 151.092C265.886 150.203 265.277 149.378 264.845 148.773C264.587 148.464 264.365 148.126 264.185 147.766V147.766Z" fill="#263238"/>
<path d="M281.595 127.456C281.595 127.456 281.595 127.507 281.595 127.604C281.595 127.702 281.595 127.862 281.595 128.027C281.595 128.451 281.553 128.988 281.523 129.674C281.447 131.121 281.333 133.14 281.202 135.552C280.779 138.006 279.509 140.728 277.816 143.373C276.585 145.319 275.277 147.088 274.177 148.735C273.172 150.179 272.27 151.692 271.477 153.263C270.951 154.324 270.526 155.432 270.207 156.572C270.101 156.974 270.017 157.292 269.97 157.508C269.95 157.62 269.92 157.73 269.881 157.838C269.883 157.724 269.897 157.61 269.923 157.499C269.953 157.279 270.017 156.957 270.114 156.547C270.399 155.387 270.803 154.259 271.32 153.182C272.107 151.6 273.008 150.076 274.016 148.625C275.125 146.966 276.407 145.192 277.634 143.258C279.306 140.626 280.55 137.947 281.02 135.531C281.189 133.123 281.329 131.108 281.443 129.661C281.498 128.975 281.545 128.429 281.578 128.019C281.578 127.85 281.608 127.706 281.621 127.596C281.606 127.55 281.598 127.503 281.595 127.456V127.456Z" fill="#263238"/>
<path d="M277.935 142.887C277.935 142.887 280.537 136.623 277.266 132.514C277.241 132.481 277.207 132.456 277.168 132.441C277.129 132.427 277.087 132.423 277.046 132.431C277.005 132.439 276.967 132.458 276.936 132.486C276.906 132.514 276.884 132.55 276.872 132.59C276.58 133.64 276.043 136.86 277.935 142.887Z" fill="#3A7792"/>
<path d="M277.461 134.701C277.573 135.087 277.642 135.485 277.668 135.886C277.761 136.622 277.863 137.642 277.943 138.772C278.024 139.902 278.062 140.926 278.062 141.671C278.087 142.073 278.063 142.477 277.99 142.873C277.917 142.478 277.881 142.077 277.884 141.676C277.829 140.829 277.761 139.868 277.689 138.789C277.617 137.71 277.55 136.733 277.49 135.903C277.441 135.504 277.431 135.102 277.461 134.701V134.701Z" fill="#263238"/>
<g opacity="0.3">
<path d="M277.935 142.887C277.935 142.887 280.537 136.623 277.266 132.514C277.241 132.481 277.206 132.456 277.168 132.441C277.129 132.427 277.086 132.423 277.046 132.431C277.005 132.439 276.967 132.458 276.936 132.486C276.906 132.514 276.884 132.55 276.872 132.59C276.58 133.64 276.043 136.86 277.935 142.887Z" fill="black"/>
</g>
<path d="M269.873 157.989C269.873 157.989 271.959 151.531 268.362 147.706C268.334 147.675 268.298 147.653 268.259 147.642C268.219 147.63 268.177 147.63 268.137 147.641C268.097 147.652 268.061 147.674 268.033 147.704C268.005 147.734 267.985 147.771 267.977 147.812C267.774 148.878 267.499 152.137 269.873 157.989Z" fill="#3A7792"/>
<path d="M268.734 149.856C268.881 150.233 268.983 150.625 269.039 151.024C269.191 151.748 269.373 152.76 269.547 153.877C269.72 154.994 269.839 156.014 269.902 156.755C269.957 157.154 269.964 157.559 269.923 157.961C269.823 157.572 269.755 157.176 269.72 156.776C269.598 155.951 269.454 154.986 269.297 153.915C269.141 152.844 268.988 151.879 268.874 151.054C268.788 150.66 268.741 150.259 268.734 149.856Z" fill="#263238"/>
<g opacity="0.3">
<path d="M269.873 157.99C269.873 157.99 271.959 151.532 268.362 147.707C268.334 147.676 268.298 147.654 268.259 147.643C268.219 147.631 268.177 147.631 268.137 147.642C268.097 147.653 268.061 147.674 268.033 147.705C268.005 147.735 267.985 147.772 267.977 147.813C267.774 148.879 267.499 152.138 269.873 157.99Z" fill="black"/>
</g>
<path d="M281.253 135.231C281.253 135.231 286.809 131.337 286.251 126.115C286.246 126.074 286.231 126.035 286.206 126.002C286.18 125.969 286.147 125.944 286.108 125.929C286.07 125.914 286.028 125.91 285.987 125.918C285.947 125.925 285.909 125.944 285.878 125.971C285.07 126.699 282.903 129.12 281.253 135.231Z" fill="#3A7792"/>
<g opacity="0.3">
<path d="M281.253 135.231C281.253 135.231 286.809 131.337 286.251 126.115C286.246 126.074 286.231 126.035 286.206 126.002C286.181 125.969 286.147 125.944 286.108 125.929C286.07 125.914 286.028 125.91 285.987 125.918C285.947 125.925 285.909 125.944 285.878 125.971C285.07 126.699 282.903 129.12 281.253 135.231Z" fill="black"/>
</g>
<path d="M285.243 128.065C285.133 128.453 284.978 128.826 284.782 129.178C284.465 129.847 284.003 130.761 283.466 131.76C282.928 132.759 282.412 133.643 282.014 134.27C281.819 134.621 281.581 134.948 281.308 135.243C281.456 134.871 281.64 134.513 281.858 134.176C282.256 133.444 282.725 132.589 283.242 131.637L284.621 129.098C284.794 128.734 285.003 128.389 285.243 128.065Z" fill="#263238"/>
<path d="M272.116 151.587C272.116 151.587 278.819 150.542 280.614 145.607C280.628 145.569 280.632 145.527 280.624 145.487C280.617 145.446 280.598 145.409 280.57 145.378C280.543 145.347 280.507 145.325 280.468 145.313C280.429 145.301 280.387 145.301 280.347 145.311C279.302 145.624 276.271 146.83 272.116 151.587Z" fill="#3A7792"/>
<g opacity="0.3">
<path d="M272.116 151.587C272.116 151.587 278.819 150.542 280.614 145.607C280.628 145.569 280.632 145.527 280.624 145.487C280.617 145.446 280.598 145.409 280.57 145.378C280.543 145.347 280.508 145.325 280.468 145.313C280.429 145.301 280.387 145.301 280.347 145.311C279.302 145.624 276.272 146.83 272.116 151.587Z" fill="black"/>
</g>
<path d="M278.853 146.916C278.581 147.213 278.278 147.478 277.947 147.707C277.368 148.173 276.551 148.791 275.632 149.451C274.714 150.111 273.855 150.674 273.22 151.063C272.889 151.294 272.531 151.483 272.154 151.626C272.454 151.359 272.779 151.119 273.123 150.911L275.484 149.244L277.842 147.551C278.155 147.304 278.494 147.091 278.853 146.916V146.916Z" fill="#263238"/>
<path d="M265.717 163.928L263.762 177.089H275.95L274.371 163.928H265.717Z" fill="#455A64"/>
<path d="M274.862 168.003C274.862 168.075 272.662 168.13 269.949 168.13C267.236 168.13 265.031 168.075 265.031 168.003C266.667 167.878 268.309 167.836 269.949 167.876C271.588 167.836 273.228 167.878 274.862 168.003V168.003Z" fill="#263238"/>
<path d="M275.099 169.053C275.099 169.125 272.827 169.18 270.021 169.18C267.215 169.18 264.942 169.125 264.942 169.053C264.942 168.981 267.215 168.926 270.021 168.926C272.827 168.926 275.099 168.981 275.099 169.053Z" fill="#263238"/>
<path d="M227.705 36.2442C227.705 36.2442 227.591 36.2442 227.371 36.2442C227.049 36.2251 226.727 36.2251 226.406 36.2442C225.163 36.317 223.942 36.6033 222.796 37.0906C220.98 37.8519 219.399 39.0833 218.217 40.6582C217.488 41.6416 216.946 42.7504 216.617 43.9295C215.876 46.7384 216.277 49.7262 217.73 52.2412C218.126 52.9375 218.61 53.5804 219.169 54.1541C219.733 54.7619 220.39 55.2762 221.116 55.6776C221.86 56.0966 222.703 56.3085 223.558 56.2912C224.438 56.2807 225.283 55.9393 225.923 55.3348C226.233 55.0104 226.476 54.6281 226.638 54.2099C226.8 53.7916 226.878 53.3456 226.867 52.8972C226.861 51.9656 226.565 51.0591 226.021 50.3029C224.925 48.7583 223.147 47.7214 221.255 47.1628C219.294 46.6119 217.222 46.5827 215.246 47.0782C214.237 47.3406 213.265 47.7273 212.351 48.2293C211.429 48.7497 210.591 49.4076 209.867 50.1802C209.694 50.3791 209.495 50.5611 209.338 50.7812L208.86 51.4244C208.569 51.8777 208.309 52.3499 208.081 52.8379C207.629 53.8287 207.319 54.8789 207.163 55.9569C206.856 58.1105 207.149 60.3071 208.009 62.3049C208.832 64.2571 210.265 65.8903 212.093 66.9601C212.98 67.4666 213.969 67.7661 214.988 67.8362C215.987 67.892 216.98 67.6537 217.844 67.1506C218.703 66.6763 219.381 65.9327 219.774 65.0346C220.145 64.1494 220.171 63.1573 219.846 62.2541C219.512 61.3828 218.965 60.6088 218.255 60.0027C217.566 59.4077 216.773 58.947 215.915 58.6442C214.241 58.1166 212.451 58.0857 210.76 58.5554C209.178 58.984 207.725 59.7933 206.528 60.9126C205.438 61.9573 204.607 63.2429 204.103 64.6664C203.222 67.1363 203.262 69.8416 204.217 72.284C204.962 74.1073 206.161 75.7099 207.7 76.9392C208.67 77.7167 209.749 78.3457 210.904 78.8055C211.302 78.9536 211.611 79.0637 211.822 79.1229L212.135 79.2245C212.135 79.2245 212.025 79.2033 211.814 79.1441C211.501 79.0604 211.193 78.9601 210.891 78.8436C209.722 78.404 208.628 77.7843 207.65 77.0069C206.085 75.7784 204.862 74.168 204.099 72.3305C203.127 69.8651 203.077 67.1316 203.959 64.6325C204.464 63.1874 205.304 61.8823 206.41 60.8237C207.624 59.682 209.098 58.8539 210.705 58.4115C212.431 57.9299 214.26 57.9593 215.97 58.4961C216.853 58.8042 217.67 59.2766 218.378 59.8884C219.115 60.5144 219.683 61.3165 220.028 62.2203C220.376 63.1638 220.361 64.2031 219.986 65.1361C219.568 66.0696 218.86 66.843 217.967 67.341C217.071 67.8635 216.041 68.1135 215.005 68.0605C213.961 67.9876 212.948 67.6779 212.042 67.1548C210.172 66.07 208.704 64.4085 207.857 62.4192C206.978 60.3847 206.676 58.1473 206.985 55.9527C207.147 54.8529 207.463 53.7814 207.925 52.7702C208.157 52.2719 208.423 51.7897 208.72 51.3271L209.211 50.6711C209.368 50.4468 209.571 50.2479 209.749 50.0533C210.49 49.266 211.346 48.5954 212.288 48.0642C213.223 47.5526 214.218 47.1602 215.25 46.8962C217.264 46.3915 219.375 46.4221 221.374 46.9851C223.304 47.5606 225.111 48.6144 226.249 50.2141C226.821 51.0018 227.132 51.949 227.138 52.9226C227.159 53.8807 226.798 54.8077 226.135 55.4999C225.458 56.1354 224.567 56.4934 223.638 56.5028C222.749 56.523 221.872 56.3022 221.099 55.8638C220.356 55.4539 219.684 54.9266 219.11 54.3022C218.543 53.7156 218.053 53.0602 217.65 52.3512C216.17 49.7895 215.768 46.7451 216.533 43.8872C216.871 42.6944 217.426 41.5741 218.17 40.582C219.374 38.9952 220.982 37.7603 222.825 37.006C223.981 36.5281 225.212 36.2587 226.461 36.2104C226.785 36.189 227.11 36.189 227.434 36.2104L227.705 36.2442Z" fill="#263238"/>
<path d="M241.836 78.5898H182.499V124.355H241.836V78.5898Z" fill="#3A7792"/>
<path d="M182.499 78.5898L193.46 88.8144H251.789L241.836 78.5898H182.499Z" fill="#3A7792"/>
<path d="M182.499 78.5902L241.853 78.4844H241.899L241.933 78.514L251.785 88.6327L251.887 88.7385L252.069 88.9247H251.806L193.477 88.8782H193.451L182.499 78.5902L193.502 88.747H193.455L251.785 88.7047L251.709 88.8909L251.603 88.7851L241.755 78.6663L241.831 78.7002L182.499 78.5902Z" fill="#263238"/>
<path d="M200.324 99.6953C200.002 99.707 199.698 99.8443 199.477 100.078C199.256 100.311 199.135 100.622 199.141 100.944C199.147 101.266 199.279 101.572 199.508 101.797C199.738 102.023 200.047 102.149 200.368 102.149C200.69 102.149 200.999 102.023 201.228 101.797C201.458 101.572 201.59 101.266 201.595 100.944C201.601 100.622 201.481 100.311 201.259 100.078C201.038 99.8443 200.734 99.707 200.413 99.6953" fill="#263238"/>
<path d="M214.345 99.6953C214.024 99.7075 213.722 99.8448 213.502 100.078C213.282 100.311 213.162 100.62 213.168 100.941C213.174 101.261 213.306 101.566 213.535 101.79C213.763 102.015 214.071 102.141 214.391 102.141C214.711 102.141 215.019 102.015 215.248 101.79C215.476 101.566 215.608 101.261 215.614 100.941C215.62 100.62 215.5 100.311 215.28 100.078C215.06 99.8448 214.758 99.7075 214.438 99.6953" fill="#263238"/>
<path d="M214.425 110.647C214.18 109.712 213.783 108.824 213.248 108.019C212.654 107.158 211.891 106.426 211.005 105.869C209.937 105.16 208.691 104.766 207.409 104.73C206.128 104.695 204.862 105.021 203.756 105.67C202.843 106.18 202.041 106.868 201.399 107.693C200.82 108.469 200.375 109.335 200.083 110.258C200.086 110.189 200.097 110.121 200.117 110.055C200.157 109.864 200.209 109.676 200.273 109.492C200.505 108.812 200.844 108.173 201.276 107.6C201.914 106.736 202.726 106.015 203.659 105.484C204.793 104.807 206.096 104.467 207.417 104.503C208.737 104.539 210.02 104.949 211.116 105.687C212.016 106.266 212.786 107.027 213.375 107.922C213.777 108.519 214.082 109.176 214.277 109.868C214.329 110.056 214.37 110.247 214.4 110.44C214.414 110.508 214.423 110.577 214.425 110.647V110.647Z" fill="#263238"/>
<path opacity="0.5" d="M182.634 79.0938L193.13 92.3992H241.836V88.8147H193.46L182.634 79.0938Z" fill="black"/>
<path d="M230.134 124.253C230.075 124.253 230.024 116.293 230.024 106.479C230.024 96.6645 230.075 88.7041 230.134 88.7041C230.193 88.7041 230.248 96.6603 230.248 106.479C230.248 116.297 230.198 124.253 230.134 124.253Z" fill="#263238"/>
<path d="M239.453 113.877H234.222V119.789H239.453V113.877Z" fill="#F5F5F5"/>
<path d="M182.499 78.5898L170.319 88.8144H182.499V78.5898Z" fill="#3A7792"/>
<g opacity="0.4">
<path d="M182.499 78.5898L170.319 88.8144H182.499V78.5898Z" fill="black"/>
</g>
<path d="M243.588 124.354H175.364V176.975H243.588V124.354Z" fill="#3A7792"/>
<path opacity="0.3" d="M243.588 124.354H175.364V176.975H243.588V124.354Z" fill="black"/>
<path d="M226.495 176.604C226.435 176.604 226.385 164.877 226.385 150.412C226.385 135.947 226.435 124.216 226.495 124.216C226.554 124.216 226.605 135.943 226.605 150.412C226.605 164.881 226.554 176.604 226.495 176.604Z" fill="#263238"/>
<path d="M237.803 164.999H232.572V170.911H237.803V164.999Z" fill="#F5F5F5"/>
<path d="M203.925 124.494H196.177V135.722H203.925V124.494Z" fill="#263238"/>
<path d="M203.925 165.592H196.177V176.819H203.925V165.592Z" fill="#263238"/>
<path d="M242.995 124.354H242.817H242.305L240.338 124.376L233.088 124.41L209.181 124.465L185.266 124.435L178.021 124.401L176.053 124.38H175.537H175.364H175.537H176.053L178.021 124.359L185.266 124.325L209.181 124.291L233.088 124.325L240.338 124.359L242.305 124.38H242.817L242.995 124.354Z" fill="#263238"/>
<path d="M124.449 38.9525L118.831 37.6916C115.335 39.8437 111.161 40.6105 107.128 39.8412C103.096 39.0719 99.4969 36.8221 97.0389 33.5341C94.5809 30.2461 93.4416 26.1576 93.8449 22.0722C94.2482 17.9869 96.165 14.2001 99.2185 11.4562C102.272 8.71229 106.241 7.20969 110.346 7.24373C114.451 7.27777 118.395 8.846 121.403 11.6402C124.41 14.4343 126.264 18.2524 126.6 22.3439C126.935 26.4353 125.728 30.5044 123.216 33.7512L124.449 38.9525Z" fill="#F6F7F7"/>
<path d="M124.449 38.9516C124.449 38.9516 124.416 38.8344 124.36 38.6081C124.303 38.3817 124.222 38.0423 124.113 37.6098C123.903 36.7288 123.588 35.4355 123.18 33.7543L123.248 33.7785C123.244 33.7829 123.239 33.7864 123.234 33.7888C123.228 33.7912 123.222 33.7925 123.216 33.7925C123.21 33.7925 123.204 33.7912 123.198 33.7888C123.193 33.7864 123.188 33.7829 123.184 33.7785C123.178 33.7703 123.175 33.7604 123.175 33.7502C123.175 33.7401 123.178 33.7302 123.184 33.722C124.851 31.5539 125.95 29.0031 126.381 26.3018C126.515 25.4625 126.582 24.6138 126.583 23.7638C126.571 22.8511 126.492 21.9406 126.344 21.0399C125.796 17.7863 124.28 14.7734 121.994 12.3943C119.708 10.0152 116.758 8.38034 113.529 7.70307C111.056 7.21486 108.506 7.29362 106.068 7.93344C103.498 8.5895 101.135 9.88366 99.1977 11.696C98.7093 12.1385 98.2503 12.6124 97.8236 13.1146C97.6046 13.3577 97.4008 13.6142 97.2133 13.8825C97.0234 14.1492 96.8092 14.3998 96.6395 14.6907L96.1343 15.5192L95.8837 15.9234L95.6735 16.3599C95.5321 16.6468 95.3947 16.9378 95.2694 17.2247C95.1441 17.5117 95.0431 17.8229 94.9299 18.1179C94.1622 20.2318 93.8389 22.4815 93.9805 24.726C94.1221 26.9706 94.7254 29.1618 95.7527 31.1625C96.78 33.1632 98.2091 34.9303 99.9507 36.3534C101.692 37.7764 103.709 38.8246 105.874 39.4325L106.549 39.6063C106.767 39.6721 106.99 39.7207 107.216 39.7518L108.542 39.9579C109.386 40.0298 110.233 40.0541 111.08 40.0307C113.821 39.8989 116.485 39.0803 118.827 37.6502C118.839 37.6462 118.852 37.6462 118.863 37.6502L123.022 38.6121L124.097 38.8667L124.469 38.9556L124.113 38.8829L123.042 38.6485L118.839 37.7351H118.871C116.52 39.1872 113.84 40.0213 111.08 40.16C110.226 40.1862 109.372 40.1646 108.521 40.0953L107.184 39.8933C106.955 39.8622 106.73 39.8136 106.509 39.7478L105.83 39.574C103.632 38.9728 101.584 37.9222 99.8134 36.4886C98.0429 35.0551 96.5893 33.2697 95.5443 31.2454C94.4993 29.2212 93.8858 27.0021 93.7425 24.7286C93.5991 22.4551 93.9292 20.1765 94.7117 18.0371C94.8289 17.734 94.9218 17.4228 95.0592 17.1318L95.4634 16.2507L95.6735 15.8102L95.9282 15.4061L96.4414 14.5655C96.6192 14.2866 96.8456 14.032 97.0234 13.7572C97.2131 13.4857 97.4182 13.2252 97.6377 12.9772C98.0702 12.4686 98.536 11.9893 99.032 11.5425C100.988 9.70643 103.376 8.39535 105.975 7.73136C108.449 7.08488 111.037 7.00751 113.545 7.50504C115.81 7.98426 117.951 8.93088 119.83 10.2844C121.709 11.6379 123.285 13.3685 124.457 15.3657C125.473 17.1112 126.158 19.0294 126.478 21.0237C126.623 21.9328 126.7 22.8514 126.708 23.7719C126.69 27.4028 125.467 30.9252 123.232 33.7866L123.168 33.722C123.171 33.7177 123.176 33.7142 123.181 33.7118C123.186 33.7095 123.192 33.7083 123.198 33.7083C123.204 33.7083 123.209 33.7095 123.214 33.7118C123.22 33.7142 123.224 33.7177 123.228 33.722V33.722C123.612 35.4234 123.911 36.7288 124.113 37.622C124.214 38.0544 124.287 38.3817 124.34 38.6121C124.392 38.8425 124.449 38.9516 124.449 38.9516Z" fill="#263238"/>
<path d="M116.515 21.2504L114.491 23.7557L113.792 27.878L112.262 26.8474L110.732 29.0301L97.1732 16.7217L116.515 21.2504Z" fill="#B0D0E1"/>
<path opacity="0.3" d="M112.119 26.7543L112.634 27.2713L112.998 24.6338L112.119 26.7543Z" fill="black"/>
<path opacity="0.3" d="M113.878 23.9277L97.1732 16.7217L112.786 24.9792L113.203 28.1509L113.878 23.9277Z" fill="black"/>
<path d="M97.1732 16.7217C97.2326 16.7709 97.2975 16.8131 97.3666 16.8473L97.9384 17.1698L100.07 18.3173L107.159 22.032L112.83 24.9636L112.792 24.8421C112.078 26.1362 111.43 27.1748 110.968 27.891C110.745 28.2344 110.568 28.5108 110.425 28.7286C110.355 28.8218 110.295 28.923 110.249 29.0301C110.332 28.9472 110.407 28.856 110.472 28.7579C110.61 28.5778 110.808 28.3056 111.052 27.9538C111.544 27.2502 112.216 26.2242 112.952 24.9343L112.998 24.8547L112.914 24.8086L107.259 21.8477L100.162 18.1917L97.9973 17.107L97.4045 16.818C97.3331 16.7736 97.255 16.7411 97.1732 16.7217V16.7217Z" fill="#263238"/>
<path d="M97.1734 16.7229C97.1482 16.7767 100.872 18.3791 105.49 20.3376C110.107 22.2962 113.878 23.8075 113.878 23.7537C113.878 23.6998 110.179 22.0974 105.561 20.1389C100.944 18.1804 97.1943 16.6732 97.1734 16.7229Z" fill="#263238"/>
<path d="M113.795 28.1505C113.932 27.5601 113.898 26.9631 113.696 26.3774C113.657 25.7848 113.45 25.1979 113.081 24.6338C112.944 25.2225 112.977 25.8179 113.18 26.402C113.213 26.9965 113.42 27.5855 113.795 28.1505V28.1505Z" fill="#263238"/>
<path d="M121.715 32.3696C121.715 32.4044 121.842 32.4516 122.016 32.4765C122.19 32.5013 122.329 32.4765 122.331 32.4541C122.334 32.4317 122.2 32.3696 122.033 32.3472C121.867 32.3249 121.723 32.3298 121.715 32.3696Z" fill="#263238"/>
<path d="M119.501 31.375C119.481 31.4023 119.685 31.5937 119.978 31.7676C120.148 31.8912 120.346 31.9691 120.555 31.9938C120.569 31.959 120.331 31.8248 120.045 31.6558C119.88 31.5339 119.696 31.4391 119.501 31.375Z" fill="#263238"/>
<path d="M117.898 29.5517C117.94 29.7568 118.034 29.9477 118.171 30.1059C118.368 30.3867 118.577 30.5706 118.604 30.5482C118.521 30.3605 118.41 30.1862 118.276 30.0313C118.084 29.7605 117.93 29.5343 117.898 29.5517Z" fill="#263238"/>
<path d="M117.314 27.2109C117.235 27.4063 117.216 27.6209 117.259 27.8272C117.262 28.0382 117.324 28.2441 117.438 28.4212C117.449 28.2177 117.432 28.0138 117.389 27.8148C117.387 27.6113 117.362 27.4086 117.314 27.2109V27.2109Z" fill="#263238"/>
<path d="M118.793 25.5306C118.581 25.4874 118.361 25.5275 118.179 25.6424C117.856 25.804 117.712 26.0699 117.737 26.0823C117.761 26.0947 117.948 25.9009 118.234 25.7568C118.519 25.6126 118.798 25.5704 118.793 25.5306Z" fill="#263238"/>
<path d="M120.731 26.716C120.721 26.5015 120.633 26.2981 120.483 26.1444C120.364 25.9645 120.181 25.8373 119.971 25.7891C119.951 25.8214 120.177 25.973 120.381 26.2264C120.584 26.4799 120.696 26.7284 120.731 26.716Z" fill="#263238"/>
<path d="M120.331 29.018C120.51 28.8994 120.645 28.7245 120.714 28.5209C120.82 28.337 120.862 28.1227 120.833 27.9121C120.735 28.0905 120.652 28.2767 120.584 28.4688C120.46 28.7744 120.299 28.9906 120.331 29.018Z" fill="#263238"/>
<path d="M118.204 30.0912C118.409 30.1363 118.624 30.1199 118.82 30.0439C119.028 30.0086 119.221 29.9116 119.374 29.7656C119.173 29.7946 118.975 29.8463 118.785 29.9197C118.585 29.953 118.39 30.0106 118.204 30.0912V30.0912Z" fill="#263238"/>
<path d="M115.84 29.5938C115.992 29.7358 116.178 29.836 116.38 29.8845C116.569 29.9754 116.779 30.0131 116.989 29.9938C116.812 29.8908 116.622 29.813 116.424 29.7627C116.239 29.6781 116.042 29.6212 115.84 29.5938V29.5938Z" fill="#263238"/>
<path d="M113.857 28.1807C113.833 28.2055 114.026 28.4018 114.29 28.6155C114.435 28.7625 114.61 28.8776 114.802 28.9535C114.824 28.9237 114.63 28.7274 114.369 28.5161C114.223 28.3706 114.049 28.2564 113.857 28.1807V28.1807Z" fill="#263238"/>
<path d="M112.645 26.7973C112.612 26.8122 112.645 26.9539 112.757 27.098C112.868 27.2421 112.97 27.3291 113.005 27.3067C113.04 27.2844 112.965 27.1601 112.868 27.0235C112.771 26.8868 112.677 26.7824 112.645 26.7973Z" fill="#263238"/>
</svg>
