<svg width="380" height="181" viewBox="0 0 380 181" fill="none" xmlns="http://www.w3.org/2000/svg">
<path d="M200.689 142.983H156.612V176.98H200.689V142.983Z" fill="#EBEBEB"/>
<path d="M189.648 176.743C189.588 176.743 189.537 169.163 189.537 159.814C189.537 150.465 189.588 142.886 189.648 142.886C189.707 142.886 189.758 150.465 189.758 159.814C189.758 169.163 189.707 176.743 189.648 176.743Z" fill="#E0E0E0"/>
<path d="M196.952 169.244H193.575V173.066H196.952V169.244Z" fill="#FAFAFA"/>
<path d="M175.068 143.072H170.061V150.326H175.068V143.072Z" fill="#E0E0E0"/>
<path d="M175.068 169.625H170.061V176.879H175.068V169.625Z" fill="#E0E0E0"/>
<path d="M280.672 134.46H225.091V177.327H280.672V134.46Z" fill="#EBEBEB"/>
<path d="M266.744 177.022C266.685 177.022 266.634 167.47 266.634 155.684C266.634 143.898 266.685 134.346 266.744 134.346C266.803 134.346 266.854 143.898 266.854 155.684C266.854 167.47 266.807 177.022 266.744 177.022Z" fill="#E0E0E0"/>
<path d="M275.957 167.568H271.695V172.384H275.957V167.568Z" fill="#FAFAFA"/>
<path d="M248.359 134.57H242.045V143.716H248.359V134.57Z" fill="#E0E0E0"/>
<path d="M248.359 168.051H242.045V177.196H248.359V168.051Z" fill="#E0E0E0"/>
<path d="M120.406 135.721C122.658 134.561 125.307 134.409 127.804 134.824C129.145 135.044 130.542 135.446 131.456 136.453C132.37 137.46 132.54 139.234 131.494 140.101C130.868 140.618 130 140.694 129.188 140.685C127.232 140.66 125.066 140.317 123.504 141.494C122.611 142.167 122.018 143.28 120.965 143.61C119.911 143.94 118.747 143.318 118.197 142.378C117.688 141.398 117.576 140.26 117.884 139.2C118.008 138.465 118.301 137.769 118.738 137.166C119.176 136.562 119.746 136.068 120.406 135.721Z" fill="#EBEBEB"/>
<path d="M115.251 125.771C116.627 127.735 119.302 127.087 120.542 125.885C121.782 124.684 122.306 122.948 122.78 121.294C123.872 117.506 124.968 113.532 124.16 109.676C123.965 108.507 123.451 107.415 122.674 106.519C122.281 106.08 121.78 105.75 121.22 105.564C120.661 105.378 120.062 105.341 119.483 105.457C118.133 105.813 117.295 107.15 116.69 108.39C114.906 112.097 113.972 116.155 113.956 120.269C113.956 122.187 114.172 124.193 115.251 125.771" fill="#EBEBEB"/>
<path d="M111.476 128.59C112.97 126.817 113.254 124.235 112.589 122.013C111.925 119.792 110.423 117.904 108.692 116.359C106.656 114.549 104.287 113.151 101.717 112.246C100.721 111.843 99.6498 111.661 98.5769 111.713C98.0416 111.743 97.522 111.904 97.0632 112.181C96.6044 112.459 96.2203 112.844 95.9445 113.304C95.2081 114.705 95.9149 116.402 96.6767 117.79C98.0182 120.232 99.5492 122.566 101.256 124.769C102.631 126.538 104.218 128.285 106.296 129.085C108.374 129.885 110.566 129.792 111.675 128.34" fill="#EBEBEB"/>
<path d="M115.158 155.405C115.232 155.114 115.274 154.817 115.285 154.517C115.349 153.865 115.425 153.048 115.522 152.079C115.644 150.88 115.826 149.688 116.068 148.507C116.386 147.064 116.821 145.648 117.367 144.275C117.904 142.911 118.629 141.629 119.522 140.466C120.251 139.521 121.181 138.748 122.243 138.202C122.965 137.846 123.739 137.606 124.537 137.491C124.837 137.479 125.135 137.435 125.425 137.36C125.126 137.327 124.823 137.327 124.524 137.36C123.696 137.422 122.886 137.633 122.133 137.982C121.011 138.511 120.027 139.293 119.259 140.267C118.325 141.445 117.572 142.756 117.025 144.156C116.479 145.546 116.054 146.981 115.755 148.444C115.525 149.639 115.365 150.848 115.277 152.062C115.201 153.099 115.171 153.937 115.158 154.517C115.127 154.812 115.127 155.11 115.158 155.405V155.405Z" fill="#E0E0E0"/>
<path d="M115.328 153.534C115.353 153.395 115.361 153.252 115.353 153.111C115.353 152.798 115.353 152.404 115.353 151.926C115.353 150.897 115.353 149.408 115.404 147.571C115.497 143.898 115.827 139.953 116.424 134.371C117.003 129.128 117.778 123.029 118.599 119.064C118.772 118.162 118.95 117.35 119.12 116.639C119.289 115.928 119.412 115.31 119.543 114.815C119.674 114.319 119.746 113.968 119.822 113.663C119.863 113.526 119.888 113.384 119.894 113.24C119.83 113.364 119.782 113.494 119.75 113.63C119.657 113.93 119.543 114.302 119.403 114.764C119.263 115.225 119.094 115.868 118.916 116.575C118.739 117.282 118.535 118.094 118.345 118.996C117.328 123.686 116.564 128.427 116.055 133.199C115.446 138.785 115.171 143.872 115.146 147.554C115.146 149.395 115.146 150.889 115.209 151.917C115.239 152.396 115.264 152.789 115.281 153.098C115.279 153.245 115.295 153.391 115.328 153.534V153.534Z" fill="#E0E0E0"/>
<path d="M115.353 143.724C115.385 143.311 115.385 142.897 115.353 142.484C115.306 141.688 115.196 140.541 114.972 139.132C114.695 137.484 114.325 135.854 113.863 134.248C113.33 132.272 112.646 130.339 111.819 128.467C110.403 125.017 108.371 121.853 105.822 119.131C105.38 118.664 104.908 118.225 104.409 117.819C104.193 117.633 103.986 117.451 103.808 117.307L103.283 116.93C102.954 116.679 102.604 116.455 102.238 116.262C102.178 116.342 103.715 117.248 105.653 119.309C108.119 122.057 110.097 125.206 111.502 128.619C112.315 130.48 113 132.393 113.554 134.345C114.02 135.936 114.405 137.549 114.71 139.179C114.964 140.571 115.133 141.718 115.201 142.497C115.219 142.909 115.27 143.319 115.353 143.724V143.724Z" fill="#E0E0E0"/>
<path d="M105.213 159.535L106.195 173.006H123.5L124.482 159.535H105.213Z" fill="#EBEBEB"/>
<path d="M126.543 154.229H103.541V159.536H126.543V154.229Z" fill="#EBEBEB"/>
<path d="M103.541 172.49V173.959H104.625H126.166V172.49H103.541Z" fill="#E0E0E0"/>
<path d="M105.683 176.388L104.625 173.798H125.341L124.105 176.388H105.683Z" fill="#E0E0E0"/>
<path d="M124.16 163.936C124.138 163.981 124.111 164.024 124.08 164.063C124.012 164.152 123.923 164.266 123.821 164.406L122.814 165.675L122.768 165.735L122.725 165.675L120.249 162.252H120.389L117.951 165.701L117.875 165.811L117.791 165.709L114.9 162.269H115.065L114.909 162.472L112.323 165.709L112.234 165.819L112.158 165.705L109.716 162.256H109.86L106.855 165.675L106.804 165.739L106.762 165.667L105.822 164.11C105.721 163.94 105.644 163.801 105.581 163.686C105.549 163.639 105.523 163.588 105.505 163.534C105.544 163.575 105.579 163.62 105.606 163.669L105.873 164.071L106.859 165.625H106.766L109.728 162.163L109.8 162.074L109.868 162.167L112.331 165.603H112.17L114.748 162.357C114.803 162.29 114.858 162.222 114.904 162.159L114.989 162.053L115.074 162.154L117.956 165.603H117.795L120.258 162.171L120.33 162.07L120.398 162.171C121.375 163.564 122.205 164.744 122.823 165.633H122.734L123.783 164.363C123.898 164.232 123.991 164.126 124.063 164.038C124.093 164.001 124.125 163.967 124.16 163.936V163.936Z" fill="#F5F5F5"/>
<path d="M124.723 159.447C124.723 159.506 120.385 159.557 115.04 159.557C109.695 159.557 105.357 159.506 105.357 159.447C105.357 159.387 109.69 159.341 115.04 159.341C120.389 159.341 124.723 159.387 124.723 159.447Z" fill="#F5F5F5"/>
<path d="M246.083 6.73081L242.537 6.75L242.632 24.3976L246.179 24.3784L246.083 6.73081Z" fill="#E0E0E0"/>
<path d="M220.996 6.77844L211.813 6.82812L211.865 16.5703L221.049 16.5206L220.996 6.77844Z" fill="#EBEBEB"/>
<path d="M230.137 6.72863L220.954 6.77832L221.006 16.5205L230.19 16.4708L230.137 6.72863Z" fill="#F5F5F5"/>
<path d="M211.824 9.52425C217.929 9.57503 224.038 9.54682 230.149 9.4396C230.175 9.4396 230.199 9.42935 230.218 9.41109C230.236 9.39284 230.246 9.36808 230.246 9.34226C230.246 9.31645 230.236 9.29169 230.218 9.27344C230.199 9.25518 230.175 9.24493 230.149 9.24493C224.046 9.21107 217.926 9.24493 211.824 9.35919C211.805 9.36345 211.788 9.37394 211.776 9.38893C211.764 9.40393 211.758 9.42254 211.758 9.44172C211.758 9.4609 211.764 9.47951 211.776 9.4945C211.788 9.5095 211.805 9.51998 211.824 9.52425V9.52425Z" fill="#E0E0E0"/>
<path d="M222.775 16.3589L206.088 16.4492L206.131 24.3885L222.818 24.2982L222.775 16.3589Z" fill="#EBEBEB"/>
<path d="M239.381 16.2681L222.694 16.3584L222.737 24.2977L239.424 24.2074L239.381 16.2681Z" fill="#F5F5F5"/>
<path d="M206.098 18.6657C217.182 18.7884 228.304 18.6657 239.392 18.5006C239.417 18.5006 239.442 18.4904 239.46 18.4721C239.479 18.4539 239.489 18.4291 239.489 18.4033C239.489 18.3775 239.479 18.3527 239.46 18.3345C239.442 18.3162 239.417 18.306 239.392 18.306C228.308 18.2467 217.182 18.251 206.098 18.4964C206.075 18.4964 206.054 18.5053 206.038 18.5212C206.022 18.5371 206.013 18.5586 206.013 18.5811C206.013 18.6035 206.022 18.625 206.038 18.6409C206.054 18.6568 206.075 18.6657 206.098 18.6657V18.6657Z" fill="#E0E0E0"/>
<path d="M264.505 24.3965H199.855V27.2405H264.505V24.3965Z" fill="#E0E0E0"/>
<path d="M213.064 25.7627H210.44V35.4669H213.064V25.7627Z" fill="#E0E0E0"/>
<path d="M252.24 25.7627H249.616V35.4669H252.24V25.7627Z" fill="#E0E0E0"/>
<path d="M249.544 0.14878L245.997 0.167969L246.128 24.4387L249.675 24.4195L249.544 0.14878Z" fill="#EBEBEB"/>
<path d="M255.082 4.66843L249.572 4.69824L249.679 24.3688L255.189 24.339L255.082 4.66843Z" fill="#F5F5F5"/>
<path d="M255.046 8.46587C253.215 8.59524 251.376 8.59524 249.544 8.46587C251.376 8.34211 253.214 8.34211 255.046 8.46587V8.46587Z" fill="#E0E0E0"/>
<path d="M255.046 7.66246C254.131 7.75509 253.211 7.7862 252.291 7.75557C251.372 7.78603 250.451 7.75493 249.536 7.66246C251.368 7.53308 253.206 7.53308 255.038 7.66246H255.046Z" fill="#E0E0E0"/>
<path d="M255.046 21.3868C253.215 21.5161 251.376 21.5161 249.544 21.3868C251.376 21.263 253.214 21.263 255.046 21.3868V21.3868Z" fill="#E0E0E0"/>
<path d="M255.046 20.5619C253.214 20.6856 251.376 20.6856 249.544 20.5619C251.376 20.4325 253.215 20.4325 255.046 20.5619V20.5619Z" fill="#E0E0E0"/>
<path d="M252.38 18.7579C252.329 18.7579 252.287 16.773 252.287 14.3268C252.287 11.8807 252.329 9.8916 252.38 9.8916C252.431 9.8916 252.477 11.8765 252.477 14.3268C252.477 16.7772 252.435 18.7579 252.38 18.7579Z" fill="#E0E0E0"/>
<path d="M261.107 9.50781H255.11V24.354H261.107V9.50781Z" fill="#EBEBEB"/>
<path d="M247.716 5.32112C248.279 5.32112 248.736 4.86448 248.736 4.30119C248.736 3.73789 248.279 3.28125 247.716 3.28125C247.153 3.28125 246.696 3.73789 246.696 4.30119C246.696 4.86448 247.153 5.32112 247.716 5.32112Z" fill="#E0E0E0"/>
<path d="M248.034 7.10742H247.403V21.5474H248.034V7.10742Z" fill="#E0E0E0"/>
<path d="M282.58 177.094C282.58 177.158 241.901 177.204 191.738 177.204C141.575 177.204 100.888 177.158 100.888 177.094C100.888 177.031 141.558 176.984 191.738 176.984C241.918 176.984 282.58 177.035 282.58 177.094Z" fill="#263238"/>
<path d="M149.079 21.7754C151.074 24.2178 152.155 27.2802 152.134 30.4343C152.113 32.2202 151.783 34.1882 152.824 35.6398C153.611 36.7401 155.05 37.2945 155.689 38.488C156.459 39.9226 155.803 41.7382 156.277 43.2956C156.946 45.5048 159.536 46.4316 161.072 48.1541C161.727 48.9158 162.185 49.8264 162.407 50.8062C162.628 51.786 162.606 52.8051 162.342 53.7743C162.062 54.7395 161.556 55.6239 160.865 56.3541C160.175 57.0843 159.32 57.6392 158.372 57.9726C157.36 58.3716 156.231 58.3533 155.232 57.9218C154.195 57.4055 153.539 56.3432 153.031 55.3063C152.011 53.2665 143.052 42.2418 142.544 40.0158" fill="#263238"/>
<path d="M142.561 19.177C138.896 18.5845 135.367 21.0179 133.83 24.3951C132.294 27.7724 132.243 31.5897 132.137 35.314C132.032 39.0382 131.761 42.8979 129.869 46.0889C128.667 48.1161 126.805 49.8978 126.513 52.2297C126.251 54.3203 127.334 56.4279 126.974 58.5059C126.661 60.3172 125.281 61.8916 125.336 63.7241C125.404 65.9332 127.677 67.5964 129.882 67.6557C132.087 67.7149 134.152 66.5596 135.883 65.1884C138.703 62.9493 140.96 60.0809 142.472 56.8131" fill="#263238"/>
<path d="M136.53 27.912C136.415 26.9901 136.487 26.0545 136.74 25.1606C136.993 24.2668 137.424 23.4329 138.006 22.7086C138.587 21.9843 139.309 21.3842 140.127 20.944C140.945 20.5038 141.843 20.2325 142.769 20.1461C146.463 19.7906 149.751 22.5457 150.306 26.2192C150.793 29.4398 151.207 32.6901 151.195 33.8708C151.148 37.43 149.079 38.8139 148.232 39.2329C147.928 39.3422 147.613 39.4202 147.293 39.4657V39.4657V39.4911L148.08 43.5793C148.44 46.2582 146.946 48.6578 144.271 49.0345C141.596 49.4111 139.493 47.367 139.082 44.6881L136.53 27.912Z" fill="#FFBE9D"/>
<path d="M149.578 27.7765C149.519 27.8611 149.049 27.6114 148.448 27.7003C147.847 27.7892 147.445 28.1531 147.369 28.0896C147.293 28.0262 147.369 27.9204 147.555 27.7511C147.786 27.5256 148.082 27.3777 148.401 27.3279C148.715 27.2796 149.035 27.333 149.316 27.4802C149.527 27.6156 149.608 27.7426 149.578 27.7765Z" fill="#263238"/>
<path d="M144.22 29.0799C144.161 29.1646 143.691 28.9107 143.086 28.9995C142.481 29.0884 142.087 29.4566 142.011 29.3931C141.935 29.3296 142.011 29.2196 142.197 29.0545C142.429 28.8291 142.724 28.6812 143.044 28.6313C143.357 28.5867 143.677 28.6415 143.958 28.7879C144.165 28.9191 144.25 29.0418 144.22 29.0799Z" fill="#263238"/>
<path d="M146.417 32.3092C146.719 32.1636 147.039 32.0569 147.369 31.9918C147.521 31.9537 147.661 31.9029 147.674 31.7929C147.66 31.6382 147.601 31.4911 147.504 31.3696L146.874 30.2439C145.998 28.6696 145.342 27.3661 145.405 27.328C145.469 27.2899 146.252 28.5468 147.098 30.1212C147.314 30.5105 147.521 30.883 147.707 31.2342C147.83 31.4063 147.89 31.6156 147.877 31.8267C147.863 31.8845 147.836 31.9382 147.797 31.9837C147.759 32.0292 147.711 32.0653 147.657 32.0891C147.574 32.1252 147.487 32.1508 147.398 32.1653C147.079 32.2559 146.749 32.3042 146.417 32.3092Z" fill="#263238"/>
<path d="M147.259 39.4695C147.259 39.4695 144.961 39.9985 141.795 38.6738C141.795 38.6738 143.162 41.6151 147.475 40.5698L147.259 39.4695Z" fill="#EB996E"/>
<path d="M143.911 27.502C143.877 27.6755 143.264 27.684 142.57 27.8744C141.876 28.0649 141.33 28.3357 141.215 28.2045C141.165 28.1411 141.241 27.9718 141.448 27.7813C141.727 27.5425 142.057 27.3704 142.413 27.278C142.769 27.1856 143.141 27.1754 143.501 27.2481C143.78 27.3116 143.911 27.4216 143.911 27.502Z" fill="#263238"/>
<path d="M149.083 26.4437C148.998 26.596 148.562 26.5156 148.063 26.5791C147.563 26.6426 147.153 26.8076 147.034 26.6764C146.984 26.613 147.034 26.4691 147.195 26.3125C147.417 26.1157 147.696 25.9942 147.991 25.9654C148.282 25.9303 148.578 25.9849 148.837 26.122C149.04 26.2363 149.121 26.3675 149.083 26.4437Z" fill="#263238"/>
<path d="M142.912 29.8586C142.922 29.9241 142.944 29.9871 142.978 30.0439C143.012 30.1008 143.056 30.1503 143.11 30.1897C143.163 30.229 143.223 30.2575 143.287 30.2733C143.352 30.2891 143.418 30.292 143.484 30.2818C143.547 30.2745 143.609 30.2546 143.665 30.2233C143.72 30.192 143.769 30.15 143.809 30.0995C143.848 30.0491 143.877 29.9914 143.894 29.9297C143.911 29.868 143.915 29.8035 143.907 29.7401C143.887 29.6083 143.816 29.4898 143.709 29.4105C143.602 29.3311 143.467 29.2975 143.336 29.3169C143.272 29.3237 143.21 29.3432 143.154 29.3743C143.098 29.4054 143.049 29.4475 143.009 29.498C142.97 29.5486 142.941 29.6065 142.924 29.6685C142.908 29.7304 142.904 29.7951 142.912 29.8586V29.8586Z" fill="#263238"/>
<path d="M148.249 28.7033C148.269 28.8351 148.34 28.9536 148.447 29.033C148.554 29.1123 148.689 29.1459 148.82 29.1265C148.884 29.1192 148.945 29.0993 149.001 29.068C149.057 29.0368 149.106 28.9947 149.145 28.9443C149.185 28.8939 149.214 28.8361 149.231 28.7744C149.247 28.7127 149.252 28.6483 149.244 28.5848C149.224 28.453 149.152 28.3345 149.045 28.2552C148.938 28.1759 148.804 28.1422 148.672 28.1616C148.608 28.1684 148.547 28.1879 148.491 28.219C148.435 28.2501 148.385 28.2922 148.346 28.3428C148.306 28.3933 148.277 28.4513 148.261 28.5132C148.244 28.5752 148.24 28.6398 148.249 28.7033Z" fill="#263238"/>
<path d="M147.365 33.477C147.198 33.4253 147.019 33.4334 146.859 33.4999C146.698 33.5664 146.565 33.687 146.484 33.841C146.407 33.9823 146.375 34.1443 146.394 34.3044C146.413 34.4644 146.482 34.6146 146.59 34.7339C146.705 34.8472 146.857 34.9158 147.019 34.9275C147.18 34.9391 147.34 34.893 147.47 34.7974C147.634 34.6488 147.732 34.4422 147.745 34.2219C147.774 34.0198 147.726 33.8143 147.61 33.6463C147.551 33.5641 147.466 33.5038 147.369 33.4748C147.271 33.4457 147.167 33.4495 147.073 33.4855" fill="#EB996E"/>
<path d="M149.836 23.3202C149.504 21.9794 148.675 20.8146 147.517 20.0615C146.569 19.3768 145.443 18.9814 144.275 18.9231C143.1 18.8725 141.953 19.2894 141.084 20.0827C140.468 20.6935 140.115 21.5215 140.102 22.3892L140.17 21.7967C139.992 22.2788 139.992 22.8085 140.17 23.2906V23.2906C140.267 23.5488 140.386 23.8111 140.487 24.0693C140.79 24.8153 141.352 25.4269 142.07 25.7918C142.395 25.9661 142.759 26.055 143.128 26.0499C143.313 26.0462 143.495 26.0023 143.66 25.9211C143.826 25.84 143.973 25.7236 144.089 25.5802C144.352 25.1214 144.433 24.5809 144.317 24.0651C144.595 24.5748 144.991 25.0103 145.473 25.3347C145.719 25.4918 146.011 25.5594 146.301 25.5263C146.591 25.4931 146.86 25.3612 147.064 25.1527C147.411 24.7295 147.276 24.0608 147.064 23.5361C147.392 24.031 147.85 24.4252 148.389 24.6745C148.53 24.7558 148.688 24.8068 148.85 24.8243C149.012 24.8418 149.177 24.8254 149.332 24.7761C149.457 24.7143 149.566 24.6251 149.651 24.5151C149.736 24.4052 149.795 24.2773 149.823 24.1413C149.886 23.8716 149.891 23.5917 149.836 23.3202Z" fill="#263238"/>
<path d="M146.776 24.446C146.738 24.446 146.747 23.9424 146.582 23.1764C146.391 22.1585 145.88 21.2285 145.122 20.5229C144.705 20.144 144.202 19.8724 143.657 19.7315C143.211 19.6219 142.746 19.6103 142.295 19.6976C141.878 19.7948 141.481 19.9592 141.118 20.1843C141.118 20.1843 141.19 20.0785 141.376 19.9431C141.643 19.7561 141.943 19.6212 142.261 19.5452C142.735 19.4341 143.229 19.4341 143.704 19.5452C144.289 19.6912 144.827 19.9824 145.27 20.3917C146.063 21.1264 146.582 22.1106 146.738 23.1806C146.789 23.497 146.814 23.8168 146.814 24.1371C146.82 24.2415 146.807 24.346 146.776 24.446V24.446Z" fill="#455A64"/>
<path d="M185.754 73.7885L169.482 67.3345C169.482 67.3345 161.149 56.403 161.322 56.1914L155.469 62.5988L163.976 74.1059L183.693 78.7274L187.079 77.7878C186.334 74.1948 185.754 73.7885 185.754 73.7885Z" fill="#FFBE9D"/>
<path d="M150.289 42.6023L148.071 41.7559L138.498 42.9705V44.6633L138.223 44.6972C136.16 45.1359 134.18 45.9048 132.362 46.974C130.658 48.014 129.305 49.5396 128.475 51.3549C127.646 53.1702 127.378 55.1921 127.706 57.1607C128.096 59.5815 128.849 62.5228 130.305 64.2241C133.085 67.4786 135.625 63.4581 135.625 63.4581C135.625 63.4581 137.368 67.4363 137.267 69.3195C137.182 70.8981 136.488 74.1822 136.264 75.2064C136.255 75.2473 136.254 75.2897 136.261 75.331C136.269 75.3722 136.285 75.4114 136.309 75.4463C136.332 75.4811 136.362 75.5109 136.397 75.5336C136.433 75.5564 136.472 75.5718 136.513 75.5788L156.709 79.3158L156.806 74.3769L156.163 54.0628L155.253 46.1742C155.253 46.1742 155.283 42.4076 150.289 42.6023Z" fill="#3A7792"/>
<path d="M154.944 44.8623L162.647 55.9885L156.447 63.5386L154.944 44.8623Z" fill="#3A7792"/>
<path d="M156.607 68.2735C156.58 68.0348 156.57 67.7943 156.578 67.5541C156.578 67.0547 156.578 66.3987 156.552 65.5989C156.515 63.4521 156.361 61.3089 156.091 59.1788C155.774 56.6818 155.287 54.4515 154.919 52.8306L154.47 50.9262C154.405 50.6958 154.357 50.461 154.326 50.2236C154.423 50.4435 154.499 50.6715 154.555 50.905C154.686 51.3282 154.864 51.9926 155.067 52.7967C155.613 54.8848 156.029 57.005 156.311 59.1449C156.583 61.2839 156.716 63.4384 156.709 65.5946C156.709 66.441 156.688 67.0928 156.662 67.5541C156.665 67.795 156.646 68.0357 156.607 68.2735V68.2735Z" fill="#263238"/>
<path d="M137.648 51.3574C137.648 51.3913 137.064 51.387 136.128 51.4336C134.908 51.4998 133.694 51.6568 132.497 51.9034C131.3 52.1545 130.124 52.4926 128.976 52.9148C128.096 53.2407 127.567 53.4819 127.55 53.4481C127.658 53.3631 127.778 53.2933 127.905 53.2407C128.138 53.1137 128.485 52.9529 128.921 52.7709C131.205 51.8279 133.645 51.3226 136.116 51.2812C136.59 51.2812 136.962 51.2812 137.237 51.3066C137.376 51.3022 137.514 51.3193 137.648 51.3574Z" fill="#FAFAFA"/>
<path d="M155.486 56.4485C155.176 56.5609 154.853 56.6321 154.525 56.6601C152.96 56.8885 151.375 56.9424 149.798 56.8209C149.469 56.8152 149.142 56.7668 148.825 56.677C149.151 56.648 149.48 56.648 149.806 56.677C150.407 56.677 151.241 56.677 152.16 56.677C153.078 56.677 153.907 56.5839 154.508 56.5289C154.831 56.4725 155.158 56.4456 155.486 56.4485Z" fill="#FAFAFA"/>
<path d="M159.02 51.4173C158.553 51.9563 157.994 52.4077 157.369 52.7504C156.779 53.1493 156.121 53.4362 155.427 53.5968C155.401 53.5376 156.273 53.1736 157.255 52.5473C158.237 51.9209 158.977 51.3665 159.02 51.4173Z" fill="#FAFAFA"/>
<path d="M155.909 46.2579C154.574 47.4591 152.873 48.1748 151.08 48.2894C151.08 48.2216 152.244 48.0439 153.582 47.4726C154.919 46.9012 155.867 46.2029 155.909 46.2579Z" fill="#FAFAFA"/>
<path d="M156.328 65.0657C156.204 65.1494 156.07 65.2189 155.93 65.273C155.664 65.4 155.279 65.5566 154.788 65.7386C153.512 66.1969 152.196 66.5314 150.856 66.7374C149.517 66.9441 148.16 67.0193 146.806 66.9617C146.285 66.9405 145.866 66.9024 145.579 66.8643C145.428 66.8543 145.279 66.8273 145.134 66.7839C145.134 66.7458 145.778 66.7839 146.827 66.8093C149.518 66.8344 152.195 66.4228 154.754 65.5905C155.719 65.273 156.315 65.0318 156.328 65.0657Z" fill="#FAFAFA"/>
<path d="M156.485 70.7998C156.485 70.7998 156.425 70.8421 156.303 70.9056L155.761 71.1426C155.296 71.3627 154.606 71.6505 153.742 71.989C152.879 72.3276 151.834 72.6535 150.657 72.9751C148.099 73.6639 145.474 74.0712 142.828 74.1897C141.609 74.2363 140.513 74.232 139.59 74.1897C138.668 74.1474 137.927 74.0797 137.415 74.0077L136.827 73.9273C136.757 73.9223 136.689 73.9081 136.623 73.885C136.692 73.8741 136.762 73.8741 136.831 73.885L137.423 73.9231C137.935 73.9654 138.693 74.0077 139.594 74.0331C140.496 74.0585 141.609 74.0331 142.819 73.9908C144.03 73.9485 145.359 73.7961 146.742 73.5676C148.126 73.3391 149.43 73.064 150.606 72.7677C151.783 72.4715 152.824 72.1371 153.687 71.8282C154.551 71.5193 155.253 71.2611 155.727 71.0664L156.277 70.8506C156.345 70.8265 156.414 70.8094 156.485 70.7998V70.7998Z" fill="#FAFAFA"/>
<path d="M119.365 160.771L117.075 171.11L112.898 178.765C112.827 178.896 112.784 179.04 112.771 179.188C112.757 179.336 112.775 179.486 112.822 179.627C112.868 179.768 112.944 179.898 113.043 180.009C113.142 180.12 113.263 180.21 113.398 180.272V180.272C113.555 180.344 113.726 180.377 113.899 180.369C114.071 180.361 114.239 180.312 114.388 180.225C116.326 179.108 123.441 174.948 123.563 174.182C123.711 173.298 126.703 163.437 126.703 163.437L119.365 160.771Z" fill="#3A7792"/>
<g opacity="0.6">
<path d="M113.398 180.272L123.737 173.501L123.627 173.924C123.536 174.302 123.314 174.635 123 174.864C122.154 175.469 119.797 177.094 114.422 180.234C114.268 180.325 114.093 180.375 113.915 180.382C113.736 180.389 113.558 180.351 113.398 180.272V180.272Z" fill="white"/>
</g>
<g opacity="0.6">
<path d="M122.437 169.653C122.288 169.715 122.167 169.83 122.098 169.976C122.028 170.123 122.015 170.289 122.061 170.444C122.117 170.595 122.23 170.719 122.374 170.79C122.519 170.861 122.686 170.873 122.84 170.825C122.999 170.759 123.129 170.636 123.202 170.479C123.276 170.322 123.288 170.144 123.237 169.979C123.162 169.829 123.033 169.713 122.876 169.656C122.718 169.599 122.545 169.603 122.391 169.67" fill="white"/>
</g>
<path d="M116.851 176.353C116.68 175.973 116.441 175.627 116.144 175.333C115.803 175.095 115.42 174.924 115.014 174.83C115.014 174.8 115.163 174.753 115.412 174.779C115.737 174.821 116.043 174.956 116.292 175.168C116.544 175.372 116.73 175.646 116.826 175.955C116.898 176.197 116.877 176.353 116.851 176.353Z" fill="#263238"/>
<path d="M115.78 177.551C115.721 177.584 115.471 177.17 114.976 176.886C114.66 176.739 114.335 176.614 114.003 176.509C114.186 176.45 114.38 176.434 114.57 176.464C114.76 176.494 114.94 176.569 115.095 176.683C115.658 177.009 115.84 177.538 115.78 177.551Z" fill="#263238"/>
<path d="M118.646 174.923C118.286 174.523 117.895 174.152 117.477 173.814C117.017 173.533 116.536 173.288 116.039 173.082C116.611 173.07 117.169 173.262 117.613 173.623C118.102 173.918 118.469 174.379 118.646 174.923Z" fill="#263238"/>
<path d="M119.606 171.837C119.564 171.892 119.052 171.516 118.337 171.308C117.621 171.101 116.974 171.135 116.97 171.063C117.441 170.941 117.936 170.948 118.403 171.085C118.87 171.221 119.292 171.481 119.623 171.837H119.606Z" fill="#263238"/>
<path d="M120.355 168.82C119.942 168.565 119.497 168.367 119.031 168.231C118.55 168.166 118.063 168.166 117.583 168.231C117.583 168.206 117.714 168.105 117.985 168.024C118.341 167.927 118.715 167.915 119.077 167.989C119.438 168.062 119.777 168.219 120.067 168.447C120.283 168.65 120.372 168.803 120.355 168.82Z" fill="#263238"/>
<path d="M119.187 167.66C119.188 167.526 119.216 167.393 119.272 167.271C119.392 166.921 119.582 166.6 119.831 166.327C119.993 166.11 120.222 165.953 120.482 165.878C120.571 165.864 120.662 165.876 120.743 165.914C120.825 165.952 120.893 166.013 120.939 166.09C121.017 166.248 121.034 166.429 120.986 166.598C120.877 166.937 120.654 167.228 120.355 167.421C120.055 167.614 119.698 167.697 119.344 167.656C118.995 167.606 118.668 167.454 118.405 167.219C118.143 166.984 117.955 166.677 117.867 166.335C117.847 166.249 117.845 166.159 117.861 166.071C117.878 165.984 117.913 165.901 117.964 165.828C118.023 165.759 118.101 165.711 118.189 165.691C118.276 165.67 118.368 165.678 118.451 165.713C118.69 165.833 118.894 166.012 119.043 166.234C119.268 166.527 119.438 166.858 119.547 167.211C119.599 167.338 119.623 167.473 119.619 167.609C119.448 167.153 119.21 166.725 118.912 166.34C118.773 166.159 118.594 166.014 118.387 165.916C118.342 165.897 118.292 165.892 118.243 165.904C118.195 165.915 118.152 165.942 118.121 165.98C118.091 166.03 118.072 166.085 118.065 166.143C118.058 166.2 118.062 166.259 118.078 166.314C118.167 166.601 118.334 166.858 118.562 167.054C118.79 167.25 119.068 167.378 119.365 167.423C119.664 167.458 119.967 167.39 120.223 167.231C120.478 167.072 120.673 166.831 120.774 166.547C120.815 166.432 120.815 166.306 120.774 166.192C120.75 166.148 120.713 166.113 120.668 166.092C120.624 166.071 120.573 166.064 120.525 166.073C120.304 166.134 120.107 166.261 119.962 166.437C119.637 166.799 119.375 167.212 119.187 167.66V167.66Z" fill="#263238"/>
<g opacity="0.3">
<path d="M119.086 161.891L118.591 164.261L126.077 165.505L126.703 163.436L119.352 160.77L119.086 161.891Z" fill="black"/>
</g>
<path d="M152.799 164.596L152.181 172.857C152.181 172.857 160.374 176.243 160.408 177.8L144.326 177.178L144.749 164.262L152.799 164.596Z" fill="#3A7792"/>
<g opacity="0.6">
<path d="M147.25 171.969C147.094 172.011 146.959 172.108 146.87 172.243C146.781 172.378 146.745 172.541 146.768 172.701C146.803 172.858 146.898 172.996 147.031 173.087C147.165 173.177 147.328 173.213 147.487 173.188C147.653 173.144 147.797 173.04 147.891 172.896C147.985 172.752 148.022 172.578 147.995 172.409C147.942 172.248 147.828 172.114 147.678 172.035C147.528 171.957 147.354 171.939 147.191 171.986" fill="white"/>
</g>
<g opacity="0.6">
<path d="M144.334 177.178L144.428 175.875L159.811 176.946C159.811 176.946 160.518 177.284 160.416 177.792L144.334 177.178Z" fill="white"/>
</g>
<path d="M152.452 172.785C152.452 172.865 152.054 172.887 151.66 173.124C151.267 173.361 151.047 173.682 150.975 173.648C150.903 173.615 151.038 173.166 151.521 172.887C152.003 172.607 152.473 172.713 152.452 172.785Z" fill="#263238"/>
<path d="M154.111 173.56C154.111 173.641 153.78 173.759 153.501 174.081C153.222 174.402 153.133 174.749 153.053 174.745C152.972 174.741 152.942 174.292 153.298 173.899C153.653 173.505 154.111 173.476 154.111 173.56Z" fill="#263238"/>
<path d="M154.991 175.604C154.919 175.604 154.826 175.218 155.042 174.799C155.257 174.381 155.634 174.22 155.664 174.287C155.693 174.355 155.461 174.575 155.287 174.922C155.114 175.269 155.067 175.599 154.991 175.604Z" fill="#263238"/>
<path d="M152.375 170.89C152.342 170.957 151.986 170.835 151.529 170.847C151.072 170.86 150.733 170.987 150.683 170.919C150.632 170.851 150.987 170.585 151.529 170.576C152.071 170.568 152.426 170.83 152.375 170.89Z" fill="#263238"/>
<g opacity="0.3">
<path d="M152.684 166.233L152.574 167.706L144.681 167.325L144.736 165.624L152.684 166.233Z" fill="black"/>
</g>
<path d="M152.481 169.218C152.215 169.283 151.937 169.271 151.677 169.185C151.384 169.124 151.099 169.026 150.831 168.893C150.674 168.815 150.523 168.728 150.378 168.63C150.289 168.576 150.21 168.509 150.141 168.431C150.094 168.371 150.069 168.296 150.069 168.22C150.069 168.143 150.094 168.069 150.141 168.008C150.182 167.955 150.235 167.912 150.296 167.883C150.358 167.854 150.425 167.841 150.492 167.843C150.594 167.847 150.695 167.864 150.793 167.894C150.962 167.943 151.126 168.008 151.283 168.089C151.551 168.219 151.795 168.392 152.007 168.601C152.367 168.96 152.481 169.261 152.456 169.274C152.43 169.286 152.248 169.045 151.88 168.745C151.664 168.575 151.428 168.433 151.178 168.321C151.028 168.259 150.876 168.206 150.721 168.16C150.551 168.11 150.407 168.105 150.361 168.16C150.314 168.215 150.361 168.203 150.361 168.254C150.412 168.309 150.47 168.358 150.534 168.397C150.67 168.492 150.811 168.578 150.958 168.656C151.202 168.79 151.458 168.901 151.724 168.986C151.981 169.045 152.235 169.123 152.481 169.218V169.218Z" fill="#263238"/>
<path d="M152.375 169.328C152.235 169.09 152.171 168.815 152.193 168.541C152.195 168.243 152.244 167.947 152.337 167.664C152.398 167.499 152.473 167.339 152.562 167.186C152.609 167.082 152.683 166.991 152.775 166.923C152.868 166.854 152.977 166.811 153.091 166.797C153.163 166.802 153.232 166.827 153.291 166.869C153.349 166.912 153.394 166.971 153.421 167.038C153.457 167.133 153.48 167.233 153.488 167.334C153.516 167.514 153.516 167.697 153.488 167.876C153.432 168.175 153.302 168.456 153.112 168.693C152.782 169.116 152.452 169.18 152.443 169.154C152.435 169.129 152.697 168.972 152.955 168.579C153.103 168.354 153.2 168.1 153.239 167.834C153.26 167.679 153.26 167.523 153.239 167.368C153.218 167.199 153.158 167.055 153.095 167.072C153.031 167.089 152.875 167.19 152.803 167.326C152.72 167.461 152.648 167.603 152.587 167.749C152.489 168.005 152.426 168.272 152.401 168.545C152.346 169.019 152.418 169.328 152.375 169.328Z" fill="#263238"/>
<path d="M136.175 75.502C136.175 75.502 133.636 75.6163 131.943 84.3006C130.25 92.9849 117.346 163.352 117.346 163.352L126.703 163.437L144.334 96.5356L143.162 165.519L152.667 166.247C152.667 166.247 159.798 89.9462 159.862 85.5067C159.947 79.9711 156.768 74.3721 156.768 74.3721L136.175 75.502Z" fill="#263238"/>
<path d="M149.036 74.7617C149.095 74.7617 148.122 79.7345 146.865 85.8414C145.608 91.9483 144.542 96.8914 144.482 96.8787C144.423 96.866 145.392 91.906 146.649 85.7991C147.906 79.6921 148.99 74.749 149.036 74.7617Z" fill="#455A64"/>
<path d="M150.492 76.001C150.492 75.9756 150.746 75.8995 151.038 76.1576C151.121 76.2328 151.187 76.3251 151.23 76.4281C151.274 76.5312 151.295 76.6424 151.292 76.7544C151.281 76.8959 151.231 77.0315 151.146 77.1453C151.061 77.2592 150.946 77.3467 150.814 77.3976C150.684 77.4563 150.541 77.4775 150.401 77.4588C150.26 77.4401 150.127 77.3822 150.018 77.2918C149.936 77.2151 149.872 77.1218 149.829 77.0182C149.786 76.9146 149.765 76.803 149.768 76.6909C149.768 76.3015 150.031 76.1661 150.035 76.1915C149.964 76.3469 149.926 76.5157 149.925 76.6866C149.931 76.7726 149.953 76.8565 149.992 76.9335C150.03 77.0106 150.084 77.0791 150.149 77.1352C150.233 77.1928 150.329 77.2285 150.43 77.2389C150.531 77.2494 150.633 77.2343 150.727 77.1951C150.82 77.156 150.902 77.0939 150.966 77.0147C151.029 76.9354 151.071 76.8415 151.089 76.7417C151.095 76.6559 151.084 76.5698 151.056 76.4884C151.029 76.407 150.985 76.3319 150.928 76.2677C150.721 76.0264 150.488 76.0349 150.492 76.001Z" fill="#455A64"/>
<path d="M150.09 79.4372C150.09 79.4118 150.352 79.4372 150.513 79.7885C150.554 79.8887 150.573 79.9967 150.568 80.1049C150.562 80.2131 150.534 80.3188 150.484 80.4148C150.411 80.5289 150.308 80.621 150.187 80.6812C150.066 80.7414 149.931 80.7675 149.796 80.7566C149.661 80.7457 149.532 80.6983 149.422 80.6195C149.312 80.5406 149.225 80.4333 149.172 80.309C149.138 80.207 149.127 80.0988 149.139 79.9921C149.152 79.8854 149.187 79.7826 149.244 79.6911C149.443 79.3737 149.713 79.3822 149.705 79.4076C149.696 79.433 149.502 79.4922 149.379 79.7631C149.317 79.915 149.317 80.0852 149.379 80.2371C149.423 80.321 149.488 80.3925 149.567 80.4448C149.646 80.497 149.738 80.5284 149.832 80.536C149.927 80.5436 150.022 80.5272 150.108 80.4882C150.195 80.4493 150.27 80.3891 150.327 80.3132C150.407 80.1686 150.427 79.9984 150.382 79.8392C150.259 79.5515 150.069 79.4668 150.09 79.4372Z" fill="#455A64"/>
<path d="M141.122 76.0861C141.105 76.2315 141.068 76.3739 141.012 76.5093C140.88 76.8968 140.714 77.2721 140.517 77.6309C139.871 78.828 138.939 79.8464 137.803 80.5946C136.667 81.3428 135.363 81.7975 134.008 81.918C133.601 81.9534 133.192 81.9534 132.785 81.918C132.642 81.9134 132.499 81.8907 132.362 81.8503C132.362 81.8079 133.001 81.8799 134.012 81.7529C135.331 81.5929 136.594 81.1294 137.703 80.3987C138.811 79.6681 139.736 78.6902 140.403 77.542C140.898 76.6871 141.084 76.0734 141.122 76.0861Z" fill="#455A64"/>
<path d="M159.329 82.2611C159.329 82.2611 159.219 82.2103 159.045 82.0918C158.803 81.9174 158.576 81.722 158.368 81.5078C157.672 80.8033 157.129 79.9626 156.773 79.0385C156.417 78.1144 156.255 77.1267 156.299 76.1373C156.308 75.8394 156.347 75.5432 156.413 75.2527C156.459 75.0454 156.489 74.9353 156.506 74.9396C156.523 74.9438 156.455 75.4009 156.455 76.1415C156.456 78.0856 157.178 79.9602 158.482 81.402C158.978 81.9479 159.35 82.2273 159.329 82.2611Z" fill="#455A64"/>
<path d="M192.157 82.5055C192.297 82.1669 192.259 82.3024 190.016 80.8127C190.016 80.8127 193.232 82.9287 192.898 81.9215C192.609 81.5399 192.255 81.2119 191.852 80.9523C192.699 81.4517 193.19 81.5067 193.338 81.3036C193.592 80.9523 191.751 79.6108 190.875 79.0056C191.676 79.5785 192.516 80.0947 193.389 80.5503C193.909 80.7111 193.66 80.1017 193.308 79.6573C192.957 79.2129 190.232 76.589 189.499 75.8061C189.43 75.7465 189.374 75.6725 189.335 75.5892C189.297 75.5059 189.277 75.4153 189.277 75.3236C189.277 75.2319 189.297 75.1413 189.335 75.058C189.374 74.9748 189.43 74.9008 189.499 74.8412C190.811 73.9948 191.387 72.6447 191.37 72.2003C191.355 72.1003 191.31 72.0074 191.239 71.9351C191.168 71.8628 191.077 71.8147 190.977 71.7978C190.877 71.7808 190.775 71.7959 190.684 71.8409C190.594 71.8859 190.52 71.9584 190.473 72.048C190.142 72.4596 189.756 72.8241 189.326 73.1314C188.993 73.3914 188.618 73.5931 188.217 73.7281C187.752 73.8805 185.462 73.7535 184.971 73.5038L183.409 78.7982C183.409 78.7982 189.076 81.4475 190.151 81.9638C191.472 82.5902 192.06 82.7637 192.157 82.5055Z" fill="#FFBE9D"/>
<path d="M188.996 80.0297C188.949 80.0932 189.686 80.6307 190.638 81.2359C191.59 81.841 192.39 82.277 192.428 82.2135C192.466 82.15 191.73 81.6083 190.782 81.0073C189.834 80.4064 189.038 79.9493 188.996 80.0297Z" fill="#EB996E"/>
<path d="M189.529 78.9939C189.487 79.0573 190.24 79.6752 191.222 80.3778C192.204 81.0803 193.016 81.6008 193.059 81.5416C193.101 81.4823 192.352 80.8602 191.366 80.1577C190.38 79.4552 189.576 78.9346 189.529 78.9939Z" fill="#EB996E"/>
<path d="M190.092 77.9432C190.05 78.0025 190.752 78.6035 191.662 79.2806C192.572 79.9577 193.355 80.4571 193.389 80.3979C193.423 80.3386 192.733 79.7377 191.823 79.0605C190.913 78.3834 190.138 77.884 190.092 77.9432Z" fill="#EB996E"/>
<path d="M132.455 58.7685L136.611 58.997C136.905 60.1573 137.299 61.29 137.787 62.3827C141.135 56.5763 143.712 48.7934 144.373 45.6659C144.279 45.3584 144.165 45.0113 144.03 44.6248C143.928 44.0405 143.946 43.4418 144.08 42.8643C144.195 42.1702 144.389 41.2307 144.444 40.799C144.626 39.4786 144.838 39.267 145.291 39.4193C145.917 39.6225 145.033 43.1309 145.545 43.2071C145.824 43.2452 146.158 42.0432 146.26 41.0572C146.362 40.0711 146.802 37.0409 147.128 36.8251C147.606 36.5288 148.021 36.9986 147.902 37.9804C147.784 38.9623 147.627 41.9374 148.148 41.9755C148.668 42.0136 149.091 36.9859 149.091 36.9859C149.091 36.9859 149.011 35.894 149.612 35.9194C150.7 35.9659 149.853 41.2688 149.76 41.7724C149.692 42.1194 150.259 42.1956 150.31 41.8062C150.361 41.4169 150.623 36.7743 151.728 36.8124C152.574 36.842 151.072 41.1799 151.55 42.1871C152.028 43.1944 152.358 38.7718 153.171 38.8311C153.472 38.8565 153.696 38.9157 153.141 41.4169C152.6 43.4058 151.952 45.3639 151.199 47.2826C149.929 54.2232 144.262 76.4248 135.409 72.362C130.457 70.0894 128.142 58.8193 128.142 58.8193L132.455 58.7685Z" fill="#FFBE9D"/>
<path d="M151.207 47.3197C151.215 47.2673 151.229 47.2161 151.25 47.1674C151.288 47.0574 151.334 46.9135 151.398 46.7442C151.537 46.3421 151.728 45.7835 151.978 45.0513C152.227 44.3192 152.528 43.4304 152.824 42.3809C152.976 41.8603 153.103 41.2932 153.218 40.688C153.277 40.3833 153.332 40.0702 153.37 39.7485C153.381 39.5893 153.381 39.4295 153.37 39.2703C153.37 39.1052 153.332 38.9698 153.201 38.9656C153.069 38.9613 152.976 39.0418 152.883 39.1814C152.799 39.3309 152.73 39.4882 152.676 39.6512C152.557 39.9855 152.464 40.341 152.371 40.7007C152.278 41.0605 152.193 41.4371 152.083 41.818C152.035 42.0267 151.949 42.2246 151.829 42.402C151.799 42.4368 151.76 42.4618 151.715 42.474C151.687 42.4801 151.658 42.4799 151.63 42.4733C151.603 42.4667 151.577 42.4539 151.554 42.4359C151.506 42.3913 151.466 42.3382 151.436 42.2793C151.391 42.1754 151.361 42.0657 151.347 41.9534C151.328 41.0998 151.413 40.2471 151.601 39.4142C151.673 38.991 151.749 38.5678 151.804 38.1445C151.829 37.9287 151.855 37.7213 151.859 37.4928C151.863 37.2643 151.829 37.023 151.741 36.9849C151.652 36.9469 151.436 37.0654 151.317 37.2431C151.2 37.4309 151.108 37.6328 151.042 37.8441C150.898 38.2862 150.789 38.739 150.716 39.1983C150.636 39.6639 150.573 40.1379 150.518 40.6203C150.496 40.8616 150.471 41.1028 150.45 41.3483L150.416 41.7164C150.42 41.7951 150.408 41.8737 150.378 41.9469C150.349 42.02 150.304 42.0858 150.247 42.1397C150.174 42.1926 150.087 42.2212 149.997 42.2212C149.907 42.2212 149.82 42.1926 149.747 42.1397C149.706 42.1125 149.671 42.077 149.645 42.0354C149.619 41.9938 149.602 41.9471 149.595 41.8984C149.588 41.8535 149.588 41.8079 149.595 41.763V41.6741L149.709 40.9335C149.781 40.4341 149.84 39.9347 149.887 39.4269C149.933 38.919 149.972 38.4069 149.98 37.8949C150.005 37.3879 149.953 36.88 149.828 36.3882C149.798 36.2634 149.723 36.1545 149.616 36.0835C149.565 36.0671 149.51 36.0673 149.459 36.084C149.408 36.1007 149.364 36.1332 149.333 36.1766C149.195 36.4271 149.139 36.7139 149.172 36.9976V36.9976C149.079 37.9922 148.973 38.9698 148.829 39.9305C148.757 40.4087 148.677 40.8869 148.558 41.3567C148.524 41.471 148.49 41.5895 148.448 41.708C148.408 41.8516 148.323 41.9789 148.207 42.0719C148.155 42.0973 148.097 42.1044 148.04 42.0921C147.984 42.0798 147.934 42.0488 147.898 42.0042C147.846 41.9499 147.807 41.8849 147.784 41.8138C147.738 41.6964 147.705 41.5743 147.686 41.4498C147.587 40.5289 147.579 39.6004 147.661 38.6778C147.723 38.2477 147.747 37.8129 147.733 37.3785C147.719 37.1931 147.634 37.0202 147.496 36.8961C147.463 36.8759 147.427 36.8625 147.389 36.8566C147.351 36.8508 147.313 36.8527 147.276 36.8622C147.236 36.8756 147.198 36.8926 147.161 36.913C147.123 36.9469 147.128 36.913 147.102 36.9849C146.949 37.3655 146.837 37.7614 146.768 38.1657C146.683 38.5889 146.611 38.974 146.548 39.3719C146.484 39.7697 146.425 40.159 146.374 40.5484C146.324 40.9377 146.298 41.3186 146.222 41.6995C146.156 42.0716 146.057 42.4371 145.926 42.7914C145.891 42.8816 145.85 42.9692 145.803 43.0538C145.744 43.1342 145.71 43.2358 145.549 43.2865C145.508 43.2941 145.465 43.2893 145.427 43.2727C145.389 43.2562 145.356 43.2286 145.333 43.1934C145.304 43.1446 145.281 43.0919 145.265 43.0369C145.246 42.9449 145.235 42.8514 145.232 42.7575C145.232 42.0338 145.329 41.3736 145.367 40.7346C145.395 40.4291 145.395 40.1217 145.367 39.8162C145.367 39.6808 145.304 39.52 145.227 39.4904C145.174 39.4642 145.115 39.4506 145.056 39.4506C144.997 39.4506 144.938 39.4642 144.885 39.4904C144.707 39.6811 144.597 39.925 144.571 40.1844C144.508 40.4426 144.483 40.705 144.436 40.9547C144.258 41.9534 144.072 42.8168 143.983 43.5193C143.941 43.8283 143.941 44.1414 143.983 44.4504C144.042 44.7043 144.131 44.9328 144.178 45.1106C144.224 45.2883 144.271 45.4153 144.301 45.5338C144.316 45.5792 144.328 45.6259 144.334 45.6735C144.309 45.6325 144.289 45.5884 144.275 45.5423L144.131 45.119C144.072 44.9371 143.983 44.7339 143.911 44.4546C143.866 44.1374 143.866 43.8154 143.911 43.4982C143.992 42.7829 144.161 41.928 144.334 40.925C144.381 40.6753 144.406 40.413 144.461 40.1421C144.492 39.999 144.53 39.8578 144.576 39.7189C144.618 39.565 144.71 39.4295 144.838 39.3338C144.915 39.293 145.001 39.2717 145.088 39.2717C145.175 39.2717 145.261 39.293 145.337 39.3338C145.42 39.3859 145.488 39.4585 145.535 39.5444C145.582 39.6304 145.605 39.7269 145.604 39.8247C145.634 40.1428 145.634 40.463 145.604 40.7811C145.574 41.4244 145.473 42.0973 145.49 42.7829C145.493 42.864 145.503 42.9447 145.519 43.0242C145.519 43.1046 145.579 43.1384 145.57 43.1215C145.562 43.1046 145.651 43.0538 145.684 42.9861C145.726 42.911 145.763 42.8332 145.794 42.7533C145.92 42.4102 146.012 42.0559 146.07 41.6953C146.142 41.3271 146.167 40.9462 146.218 40.5526C146.268 40.159 146.319 39.7697 146.383 39.3676C146.446 38.9656 146.518 38.5635 146.599 38.153C146.667 37.7243 146.787 37.3052 146.954 36.9045C146.988 36.8373 147.039 36.7804 147.102 36.7395C147.158 36.7086 147.218 36.6845 147.28 36.6675C147.351 36.6473 147.425 36.6424 147.498 36.6534C147.571 36.6643 147.641 36.6908 147.703 36.731C147.801 36.809 147.882 36.9063 147.941 37.017C148 37.1277 148.036 37.2493 148.046 37.3743C148.078 37.6046 148.078 37.8381 148.046 38.0684C148.025 38.2842 148.004 38.4916 147.991 38.7286C147.908 39.63 147.917 40.5374 148.016 41.4371C148.034 41.544 148.063 41.6489 148.101 41.7503C148.114 41.7912 148.135 41.8288 148.164 41.8603C148.164 41.8603 148.164 41.8603 148.186 41.8603C148.186 41.9577 148.186 41.8603 148.186 41.8984C148.186 41.9365 148.186 41.8984 148.186 41.8646C148.238 41.7939 148.28 41.7153 148.308 41.6318C148.348 41.5274 148.382 41.4174 148.41 41.3017C148.524 40.8531 148.6 40.3791 148.672 39.9051C148.816 38.9529 148.922 37.9753 149.011 36.9849V37.0061C148.973 36.6573 149.049 36.3056 149.227 36.0031C149.295 35.9167 149.388 35.8535 149.493 35.8224C149.599 35.7913 149.711 35.7938 149.815 35.8296C149.904 35.8788 149.982 35.9454 150.044 36.0254C150.107 36.1054 150.153 36.1971 150.179 36.2951C150.314 36.8155 150.37 37.3535 150.344 37.8906C150.344 38.4154 150.297 38.9317 150.251 39.4438C150.204 39.9559 150.141 40.4595 150.069 40.9589C150.031 41.2128 149.993 41.4583 149.955 41.708C149.921 41.8646 149.929 41.8688 149.955 41.9154C149.984 41.9352 150.019 41.9458 150.054 41.9458C150.09 41.9458 150.124 41.9352 150.154 41.9154C150.204 41.8773 150.213 41.8053 150.226 41.6657L150.255 41.2975L150.331 40.5653C150.382 40.0828 150.45 39.6004 150.53 39.1306C150.609 38.6588 150.722 38.1934 150.869 37.7383C150.946 37.5082 151.049 37.288 151.178 37.0823C151.248 36.9714 151.34 36.8763 151.449 36.803C151.509 36.7593 151.579 36.7308 151.652 36.7197C151.726 36.7087 151.801 36.7155 151.872 36.7395C151.937 36.7795 151.991 36.8339 152.032 36.8985C152.072 36.9631 152.097 37.0361 152.105 37.1119C152.122 37.231 152.129 37.3513 152.126 37.4716C152.126 37.7044 152.096 37.9287 152.071 38.153C152.011 38.5762 151.931 39.0248 151.855 39.4523C151.673 40.2562 151.585 41.0785 151.592 41.9027C151.604 41.9912 151.627 42.0779 151.66 42.1608C151.676 42.1909 151.694 42.2192 151.715 42.2455C151.715 42.2455 151.715 42.2455 151.715 42.2158C151.81 42.0629 151.88 41.8957 151.923 41.7207C152.033 41.3525 152.121 40.9801 152.219 40.6161C152.306 40.254 152.412 39.8966 152.536 39.5454C152.595 39.3714 152.671 39.2041 152.765 39.046C152.815 38.9598 152.881 38.8838 152.959 38.8217C153.002 38.7848 153.053 38.7587 153.108 38.7455C153.162 38.7369 153.218 38.7369 153.273 38.7455C153.33 38.7513 153.386 38.7724 153.432 38.8066C153.479 38.8408 153.516 38.8869 153.539 38.9402C153.575 39.0291 153.593 39.1238 153.594 39.2195C153.598 39.3907 153.588 39.5619 153.565 39.7316C153.527 40.0617 153.463 40.3749 153.404 40.6838C153.281 41.289 153.146 41.8646 152.981 42.3766C152.663 43.4262 152.346 44.315 152.088 45.0386C151.829 45.7623 151.609 46.3083 151.461 46.6976C151.389 46.8754 151.33 47.015 151.288 47.1208C151.269 47.1901 151.242 47.2568 151.207 47.3197Z" fill="#EB996E"/>
<path d="M128.104 59.2463C128.908 62.0861 130.483 66.4663 132.171 71.0962C132.225 71.2454 132.321 71.3754 132.448 71.4698C132.575 71.5641 132.728 71.6186 132.886 71.6263C133.044 71.6341 133.201 71.5946 133.337 71.5131C133.472 71.4315 133.581 71.3115 133.648 71.1682L137.787 62.412C137.787 62.412 136.789 55.2174 136.873 55.4755C136.958 55.7337 128.333 56.4066 128.333 56.4066L128.104 59.2463Z" fill="#3A7792"/>
<path d="M137.432 57.8371C137.432 57.8709 136.916 58.0233 136.099 58.3365C135.031 58.7417 134.003 59.2431 133.026 59.8346C132.051 60.4289 131.13 61.1087 130.275 61.866C129.619 62.4458 129.243 62.8437 129.217 62.8183C129.192 62.7929 129.289 62.6998 129.45 62.5093C129.677 62.2447 129.917 61.9918 130.17 61.7518C131.004 60.9485 131.923 60.2389 132.912 59.6357C133.901 59.0399 134.951 58.5518 136.044 58.1799C136.374 58.0661 136.71 57.97 137.051 57.8921C137.174 57.8536 137.303 57.835 137.432 57.8371V57.8371Z" fill="#FAFAFA"/>
<path d="M139.074 60.0201C138.805 59.7489 138.572 59.4446 138.38 59.1144C137.886 58.3438 137.461 57.5309 137.11 56.6852C136.759 55.8369 136.486 54.9587 136.293 54.0613C136.195 53.6942 136.145 53.3157 136.145 52.9355C136.271 53.2904 136.372 53.6539 136.446 54.0232C136.672 54.8995 136.955 55.7604 137.292 56.6005C137.644 57.4363 138.048 58.249 138.503 59.034C138.714 59.3501 138.905 59.6795 139.074 60.0201Z" fill="#263238"/>
<path d="M141.833 21.2459C141.115 22.4293 140.67 23.7578 140.53 25.1349C140.39 26.512 140.559 27.9029 141.025 29.2065C141.448 30.3703 142.125 31.5172 142.002 32.753C141.88 33.9887 140.915 35.2118 141.253 36.4307C141.457 37.1544 142.074 37.7003 142.316 38.4028C142.591 39.2492 142.316 40.1422 142.168 41.0098C141.829 43.2274 142.54 45.4577 142.713 47.6923C142.887 49.9268 142.29 52.5465 140.293 53.5199C139.687 53.8161 138.896 53.9008 138.392 53.4479C137.749 52.8766 137.927 51.844 138.105 50.9976C139.857 42.5333 134.444 34.2723 135.68 25.7065C135.879 24.3353 136.645 22.0077 137.631 21.0512C138.617 20.0947 141.355 20.2048 142.286 21.2205" fill="#263238"/>
<path d="M133.496 45.8012C133.496 45.8012 133.754 45.4965 134.135 44.8955C134.67 44.0468 135.044 43.1072 135.24 42.1235C135.367 41.4458 135.411 40.7551 135.371 40.0667C135.297 39.2663 135.267 38.4623 135.282 37.6586C135.307 37.2185 135.388 36.7833 135.523 36.3636C135.678 35.9312 135.873 35.5146 136.107 35.1194C136.581 34.3195 137.178 33.5747 137.728 32.779C138.293 32.0271 138.686 31.1602 138.879 30.2398C138.973 29.3727 138.923 28.4962 138.731 27.6455C138.571 26.8548 138.508 26.0475 138.545 25.2416C138.595 24.5377 138.738 23.8434 138.968 23.1764C139.291 22.2085 139.8 21.3129 140.466 20.5398C140.643 20.3296 140.836 20.133 141.042 19.9515C141.107 19.8818 141.181 19.8207 141.262 19.7695C141.262 19.7695 140.978 20.0446 140.53 20.616C139.461 21.9422 138.837 23.5707 138.744 25.2713C138.715 26.064 138.785 26.8571 138.951 27.6328C139.153 28.5063 139.207 29.4075 139.112 30.299C138.911 31.2452 138.507 32.1362 137.927 32.9102C137.373 33.7185 136.776 34.4592 136.31 35.2379C136.081 35.6184 135.891 36.0211 135.743 36.4398C135.609 36.8424 135.528 37.2606 135.502 37.684C135.483 38.4789 135.506 39.2742 135.57 40.0667C135.603 40.769 135.549 41.4727 135.409 42.1616C135.197 43.1588 134.794 44.1057 134.224 44.9505C134.069 45.1789 133.9 45.3967 133.716 45.6023C133.65 45.6764 133.576 45.7431 133.496 45.8012V45.8012Z" fill="#455A64"/>
<path d="M129.484 46.4315C129.518 46.3328 129.562 46.2378 129.615 46.1479C129.721 45.949 129.856 45.6866 130.038 45.3565C130.394 44.6667 130.923 43.6637 131.443 42.394C132.08 40.9112 132.433 39.3221 132.485 37.7091C132.485 37.2444 132.449 36.7803 132.379 36.321C132.307 35.847 132.197 35.3687 132.125 34.8694C132.037 34.3528 132.048 33.8242 132.159 33.3119C132.302 32.786 132.596 32.3137 133.005 31.9534C133.801 31.2297 134.761 30.7557 135.261 29.9051C135.693 29.0616 135.948 28.1383 136.01 27.1923C136.099 26.3251 136.296 25.4723 136.594 24.6531C137.265 22.8944 138.46 21.3845 140.018 20.3278C140.266 20.1607 140.525 20.0094 140.792 19.875C140.882 19.8209 140.979 19.7783 141.08 19.748C141.08 19.748 140.699 19.9512 140.068 20.3998C139.18 21.034 138.41 21.8206 137.796 22.7232C137.37 23.3419 137.023 24.0116 136.763 24.7165C136.478 25.5377 136.293 26.3903 136.213 27.2558C136.086 28.1572 135.984 29.1645 135.443 30.0574C134.901 30.9504 133.911 31.4583 133.153 32.1735C132.767 32.5085 132.489 32.9503 132.353 33.4431C132.25 33.9278 132.24 34.4275 132.324 34.9159C132.391 35.4026 132.497 35.8851 132.569 36.3633C132.642 36.8336 132.676 37.3093 132.671 37.7853C132.613 39.4278 132.241 41.0441 131.575 42.5464C131.142 43.5617 130.65 44.5508 130.102 45.5089L129.653 46.1733C129.606 46.2651 129.549 46.3516 129.484 46.4315V46.4315Z" fill="#455A64"/>
<path d="M269.507 166.019C269.527 165.957 269.552 165.898 269.583 165.841C269.643 165.714 269.723 165.545 269.82 165.329C270.115 164.668 270.351 163.983 270.527 163.281C270.993 161.461 271.158 158.68 270.468 155.379C270.093 153.579 269.603 151.805 268.999 150.068C268.382 148.185 267.658 146.187 267.07 144.025C266.405 141.769 266.084 139.427 266.117 137.076C266.206 134.617 266.934 132.166 267.734 129.72C268.534 127.274 269.359 124.891 269.605 122.479C269.877 120.166 269.412 117.825 268.276 115.792C267.218 113.841 265.885 112.17 264.89 110.443C263.959 108.839 263.273 107.104 262.854 105.297C262.254 102.68 262.209 99.9668 262.723 97.3319C262.91 96.3679 263.194 95.425 263.57 94.5176C263.558 94.581 263.541 94.6433 263.519 94.7038L263.35 95.2413C263.206 95.7153 263.015 96.4263 262.833 97.3573C262.36 99.9803 262.431 102.673 263.041 105.267C263.465 107.052 264.154 108.764 265.085 110.346C266.079 112.038 267.417 113.731 268.5 115.691C269.664 117.765 270.143 120.154 269.867 122.517C269.617 124.963 268.788 127.371 267.988 129.813C267.188 132.255 266.469 134.68 266.38 137.097C266.342 139.424 266.656 141.744 267.311 143.978C267.891 146.128 268.602 148.126 269.215 150.017C269.813 151.764 270.294 153.548 270.654 155.358C271.327 158.685 271.137 161.495 270.654 163.319C270.465 164.022 270.212 164.706 269.897 165.363L269.634 165.867C269.598 165.922 269.555 165.973 269.507 166.019V166.019Z" fill="#263238"/>
<path d="M266.244 112.148C266.244 112.148 264.221 105.669 267.852 101.877C267.881 101.846 267.917 101.824 267.957 101.813C267.997 101.802 268.039 101.802 268.079 101.813C268.119 101.825 268.155 101.847 268.183 101.878C268.211 101.908 268.23 101.946 268.238 101.987C268.432 103.058 268.674 106.316 266.244 112.148Z" fill="#3A7792"/>
<path d="M267.459 104.035C267.453 104.436 267.407 104.836 267.324 105.229C267.188 106.054 267.031 107.019 266.862 108.085C266.693 109.152 266.536 110.121 266.405 110.942C266.368 111.342 266.297 111.739 266.194 112.127C266.154 111.727 266.162 111.323 266.219 110.925C266.287 110.184 266.418 109.169 266.6 108.051C266.782 106.934 266.981 105.935 267.137 105.203C267.199 104.803 267.307 104.411 267.459 104.035Z" fill="#263238"/>
<path d="M268.623 127.431C268.623 127.431 269.863 120.757 274.848 119.106C274.887 119.093 274.93 119.09 274.97 119.099C275.011 119.108 275.048 119.128 275.078 119.157C275.108 119.186 275.129 119.223 275.14 119.263C275.15 119.304 275.148 119.346 275.136 119.386C274.806 120.414 273.498 123.406 268.623 127.431Z" fill="#3A7792"/>
<path d="M273.49 120.82C273.296 121.173 273.07 121.506 272.813 121.815L271.065 124.121L269.33 126.436C269.111 126.772 268.863 127.088 268.589 127.38C268.743 127.008 268.942 126.655 269.181 126.331C269.605 125.708 270.18 124.87 270.874 123.969C271.568 123.068 272.199 122.276 272.677 121.701C272.915 121.378 273.187 121.083 273.49 120.82V120.82Z" fill="#263238"/>
<path d="M267.277 144.159C267.277 144.159 266.524 137.414 270.815 134.388C270.848 134.362 270.888 134.346 270.93 134.342C270.971 134.338 271.013 134.346 271.051 134.365C271.088 134.384 271.119 134.414 271.14 134.45C271.162 134.486 271.172 134.528 271.17 134.57C271.158 135.657 270.773 138.899 267.277 144.159Z" fill="#3A7792"/>
<path d="M270.028 136.428C269.949 136.822 269.828 137.206 269.668 137.575L268.669 140.292C268.297 141.307 267.962 142.226 267.679 143.009C267.57 143.394 267.429 143.769 267.256 144.13C267.295 143.729 267.383 143.334 267.518 142.954C267.725 142.243 268.047 141.261 268.441 140.203C268.834 139.145 269.219 138.193 269.511 137.511C269.646 137.133 269.819 136.77 270.028 136.428V136.428Z" fill="#263238"/>
<path d="M271.031 160.995C271.031 160.995 270.523 154.223 274.916 151.354C274.95 151.33 274.991 151.317 275.032 151.315C275.074 151.313 275.115 151.322 275.152 151.343C275.188 151.363 275.218 151.393 275.239 151.429C275.259 151.466 275.269 151.507 275.267 151.549C275.216 152.636 274.717 155.865 271.031 160.995Z" fill="#3A7792"/>
<path d="M274.044 153.369C273.949 153.76 273.815 154.14 273.642 154.503C273.329 155.274 272.956 156.196 272.546 157.182C272.135 158.168 271.776 159.087 271.462 159.861C271.337 160.243 271.177 160.613 270.984 160.966C271.04 160.565 271.144 160.173 271.293 159.798C271.526 159.095 271.881 158.13 272.313 157.085C272.745 156.04 273.16 155.1 273.477 154.431C273.628 154.058 273.818 153.702 274.044 153.369V153.369Z" fill="#263238"/>
<path d="M263.333 106.456C263.333 106.456 257.332 103.307 257.2 98.0634C257.2 98.0223 257.211 97.9819 257.231 97.9464C257.252 97.9109 257.282 97.8816 257.318 97.8617C257.354 97.8417 257.395 97.8319 257.436 97.8331C257.477 97.8344 257.517 97.8467 257.552 97.8688C258.445 98.4866 260.925 100.62 263.333 106.456Z" fill="#3A7792"/>
<path d="M258.449 99.8662C258.73 100.154 258.981 100.47 259.198 100.81C259.689 101.483 260.26 102.279 260.891 103.155L262.583 105.491C262.841 105.798 263.071 106.128 263.269 106.477C262.96 106.219 262.682 105.925 262.444 105.601C261.966 105.034 261.339 104.221 260.679 103.303C260.019 102.384 259.439 101.534 259.041 100.912C258.808 100.585 258.609 100.234 258.449 99.8662V99.8662Z" fill="#263238"/>
<path d="M269.795 120.367C269.795 120.367 263.599 117.595 263.163 112.36C263.16 112.318 263.168 112.277 263.186 112.24C263.205 112.203 263.233 112.172 263.268 112.15C263.303 112.128 263.343 112.117 263.385 112.116C263.426 112.116 263.466 112.127 263.502 112.148C264.429 112.711 267.031 114.683 269.795 120.367Z" fill="#3A7792"/>
<path d="M264.526 114.086C264.825 114.355 265.094 114.654 265.33 114.979L267.167 117.218L269.008 119.448C269.284 119.74 269.533 120.056 269.753 120.392C269.428 120.152 269.133 119.875 268.872 119.567C268.365 119.025 267.687 118.255 266.972 117.379C266.257 116.502 265.631 115.686 265.191 115.089C264.933 114.78 264.71 114.444 264.526 114.086V114.086Z" fill="#263238"/>
<path d="M266.219 135.895C266.219 135.895 261.987 130.605 263.963 125.738C263.979 125.7 264.005 125.667 264.038 125.642C264.071 125.618 264.111 125.603 264.152 125.599C264.193 125.596 264.234 125.604 264.271 125.622C264.308 125.641 264.339 125.669 264.361 125.704C264.949 126.622 266.359 129.568 266.219 135.895Z" fill="#3A7792"/>
<path d="M264.391 127.887C264.535 128.263 264.64 128.653 264.704 129.051C264.882 129.863 265.089 130.82 265.317 131.878C265.546 132.936 265.762 133.888 265.94 134.7C266.053 135.086 266.131 135.481 266.172 135.881C265.987 135.521 265.844 135.141 265.749 134.747C265.542 134.032 265.288 133.054 265.051 131.928C264.814 130.803 264.628 129.812 264.509 129.084C264.426 128.691 264.386 128.289 264.391 127.887V127.887Z" fill="#263238"/>
<path d="M270.451 154.139C270.451 154.139 264.302 151.266 263.955 146.026C263.951 145.985 263.958 145.943 263.977 145.905C263.996 145.867 264.024 145.836 264.06 145.814C264.096 145.792 264.137 145.78 264.179 145.78C264.221 145.78 264.262 145.792 264.298 145.815C265.207 146.395 267.776 148.413 270.451 154.139Z" fill="#3A7792"/>
<path d="M265.275 147.77C265.566 148.047 265.83 148.352 266.062 148.679L267.861 150.944L269.664 153.208C269.935 153.504 270.179 153.824 270.392 154.164C270.077 153.917 269.792 153.633 269.545 153.318C269.042 152.768 268.382 151.985 267.679 151.096C266.976 150.207 266.367 149.382 265.935 148.777C265.677 148.468 265.455 148.13 265.275 147.77V147.77Z" fill="#263238"/>
<path d="M282.686 127.46C282.686 127.46 282.686 127.511 282.686 127.608C282.686 127.705 282.686 127.866 282.686 128.031C282.686 128.455 282.644 128.992 282.614 129.678C282.538 131.125 282.424 133.144 282.292 135.556C281.869 138.011 280.6 140.732 278.907 143.377C277.675 145.324 276.367 147.093 275.267 148.739C274.263 150.184 273.361 151.697 272.567 153.267C272.042 154.329 271.617 155.437 271.297 156.577C271.192 156.979 271.107 157.296 271.06 157.512C271.04 157.625 271.011 157.735 270.972 157.842C270.973 157.728 270.987 157.615 271.014 157.504C271.043 157.284 271.107 156.962 271.204 156.551C271.489 155.391 271.893 154.264 272.41 153.187C273.197 151.604 274.098 150.081 275.106 148.629C276.215 146.97 277.497 145.197 278.725 143.263C280.396 140.63 281.641 137.951 282.11 135.535C282.28 133.127 282.419 131.112 282.534 129.665C282.589 128.979 282.635 128.433 282.669 128.023C282.669 127.854 282.699 127.71 282.711 127.6C282.697 127.554 282.689 127.507 282.686 127.46V127.46Z" fill="#263238"/>
<path d="M279.025 142.89C279.025 142.89 281.628 136.626 278.357 132.517C278.331 132.484 278.297 132.459 278.258 132.444C278.219 132.429 278.177 132.426 278.136 132.434C278.095 132.442 278.058 132.461 278.027 132.489C277.996 132.517 277.974 132.553 277.963 132.593C277.671 133.643 277.133 136.863 279.025 142.89Z" fill="#3A7792"/>
<path d="M278.551 134.705C278.663 135.091 278.733 135.489 278.759 135.89C278.852 136.626 278.953 137.646 279.034 138.776C279.114 139.906 279.152 140.931 279.152 141.675C279.178 142.077 279.153 142.481 279.08 142.877C279.007 142.482 278.972 142.081 278.974 141.68C278.919 140.833 278.852 139.872 278.78 138.793C278.708 137.714 278.64 136.736 278.581 135.907C278.532 135.508 278.522 135.106 278.551 134.705V134.705Z" fill="#263238"/>
<g opacity="0.3">
<path d="M279.025 142.891C279.025 142.891 281.628 136.627 278.357 132.518C278.331 132.485 278.297 132.46 278.258 132.445C278.219 132.43 278.177 132.427 278.136 132.435C278.095 132.443 278.058 132.462 278.027 132.49C277.996 132.518 277.974 132.554 277.963 132.594C277.671 133.644 277.133 136.864 279.025 142.891Z" fill="black"/>
</g>
<path d="M270.963 157.995C270.963 157.995 273.049 151.536 269.452 147.711C269.424 147.68 269.389 147.658 269.349 147.646C269.309 147.635 269.267 147.635 269.227 147.646C269.187 147.657 269.151 147.678 269.123 147.709C269.095 147.739 269.075 147.776 269.067 147.816C268.864 148.883 268.589 152.142 270.963 157.995Z" fill="#3A7792"/>
<path d="M269.825 149.86C269.971 150.237 270.074 150.629 270.129 151.028C270.282 151.752 270.464 152.764 270.637 153.881C270.811 154.998 270.929 156.018 270.993 156.759C271.048 157.158 271.055 157.563 271.014 157.965C270.913 157.576 270.845 157.18 270.811 156.78C270.688 155.955 270.544 154.99 270.388 153.919C270.231 152.848 270.079 151.883 269.964 151.058C269.879 150.664 269.832 150.263 269.825 149.86Z" fill="#263238"/>
<g opacity="0.3">
<path d="M270.963 157.996C270.963 157.996 273.05 151.537 269.452 147.712C269.424 147.681 269.389 147.659 269.349 147.647C269.309 147.636 269.267 147.636 269.227 147.647C269.188 147.658 269.152 147.679 269.123 147.709C269.095 147.74 269.076 147.777 269.067 147.817C268.864 148.884 268.589 152.143 270.963 157.996Z" fill="black"/>
</g>
<path d="M282.343 135.235C282.343 135.235 287.9 131.341 287.341 126.119C287.337 126.078 287.321 126.039 287.296 126.006C287.271 125.973 287.238 125.948 287.199 125.933C287.161 125.918 287.119 125.914 287.078 125.922C287.038 125.929 287 125.947 286.969 125.975C286.161 126.703 283.994 129.124 282.343 135.235Z" fill="#3A7792"/>
<g opacity="0.3">
<path d="M282.343 135.234C282.343 135.234 287.9 131.34 287.341 126.118C287.337 126.077 287.322 126.038 287.296 126.005C287.271 125.972 287.238 125.947 287.199 125.932C287.161 125.917 287.119 125.913 287.078 125.921C287.038 125.928 287 125.946 286.969 125.974C286.161 126.702 283.994 129.123 282.343 135.234Z" fill="black"/>
</g>
<path d="M286.334 128.069C286.224 128.457 286.069 128.83 285.873 129.182C285.555 129.851 285.094 130.765 284.557 131.764C284.019 132.763 283.503 133.647 283.105 134.274C282.909 134.625 282.672 134.952 282.398 135.247C282.547 134.875 282.731 134.517 282.948 134.18C283.346 133.448 283.816 132.593 284.332 131.641L285.712 129.102C285.885 128.738 286.094 128.392 286.334 128.069Z" fill="#263238"/>
<path d="M273.206 151.591C273.206 151.591 279.91 150.546 281.704 145.611C281.719 145.573 281.722 145.531 281.715 145.49C281.707 145.45 281.689 145.412 281.661 145.382C281.634 145.351 281.598 145.329 281.559 145.317C281.519 145.305 281.477 145.305 281.438 145.315C280.392 145.628 277.362 146.834 273.206 151.591Z" fill="#3A7792"/>
<g opacity="0.3">
<path d="M273.206 151.592C273.206 151.592 279.91 150.547 281.704 145.612C281.719 145.574 281.722 145.532 281.715 145.491C281.707 145.451 281.689 145.413 281.661 145.383C281.634 145.352 281.598 145.33 281.559 145.318C281.519 145.306 281.477 145.305 281.438 145.316C280.392 145.629 277.362 146.835 273.206 151.592Z" fill="black"/>
</g>
<path d="M279.944 146.92C279.672 147.216 279.368 147.482 279.038 147.711C278.458 148.177 277.641 148.795 276.723 149.455C275.805 150.115 274.946 150.678 274.311 151.067C273.98 151.298 273.622 151.487 273.244 151.63C273.545 151.363 273.869 151.123 274.213 150.915L276.575 149.248L278.932 147.555C279.246 147.308 279.585 147.095 279.944 146.92V146.92Z" fill="#263238"/>
<path d="M266.807 163.933L264.852 177.094H277.04L275.462 163.933H266.807Z" fill="#455A64"/>
<path d="M275.953 168.007C275.953 168.079 273.752 168.134 271.039 168.134C268.327 168.134 266.122 168.079 266.122 168.007C267.758 167.882 269.399 167.839 271.039 167.88C272.678 167.839 274.318 167.882 275.953 168.007V168.007Z" fill="#263238"/>
<path d="M276.19 169.057C276.19 169.129 273.917 169.184 271.111 169.184C268.305 169.184 266.033 169.129 266.033 169.057C266.033 168.985 268.305 168.93 271.111 168.93C273.917 168.93 276.19 168.985 276.19 169.057Z" fill="#263238"/>
<path d="M228.795 36.2452C228.795 36.2452 228.68 36.2452 228.46 36.2452C228.139 36.2261 227.817 36.2261 227.495 36.2452C226.252 36.318 225.031 36.6043 223.885 37.0916C222.069 37.8529 220.488 39.0844 219.306 40.6593C218.577 41.6427 218.035 42.7515 217.706 43.9307C216.966 46.7396 217.366 49.7275 218.819 52.2426C219.216 52.9389 219.699 53.5817 220.258 54.1555C220.822 54.7633 221.48 55.2776 222.205 55.679C222.95 56.098 223.793 56.3099 224.647 56.2927C225.528 56.2821 226.372 55.9407 227.013 55.3362C227.322 55.0118 227.565 54.6295 227.727 54.2112C227.889 53.793 227.967 53.3469 227.957 52.8985C227.95 51.9669 227.654 51.0604 227.11 50.3042C226.014 48.7595 224.237 47.7227 222.345 47.164C220.383 46.6131 218.312 46.5839 216.335 47.0794C215.326 47.3418 214.354 47.7285 213.44 48.2305C212.518 48.751 211.68 49.4089 210.956 50.1815C210.783 50.3804 210.584 50.5624 210.427 50.7825L209.949 51.4258C209.658 51.8791 209.398 52.3513 209.17 52.8393C208.718 53.8301 208.408 54.8803 208.252 55.9583C207.945 58.112 208.238 60.3086 209.098 62.3065C209.921 64.2587 211.354 65.8919 213.182 66.9618C214.069 67.4683 215.058 67.7678 216.077 67.8379C217.076 67.8937 218.069 67.6554 218.934 67.1523C219.792 66.6779 220.47 65.9343 220.864 65.0362C221.235 64.151 221.26 63.1589 220.935 62.2557C220.601 61.3843 220.054 60.6104 219.344 60.0042C218.656 59.4093 217.862 58.9485 217.004 58.6457C215.33 58.1181 213.54 58.0872 211.849 58.5569C210.267 58.9855 208.814 59.7948 207.617 60.9141C206.527 61.9588 205.696 63.2445 205.192 64.668C204.31 67.138 204.351 69.8434 205.306 72.2858C206.051 74.1092 207.25 75.7117 208.789 76.9411C209.759 77.7186 210.839 78.3476 211.993 78.8075C212.391 78.9556 212.7 79.0656 212.911 79.1249L213.225 79.2264C213.225 79.2264 213.115 79.2053 212.903 79.146C212.59 79.0623 212.282 78.962 211.98 78.8456C210.811 78.406 209.717 77.7863 208.739 77.0088C207.174 75.7803 205.951 74.1699 205.188 72.3323C204.216 69.8668 204.166 67.1333 205.048 64.6342C205.553 63.189 206.393 61.8838 207.499 60.8253C208.713 59.6835 210.187 58.8554 211.794 58.413C213.52 57.9314 215.349 57.9608 217.059 58.4976C217.942 58.8057 218.759 59.2781 219.467 59.89C220.205 60.5159 220.772 61.318 221.117 62.2219C221.466 63.1654 221.45 64.2047 221.075 65.1378C220.658 66.0713 219.95 66.8447 219.056 67.3427C218.16 67.8652 217.13 68.1152 216.094 68.0622C215.05 67.9894 214.037 67.6796 213.131 67.1565C211.261 66.0717 209.793 64.4101 208.946 62.4208C208.067 60.3863 207.765 58.1488 208.074 55.9541C208.236 54.8543 208.552 53.7828 209.014 52.7716C209.246 52.2732 209.512 51.7911 209.809 51.3284L210.3 50.6724C210.457 50.4481 210.66 50.2492 210.838 50.0546C211.579 49.2673 212.435 48.5966 213.377 48.0655C214.312 47.5539 215.307 47.1614 216.339 46.8974C218.354 46.3927 220.465 46.4233 222.463 46.9863C224.393 47.5618 226.2 48.6156 227.339 50.2154C227.911 51.0031 228.222 51.9504 228.227 52.9239C228.248 53.882 227.887 54.8091 227.224 55.5013C226.547 56.1369 225.656 56.4949 224.727 56.5043C223.839 56.5245 222.961 56.3036 222.188 55.8652C221.445 55.4553 220.774 54.928 220.199 54.3036C219.633 53.717 219.142 53.0615 218.739 52.3526C217.259 49.7908 216.858 46.7464 217.622 43.8884C217.96 42.6955 218.516 41.5752 219.26 40.5831C220.464 38.9963 222.071 37.7613 223.915 37.007C225.07 36.5291 226.301 36.2597 227.55 36.2113C227.874 36.19 228.2 36.19 228.524 36.2113L228.795 36.2452Z" fill="#263238"/>
<path d="M242.925 78.5918H183.587V124.358H242.925V78.5918Z" fill="#3A7792"/>
<path d="M183.587 78.5918L194.548 88.8166H252.879L242.925 78.5918H183.587Z" fill="#3A7792"/>
<path d="M183.587 78.5912L242.942 78.4854H242.989L243.023 78.515L252.875 88.6339L252.977 88.7397L253.159 88.9259H252.896L194.565 88.8794H194.54L183.587 78.5912L194.591 88.7482H194.544L252.875 88.7059L252.799 88.8921L252.693 88.7863L242.845 78.6673L242.921 78.7012L183.587 78.5912Z" fill="#263238"/>
<path d="M201.413 99.6973C201.091 99.7089 200.787 99.8463 200.566 100.08C200.345 100.313 200.224 100.624 200.23 100.946C200.236 101.268 200.368 101.574 200.597 101.799C200.827 102.025 201.136 102.151 201.457 102.151C201.779 102.151 202.088 102.025 202.317 101.799C202.547 101.574 202.678 101.268 202.684 100.946C202.69 100.624 202.569 100.313 202.348 100.08C202.127 99.8463 201.823 99.7089 201.502 99.6973" fill="#263238"/>
<path d="M215.434 99.6973C215.114 99.7095 214.811 99.8468 214.591 100.08C214.371 100.313 214.251 100.622 214.257 100.943C214.264 101.263 214.395 101.568 214.624 101.792C214.852 102.017 215.16 102.143 215.48 102.143C215.801 102.143 216.108 102.017 216.337 101.792C216.566 101.568 216.697 101.263 216.703 100.943C216.709 100.622 216.589 100.313 216.369 100.08C216.15 99.8468 215.847 99.7095 215.527 99.6973" fill="#263238"/>
<path d="M215.514 110.65C215.269 109.715 214.872 108.827 214.338 108.022C213.743 107.161 212.98 106.429 212.095 105.872C211.026 105.163 209.78 104.769 208.498 104.733C207.217 104.698 205.951 105.024 204.845 105.673C203.932 106.183 203.13 106.871 202.488 107.696C201.909 108.472 201.464 109.339 201.172 110.261C201.175 110.192 201.186 110.124 201.205 110.058C201.246 109.867 201.298 109.679 201.362 109.495C201.594 108.815 201.932 108.176 202.365 107.603C203.003 106.739 203.815 106.018 204.748 105.487C205.882 104.81 207.185 104.47 208.506 104.506C209.826 104.541 211.109 104.952 212.205 105.69C213.106 106.269 213.875 107.03 214.465 107.925C214.867 108.522 215.171 109.179 215.366 109.871C215.418 110.059 215.459 110.25 215.489 110.443C215.503 110.511 215.512 110.58 215.514 110.65V110.65Z" fill="#263238"/>
<path opacity="0.5" d="M183.723 79.0957L194.218 92.4014H242.926V88.8168H194.548L183.723 79.0957Z" fill="black"/>
<path d="M231.224 124.256C231.164 124.256 231.114 116.295 231.114 106.481C231.114 96.6666 231.164 88.7061 231.224 88.7061C231.283 88.7061 231.338 96.6624 231.338 106.481C231.338 116.299 231.287 124.256 231.224 124.256Z" fill="#263238"/>
<path d="M240.543 113.879H235.312V119.791H240.543V113.879Z" fill="#F5F5F5"/>
<path d="M183.587 78.5918L171.407 88.8166H183.587V78.5918Z" fill="#3A7792"/>
<g opacity="0.4">
<path d="M183.587 78.5918L171.407 88.8166H183.587V78.5918Z" fill="black"/>
</g>
<path d="M244.678 124.357H176.452V176.979H244.678V124.357Z" fill="#3A7792"/>
<path opacity="0.3" d="M244.678 124.357H176.452V176.979H244.678V124.357Z" fill="black"/>
<path d="M227.584 176.608C227.525 176.608 227.474 164.881 227.474 150.415C227.474 135.95 227.525 124.219 227.584 124.219C227.643 124.219 227.694 135.946 227.694 150.415C227.694 164.885 227.643 176.608 227.584 176.608Z" fill="#263238"/>
<path d="M238.892 165.003H233.661V170.915H238.892V165.003Z" fill="#F5F5F5"/>
<path d="M205.014 124.497H197.265V135.725H205.014V124.497Z" fill="#263238"/>
<path d="M205.014 165.596H197.265V176.823H205.014V165.596Z" fill="#263238"/>
<path d="M244.085 124.357H243.907H243.395L241.427 124.379L234.178 124.412L210.271 124.467L186.355 124.438L179.11 124.404L177.142 124.383H176.625H176.452H176.625H177.142L179.11 124.362L186.355 124.328L210.271 124.294L234.178 124.328L241.427 124.362L243.395 124.383H243.907L244.085 124.357Z" fill="#263238"/>
<path d="M125.387 39.9596C125.387 39.9596 125.352 39.8347 125.292 39.5934C125.232 39.3521 125.146 38.9903 125.029 38.5293C124.805 37.5901 124.469 36.2115 124.034 34.4193L124.107 34.4451C124.103 34.4498 124.097 34.4535 124.092 34.4561C124.086 34.4587 124.079 34.46 124.073 34.46C124.066 34.46 124.06 34.4587 124.054 34.4561C124.048 34.4535 124.043 34.4498 124.038 34.4451C124.032 34.4363 124.029 34.4258 124.029 34.415C124.029 34.4041 124.032 34.3936 124.038 34.3848C125.816 32.0736 126.988 29.3545 127.446 26.4749C127.589 25.5802 127.661 24.6755 127.661 23.7694C127.65 22.7965 127.565 21.8258 127.407 20.8657C126.823 17.3973 125.207 14.1856 122.77 11.6494C120.333 9.11332 117.188 7.37059 113.746 6.64862C111.111 6.12818 108.391 6.21215 105.793 6.89419C103.053 7.59355 100.534 8.97313 98.4691 10.9051C97.9486 11.3768 97.4593 11.882 97.0044 12.4173C96.7709 12.6765 96.5536 12.9499 96.3538 13.2359C96.1513 13.5202 95.923 13.7873 95.7421 14.0975L95.2035 14.9807L94.9364 15.4115L94.7124 15.8768C94.5616 16.1827 94.4151 16.4929 94.2816 16.7987C94.148 17.1046 94.0403 17.4363 93.9197 17.7508C93.1013 20.0043 92.7567 22.4024 92.9076 24.7951C93.0585 27.1878 93.7017 29.5237 94.7968 31.6564C95.8918 33.7892 97.4153 35.6729 99.2719 37.1899C101.128 38.7068 103.278 39.8243 105.586 40.4723L106.306 40.6575C106.538 40.7277 106.776 40.7795 107.017 40.8126L108.43 41.0324C109.329 41.109 110.233 41.1349 111.135 41.1099C114.057 40.9694 116.897 40.0969 119.394 38.5724C119.407 38.5681 119.42 38.5681 119.433 38.5724L123.866 39.5977L125.012 39.8691L125.408 39.9639L125.029 39.8864L123.888 39.6365L119.407 38.6628H119.441C116.935 40.2107 114.078 41.0999 111.135 41.2478C110.226 41.2757 109.315 41.2527 108.408 41.1788L106.982 40.9634C106.739 40.9303 106.498 40.8785 106.263 40.8083L105.539 40.6231C103.197 39.9822 101.013 38.8623 99.1254 37.3341C97.2382 35.8059 95.6886 33.9027 94.5746 31.7448C93.4607 29.587 92.8066 27.2215 92.6538 24.7979C92.5011 22.3743 92.8529 19.9453 93.687 17.6647C93.812 17.3416 93.9111 17.0098 94.0576 16.6996L94.4884 15.7605L94.7124 15.2909L94.9838 14.86L95.531 13.9639C95.7205 13.6667 95.9618 13.3953 96.1513 13.1023C96.3536 12.8129 96.5722 12.5353 96.8062 12.2708C97.2672 11.7287 97.7637 11.2177 98.2925 10.7414C100.377 8.7842 102.923 7.38659 105.694 6.67878C108.331 5.98963 111.09 5.90715 113.763 6.43752C116.178 6.94837 118.46 7.95747 120.463 9.40031C122.466 10.8432 124.146 12.688 125.395 14.817C126.479 16.6777 127.209 18.7225 127.549 20.8484C127.704 21.8175 127.786 22.7967 127.795 23.778C127.776 27.6486 126.473 31.4034 124.09 34.4537L124.021 34.3848C124.025 34.3802 124.03 34.3765 124.036 34.374C124.041 34.3715 124.047 34.3702 124.053 34.3702C124.059 34.3702 124.066 34.3715 124.071 34.374C124.077 34.3765 124.082 34.3802 124.086 34.3848V34.3848C124.495 36.1985 124.814 37.5901 125.029 38.5422C125.137 39.0032 125.214 39.3522 125.27 39.5977C125.326 39.8433 125.387 39.9596 125.387 39.9596Z" fill="#263238"/>
<path d="M125.387 39.9595L119.398 38.6153C115.672 40.9095 111.222 41.7269 106.923 40.9068C102.625 40.0867 98.7881 37.6884 96.1679 34.1834C93.5476 30.6784 92.3331 26.3201 92.7631 21.9651C93.193 17.6101 95.2363 13.5734 98.4913 10.6483C101.746 7.72332 105.978 6.12154 110.354 6.15783C114.73 6.19412 118.934 7.86585 122.14 10.8444C125.346 13.823 127.322 17.8931 127.68 22.2546C128.037 26.6161 126.751 30.9537 124.073 34.4148L125.387 39.9595Z" fill="#F6F7F7"/>
<path d="M101.705 23.3173L108.494 24.9463L117.017 24.0785L109.272 22.7207L101.705 23.3173Z" fill="#B0D0E1"/>
<path opacity="0.3" d="M101.705 23.3173L108.494 24.9463L117.017 24.0785L109.272 22.7207L101.705 23.3173Z" fill="black"/>
<path d="M102.736 32.6114L101.705 23.3174L108.494 24.9464V34.6261L102.736 32.6114Z" fill="#B0D0E1"/>
<path opacity="0.1" d="M102.736 32.6114L101.705 23.3174L108.494 24.9464V34.6261L102.736 32.6114Z" fill="black"/>
<path d="M104.6 33.264L106.243 33.8385L105.672 24.2693L103.798 23.8193L104.6 33.264Z" fill="#37474F"/>
<path d="M108.495 24.9468V34.6265L115.868 33.3068L117.017 24.0791L108.495 24.9468Z" fill="#B0D0E1"/>
<path d="M111.413 34.104L113.279 33.7706L114.177 24.3701L111.879 24.6031L111.413 34.104Z" fill="#455A64"/>
<path d="M117.441 18.1609L110.148 19.5207L110.284 16.8754L117.762 15.8027L117.441 18.1609Z" fill="#B0D0E1"/>
<path opacity="0.2" d="M117.441 18.1609L110.148 19.5207L110.284 16.8754L117.762 15.8027L117.441 18.1609Z" fill="black"/>
<path d="M101.129 18.1293L100.96 15.6426L110.284 16.8759L110.148 19.5213L101.129 18.1293Z" fill="#B0D0E1"/>
<path opacity="0.1" d="M101.129 18.1293L100.96 15.6426L110.284 16.8759L110.148 19.5213L101.129 18.1293Z" fill="black"/>
<path d="M115.027 18.6109L112.861 19.0147L113.104 16.4697L115.314 16.1523L115.027 18.6109Z" fill="#37474F"/>
<path d="M106.906 19.0191L104.294 18.6173L104.168 16.0684L106.914 16.4299L106.906 19.0191Z" fill="#455A64"/>
<path d="M117.762 15.8029L110.284 16.8755L100.96 15.6422L109.306 15.0918L117.762 15.8029Z" fill="#B0D0E1"/>
<path d="M115.314 16.1524L106.624 15.2686L104.788 15.3911L113.104 16.4697L115.314 16.1524Z" fill="#455A64"/>
<path d="M106.914 16.4298L104.168 16.0682L112.146 15.3311L114.336 15.5159L106.914 16.4298Z" fill="#455A64"/>
<path d="M111.664 15.1606C111.664 15.1606 113.161 14.797 114.064 15.4699C114.968 16.1428 115.314 17.0387 115.633 17.2536C115.953 17.4685 117.077 17.4324 117.077 17.4324L116.073 19.4972C116.073 19.4972 115.42 19.6981 114.743 18.8485C114.066 17.9988 113.807 16.8257 113.104 16.2934C112.401 15.7612 111.383 15.6607 111.383 15.6607L111.664 15.1606Z" fill="#455A64"/>
<path d="M113.56 16.7911C113.753 16.3362 113.864 15.8506 113.888 15.3569V15.3569C112.978 14.8427 111.662 15.1561 111.662 15.1561L111.387 15.6562C111.387 15.6562 112.407 15.7587 113.108 16.2889C113.286 16.4294 113.439 16.5992 113.56 16.7911V16.7911Z" fill="#37474F"/>
<path d="M109.342 15.2815C109.342 15.2815 107.874 14.7371 106.801 15.2574C105.729 15.7776 105.172 16.5067 104.792 16.6634C104.413 16.8201 103.256 16.559 103.256 16.559L103.883 18.9071C103.883 18.9071 104.519 19.2485 105.393 18.5053C106.267 17.7621 106.771 16.5891 107.603 16.1773C108.434 15.7655 109.515 15.8519 109.515 15.8519L109.342 15.2815Z" fill="#455A64"/>
<path d="M106.189 17.6296C106.653 17.041 107.058 16.4425 107.609 16.1713C108.444 15.7696 109.521 15.8459 109.521 15.8459L109.34 15.2815C109.34 15.2815 107.872 14.7371 106.799 15.2574C106.584 15.3606 106.377 15.4787 106.179 15.6109C106.067 16.2795 106.071 16.9621 106.189 17.6296V17.6296Z" fill="#37474F"/>
<path d="M106.189 17.6279C106.057 17.8593 105.897 18.0726 105.711 18.2627C105.618 18.359 105.519 18.4483 105.413 18.5298C105.308 18.6114 105.192 18.6789 105.07 18.7307C105.476 18.3972 105.807 17.9955 106.189 17.6279Z" fill="#263238"/>
<path d="M105.737 15.9326C105.628 16.0351 105.526 16.1435 105.415 16.248C105.308 16.3539 105.195 16.4531 105.076 16.5453C105.012 16.5935 104.945 16.6365 104.875 16.6738C104.804 16.7122 104.726 16.7348 104.646 16.7401C104.494 16.7551 104.34 16.7435 104.192 16.7059C104.34 16.7053 104.488 16.6912 104.634 16.6638C104.773 16.6297 104.902 16.5606 105.007 16.4629L105.365 16.1897C105.482 16.0941 105.606 16.0081 105.737 15.9326V15.9326Z" fill="#263238"/>
<path d="M106.731 15.2766C106.769 15.6402 108.494 16.058 109.611 15.6382C109.611 15.6382 108.76 14.8347 107.914 14.8046C107.068 14.7745 106.719 15.1179 106.731 15.2766Z" fill="#263238"/>
<path d="M109.615 15.6385V15.3171C108.952 14.0637 107.753 13.5254 107.661 13.5254C107.568 13.5254 107.084 13.9271 106.877 14.3289C106.746 14.627 106.696 14.9552 106.735 15.2789C106.749 15.1604 107.088 14.8471 107.739 14.8772C108.39 14.9073 109.469 15.4678 109.615 15.6385Z" fill="#455A64"/>
<path d="M109.615 15.513V15.3704C109.471 15.14 109.281 14.9417 109.057 14.7879C109.165 14.9044 109.268 15.0229 109.366 15.1455C109.094 14.9396 108.801 14.7626 108.492 14.6172C108.48 14.6172 108.468 14.6312 108.482 14.6373C108.892 14.8853 109.272 15.1791 109.615 15.513V15.513Z" fill="#263238"/>
<path d="M107.46 18.009C107.824 18.2379 109.165 17.1171 109.589 15.7773C109.589 15.7773 108.531 15.7974 107.878 16.5527C107.225 17.3079 107.301 17.9085 107.46 18.009Z" fill="#263238"/>
<path d="M109.589 15.7872V15.3634C107.944 15.0621 106.576 15.7812 106.504 15.8675C106.432 15.9539 106.452 16.6931 106.675 17.1772C106.898 17.6613 107.548 18.1032 107.45 18.0027C107.352 17.9023 107.309 17.36 107.81 16.7754C108.292 16.2775 108.911 15.9336 109.589 15.7872V15.7872Z" fill="#455A64"/>
<path d="M109.591 15.6219V15.5215C109.068 15.5377 108.554 15.6709 108.089 15.9112C108.075 15.9112 108.089 15.9413 108.099 15.9353C108.363 15.8301 108.637 15.7494 108.916 15.6942C109.139 15.6543 109.365 15.6301 109.591 15.6219V15.6219Z" fill="#263238"/>
<path d="M106.912 17.5228C106.828 17.4751 106.759 17.4057 106.711 17.3219C106.686 17.2822 106.666 17.2397 106.651 17.1953C106.636 17.1493 106.631 17.1009 106.634 17.0527C106.694 17.12 106.747 17.1919 106.795 17.2677C106.845 17.3471 106.885 17.4329 106.912 17.5228V17.5228Z" fill="#263238"/>
<path d="M113.159 15.3158C113.116 15.6794 111.385 16.0771 110.274 15.6432C110.274 15.6432 111.136 14.8578 111.984 14.8297C112.831 14.8016 113.171 15.1591 113.159 15.3158Z" fill="#263238"/>
<path d="M113.022 14.365C112.821 13.9633 112.339 13.5615 112.247 13.5615C112.154 13.5615 110.949 14.0838 110.272 15.3291V15.6505C110.421 15.4818 111.503 14.9234 112.156 14.9053C112.809 14.8872 113.145 15.2046 113.161 15.3231C113.202 14.9971 113.154 14.6658 113.022 14.365V14.365Z" fill="#455A64"/>
<path d="M111.465 14.441C111.159 14.5917 110.878 14.7873 110.63 15.0215C110.504 15.1377 110.384 15.2611 110.272 15.3911V15.5618C110.394 15.3983 110.528 15.2445 110.674 15.1018C110.924 14.8669 111.197 14.6582 111.489 14.4792C111.494 14.476 111.498 14.4709 111.499 14.465C111.501 14.4592 111.5 14.4531 111.496 14.448C111.493 14.443 111.488 14.4394 111.482 14.4381C111.476 14.4367 111.47 14.4378 111.465 14.441Z" fill="#263238"/>
<path d="M112.399 18.034C112.032 18.261 110.702 17.1261 110.292 15.7803C110.292 15.7803 111.351 15.8124 111.996 16.5837C112.64 17.3551 112.556 17.9356 112.399 18.034Z" fill="#263238"/>
<path d="M113.376 15.8999C113.309 15.8135 111.943 15.0763 110.294 15.3576V15.7874C110.969 15.9411 111.584 16.2904 112.062 16.7917C112.554 17.3843 112.504 17.9266 112.405 18.025C112.307 18.1235 112.962 17.6916 113.191 17.2095C113.42 16.7275 113.44 15.9883 113.376 15.8999Z" fill="#455A64"/>
<path d="M111.953 16.2093C111.747 15.9752 111.478 15.8046 111.178 15.7172C110.959 15.6425 110.734 15.588 110.505 15.5545C110.647 15.5464 110.789 15.5464 110.931 15.5545C111.185 15.5834 111.436 15.64 111.678 15.7232C111.694 15.7232 111.7 15.7031 111.688 15.6951C111.315 15.456 110.754 15.4339 110.304 15.4942V15.6308C110.554 15.6576 110.801 15.7033 111.043 15.7674C111.375 15.8403 111.683 15.9981 111.935 16.2253C111.935 16.2253 111.953 16.2193 111.953 16.2093Z" fill="#263238"/>
<path d="M110.505 15.4222C110.505 15.3358 110.477 15.0205 110.358 14.9702C110.24 14.92 110.031 14.9923 109.977 14.9923C109.923 14.9923 109.716 14.916 109.597 14.9642C109.479 15.0124 109.449 15.3298 109.445 15.4162C109.441 15.5025 109.445 15.838 109.557 15.8761C109.696 15.8889 109.837 15.8787 109.973 15.846C110.108 15.8801 110.248 15.8923 110.387 15.8822C110.497 15.844 110.505 15.5086 110.505 15.4222Z" fill="#455A64"/>
<path d="M117.525 21.6503L121.193 20.9111L121.219 21.8431L117.525 21.6503Z" fill="#B0D0E1"/>
<path d="M117.248 20.1996L118.783 18.4541L119.235 18.9603L117.248 20.1996Z" fill="#B0D0E1"/>
<path d="M117.174 21.9854L119.235 23.0017L118.925 23.6284L117.174 21.9854Z" fill="#B0D0E1"/>
<path d="M101.197 20.4351L97.5293 21.1722L97.5032 20.2402L101.197 20.4351Z" fill="#B0D0E1"/>
<path d="M101.474 21.8828L99.9396 23.6283L99.4877 23.1221L101.474 21.8828Z" fill="#B0D0E1"/>
<path d="M101.549 20.0992L99.4877 19.0808L99.795 18.4541L101.549 20.0992Z" fill="#B0D0E1"/>
</svg>
