<svg width="16" height="16" viewBox="0 0 16 16" fill="none" xmlns="http://www.w3.org/2000/svg">
<g clip-path="url(#clip0_2293_3637)">
<circle cx="8" cy="8" r="7.5" fill="#66AACB" stroke="white"/>
<path d="M11.3723 7.47728L11.2651 7.61892L11.3161 7.78906C11.341 7.8721 11.3543 7.96103 11.3561 8.05354C11.3555 8.25191 11.2901 8.44248 11.1721 8.59837L11.0649 8.74001L11.1159 8.91015C11.1412 8.99426 11.1539 9.08145 11.1539 9.17091C11.1539 9.37026 11.0884 9.56188 10.9699 9.71849L10.8627 9.86013L10.9138 10.0303C10.939 10.1144 10.9518 10.2016 10.9518 10.291C10.9518 10.6546 10.7358 10.982 10.3998 11.1253L10.3998 11.1253L10.3978 11.1262C10.3627 11.1414 10.3224 11.15 10.2783 11.15H6.01602V7.37837L6.84518 4.37639L6.84525 4.37616C6.93812 4.039 7.24904 3.80216 7.59961 3.80216L7.60091 3.80215C7.69542 3.8018 7.789 3.82084 7.87586 3.85808C7.96273 3.89532 8.04103 3.94998 8.10593 4.01868L8.10645 4.01923C8.23994 4.15992 8.30795 4.34223 8.29884 4.53696C8.29883 4.53706 8.29883 4.53715 8.29883 4.53724L8.24026 5.73685L8.22234 6.10391H8.58984L10.9316 6.10391L10.932 6.10391C10.9873 6.10386 11.0417 6.11861 11.0895 6.14662C11.3829 6.31875 11.5563 6.62219 11.5563 6.92969C11.5563 7.12905 11.4908 7.32067 11.3723 7.47728ZM4.69102 11.15H4.44375V7.67032H4.69102V11.15Z" fill="#F2F8FA" stroke="#2485B4" stroke-width="0.7"/>
</g>
<defs>
<clipPath id="clip0_2293_3637">
<rect width="16" height="16" fill="white"/>
</clipPath>
</defs>
</svg>
